%TF.GenerationSoftware,KiCad,Pcbnew,7.0.5*%
%TF.CreationDate,2023-06-01T08:30:42+02:00*%
%TF.ProjectId,smart_power_socket-54x54x1_6mm_3Cu,736d6172-745f-4706-9f77-65725f736f63,rev?*%
%TF.SameCoordinates,Original*%
%TF.FileFunction,Legend,Bot*%
%TF.FilePolarity,Positive*%
%FSLAX46Y46*%
G04 Gerber Fmt 4.6, Leading zero omitted, Abs format (unit mm)*
G04 Created by KiCad (PCBNEW 7.0.5) date 2023-06-01 08:30:42*
%MOMM*%
%LPD*%
G01*
G04 APERTURE LIST*
G04 Aperture macros list*
%AMRoundRect*
0 Rectangle with rounded corners*
0 $1 Rounding radius*
0 $2 $3 $4 $5 $6 $7 $8 $9 X,Y pos of 4 corners*
0 Add a 4 corners polygon primitive as box body*
4,1,4,$2,$3,$4,$5,$6,$7,$8,$9,$2,$3,0*
0 Add four circle primitives for the rounded corners*
1,1,$1+$1,$2,$3*
1,1,$1+$1,$4,$5*
1,1,$1+$1,$6,$7*
1,1,$1+$1,$8,$9*
0 Add four rect primitives between the rounded corners*
20,1,$1+$1,$2,$3,$4,$5,0*
20,1,$1+$1,$4,$5,$6,$7,0*
20,1,$1+$1,$6,$7,$8,$9,0*
20,1,$1+$1,$8,$9,$2,$3,0*%
G04 Aperture macros list end*
%ADD10C,0.300000*%
%ADD11C,0.150000*%
%ADD12C,0.250000*%
%ADD13C,0.200000*%
%ADD14C,0.500000*%
%ADD15C,0.350000*%
%ADD16C,0.120000*%
%ADD17C,0.127000*%
%ADD18C,0.381000*%
%ADD19C,0.010000*%
%ADD20C,0.254000*%
%ADD21C,0.508000*%
%ADD22C,1.270000*%
%ADD23R,4.500000X0.300000*%
%ADD24RoundRect,0.225000X-0.225000X-0.250000X0.225000X-0.250000X0.225000X0.250000X-0.225000X0.250000X0*%
%ADD25R,1.400000X2.100000*%
%ADD26R,5.700000X0.800000*%
%ADD27RoundRect,0.218750X-0.218750X-0.381250X0.218750X-0.381250X0.218750X0.381250X-0.218750X0.381250X0*%
%ADD28RoundRect,0.150000X-0.625000X0.150000X-0.625000X-0.150000X0.625000X-0.150000X0.625000X0.150000X0*%
%ADD29RoundRect,0.250000X-0.650000X0.350000X-0.650000X-0.350000X0.650000X-0.350000X0.650000X0.350000X0*%
%ADD30RoundRect,0.200000X-0.275000X0.200000X-0.275000X-0.200000X0.275000X-0.200000X0.275000X0.200000X0*%
%ADD31C,1.600000*%
%ADD32C,3.000000*%
%ADD33C,2.500000*%
%ADD34RoundRect,0.200000X-0.200000X-0.600000X0.200000X-0.600000X0.200000X0.600000X-0.200000X0.600000X0*%
%ADD35RoundRect,0.037100X0.227900X-0.317900X0.227900X0.317900X-0.227900X0.317900X-0.227900X-0.317900X0*%
%ADD36C,2.010000*%
%ADD37RoundRect,0.124800X0.475200X0.275200X-0.475200X0.275200X-0.475200X-0.275200X0.475200X-0.275200X0*%
%ADD38R,2.340000X2.340000*%
%ADD39C,2.340000*%
%ADD40R,2.000000X2.000000*%
%ADD41C,2.000000*%
%ADD42R,2.300000X2.000000*%
%ADD43C,2.300000*%
%ADD44R,2.100000X2.100000*%
%ADD45C,2.100000*%
%ADD46RoundRect,0.225000X0.250000X-0.225000X0.250000X0.225000X-0.250000X0.225000X-0.250000X-0.225000X0*%
%TA.AperFunction,Profile*%
%ADD47C,0.100000*%
%TD*%
G04 APERTURE END LIST*
D10*
X141790950Y-122470000D02*
G75*
G03*
X141790950Y-122470000I-210950J0D01*
G01*
D11*
X130760000Y-100130000D02*
X129490000Y-100140000D01*
X130100000Y-99190000D01*
X130760000Y-100130000D01*
G36*
X130760000Y-100130000D02*
G01*
X129490000Y-100140000D01*
X130100000Y-99190000D01*
X130760000Y-100130000D01*
G37*
X135480000Y-100190000D02*
X134210000Y-100200000D01*
X134820000Y-99250000D01*
X135480000Y-100190000D01*
G36*
X135480000Y-100190000D02*
G01*
X134210000Y-100200000D01*
X134820000Y-99250000D01*
X135480000Y-100190000D01*
G37*
D10*
X120224253Y-116595747D02*
G75*
G03*
X120224253Y-116595747I-284253J0D01*
G01*
D11*
X124360000Y-100070000D02*
X123090000Y-100080000D01*
X123700000Y-99130000D01*
X124360000Y-100070000D01*
G36*
X124360000Y-100070000D02*
G01*
X123090000Y-100080000D01*
X123700000Y-99130000D01*
X124360000Y-100070000D01*
G37*
X146310000Y-99880000D02*
X145040000Y-99890000D01*
X145650000Y-98940000D01*
X146310000Y-99880000D01*
G36*
X146310000Y-99880000D02*
G01*
X145040000Y-99890000D01*
X145650000Y-98940000D01*
X146310000Y-99880000D01*
G37*
D10*
X115897321Y-109850000D02*
G75*
G03*
X115897321Y-109850000I-297321J0D01*
G01*
D11*
X141270000Y-99990000D02*
X140000000Y-100000000D01*
X140610000Y-99050000D01*
X141270000Y-99990000D01*
G36*
X141270000Y-99990000D02*
G01*
X140000000Y-100000000D01*
X140610000Y-99050000D01*
X141270000Y-99990000D01*
G37*
X119150000Y-100170000D02*
X117880000Y-100180000D01*
X118490000Y-99230000D01*
X119150000Y-100170000D01*
G36*
X119150000Y-100170000D02*
G01*
X117880000Y-100180000D01*
X118490000Y-99230000D01*
X119150000Y-100170000D01*
G37*
X150314819Y-120111905D02*
X150314819Y-120730952D01*
X150314819Y-120730952D02*
X150695771Y-120397619D01*
X150695771Y-120397619D02*
X150695771Y-120540476D01*
X150695771Y-120540476D02*
X150743390Y-120635714D01*
X150743390Y-120635714D02*
X150791009Y-120683333D01*
X150791009Y-120683333D02*
X150886247Y-120730952D01*
X150886247Y-120730952D02*
X151124342Y-120730952D01*
X151124342Y-120730952D02*
X151219580Y-120683333D01*
X151219580Y-120683333D02*
X151267200Y-120635714D01*
X151267200Y-120635714D02*
X151314819Y-120540476D01*
X151314819Y-120540476D02*
X151314819Y-120254762D01*
X151314819Y-120254762D02*
X151267200Y-120159524D01*
X151267200Y-120159524D02*
X151219580Y-120111905D01*
X150314819Y-121016667D02*
X151314819Y-121350000D01*
X151314819Y-121350000D02*
X150314819Y-121683333D01*
X150314819Y-121921429D02*
X150314819Y-122540476D01*
X150314819Y-122540476D02*
X150695771Y-122207143D01*
X150695771Y-122207143D02*
X150695771Y-122350000D01*
X150695771Y-122350000D02*
X150743390Y-122445238D01*
X150743390Y-122445238D02*
X150791009Y-122492857D01*
X150791009Y-122492857D02*
X150886247Y-122540476D01*
X150886247Y-122540476D02*
X151124342Y-122540476D01*
X151124342Y-122540476D02*
X151219580Y-122492857D01*
X151219580Y-122492857D02*
X151267200Y-122445238D01*
X151267200Y-122445238D02*
X151314819Y-122350000D01*
X151314819Y-122350000D02*
X151314819Y-122064286D01*
X151314819Y-122064286D02*
X151267200Y-121969048D01*
X151267200Y-121969048D02*
X151219580Y-121921429D01*
X146226190Y-101414104D02*
X145750000Y-101414104D01*
X146321428Y-101699819D02*
X145988095Y-100699819D01*
X145988095Y-100699819D02*
X145654762Y-101699819D01*
X144750000Y-101604580D02*
X144797619Y-101652200D01*
X144797619Y-101652200D02*
X144940476Y-101699819D01*
X144940476Y-101699819D02*
X145035714Y-101699819D01*
X145035714Y-101699819D02*
X145178571Y-101652200D01*
X145178571Y-101652200D02*
X145273809Y-101556961D01*
X145273809Y-101556961D02*
X145321428Y-101461723D01*
X145321428Y-101461723D02*
X145369047Y-101271247D01*
X145369047Y-101271247D02*
X145369047Y-101128390D01*
X145369047Y-101128390D02*
X145321428Y-100937914D01*
X145321428Y-100937914D02*
X145273809Y-100842676D01*
X145273809Y-100842676D02*
X145178571Y-100747438D01*
X145178571Y-100747438D02*
X145035714Y-100699819D01*
X145035714Y-100699819D02*
X144940476Y-100699819D01*
X144940476Y-100699819D02*
X144797619Y-100747438D01*
X144797619Y-100747438D02*
X144750000Y-100795057D01*
X143607142Y-100795057D02*
X143559523Y-100747438D01*
X143559523Y-100747438D02*
X143464285Y-100699819D01*
X143464285Y-100699819D02*
X143226190Y-100699819D01*
X143226190Y-100699819D02*
X143130952Y-100747438D01*
X143130952Y-100747438D02*
X143083333Y-100795057D01*
X143083333Y-100795057D02*
X143035714Y-100890295D01*
X143035714Y-100890295D02*
X143035714Y-100985533D01*
X143035714Y-100985533D02*
X143083333Y-101128390D01*
X143083333Y-101128390D02*
X143654761Y-101699819D01*
X143654761Y-101699819D02*
X143035714Y-101699819D01*
X142654761Y-100795057D02*
X142607142Y-100747438D01*
X142607142Y-100747438D02*
X142511904Y-100699819D01*
X142511904Y-100699819D02*
X142273809Y-100699819D01*
X142273809Y-100699819D02*
X142178571Y-100747438D01*
X142178571Y-100747438D02*
X142130952Y-100795057D01*
X142130952Y-100795057D02*
X142083333Y-100890295D01*
X142083333Y-100890295D02*
X142083333Y-100985533D01*
X142083333Y-100985533D02*
X142130952Y-101128390D01*
X142130952Y-101128390D02*
X142702380Y-101699819D01*
X142702380Y-101699819D02*
X142083333Y-101699819D01*
X141464285Y-100699819D02*
X141369047Y-100699819D01*
X141369047Y-100699819D02*
X141273809Y-100747438D01*
X141273809Y-100747438D02*
X141226190Y-100795057D01*
X141226190Y-100795057D02*
X141178571Y-100890295D01*
X141178571Y-100890295D02*
X141130952Y-101080771D01*
X141130952Y-101080771D02*
X141130952Y-101318866D01*
X141130952Y-101318866D02*
X141178571Y-101509342D01*
X141178571Y-101509342D02*
X141226190Y-101604580D01*
X141226190Y-101604580D02*
X141273809Y-101652200D01*
X141273809Y-101652200D02*
X141369047Y-101699819D01*
X141369047Y-101699819D02*
X141464285Y-101699819D01*
X141464285Y-101699819D02*
X141559523Y-101652200D01*
X141559523Y-101652200D02*
X141607142Y-101604580D01*
X141607142Y-101604580D02*
X141654761Y-101509342D01*
X141654761Y-101509342D02*
X141702380Y-101318866D01*
X141702380Y-101318866D02*
X141702380Y-101080771D01*
X141702380Y-101080771D02*
X141654761Y-100890295D01*
X141654761Y-100890295D02*
X141607142Y-100795057D01*
X141607142Y-100795057D02*
X141559523Y-100747438D01*
X141559523Y-100747438D02*
X141464285Y-100699819D01*
X140845237Y-100699819D02*
X140511904Y-101699819D01*
X140511904Y-101699819D02*
X140178571Y-100699819D01*
X144154761Y-103309819D02*
X144630951Y-103309819D01*
X144630951Y-103309819D02*
X144630951Y-102309819D01*
X143821427Y-103309819D02*
X143821427Y-102309819D01*
X143345237Y-103309819D02*
X143345237Y-102309819D01*
X143345237Y-102309819D02*
X142773809Y-103309819D01*
X142773809Y-103309819D02*
X142773809Y-102309819D01*
X142297618Y-102786009D02*
X141964285Y-102786009D01*
X141821428Y-103309819D02*
X142297618Y-103309819D01*
X142297618Y-103309819D02*
X142297618Y-102309819D01*
X142297618Y-102309819D02*
X141821428Y-102309819D01*
D12*
X149229047Y-114300809D02*
X149562380Y-114300809D01*
X149562380Y-114824619D02*
X149562380Y-113824619D01*
X149562380Y-113824619D02*
X149086190Y-113824619D01*
X148514761Y-113824619D02*
X148324285Y-113824619D01*
X148324285Y-113824619D02*
X148229047Y-113872238D01*
X148229047Y-113872238D02*
X148133809Y-113967476D01*
X148133809Y-113967476D02*
X148086190Y-114157952D01*
X148086190Y-114157952D02*
X148086190Y-114491285D01*
X148086190Y-114491285D02*
X148133809Y-114681761D01*
X148133809Y-114681761D02*
X148229047Y-114777000D01*
X148229047Y-114777000D02*
X148324285Y-114824619D01*
X148324285Y-114824619D02*
X148514761Y-114824619D01*
X148514761Y-114824619D02*
X148609999Y-114777000D01*
X148609999Y-114777000D02*
X148705237Y-114681761D01*
X148705237Y-114681761D02*
X148752856Y-114491285D01*
X148752856Y-114491285D02*
X148752856Y-114157952D01*
X148752856Y-114157952D02*
X148705237Y-113967476D01*
X148705237Y-113967476D02*
X148609999Y-113872238D01*
X148609999Y-113872238D02*
X148514761Y-113824619D01*
X147086190Y-114824619D02*
X147419523Y-114348428D01*
X147657618Y-114824619D02*
X147657618Y-113824619D01*
X147657618Y-113824619D02*
X147276666Y-113824619D01*
X147276666Y-113824619D02*
X147181428Y-113872238D01*
X147181428Y-113872238D02*
X147133809Y-113919857D01*
X147133809Y-113919857D02*
X147086190Y-114015095D01*
X147086190Y-114015095D02*
X147086190Y-114157952D01*
X147086190Y-114157952D02*
X147133809Y-114253190D01*
X147133809Y-114253190D02*
X147181428Y-114300809D01*
X147181428Y-114300809D02*
X147276666Y-114348428D01*
X147276666Y-114348428D02*
X147657618Y-114348428D01*
X145895713Y-114824619D02*
X145895713Y-113824619D01*
X145895713Y-113824619D02*
X145514761Y-113824619D01*
X145514761Y-113824619D02*
X145419523Y-113872238D01*
X145419523Y-113872238D02*
X145371904Y-113919857D01*
X145371904Y-113919857D02*
X145324285Y-114015095D01*
X145324285Y-114015095D02*
X145324285Y-114157952D01*
X145324285Y-114157952D02*
X145371904Y-114253190D01*
X145371904Y-114253190D02*
X145419523Y-114300809D01*
X145419523Y-114300809D02*
X145514761Y-114348428D01*
X145514761Y-114348428D02*
X145895713Y-114348428D01*
X144705237Y-113824619D02*
X144514761Y-113824619D01*
X144514761Y-113824619D02*
X144419523Y-113872238D01*
X144419523Y-113872238D02*
X144324285Y-113967476D01*
X144324285Y-113967476D02*
X144276666Y-114157952D01*
X144276666Y-114157952D02*
X144276666Y-114491285D01*
X144276666Y-114491285D02*
X144324285Y-114681761D01*
X144324285Y-114681761D02*
X144419523Y-114777000D01*
X144419523Y-114777000D02*
X144514761Y-114824619D01*
X144514761Y-114824619D02*
X144705237Y-114824619D01*
X144705237Y-114824619D02*
X144800475Y-114777000D01*
X144800475Y-114777000D02*
X144895713Y-114681761D01*
X144895713Y-114681761D02*
X144943332Y-114491285D01*
X144943332Y-114491285D02*
X144943332Y-114157952D01*
X144943332Y-114157952D02*
X144895713Y-113967476D01*
X144895713Y-113967476D02*
X144800475Y-113872238D01*
X144800475Y-113872238D02*
X144705237Y-113824619D01*
X143943332Y-113824619D02*
X143705237Y-114824619D01*
X143705237Y-114824619D02*
X143514761Y-114110333D01*
X143514761Y-114110333D02*
X143324285Y-114824619D01*
X143324285Y-114824619D02*
X143086190Y-113824619D01*
X142705237Y-114300809D02*
X142371904Y-114300809D01*
X142229047Y-114824619D02*
X142705237Y-114824619D01*
X142705237Y-114824619D02*
X142705237Y-113824619D01*
X142705237Y-113824619D02*
X142229047Y-113824619D01*
X141229047Y-114824619D02*
X141562380Y-114348428D01*
X141800475Y-114824619D02*
X141800475Y-113824619D01*
X141800475Y-113824619D02*
X141419523Y-113824619D01*
X141419523Y-113824619D02*
X141324285Y-113872238D01*
X141324285Y-113872238D02*
X141276666Y-113919857D01*
X141276666Y-113919857D02*
X141229047Y-114015095D01*
X141229047Y-114015095D02*
X141229047Y-114157952D01*
X141229047Y-114157952D02*
X141276666Y-114253190D01*
X141276666Y-114253190D02*
X141324285Y-114300809D01*
X141324285Y-114300809D02*
X141419523Y-114348428D01*
X141419523Y-114348428D02*
X141800475Y-114348428D01*
X140038570Y-114824619D02*
X140038570Y-113824619D01*
X140038570Y-113824619D02*
X139657618Y-113824619D01*
X139657618Y-113824619D02*
X139562380Y-113872238D01*
X139562380Y-113872238D02*
X139514761Y-113919857D01*
X139514761Y-113919857D02*
X139467142Y-114015095D01*
X139467142Y-114015095D02*
X139467142Y-114157952D01*
X139467142Y-114157952D02*
X139514761Y-114253190D01*
X139514761Y-114253190D02*
X139562380Y-114300809D01*
X139562380Y-114300809D02*
X139657618Y-114348428D01*
X139657618Y-114348428D02*
X140038570Y-114348428D01*
X138562380Y-114824619D02*
X139038570Y-114824619D01*
X139038570Y-114824619D02*
X139038570Y-113824619D01*
X138229046Y-113824619D02*
X138229046Y-114634142D01*
X138229046Y-114634142D02*
X138181427Y-114729380D01*
X138181427Y-114729380D02*
X138133808Y-114777000D01*
X138133808Y-114777000D02*
X138038570Y-114824619D01*
X138038570Y-114824619D02*
X137848094Y-114824619D01*
X137848094Y-114824619D02*
X137752856Y-114777000D01*
X137752856Y-114777000D02*
X137705237Y-114729380D01*
X137705237Y-114729380D02*
X137657618Y-114634142D01*
X137657618Y-114634142D02*
X137657618Y-113824619D01*
X136657618Y-113872238D02*
X136752856Y-113824619D01*
X136752856Y-113824619D02*
X136895713Y-113824619D01*
X136895713Y-113824619D02*
X137038570Y-113872238D01*
X137038570Y-113872238D02*
X137133808Y-113967476D01*
X137133808Y-113967476D02*
X137181427Y-114062714D01*
X137181427Y-114062714D02*
X137229046Y-114253190D01*
X137229046Y-114253190D02*
X137229046Y-114396047D01*
X137229046Y-114396047D02*
X137181427Y-114586523D01*
X137181427Y-114586523D02*
X137133808Y-114681761D01*
X137133808Y-114681761D02*
X137038570Y-114777000D01*
X137038570Y-114777000D02*
X136895713Y-114824619D01*
X136895713Y-114824619D02*
X136800475Y-114824619D01*
X136800475Y-114824619D02*
X136657618Y-114777000D01*
X136657618Y-114777000D02*
X136609999Y-114729380D01*
X136609999Y-114729380D02*
X136609999Y-114396047D01*
X136609999Y-114396047D02*
X136800475Y-114396047D01*
X149467142Y-115434619D02*
X149276666Y-115434619D01*
X149276666Y-115434619D02*
X149181428Y-115482238D01*
X149181428Y-115482238D02*
X149086190Y-115577476D01*
X149086190Y-115577476D02*
X149038571Y-115767952D01*
X149038571Y-115767952D02*
X149038571Y-116101285D01*
X149038571Y-116101285D02*
X149086190Y-116291761D01*
X149086190Y-116291761D02*
X149181428Y-116387000D01*
X149181428Y-116387000D02*
X149276666Y-116434619D01*
X149276666Y-116434619D02*
X149467142Y-116434619D01*
X149467142Y-116434619D02*
X149562380Y-116387000D01*
X149562380Y-116387000D02*
X149657618Y-116291761D01*
X149657618Y-116291761D02*
X149705237Y-116101285D01*
X149705237Y-116101285D02*
X149705237Y-115767952D01*
X149705237Y-115767952D02*
X149657618Y-115577476D01*
X149657618Y-115577476D02*
X149562380Y-115482238D01*
X149562380Y-115482238D02*
X149467142Y-115434619D01*
X148609999Y-116434619D02*
X148609999Y-115434619D01*
X148609999Y-115434619D02*
X148038571Y-116434619D01*
X148038571Y-116434619D02*
X148038571Y-115434619D01*
X146086190Y-115387000D02*
X146943332Y-116672714D01*
X144800475Y-115434619D02*
X144609999Y-115434619D01*
X144609999Y-115434619D02*
X144514761Y-115482238D01*
X144514761Y-115482238D02*
X144419523Y-115577476D01*
X144419523Y-115577476D02*
X144371904Y-115767952D01*
X144371904Y-115767952D02*
X144371904Y-116101285D01*
X144371904Y-116101285D02*
X144419523Y-116291761D01*
X144419523Y-116291761D02*
X144514761Y-116387000D01*
X144514761Y-116387000D02*
X144609999Y-116434619D01*
X144609999Y-116434619D02*
X144800475Y-116434619D01*
X144800475Y-116434619D02*
X144895713Y-116387000D01*
X144895713Y-116387000D02*
X144990951Y-116291761D01*
X144990951Y-116291761D02*
X145038570Y-116101285D01*
X145038570Y-116101285D02*
X145038570Y-115767952D01*
X145038570Y-115767952D02*
X144990951Y-115577476D01*
X144990951Y-115577476D02*
X144895713Y-115482238D01*
X144895713Y-115482238D02*
X144800475Y-115434619D01*
X143609999Y-115910809D02*
X143943332Y-115910809D01*
X143943332Y-116434619D02*
X143943332Y-115434619D01*
X143943332Y-115434619D02*
X143467142Y-115434619D01*
X142752856Y-115910809D02*
X143086189Y-115910809D01*
X143086189Y-116434619D02*
X143086189Y-115434619D01*
X143086189Y-115434619D02*
X142609999Y-115434619D01*
X141514760Y-116387000D02*
X141371903Y-116434619D01*
X141371903Y-116434619D02*
X141133808Y-116434619D01*
X141133808Y-116434619D02*
X141038570Y-116387000D01*
X141038570Y-116387000D02*
X140990951Y-116339380D01*
X140990951Y-116339380D02*
X140943332Y-116244142D01*
X140943332Y-116244142D02*
X140943332Y-116148904D01*
X140943332Y-116148904D02*
X140990951Y-116053666D01*
X140990951Y-116053666D02*
X141038570Y-116006047D01*
X141038570Y-116006047D02*
X141133808Y-115958428D01*
X141133808Y-115958428D02*
X141324284Y-115910809D01*
X141324284Y-115910809D02*
X141419522Y-115863190D01*
X141419522Y-115863190D02*
X141467141Y-115815571D01*
X141467141Y-115815571D02*
X141514760Y-115720333D01*
X141514760Y-115720333D02*
X141514760Y-115625095D01*
X141514760Y-115625095D02*
X141467141Y-115529857D01*
X141467141Y-115529857D02*
X141419522Y-115482238D01*
X141419522Y-115482238D02*
X141324284Y-115434619D01*
X141324284Y-115434619D02*
X141086189Y-115434619D01*
X141086189Y-115434619D02*
X140943332Y-115482238D01*
X140609998Y-115434619D02*
X140371903Y-116434619D01*
X140371903Y-116434619D02*
X140181427Y-115720333D01*
X140181427Y-115720333D02*
X139990951Y-116434619D01*
X139990951Y-116434619D02*
X139752856Y-115434619D01*
X139371903Y-116434619D02*
X139371903Y-115434619D01*
X139038570Y-115434619D02*
X138467142Y-115434619D01*
X138752856Y-116434619D02*
X138752856Y-115434619D01*
X137562380Y-116339380D02*
X137609999Y-116387000D01*
X137609999Y-116387000D02*
X137752856Y-116434619D01*
X137752856Y-116434619D02*
X137848094Y-116434619D01*
X137848094Y-116434619D02*
X137990951Y-116387000D01*
X137990951Y-116387000D02*
X138086189Y-116291761D01*
X138086189Y-116291761D02*
X138133808Y-116196523D01*
X138133808Y-116196523D02*
X138181427Y-116006047D01*
X138181427Y-116006047D02*
X138181427Y-115863190D01*
X138181427Y-115863190D02*
X138133808Y-115672714D01*
X138133808Y-115672714D02*
X138086189Y-115577476D01*
X138086189Y-115577476D02*
X137990951Y-115482238D01*
X137990951Y-115482238D02*
X137848094Y-115434619D01*
X137848094Y-115434619D02*
X137752856Y-115434619D01*
X137752856Y-115434619D02*
X137609999Y-115482238D01*
X137609999Y-115482238D02*
X137562380Y-115529857D01*
X137133808Y-116434619D02*
X137133808Y-115434619D01*
X137133808Y-115910809D02*
X136562380Y-115910809D01*
X136562380Y-116434619D02*
X136562380Y-115434619D01*
D11*
X135286190Y-101869819D02*
X135286190Y-100869819D01*
X135286190Y-100869819D02*
X134714762Y-101869819D01*
X134714762Y-101869819D02*
X134714762Y-100869819D01*
X134238571Y-101346009D02*
X133905238Y-101346009D01*
X133762381Y-101869819D02*
X134238571Y-101869819D01*
X134238571Y-101869819D02*
X134238571Y-100869819D01*
X134238571Y-100869819D02*
X133762381Y-100869819D01*
X133333809Y-100869819D02*
X133333809Y-101679342D01*
X133333809Y-101679342D02*
X133286190Y-101774580D01*
X133286190Y-101774580D02*
X133238571Y-101822200D01*
X133238571Y-101822200D02*
X133143333Y-101869819D01*
X133143333Y-101869819D02*
X132952857Y-101869819D01*
X132952857Y-101869819D02*
X132857619Y-101822200D01*
X132857619Y-101822200D02*
X132810000Y-101774580D01*
X132810000Y-101774580D02*
X132762381Y-101679342D01*
X132762381Y-101679342D02*
X132762381Y-100869819D01*
X132429047Y-100869819D02*
X131857619Y-100869819D01*
X132143333Y-101869819D02*
X132143333Y-100869819D01*
X130952857Y-101869819D02*
X131286190Y-101393628D01*
X131524285Y-101869819D02*
X131524285Y-100869819D01*
X131524285Y-100869819D02*
X131143333Y-100869819D01*
X131143333Y-100869819D02*
X131048095Y-100917438D01*
X131048095Y-100917438D02*
X131000476Y-100965057D01*
X131000476Y-100965057D02*
X130952857Y-101060295D01*
X130952857Y-101060295D02*
X130952857Y-101203152D01*
X130952857Y-101203152D02*
X131000476Y-101298390D01*
X131000476Y-101298390D02*
X131048095Y-101346009D01*
X131048095Y-101346009D02*
X131143333Y-101393628D01*
X131143333Y-101393628D02*
X131524285Y-101393628D01*
X130571904Y-101584104D02*
X130095714Y-101584104D01*
X130667142Y-101869819D02*
X130333809Y-100869819D01*
X130333809Y-100869819D02*
X130000476Y-101869819D01*
X129190952Y-101869819D02*
X129667142Y-101869819D01*
X129667142Y-101869819D02*
X129667142Y-100869819D01*
X132833808Y-103479819D02*
X132833808Y-102479819D01*
X132357618Y-103479819D02*
X132357618Y-102479819D01*
X132357618Y-102479819D02*
X131786190Y-103479819D01*
X131786190Y-103479819D02*
X131786190Y-102479819D01*
X127839160Y-101999819D02*
X127839160Y-100999819D01*
X127839160Y-100999819D02*
X127267732Y-101999819D01*
X127267732Y-101999819D02*
X127267732Y-100999819D01*
X126791541Y-101476009D02*
X126458208Y-101476009D01*
X126315351Y-101999819D02*
X126791541Y-101999819D01*
X126791541Y-101999819D02*
X126791541Y-100999819D01*
X126791541Y-100999819D02*
X126315351Y-100999819D01*
X125886779Y-100999819D02*
X125886779Y-101809342D01*
X125886779Y-101809342D02*
X125839160Y-101904580D01*
X125839160Y-101904580D02*
X125791541Y-101952200D01*
X125791541Y-101952200D02*
X125696303Y-101999819D01*
X125696303Y-101999819D02*
X125505827Y-101999819D01*
X125505827Y-101999819D02*
X125410589Y-101952200D01*
X125410589Y-101952200D02*
X125362970Y-101904580D01*
X125362970Y-101904580D02*
X125315351Y-101809342D01*
X125315351Y-101809342D02*
X125315351Y-100999819D01*
X124982017Y-100999819D02*
X124410589Y-100999819D01*
X124696303Y-101999819D02*
X124696303Y-100999819D01*
X123505827Y-101999819D02*
X123839160Y-101523628D01*
X124077255Y-101999819D02*
X124077255Y-100999819D01*
X124077255Y-100999819D02*
X123696303Y-100999819D01*
X123696303Y-100999819D02*
X123601065Y-101047438D01*
X123601065Y-101047438D02*
X123553446Y-101095057D01*
X123553446Y-101095057D02*
X123505827Y-101190295D01*
X123505827Y-101190295D02*
X123505827Y-101333152D01*
X123505827Y-101333152D02*
X123553446Y-101428390D01*
X123553446Y-101428390D02*
X123601065Y-101476009D01*
X123601065Y-101476009D02*
X123696303Y-101523628D01*
X123696303Y-101523628D02*
X124077255Y-101523628D01*
X123124874Y-101714104D02*
X122648684Y-101714104D01*
X123220112Y-101999819D02*
X122886779Y-100999819D01*
X122886779Y-100999819D02*
X122553446Y-101999819D01*
X121743922Y-101999819D02*
X122220112Y-101999819D01*
X122220112Y-101999819D02*
X122220112Y-100999819D01*
X122934397Y-103609819D02*
X122934397Y-102609819D01*
X122458207Y-103609819D02*
X122458207Y-102609819D01*
X122458207Y-102609819D02*
X121886779Y-103609819D01*
X121886779Y-103609819D02*
X121886779Y-102609819D01*
X153981904Y-112412438D02*
X154077142Y-112364819D01*
X154077142Y-112364819D02*
X154219999Y-112364819D01*
X154219999Y-112364819D02*
X154362856Y-112412438D01*
X154362856Y-112412438D02*
X154458094Y-112507676D01*
X154458094Y-112507676D02*
X154505713Y-112602914D01*
X154505713Y-112602914D02*
X154553332Y-112793390D01*
X154553332Y-112793390D02*
X154553332Y-112936247D01*
X154553332Y-112936247D02*
X154505713Y-113126723D01*
X154505713Y-113126723D02*
X154458094Y-113221961D01*
X154458094Y-113221961D02*
X154362856Y-113317200D01*
X154362856Y-113317200D02*
X154219999Y-113364819D01*
X154219999Y-113364819D02*
X154124761Y-113364819D01*
X154124761Y-113364819D02*
X153981904Y-113317200D01*
X153981904Y-113317200D02*
X153934285Y-113269580D01*
X153934285Y-113269580D02*
X153934285Y-112936247D01*
X153934285Y-112936247D02*
X154124761Y-112936247D01*
X153505713Y-113364819D02*
X153505713Y-112364819D01*
X153505713Y-112364819D02*
X152934285Y-113364819D01*
X152934285Y-113364819D02*
X152934285Y-112364819D01*
X152458094Y-113364819D02*
X152458094Y-112364819D01*
X152458094Y-112364819D02*
X152219999Y-112364819D01*
X152219999Y-112364819D02*
X152077142Y-112412438D01*
X152077142Y-112412438D02*
X151981904Y-112507676D01*
X151981904Y-112507676D02*
X151934285Y-112602914D01*
X151934285Y-112602914D02*
X151886666Y-112793390D01*
X151886666Y-112793390D02*
X151886666Y-112936247D01*
X151886666Y-112936247D02*
X151934285Y-113126723D01*
X151934285Y-113126723D02*
X151981904Y-113221961D01*
X151981904Y-113221961D02*
X152077142Y-113317200D01*
X152077142Y-113317200D02*
X152219999Y-113364819D01*
X152219999Y-113364819D02*
X152458094Y-113364819D01*
D13*
X158907142Y-125072219D02*
X159383332Y-125072219D01*
X159383332Y-125072219D02*
X159430951Y-125548409D01*
X159430951Y-125548409D02*
X159383332Y-125500790D01*
X159383332Y-125500790D02*
X159288094Y-125453171D01*
X159288094Y-125453171D02*
X159049999Y-125453171D01*
X159049999Y-125453171D02*
X158954761Y-125500790D01*
X158954761Y-125500790D02*
X158907142Y-125548409D01*
X158907142Y-125548409D02*
X158859523Y-125643647D01*
X158859523Y-125643647D02*
X158859523Y-125881742D01*
X158859523Y-125881742D02*
X158907142Y-125976980D01*
X158907142Y-125976980D02*
X158954761Y-126024600D01*
X158954761Y-126024600D02*
X159049999Y-126072219D01*
X159049999Y-126072219D02*
X159288094Y-126072219D01*
X159288094Y-126072219D02*
X159383332Y-126024600D01*
X159383332Y-126024600D02*
X159430951Y-125976980D01*
X158002380Y-125405552D02*
X158002380Y-126072219D01*
X158240475Y-125024600D02*
X158478570Y-125738885D01*
X158478570Y-125738885D02*
X157859523Y-125738885D01*
X157478570Y-125976980D02*
X157430951Y-126024600D01*
X157430951Y-126024600D02*
X157478570Y-126072219D01*
X157478570Y-126072219D02*
X157526189Y-126024600D01*
X157526189Y-126024600D02*
X157478570Y-125976980D01*
X157478570Y-125976980D02*
X157478570Y-126072219D01*
X157097618Y-125072219D02*
X156478571Y-125072219D01*
X156478571Y-125072219D02*
X156811904Y-125453171D01*
X156811904Y-125453171D02*
X156669047Y-125453171D01*
X156669047Y-125453171D02*
X156573809Y-125500790D01*
X156573809Y-125500790D02*
X156526190Y-125548409D01*
X156526190Y-125548409D02*
X156478571Y-125643647D01*
X156478571Y-125643647D02*
X156478571Y-125881742D01*
X156478571Y-125881742D02*
X156526190Y-125976980D01*
X156526190Y-125976980D02*
X156573809Y-126024600D01*
X156573809Y-126024600D02*
X156669047Y-126072219D01*
X156669047Y-126072219D02*
X156954761Y-126072219D01*
X156954761Y-126072219D02*
X157049999Y-126024600D01*
X157049999Y-126024600D02*
X157097618Y-125976980D01*
X156145237Y-126072219D02*
X155621428Y-125405552D01*
X156145237Y-125405552D02*
X155621428Y-126072219D01*
X154764285Y-125072219D02*
X155240475Y-125072219D01*
X155240475Y-125072219D02*
X155288094Y-125548409D01*
X155288094Y-125548409D02*
X155240475Y-125500790D01*
X155240475Y-125500790D02*
X155145237Y-125453171D01*
X155145237Y-125453171D02*
X154907142Y-125453171D01*
X154907142Y-125453171D02*
X154811904Y-125500790D01*
X154811904Y-125500790D02*
X154764285Y-125548409D01*
X154764285Y-125548409D02*
X154716666Y-125643647D01*
X154716666Y-125643647D02*
X154716666Y-125881742D01*
X154716666Y-125881742D02*
X154764285Y-125976980D01*
X154764285Y-125976980D02*
X154811904Y-126024600D01*
X154811904Y-126024600D02*
X154907142Y-126072219D01*
X154907142Y-126072219D02*
X155145237Y-126072219D01*
X155145237Y-126072219D02*
X155240475Y-126024600D01*
X155240475Y-126024600D02*
X155288094Y-125976980D01*
X154383332Y-125072219D02*
X153716666Y-125072219D01*
X153716666Y-125072219D02*
X154145237Y-126072219D01*
X153335713Y-125976980D02*
X153288094Y-126024600D01*
X153288094Y-126024600D02*
X153335713Y-126072219D01*
X153335713Y-126072219D02*
X153383332Y-126024600D01*
X153383332Y-126024600D02*
X153335713Y-125976980D01*
X153335713Y-125976980D02*
X153335713Y-126072219D01*
X152669047Y-125072219D02*
X152573809Y-125072219D01*
X152573809Y-125072219D02*
X152478571Y-125119838D01*
X152478571Y-125119838D02*
X152430952Y-125167457D01*
X152430952Y-125167457D02*
X152383333Y-125262695D01*
X152383333Y-125262695D02*
X152335714Y-125453171D01*
X152335714Y-125453171D02*
X152335714Y-125691266D01*
X152335714Y-125691266D02*
X152383333Y-125881742D01*
X152383333Y-125881742D02*
X152430952Y-125976980D01*
X152430952Y-125976980D02*
X152478571Y-126024600D01*
X152478571Y-126024600D02*
X152573809Y-126072219D01*
X152573809Y-126072219D02*
X152669047Y-126072219D01*
X152669047Y-126072219D02*
X152764285Y-126024600D01*
X152764285Y-126024600D02*
X152811904Y-125976980D01*
X152811904Y-125976980D02*
X152859523Y-125881742D01*
X152859523Y-125881742D02*
X152907142Y-125691266D01*
X152907142Y-125691266D02*
X152907142Y-125453171D01*
X152907142Y-125453171D02*
X152859523Y-125262695D01*
X152859523Y-125262695D02*
X152811904Y-125167457D01*
X152811904Y-125167457D02*
X152764285Y-125119838D01*
X152764285Y-125119838D02*
X152669047Y-125072219D01*
X151907142Y-126072219D02*
X151907142Y-125405552D01*
X151907142Y-125500790D02*
X151859523Y-125453171D01*
X151859523Y-125453171D02*
X151764285Y-125405552D01*
X151764285Y-125405552D02*
X151621428Y-125405552D01*
X151621428Y-125405552D02*
X151526190Y-125453171D01*
X151526190Y-125453171D02*
X151478571Y-125548409D01*
X151478571Y-125548409D02*
X151478571Y-126072219D01*
X151478571Y-125548409D02*
X151430952Y-125453171D01*
X151430952Y-125453171D02*
X151335714Y-125405552D01*
X151335714Y-125405552D02*
X151192857Y-125405552D01*
X151192857Y-125405552D02*
X151097618Y-125453171D01*
X151097618Y-125453171D02*
X151049999Y-125548409D01*
X151049999Y-125548409D02*
X151049999Y-126072219D01*
X150573809Y-126072219D02*
X150573809Y-125405552D01*
X150573809Y-125500790D02*
X150526190Y-125453171D01*
X150526190Y-125453171D02*
X150430952Y-125405552D01*
X150430952Y-125405552D02*
X150288095Y-125405552D01*
X150288095Y-125405552D02*
X150192857Y-125453171D01*
X150192857Y-125453171D02*
X150145238Y-125548409D01*
X150145238Y-125548409D02*
X150145238Y-126072219D01*
X150145238Y-125548409D02*
X150097619Y-125453171D01*
X150097619Y-125453171D02*
X150002381Y-125405552D01*
X150002381Y-125405552D02*
X149859524Y-125405552D01*
X149859524Y-125405552D02*
X149764285Y-125453171D01*
X149764285Y-125453171D02*
X149716666Y-125548409D01*
X149716666Y-125548409D02*
X149716666Y-126072219D01*
D11*
X138819998Y-122576033D02*
X138486665Y-122576033D01*
X138886665Y-122776033D02*
X138653332Y-122076033D01*
X138653332Y-122076033D02*
X138419998Y-122776033D01*
X138186665Y-122776033D02*
X138186665Y-122076033D01*
X138186665Y-122076033D02*
X137786665Y-122776033D01*
X137786665Y-122776033D02*
X137786665Y-122076033D01*
X137553332Y-122076033D02*
X137153332Y-122076033D01*
X137353332Y-122776033D02*
X137353332Y-122076033D01*
X136919999Y-122409366D02*
X136686666Y-122409366D01*
X136586666Y-122776033D02*
X136919999Y-122776033D01*
X136919999Y-122776033D02*
X136919999Y-122076033D01*
X136919999Y-122076033D02*
X136586666Y-122076033D01*
X136286666Y-122776033D02*
X136286666Y-122076033D01*
X136286666Y-122076033D02*
X135886666Y-122776033D01*
X135886666Y-122776033D02*
X135886666Y-122076033D01*
X135553333Y-122776033D02*
X135553333Y-122076033D01*
X135553333Y-122076033D02*
X135153333Y-122776033D01*
X135153333Y-122776033D02*
X135153333Y-122076033D01*
X134853333Y-122576033D02*
X134520000Y-122576033D01*
X134920000Y-122776033D02*
X134686667Y-122076033D01*
X134686667Y-122076033D02*
X134453333Y-122776033D01*
D12*
X149878094Y-111334619D02*
X149878094Y-110334619D01*
X149878094Y-110810809D02*
X149306666Y-110810809D01*
X149306666Y-111334619D02*
X149306666Y-110334619D01*
X148639999Y-110334619D02*
X148449523Y-110334619D01*
X148449523Y-110334619D02*
X148354285Y-110382238D01*
X148354285Y-110382238D02*
X148259047Y-110477476D01*
X148259047Y-110477476D02*
X148211428Y-110667952D01*
X148211428Y-110667952D02*
X148211428Y-111001285D01*
X148211428Y-111001285D02*
X148259047Y-111191761D01*
X148259047Y-111191761D02*
X148354285Y-111287000D01*
X148354285Y-111287000D02*
X148449523Y-111334619D01*
X148449523Y-111334619D02*
X148639999Y-111334619D01*
X148639999Y-111334619D02*
X148735237Y-111287000D01*
X148735237Y-111287000D02*
X148830475Y-111191761D01*
X148830475Y-111191761D02*
X148878094Y-111001285D01*
X148878094Y-111001285D02*
X148878094Y-110667952D01*
X148878094Y-110667952D02*
X148830475Y-110477476D01*
X148830475Y-110477476D02*
X148735237Y-110382238D01*
X148735237Y-110382238D02*
X148639999Y-110334619D01*
X147782856Y-111334619D02*
X147782856Y-110334619D01*
X147782856Y-110334619D02*
X147449523Y-111048904D01*
X147449523Y-111048904D02*
X147116190Y-110334619D01*
X147116190Y-110334619D02*
X147116190Y-111334619D01*
X146639999Y-110810809D02*
X146306666Y-110810809D01*
X146163809Y-111334619D02*
X146639999Y-111334619D01*
X146639999Y-111334619D02*
X146639999Y-110334619D01*
X146639999Y-110334619D02*
X146163809Y-110334619D01*
X145020951Y-111048904D02*
X144544761Y-111048904D01*
X145116189Y-111334619D02*
X144782856Y-110334619D01*
X144782856Y-110334619D02*
X144449523Y-111334619D01*
X144116189Y-110334619D02*
X144116189Y-111144142D01*
X144116189Y-111144142D02*
X144068570Y-111239380D01*
X144068570Y-111239380D02*
X144020951Y-111287000D01*
X144020951Y-111287000D02*
X143925713Y-111334619D01*
X143925713Y-111334619D02*
X143735237Y-111334619D01*
X143735237Y-111334619D02*
X143639999Y-111287000D01*
X143639999Y-111287000D02*
X143592380Y-111239380D01*
X143592380Y-111239380D02*
X143544761Y-111144142D01*
X143544761Y-111144142D02*
X143544761Y-110334619D01*
X143211427Y-110334619D02*
X142639999Y-110334619D01*
X142925713Y-111334619D02*
X142925713Y-110334619D01*
X142116189Y-110334619D02*
X141925713Y-110334619D01*
X141925713Y-110334619D02*
X141830475Y-110382238D01*
X141830475Y-110382238D02*
X141735237Y-110477476D01*
X141735237Y-110477476D02*
X141687618Y-110667952D01*
X141687618Y-110667952D02*
X141687618Y-111001285D01*
X141687618Y-111001285D02*
X141735237Y-111191761D01*
X141735237Y-111191761D02*
X141830475Y-111287000D01*
X141830475Y-111287000D02*
X141925713Y-111334619D01*
X141925713Y-111334619D02*
X142116189Y-111334619D01*
X142116189Y-111334619D02*
X142211427Y-111287000D01*
X142211427Y-111287000D02*
X142306665Y-111191761D01*
X142306665Y-111191761D02*
X142354284Y-111001285D01*
X142354284Y-111001285D02*
X142354284Y-110667952D01*
X142354284Y-110667952D02*
X142306665Y-110477476D01*
X142306665Y-110477476D02*
X142211427Y-110382238D01*
X142211427Y-110382238D02*
X142116189Y-110334619D01*
X141259046Y-111334619D02*
X141259046Y-110334619D01*
X141259046Y-110334619D02*
X140925713Y-111048904D01*
X140925713Y-111048904D02*
X140592380Y-110334619D01*
X140592380Y-110334619D02*
X140592380Y-111334619D01*
X140163808Y-111048904D02*
X139687618Y-111048904D01*
X140259046Y-111334619D02*
X139925713Y-110334619D01*
X139925713Y-110334619D02*
X139592380Y-111334619D01*
X139401903Y-110334619D02*
X138830475Y-110334619D01*
X139116189Y-111334619D02*
X139116189Y-110334619D01*
X138497141Y-111334619D02*
X138497141Y-110334619D01*
X137830475Y-110334619D02*
X137639999Y-110334619D01*
X137639999Y-110334619D02*
X137544761Y-110382238D01*
X137544761Y-110382238D02*
X137449523Y-110477476D01*
X137449523Y-110477476D02*
X137401904Y-110667952D01*
X137401904Y-110667952D02*
X137401904Y-111001285D01*
X137401904Y-111001285D02*
X137449523Y-111191761D01*
X137449523Y-111191761D02*
X137544761Y-111287000D01*
X137544761Y-111287000D02*
X137639999Y-111334619D01*
X137639999Y-111334619D02*
X137830475Y-111334619D01*
X137830475Y-111334619D02*
X137925713Y-111287000D01*
X137925713Y-111287000D02*
X138020951Y-111191761D01*
X138020951Y-111191761D02*
X138068570Y-111001285D01*
X138068570Y-111001285D02*
X138068570Y-110667952D01*
X138068570Y-110667952D02*
X138020951Y-110477476D01*
X138020951Y-110477476D02*
X137925713Y-110382238D01*
X137925713Y-110382238D02*
X137830475Y-110334619D01*
X136973332Y-111334619D02*
X136973332Y-110334619D01*
X136973332Y-110334619D02*
X136401904Y-111334619D01*
X136401904Y-111334619D02*
X136401904Y-110334619D01*
X148520952Y-112897000D02*
X148378095Y-112944619D01*
X148378095Y-112944619D02*
X148140000Y-112944619D01*
X148140000Y-112944619D02*
X148044762Y-112897000D01*
X148044762Y-112897000D02*
X147997143Y-112849380D01*
X147997143Y-112849380D02*
X147949524Y-112754142D01*
X147949524Y-112754142D02*
X147949524Y-112658904D01*
X147949524Y-112658904D02*
X147997143Y-112563666D01*
X147997143Y-112563666D02*
X148044762Y-112516047D01*
X148044762Y-112516047D02*
X148140000Y-112468428D01*
X148140000Y-112468428D02*
X148330476Y-112420809D01*
X148330476Y-112420809D02*
X148425714Y-112373190D01*
X148425714Y-112373190D02*
X148473333Y-112325571D01*
X148473333Y-112325571D02*
X148520952Y-112230333D01*
X148520952Y-112230333D02*
X148520952Y-112135095D01*
X148520952Y-112135095D02*
X148473333Y-112039857D01*
X148473333Y-112039857D02*
X148425714Y-111992238D01*
X148425714Y-111992238D02*
X148330476Y-111944619D01*
X148330476Y-111944619D02*
X148092381Y-111944619D01*
X148092381Y-111944619D02*
X147949524Y-111992238D01*
X147520952Y-112944619D02*
X147520952Y-111944619D01*
X147520952Y-111944619D02*
X147187619Y-112658904D01*
X147187619Y-112658904D02*
X146854286Y-111944619D01*
X146854286Y-111944619D02*
X146854286Y-112944619D01*
X146425714Y-112658904D02*
X145949524Y-112658904D01*
X146520952Y-112944619D02*
X146187619Y-111944619D01*
X146187619Y-111944619D02*
X145854286Y-112944619D01*
X144949524Y-112944619D02*
X145282857Y-112468428D01*
X145520952Y-112944619D02*
X145520952Y-111944619D01*
X145520952Y-111944619D02*
X145140000Y-111944619D01*
X145140000Y-111944619D02*
X145044762Y-111992238D01*
X145044762Y-111992238D02*
X144997143Y-112039857D01*
X144997143Y-112039857D02*
X144949524Y-112135095D01*
X144949524Y-112135095D02*
X144949524Y-112277952D01*
X144949524Y-112277952D02*
X144997143Y-112373190D01*
X144997143Y-112373190D02*
X145044762Y-112420809D01*
X145044762Y-112420809D02*
X145140000Y-112468428D01*
X145140000Y-112468428D02*
X145520952Y-112468428D01*
X144663809Y-111944619D02*
X144092381Y-111944619D01*
X144378095Y-112944619D02*
X144378095Y-111944619D01*
X143044761Y-112897000D02*
X142901904Y-112944619D01*
X142901904Y-112944619D02*
X142663809Y-112944619D01*
X142663809Y-112944619D02*
X142568571Y-112897000D01*
X142568571Y-112897000D02*
X142520952Y-112849380D01*
X142520952Y-112849380D02*
X142473333Y-112754142D01*
X142473333Y-112754142D02*
X142473333Y-112658904D01*
X142473333Y-112658904D02*
X142520952Y-112563666D01*
X142520952Y-112563666D02*
X142568571Y-112516047D01*
X142568571Y-112516047D02*
X142663809Y-112468428D01*
X142663809Y-112468428D02*
X142854285Y-112420809D01*
X142854285Y-112420809D02*
X142949523Y-112373190D01*
X142949523Y-112373190D02*
X142997142Y-112325571D01*
X142997142Y-112325571D02*
X143044761Y-112230333D01*
X143044761Y-112230333D02*
X143044761Y-112135095D01*
X143044761Y-112135095D02*
X142997142Y-112039857D01*
X142997142Y-112039857D02*
X142949523Y-111992238D01*
X142949523Y-111992238D02*
X142854285Y-111944619D01*
X142854285Y-111944619D02*
X142616190Y-111944619D01*
X142616190Y-111944619D02*
X142473333Y-111992238D01*
X141854285Y-111944619D02*
X141663809Y-111944619D01*
X141663809Y-111944619D02*
X141568571Y-111992238D01*
X141568571Y-111992238D02*
X141473333Y-112087476D01*
X141473333Y-112087476D02*
X141425714Y-112277952D01*
X141425714Y-112277952D02*
X141425714Y-112611285D01*
X141425714Y-112611285D02*
X141473333Y-112801761D01*
X141473333Y-112801761D02*
X141568571Y-112897000D01*
X141568571Y-112897000D02*
X141663809Y-112944619D01*
X141663809Y-112944619D02*
X141854285Y-112944619D01*
X141854285Y-112944619D02*
X141949523Y-112897000D01*
X141949523Y-112897000D02*
X142044761Y-112801761D01*
X142044761Y-112801761D02*
X142092380Y-112611285D01*
X142092380Y-112611285D02*
X142092380Y-112277952D01*
X142092380Y-112277952D02*
X142044761Y-112087476D01*
X142044761Y-112087476D02*
X141949523Y-111992238D01*
X141949523Y-111992238D02*
X141854285Y-111944619D01*
X140425714Y-112849380D02*
X140473333Y-112897000D01*
X140473333Y-112897000D02*
X140616190Y-112944619D01*
X140616190Y-112944619D02*
X140711428Y-112944619D01*
X140711428Y-112944619D02*
X140854285Y-112897000D01*
X140854285Y-112897000D02*
X140949523Y-112801761D01*
X140949523Y-112801761D02*
X140997142Y-112706523D01*
X140997142Y-112706523D02*
X141044761Y-112516047D01*
X141044761Y-112516047D02*
X141044761Y-112373190D01*
X141044761Y-112373190D02*
X140997142Y-112182714D01*
X140997142Y-112182714D02*
X140949523Y-112087476D01*
X140949523Y-112087476D02*
X140854285Y-111992238D01*
X140854285Y-111992238D02*
X140711428Y-111944619D01*
X140711428Y-111944619D02*
X140616190Y-111944619D01*
X140616190Y-111944619D02*
X140473333Y-111992238D01*
X140473333Y-111992238D02*
X140425714Y-112039857D01*
X139997142Y-112944619D02*
X139997142Y-111944619D01*
X139425714Y-112944619D02*
X139854285Y-112373190D01*
X139425714Y-111944619D02*
X139997142Y-112516047D01*
X138997142Y-112420809D02*
X138663809Y-112420809D01*
X138520952Y-112944619D02*
X138997142Y-112944619D01*
X138997142Y-112944619D02*
X138997142Y-111944619D01*
X138997142Y-111944619D02*
X138520952Y-111944619D01*
X138235237Y-111944619D02*
X137663809Y-111944619D01*
X137949523Y-112944619D02*
X137949523Y-111944619D01*
D11*
X120549160Y-101939819D02*
X120549160Y-100939819D01*
X120549160Y-100939819D02*
X119977732Y-101939819D01*
X119977732Y-101939819D02*
X119977732Y-100939819D01*
X119501541Y-101416009D02*
X119168208Y-101416009D01*
X119025351Y-101939819D02*
X119501541Y-101939819D01*
X119501541Y-101939819D02*
X119501541Y-100939819D01*
X119501541Y-100939819D02*
X119025351Y-100939819D01*
X118596779Y-100939819D02*
X118596779Y-101749342D01*
X118596779Y-101749342D02*
X118549160Y-101844580D01*
X118549160Y-101844580D02*
X118501541Y-101892200D01*
X118501541Y-101892200D02*
X118406303Y-101939819D01*
X118406303Y-101939819D02*
X118215827Y-101939819D01*
X118215827Y-101939819D02*
X118120589Y-101892200D01*
X118120589Y-101892200D02*
X118072970Y-101844580D01*
X118072970Y-101844580D02*
X118025351Y-101749342D01*
X118025351Y-101749342D02*
X118025351Y-100939819D01*
X117692017Y-100939819D02*
X117120589Y-100939819D01*
X117406303Y-101939819D02*
X117406303Y-100939819D01*
X116215827Y-101939819D02*
X116549160Y-101463628D01*
X116787255Y-101939819D02*
X116787255Y-100939819D01*
X116787255Y-100939819D02*
X116406303Y-100939819D01*
X116406303Y-100939819D02*
X116311065Y-100987438D01*
X116311065Y-100987438D02*
X116263446Y-101035057D01*
X116263446Y-101035057D02*
X116215827Y-101130295D01*
X116215827Y-101130295D02*
X116215827Y-101273152D01*
X116215827Y-101273152D02*
X116263446Y-101368390D01*
X116263446Y-101368390D02*
X116311065Y-101416009D01*
X116311065Y-101416009D02*
X116406303Y-101463628D01*
X116406303Y-101463628D02*
X116787255Y-101463628D01*
X115834874Y-101654104D02*
X115358684Y-101654104D01*
X115930112Y-101939819D02*
X115596779Y-100939819D01*
X115596779Y-100939819D02*
X115263446Y-101939819D01*
X114453922Y-101939819D02*
X114930112Y-101939819D01*
X114930112Y-101939819D02*
X114930112Y-100939819D01*
X116787255Y-102549819D02*
X116596779Y-102549819D01*
X116596779Y-102549819D02*
X116501541Y-102597438D01*
X116501541Y-102597438D02*
X116406303Y-102692676D01*
X116406303Y-102692676D02*
X116358684Y-102883152D01*
X116358684Y-102883152D02*
X116358684Y-103216485D01*
X116358684Y-103216485D02*
X116406303Y-103406961D01*
X116406303Y-103406961D02*
X116501541Y-103502200D01*
X116501541Y-103502200D02*
X116596779Y-103549819D01*
X116596779Y-103549819D02*
X116787255Y-103549819D01*
X116787255Y-103549819D02*
X116882493Y-103502200D01*
X116882493Y-103502200D02*
X116977731Y-103406961D01*
X116977731Y-103406961D02*
X117025350Y-103216485D01*
X117025350Y-103216485D02*
X117025350Y-102883152D01*
X117025350Y-102883152D02*
X116977731Y-102692676D01*
X116977731Y-102692676D02*
X116882493Y-102597438D01*
X116882493Y-102597438D02*
X116787255Y-102549819D01*
X115930112Y-102549819D02*
X115930112Y-103359342D01*
X115930112Y-103359342D02*
X115882493Y-103454580D01*
X115882493Y-103454580D02*
X115834874Y-103502200D01*
X115834874Y-103502200D02*
X115739636Y-103549819D01*
X115739636Y-103549819D02*
X115549160Y-103549819D01*
X115549160Y-103549819D02*
X115453922Y-103502200D01*
X115453922Y-103502200D02*
X115406303Y-103454580D01*
X115406303Y-103454580D02*
X115358684Y-103359342D01*
X115358684Y-103359342D02*
X115358684Y-102549819D01*
X115025350Y-102549819D02*
X114453922Y-102549819D01*
X114739636Y-103549819D02*
X114739636Y-102549819D01*
X121812533Y-108350000D02*
X121812533Y-108750000D01*
X122512533Y-108550000D02*
X121812533Y-108550000D01*
X122479200Y-109250000D02*
X122512533Y-109183333D01*
X122512533Y-109183333D02*
X122512533Y-109050000D01*
X122512533Y-109050000D02*
X122479200Y-108983333D01*
X122479200Y-108983333D02*
X122412533Y-108950000D01*
X122412533Y-108950000D02*
X122145866Y-108950000D01*
X122145866Y-108950000D02*
X122079200Y-108983333D01*
X122079200Y-108983333D02*
X122045866Y-109050000D01*
X122045866Y-109050000D02*
X122045866Y-109183333D01*
X122045866Y-109183333D02*
X122079200Y-109250000D01*
X122079200Y-109250000D02*
X122145866Y-109283333D01*
X122145866Y-109283333D02*
X122212533Y-109283333D01*
X122212533Y-109283333D02*
X122279200Y-108950000D01*
X122512533Y-109583333D02*
X122045866Y-109583333D01*
X122112533Y-109583333D02*
X122079200Y-109616667D01*
X122079200Y-109616667D02*
X122045866Y-109683333D01*
X122045866Y-109683333D02*
X122045866Y-109783333D01*
X122045866Y-109783333D02*
X122079200Y-109850000D01*
X122079200Y-109850000D02*
X122145866Y-109883333D01*
X122145866Y-109883333D02*
X122512533Y-109883333D01*
X122145866Y-109883333D02*
X122079200Y-109916667D01*
X122079200Y-109916667D02*
X122045866Y-109983333D01*
X122045866Y-109983333D02*
X122045866Y-110083333D01*
X122045866Y-110083333D02*
X122079200Y-110150000D01*
X122079200Y-110150000D02*
X122145866Y-110183333D01*
X122145866Y-110183333D02*
X122512533Y-110183333D01*
X122045866Y-110516666D02*
X122745866Y-110516666D01*
X122079200Y-110516666D02*
X122045866Y-110583333D01*
X122045866Y-110583333D02*
X122045866Y-110716666D01*
X122045866Y-110716666D02*
X122079200Y-110783333D01*
X122079200Y-110783333D02*
X122112533Y-110816666D01*
X122112533Y-110816666D02*
X122179200Y-110850000D01*
X122179200Y-110850000D02*
X122379200Y-110850000D01*
X122379200Y-110850000D02*
X122445866Y-110816666D01*
X122445866Y-110816666D02*
X122479200Y-110783333D01*
X122479200Y-110783333D02*
X122512533Y-110716666D01*
X122512533Y-110716666D02*
X122512533Y-110583333D01*
X122512533Y-110583333D02*
X122479200Y-110516666D01*
X123606200Y-108266667D02*
X123639533Y-108366667D01*
X123639533Y-108366667D02*
X123639533Y-108533334D01*
X123639533Y-108533334D02*
X123606200Y-108600000D01*
X123606200Y-108600000D02*
X123572866Y-108633334D01*
X123572866Y-108633334D02*
X123506200Y-108666667D01*
X123506200Y-108666667D02*
X123439533Y-108666667D01*
X123439533Y-108666667D02*
X123372866Y-108633334D01*
X123372866Y-108633334D02*
X123339533Y-108600000D01*
X123339533Y-108600000D02*
X123306200Y-108533334D01*
X123306200Y-108533334D02*
X123272866Y-108400000D01*
X123272866Y-108400000D02*
X123239533Y-108333334D01*
X123239533Y-108333334D02*
X123206200Y-108300000D01*
X123206200Y-108300000D02*
X123139533Y-108266667D01*
X123139533Y-108266667D02*
X123072866Y-108266667D01*
X123072866Y-108266667D02*
X123006200Y-108300000D01*
X123006200Y-108300000D02*
X122972866Y-108333334D01*
X122972866Y-108333334D02*
X122939533Y-108400000D01*
X122939533Y-108400000D02*
X122939533Y-108566667D01*
X122939533Y-108566667D02*
X122972866Y-108666667D01*
X123606200Y-109233334D02*
X123639533Y-109166667D01*
X123639533Y-109166667D02*
X123639533Y-109033334D01*
X123639533Y-109033334D02*
X123606200Y-108966667D01*
X123606200Y-108966667D02*
X123539533Y-108933334D01*
X123539533Y-108933334D02*
X123272866Y-108933334D01*
X123272866Y-108933334D02*
X123206200Y-108966667D01*
X123206200Y-108966667D02*
X123172866Y-109033334D01*
X123172866Y-109033334D02*
X123172866Y-109166667D01*
X123172866Y-109166667D02*
X123206200Y-109233334D01*
X123206200Y-109233334D02*
X123272866Y-109266667D01*
X123272866Y-109266667D02*
X123339533Y-109266667D01*
X123339533Y-109266667D02*
X123406200Y-108933334D01*
X123172866Y-109566667D02*
X123639533Y-109566667D01*
X123239533Y-109566667D02*
X123206200Y-109600001D01*
X123206200Y-109600001D02*
X123172866Y-109666667D01*
X123172866Y-109666667D02*
X123172866Y-109766667D01*
X123172866Y-109766667D02*
X123206200Y-109833334D01*
X123206200Y-109833334D02*
X123272866Y-109866667D01*
X123272866Y-109866667D02*
X123639533Y-109866667D01*
X123606200Y-110166667D02*
X123639533Y-110233334D01*
X123639533Y-110233334D02*
X123639533Y-110366667D01*
X123639533Y-110366667D02*
X123606200Y-110433334D01*
X123606200Y-110433334D02*
X123539533Y-110466667D01*
X123539533Y-110466667D02*
X123506200Y-110466667D01*
X123506200Y-110466667D02*
X123439533Y-110433334D01*
X123439533Y-110433334D02*
X123406200Y-110366667D01*
X123406200Y-110366667D02*
X123406200Y-110266667D01*
X123406200Y-110266667D02*
X123372866Y-110200000D01*
X123372866Y-110200000D02*
X123306200Y-110166667D01*
X123306200Y-110166667D02*
X123272866Y-110166667D01*
X123272866Y-110166667D02*
X123206200Y-110200000D01*
X123206200Y-110200000D02*
X123172866Y-110266667D01*
X123172866Y-110266667D02*
X123172866Y-110366667D01*
X123172866Y-110366667D02*
X123206200Y-110433334D01*
X123639533Y-110866667D02*
X123606200Y-110800001D01*
X123606200Y-110800001D02*
X123572866Y-110766667D01*
X123572866Y-110766667D02*
X123506200Y-110733334D01*
X123506200Y-110733334D02*
X123306200Y-110733334D01*
X123306200Y-110733334D02*
X123239533Y-110766667D01*
X123239533Y-110766667D02*
X123206200Y-110800001D01*
X123206200Y-110800001D02*
X123172866Y-110866667D01*
X123172866Y-110866667D02*
X123172866Y-110966667D01*
X123172866Y-110966667D02*
X123206200Y-111033334D01*
X123206200Y-111033334D02*
X123239533Y-111066667D01*
X123239533Y-111066667D02*
X123306200Y-111100001D01*
X123306200Y-111100001D02*
X123506200Y-111100001D01*
X123506200Y-111100001D02*
X123572866Y-111066667D01*
X123572866Y-111066667D02*
X123606200Y-111033334D01*
X123606200Y-111033334D02*
X123639533Y-110966667D01*
X123639533Y-110966667D02*
X123639533Y-110866667D01*
X123639533Y-111400000D02*
X123172866Y-111400000D01*
X123306200Y-111400000D02*
X123239533Y-111433334D01*
X123239533Y-111433334D02*
X123206200Y-111466667D01*
X123206200Y-111466667D02*
X123172866Y-111533334D01*
X123172866Y-111533334D02*
X123172866Y-111600000D01*
X151484819Y-116730000D02*
X150484819Y-116730000D01*
X150484819Y-116730000D02*
X150484819Y-116968095D01*
X150484819Y-116968095D02*
X150532438Y-117110952D01*
X150532438Y-117110952D02*
X150627676Y-117206190D01*
X150627676Y-117206190D02*
X150722914Y-117253809D01*
X150722914Y-117253809D02*
X150913390Y-117301428D01*
X150913390Y-117301428D02*
X151056247Y-117301428D01*
X151056247Y-117301428D02*
X151246723Y-117253809D01*
X151246723Y-117253809D02*
X151341961Y-117206190D01*
X151341961Y-117206190D02*
X151437200Y-117110952D01*
X151437200Y-117110952D02*
X151484819Y-116968095D01*
X151484819Y-116968095D02*
X151484819Y-116730000D01*
X151484819Y-117730000D02*
X150484819Y-117730000D01*
%TO.C,*%
D14*
%TO.C,Sign-RoHS*%
X130505714Y-121719238D02*
X131172381Y-120766857D01*
X131648571Y-121719238D02*
X131648571Y-119719238D01*
X131648571Y-119719238D02*
X130886666Y-119719238D01*
X130886666Y-119719238D02*
X130696190Y-119814476D01*
X130696190Y-119814476D02*
X130600952Y-119909714D01*
X130600952Y-119909714D02*
X130505714Y-120100190D01*
X130505714Y-120100190D02*
X130505714Y-120385904D01*
X130505714Y-120385904D02*
X130600952Y-120576380D01*
X130600952Y-120576380D02*
X130696190Y-120671619D01*
X130696190Y-120671619D02*
X130886666Y-120766857D01*
X130886666Y-120766857D02*
X131648571Y-120766857D01*
X129362857Y-121719238D02*
X129553333Y-121624000D01*
X129553333Y-121624000D02*
X129648571Y-121528761D01*
X129648571Y-121528761D02*
X129743809Y-121338285D01*
X129743809Y-121338285D02*
X129743809Y-120766857D01*
X129743809Y-120766857D02*
X129648571Y-120576380D01*
X129648571Y-120576380D02*
X129553333Y-120481142D01*
X129553333Y-120481142D02*
X129362857Y-120385904D01*
X129362857Y-120385904D02*
X129077142Y-120385904D01*
X129077142Y-120385904D02*
X128886666Y-120481142D01*
X128886666Y-120481142D02*
X128791428Y-120576380D01*
X128791428Y-120576380D02*
X128696190Y-120766857D01*
X128696190Y-120766857D02*
X128696190Y-121338285D01*
X128696190Y-121338285D02*
X128791428Y-121528761D01*
X128791428Y-121528761D02*
X128886666Y-121624000D01*
X128886666Y-121624000D02*
X129077142Y-121719238D01*
X129077142Y-121719238D02*
X129362857Y-121719238D01*
X127839047Y-121719238D02*
X127839047Y-119719238D01*
X127839047Y-120671619D02*
X126696190Y-120671619D01*
X126696190Y-121719238D02*
X126696190Y-119719238D01*
X125839047Y-121624000D02*
X125553333Y-121719238D01*
X125553333Y-121719238D02*
X125077142Y-121719238D01*
X125077142Y-121719238D02*
X124886666Y-121624000D01*
X124886666Y-121624000D02*
X124791428Y-121528761D01*
X124791428Y-121528761D02*
X124696190Y-121338285D01*
X124696190Y-121338285D02*
X124696190Y-121147809D01*
X124696190Y-121147809D02*
X124791428Y-120957333D01*
X124791428Y-120957333D02*
X124886666Y-120862095D01*
X124886666Y-120862095D02*
X125077142Y-120766857D01*
X125077142Y-120766857D02*
X125458095Y-120671619D01*
X125458095Y-120671619D02*
X125648571Y-120576380D01*
X125648571Y-120576380D02*
X125743809Y-120481142D01*
X125743809Y-120481142D02*
X125839047Y-120290666D01*
X125839047Y-120290666D02*
X125839047Y-120100190D01*
X125839047Y-120100190D02*
X125743809Y-119909714D01*
X125743809Y-119909714D02*
X125648571Y-119814476D01*
X125648571Y-119814476D02*
X125458095Y-119719238D01*
X125458095Y-119719238D02*
X124981904Y-119719238D01*
X124981904Y-119719238D02*
X124696190Y-119814476D01*
D15*
X130459333Y-124625004D02*
X130544000Y-124709671D01*
X130544000Y-124709671D02*
X130798000Y-124794337D01*
X130798000Y-124794337D02*
X130967333Y-124794337D01*
X130967333Y-124794337D02*
X131221333Y-124709671D01*
X131221333Y-124709671D02*
X131390667Y-124540337D01*
X131390667Y-124540337D02*
X131475333Y-124371004D01*
X131475333Y-124371004D02*
X131560000Y-124032337D01*
X131560000Y-124032337D02*
X131560000Y-123778337D01*
X131560000Y-123778337D02*
X131475333Y-123439671D01*
X131475333Y-123439671D02*
X131390667Y-123270337D01*
X131390667Y-123270337D02*
X131221333Y-123101004D01*
X131221333Y-123101004D02*
X130967333Y-123016337D01*
X130967333Y-123016337D02*
X130798000Y-123016337D01*
X130798000Y-123016337D02*
X130544000Y-123101004D01*
X130544000Y-123101004D02*
X130459333Y-123185671D01*
X129443333Y-124794337D02*
X129612667Y-124709671D01*
X129612667Y-124709671D02*
X129697333Y-124625004D01*
X129697333Y-124625004D02*
X129782000Y-124455671D01*
X129782000Y-124455671D02*
X129782000Y-123947671D01*
X129782000Y-123947671D02*
X129697333Y-123778337D01*
X129697333Y-123778337D02*
X129612667Y-123693671D01*
X129612667Y-123693671D02*
X129443333Y-123609004D01*
X129443333Y-123609004D02*
X129189333Y-123609004D01*
X129189333Y-123609004D02*
X129020000Y-123693671D01*
X129020000Y-123693671D02*
X128935333Y-123778337D01*
X128935333Y-123778337D02*
X128850667Y-123947671D01*
X128850667Y-123947671D02*
X128850667Y-124455671D01*
X128850667Y-124455671D02*
X128935333Y-124625004D01*
X128935333Y-124625004D02*
X129020000Y-124709671D01*
X129020000Y-124709671D02*
X129189333Y-124794337D01*
X129189333Y-124794337D02*
X129443333Y-124794337D01*
X128088666Y-124794337D02*
X128088666Y-123609004D01*
X128088666Y-123778337D02*
X128004000Y-123693671D01*
X128004000Y-123693671D02*
X127834666Y-123609004D01*
X127834666Y-123609004D02*
X127580666Y-123609004D01*
X127580666Y-123609004D02*
X127411333Y-123693671D01*
X127411333Y-123693671D02*
X127326666Y-123863004D01*
X127326666Y-123863004D02*
X127326666Y-124794337D01*
X127326666Y-123863004D02*
X127242000Y-123693671D01*
X127242000Y-123693671D02*
X127072666Y-123609004D01*
X127072666Y-123609004D02*
X126818666Y-123609004D01*
X126818666Y-123609004D02*
X126649333Y-123693671D01*
X126649333Y-123693671D02*
X126564666Y-123863004D01*
X126564666Y-123863004D02*
X126564666Y-124794337D01*
X125717999Y-123609004D02*
X125717999Y-125387004D01*
X125717999Y-123693671D02*
X125548666Y-123609004D01*
X125548666Y-123609004D02*
X125209999Y-123609004D01*
X125209999Y-123609004D02*
X125040666Y-123693671D01*
X125040666Y-123693671D02*
X124955999Y-123778337D01*
X124955999Y-123778337D02*
X124871333Y-123947671D01*
X124871333Y-123947671D02*
X124871333Y-124455671D01*
X124871333Y-124455671D02*
X124955999Y-124625004D01*
X124955999Y-124625004D02*
X125040666Y-124709671D01*
X125040666Y-124709671D02*
X125209999Y-124794337D01*
X125209999Y-124794337D02*
X125548666Y-124794337D01*
X125548666Y-124794337D02*
X125717999Y-124709671D01*
X123855332Y-124794337D02*
X124024666Y-124709671D01*
X124024666Y-124709671D02*
X124109332Y-124540337D01*
X124109332Y-124540337D02*
X124109332Y-123016337D01*
X123177999Y-124794337D02*
X123177999Y-123609004D01*
X123177999Y-123016337D02*
X123262666Y-123101004D01*
X123262666Y-123101004D02*
X123177999Y-123185671D01*
X123177999Y-123185671D02*
X123093333Y-123101004D01*
X123093333Y-123101004D02*
X123177999Y-123016337D01*
X123177999Y-123016337D02*
X123177999Y-123185671D01*
X121569332Y-124794337D02*
X121569332Y-123863004D01*
X121569332Y-123863004D02*
X121653999Y-123693671D01*
X121653999Y-123693671D02*
X121823332Y-123609004D01*
X121823332Y-123609004D02*
X122161999Y-123609004D01*
X122161999Y-123609004D02*
X122331332Y-123693671D01*
X121569332Y-124709671D02*
X121738666Y-124794337D01*
X121738666Y-124794337D02*
X122161999Y-124794337D01*
X122161999Y-124794337D02*
X122331332Y-124709671D01*
X122331332Y-124709671D02*
X122415999Y-124540337D01*
X122415999Y-124540337D02*
X122415999Y-124371004D01*
X122415999Y-124371004D02*
X122331332Y-124201671D01*
X122331332Y-124201671D02*
X122161999Y-124117004D01*
X122161999Y-124117004D02*
X121738666Y-124117004D01*
X121738666Y-124117004D02*
X121569332Y-124032337D01*
X120722665Y-123609004D02*
X120722665Y-124794337D01*
X120722665Y-123778337D02*
X120637999Y-123693671D01*
X120637999Y-123693671D02*
X120468665Y-123609004D01*
X120468665Y-123609004D02*
X120214665Y-123609004D01*
X120214665Y-123609004D02*
X120045332Y-123693671D01*
X120045332Y-123693671D02*
X119960665Y-123863004D01*
X119960665Y-123863004D02*
X119960665Y-124794337D01*
X119367998Y-123609004D02*
X118690665Y-123609004D01*
X119113998Y-123016337D02*
X119113998Y-124540337D01*
X119113998Y-124540337D02*
X119029332Y-124709671D01*
X119029332Y-124709671D02*
X118859998Y-124794337D01*
X118859998Y-124794337D02*
X118690665Y-124794337D01*
D11*
%TO.C,*%
%TO.C,G\u002A\u002A\u002A*%
G36*
X145786730Y-119875000D02*
G01*
X145510437Y-119875000D01*
X145516011Y-119160625D01*
X145521584Y-118446250D01*
X145775584Y-118446250D01*
X145786730Y-119875000D01*
G37*
G36*
X138674167Y-118922500D02*
G01*
X138564709Y-118922500D01*
X138509544Y-118919626D01*
X138434178Y-118898046D01*
X138391372Y-118853269D01*
X138377834Y-118782836D01*
X138380457Y-118752554D01*
X138410364Y-118693717D01*
X138474285Y-118658834D01*
X138573044Y-118647333D01*
X138674167Y-118647333D01*
X138674167Y-118922500D01*
G37*
G36*
X138674167Y-119414421D02*
G01*
X138544019Y-119405007D01*
X138477707Y-119396395D01*
X138396965Y-119366609D01*
X138350432Y-119315707D01*
X138335500Y-119241646D01*
X138340590Y-119197879D01*
X138375557Y-119138573D01*
X138444414Y-119103420D01*
X138547992Y-119091833D01*
X138674167Y-119091833D01*
X138674167Y-119414421D01*
G37*
G36*
X135360072Y-120162262D02*
G01*
X135376145Y-120187218D01*
X135391101Y-120249969D01*
X135389852Y-120322057D01*
X135371422Y-120384391D01*
X135346936Y-120410308D01*
X135287500Y-120425333D01*
X135280609Y-120425184D01*
X135224633Y-120406626D01*
X135192157Y-120355469D01*
X135181667Y-120269487D01*
X135184739Y-120234133D01*
X135209956Y-120172176D01*
X135253407Y-120136045D01*
X135306358Y-120130990D01*
X135360072Y-120162262D01*
G37*
G36*
X140894686Y-119177943D02*
G01*
X140956480Y-119193048D01*
X141014404Y-119218484D01*
X141049371Y-119246616D01*
X141058375Y-119268025D01*
X141065243Y-119325407D01*
X141058964Y-119385402D01*
X141040600Y-119426267D01*
X141025759Y-119438543D01*
X140975189Y-119452009D01*
X140923609Y-119432711D01*
X140878054Y-119386930D01*
X140845562Y-119320949D01*
X140833167Y-119241051D01*
X140833568Y-119225105D01*
X140844172Y-119186921D01*
X140874123Y-119176500D01*
X140894686Y-119177943D01*
G37*
G36*
X135369404Y-120809204D02*
G01*
X135423353Y-120819181D01*
X135446614Y-120842208D01*
X135456453Y-120888848D01*
X135447370Y-120938928D01*
X135419792Y-120973971D01*
X135399424Y-120982977D01*
X135330126Y-120995528D01*
X135248152Y-120995016D01*
X135171414Y-120982360D01*
X135117823Y-120958478D01*
X135093969Y-120933111D01*
X135081424Y-120885955D01*
X135105706Y-120844995D01*
X135163773Y-120819437D01*
X135208452Y-120812526D01*
X135291789Y-120806991D01*
X135369404Y-120809204D01*
G37*
G36*
X137318658Y-120152096D02*
G01*
X137369006Y-120180325D01*
X137409023Y-120230559D01*
X137425334Y-120287750D01*
X137425331Y-120289605D01*
X137422277Y-120318157D01*
X137406720Y-120333424D01*
X137368719Y-120339546D01*
X137298334Y-120340667D01*
X137279226Y-120340655D01*
X137217056Y-120339102D01*
X137185003Y-120331466D01*
X137173088Y-120312852D01*
X137171334Y-120278367D01*
X137171334Y-120278056D01*
X137190443Y-120215461D01*
X137238690Y-120168604D01*
X137303044Y-120150167D01*
X137318658Y-120152096D01*
G37*
G36*
X138213115Y-120173185D02*
G01*
X138260864Y-120193862D01*
X138292110Y-120241333D01*
X138309163Y-120320413D01*
X138314334Y-120435917D01*
X138311721Y-120527854D01*
X138301098Y-120605582D01*
X138281384Y-120653457D01*
X138275569Y-120660990D01*
X138222984Y-120694574D01*
X138158957Y-120696409D01*
X138099042Y-120665469D01*
X138079905Y-120641056D01*
X138067885Y-120602807D01*
X138061935Y-120541657D01*
X138060334Y-120447929D01*
X138062043Y-120369851D01*
X138072928Y-120275388D01*
X138095885Y-120214197D01*
X138133244Y-120181203D01*
X138187334Y-120171333D01*
X138213115Y-120173185D01*
G37*
G36*
X135884782Y-118903185D02*
G01*
X135932531Y-118923862D01*
X135963777Y-118971333D01*
X135980830Y-119050413D01*
X135986000Y-119165917D01*
X135983387Y-119257854D01*
X135972765Y-119335582D01*
X135953050Y-119383457D01*
X135947236Y-119390990D01*
X135894651Y-119424574D01*
X135830623Y-119426409D01*
X135770709Y-119395469D01*
X135751572Y-119371056D01*
X135739551Y-119332807D01*
X135733601Y-119271657D01*
X135732000Y-119177929D01*
X135733709Y-119099851D01*
X135744595Y-119005388D01*
X135767552Y-118944197D01*
X135804911Y-118911203D01*
X135859000Y-118901333D01*
X135884782Y-118903185D01*
G37*
G36*
X147800349Y-119419369D02*
G01*
X147851605Y-119556197D01*
X147895070Y-119672243D01*
X147928978Y-119762792D01*
X147951563Y-119823130D01*
X147961059Y-119848542D01*
X147961651Y-119850483D01*
X147951930Y-119864835D01*
X147910742Y-119872642D01*
X147832766Y-119875000D01*
X147694668Y-119875000D01*
X147661111Y-119785042D01*
X147655757Y-119770594D01*
X147625915Y-119687859D01*
X147599022Y-119610417D01*
X147570490Y-119525750D01*
X147024417Y-119525750D01*
X146903205Y-119875000D01*
X146768019Y-119875000D01*
X146702530Y-119872999D01*
X146652164Y-119867272D01*
X146632918Y-119859125D01*
X146638477Y-119840974D01*
X146657285Y-119787054D01*
X146687769Y-119702143D01*
X146728254Y-119590849D01*
X146777061Y-119457780D01*
X146832514Y-119307544D01*
X146834015Y-119303500D01*
X147100288Y-119303500D01*
X147302241Y-119303500D01*
X147391449Y-119302399D01*
X147455881Y-119298122D01*
X147488156Y-119289915D01*
X147493606Y-119277042D01*
X147492874Y-119275149D01*
X147480668Y-119240979D01*
X147458231Y-119176400D01*
X147428496Y-119089899D01*
X147394396Y-118989960D01*
X147387566Y-118969953D01*
X147354886Y-118876458D01*
X147327438Y-118801500D01*
X147307929Y-118752292D01*
X147299066Y-118736045D01*
X147297473Y-118739084D01*
X147284619Y-118772182D01*
X147261709Y-118835493D01*
X147231394Y-118921610D01*
X147196323Y-119023126D01*
X147100288Y-119303500D01*
X146834015Y-119303500D01*
X146892935Y-119144750D01*
X147152867Y-118446250D01*
X147291981Y-118440060D01*
X147431095Y-118433871D01*
X147691175Y-119127977D01*
X147743067Y-119266475D01*
X147747026Y-119277042D01*
X147800349Y-119419369D01*
G37*
G36*
X148938760Y-121208500D02*
G01*
X133700000Y-121208500D01*
X133700000Y-120909446D01*
X134901865Y-120909446D01*
X134930029Y-120992597D01*
X134994637Y-121058051D01*
X135093403Y-121102021D01*
X135160351Y-121114209D01*
X135253074Y-121120916D01*
X135350867Y-121120742D01*
X135438102Y-121113762D01*
X135499156Y-121100053D01*
X135558729Y-121067765D01*
X135617395Y-121008450D01*
X135646329Y-120939737D01*
X135642456Y-120870280D01*
X135621658Y-120838083D01*
X135848417Y-120838083D01*
X135938569Y-120844601D01*
X135944317Y-120844988D01*
X136010713Y-120842130D01*
X136039618Y-120822723D01*
X136042499Y-120798534D01*
X136044800Y-120737712D01*
X136045998Y-120648446D01*
X136045999Y-120608499D01*
X136219398Y-120608499D01*
X136240024Y-120690711D01*
X136286335Y-120763004D01*
X136355487Y-120813874D01*
X136371557Y-120820858D01*
X136486712Y-120852428D01*
X136598660Y-120854181D01*
X136699155Y-120828082D01*
X136779949Y-120776095D01*
X136832798Y-120700185D01*
X136845564Y-120666189D01*
X136848693Y-120633781D01*
X136830753Y-120614202D01*
X136784889Y-120596860D01*
X136716097Y-120607504D01*
X136645424Y-120658167D01*
X136633603Y-120669242D01*
X136578914Y-120706758D01*
X136530659Y-120721667D01*
X136520833Y-120720998D01*
X136469886Y-120701248D01*
X136427221Y-120664012D01*
X136409334Y-120622739D01*
X136410084Y-120615859D01*
X136437517Y-120577389D01*
X136500428Y-120537839D01*
X136593345Y-120500833D01*
X136646281Y-120481889D01*
X136673829Y-120467667D01*
X136953771Y-120467667D01*
X137200136Y-120467667D01*
X137229976Y-120467658D01*
X137329507Y-120468327D01*
X137394196Y-120472709D01*
X137430076Y-120484255D01*
X137443182Y-120506416D01*
X137439547Y-120542643D01*
X137425207Y-120596386D01*
X137423185Y-120603179D01*
X137385608Y-120669895D01*
X137329005Y-120711018D01*
X137264358Y-120718227D01*
X137258811Y-120716647D01*
X137220307Y-120689565D01*
X137182200Y-120642872D01*
X137143144Y-120598923D01*
X137075717Y-120572572D01*
X136994816Y-120585708D01*
X136976241Y-120610390D01*
X136979611Y-120633781D01*
X136982834Y-120656152D01*
X137012342Y-120712747D01*
X137061245Y-120770386D01*
X137104110Y-120802814D01*
X137199951Y-120840938D01*
X137307903Y-120852364D01*
X137414088Y-120836403D01*
X137504627Y-120792367D01*
X137520028Y-120780114D01*
X137587900Y-120697584D01*
X137627730Y-120587530D01*
X137640736Y-120446857D01*
X137640707Y-120439624D01*
X137625216Y-120293345D01*
X137582132Y-120176735D01*
X137512653Y-120091295D01*
X137417981Y-120038526D01*
X137299317Y-120019930D01*
X137239543Y-120023458D01*
X137133908Y-120056254D01*
X137053080Y-120123267D01*
X136997253Y-120224296D01*
X136966624Y-120359142D01*
X136953771Y-120467667D01*
X136673829Y-120467667D01*
X136738555Y-120434251D01*
X136796153Y-120376636D01*
X136824287Y-120304615D01*
X136828013Y-120265946D01*
X136810045Y-120177314D01*
X136759618Y-120101712D01*
X136683698Y-120047485D01*
X136589250Y-120022979D01*
X136527266Y-120020242D01*
X136451331Y-120025704D01*
X136393222Y-120046629D01*
X136338447Y-120086699D01*
X136299091Y-120125029D01*
X136260653Y-120179741D01*
X136255292Y-120221089D01*
X136284508Y-120244680D01*
X136307959Y-120251285D01*
X136363464Y-120266887D01*
X136395938Y-120264208D01*
X136426245Y-120225138D01*
X136433269Y-120212235D01*
X136475182Y-120174135D01*
X136529513Y-120157947D01*
X136583776Y-120163093D01*
X136625489Y-120188999D01*
X136642167Y-120235090D01*
X136636826Y-120259943D01*
X136603708Y-120297604D01*
X136536741Y-120334403D01*
X136431804Y-120373044D01*
X136385937Y-120390199D01*
X136315920Y-120424816D01*
X136267763Y-120459147D01*
X136266584Y-120460339D01*
X136227303Y-120527873D01*
X136226300Y-120538100D01*
X136219398Y-120608499D01*
X136045999Y-120608499D01*
X136046001Y-120538100D01*
X136044716Y-120414038D01*
X136038917Y-120033750D01*
X135848417Y-120033750D01*
X135848417Y-120838083D01*
X135621658Y-120838083D01*
X135602698Y-120808731D01*
X135577685Y-120783045D01*
X135570615Y-120756047D01*
X135592115Y-120718530D01*
X135595104Y-120714193D01*
X135622391Y-120654651D01*
X135615128Y-120598386D01*
X135572033Y-120533580D01*
X135517899Y-120469245D01*
X135564420Y-120406322D01*
X135581707Y-120380550D01*
X135601407Y-120325467D01*
X135599085Y-120255005D01*
X135579849Y-120184570D01*
X135524426Y-120103458D01*
X135441446Y-120047343D01*
X135337007Y-120019903D01*
X135217209Y-120024814D01*
X135216642Y-120024914D01*
X135162749Y-120031171D01*
X135134561Y-120020840D01*
X135117047Y-119988469D01*
X135088560Y-119949083D01*
X135848417Y-119949083D01*
X135938569Y-119955601D01*
X135989150Y-119956297D01*
X136030829Y-119941656D01*
X136047472Y-119901952D01*
X137859250Y-119901952D01*
X137859250Y-120446857D01*
X137859250Y-120838083D01*
X137940248Y-120844749D01*
X137983500Y-120846296D01*
X138017341Y-120836491D01*
X138032587Y-120808044D01*
X138033658Y-120803958D01*
X138043280Y-120778213D01*
X138060168Y-120779209D01*
X138097319Y-120806670D01*
X138128986Y-120825437D01*
X138209861Y-120845688D01*
X138299856Y-120842912D01*
X138381034Y-120816489D01*
X138390708Y-120810750D01*
X138450126Y-120750171D01*
X138494446Y-120660496D01*
X138505725Y-120615833D01*
X138735455Y-120615833D01*
X138741853Y-120726958D01*
X138748250Y-120838083D01*
X138848792Y-120844535D01*
X138949334Y-120850986D01*
X138949334Y-120615833D01*
X138735455Y-120615833D01*
X138505725Y-120615833D01*
X138521981Y-120551465D01*
X138531040Y-120432818D01*
X138519934Y-120314293D01*
X138486975Y-120205631D01*
X138463098Y-120160469D01*
X138393877Y-120081832D01*
X138308505Y-120035688D01*
X138214506Y-120025153D01*
X138119402Y-120053346D01*
X138062053Y-120083264D01*
X138055902Y-119920924D01*
X138049750Y-119758583D01*
X137859250Y-119758583D01*
X137859250Y-119901952D01*
X136047472Y-119901952D01*
X136045700Y-119829390D01*
X136042472Y-119801439D01*
X136031258Y-119771912D01*
X136002444Y-119760486D01*
X135943667Y-119758583D01*
X135848417Y-119758583D01*
X135848417Y-119949083D01*
X135088560Y-119949083D01*
X135086777Y-119946618D01*
X135024369Y-119910120D01*
X134947456Y-119896167D01*
X134930097Y-119898364D01*
X134911394Y-119918956D01*
X134906500Y-119970250D01*
X134907561Y-119999626D01*
X134918596Y-120034917D01*
X134946242Y-120044333D01*
X134955898Y-120044677D01*
X135004029Y-120063570D01*
X135020685Y-120106964D01*
X135003080Y-120168762D01*
X134984838Y-120211160D01*
X134972445Y-120307978D01*
X135002109Y-120404859D01*
X135007806Y-120415167D01*
X135072205Y-120483257D01*
X135169310Y-120525419D01*
X135272952Y-120538100D01*
X135298084Y-120541175D01*
X135350528Y-120542760D01*
X135399259Y-120548818D01*
X135422829Y-120562454D01*
X135431462Y-120587195D01*
X135431004Y-120611221D01*
X135410327Y-120631418D01*
X135357378Y-120644404D01*
X135343129Y-120646556D01*
X135263002Y-120654582D01*
X135181667Y-120657966D01*
X135136804Y-120660259D01*
X135034848Y-120685218D01*
X134958642Y-120734821D01*
X134914561Y-120805544D01*
X134912432Y-120812391D01*
X134901865Y-120909446D01*
X133700000Y-120909446D01*
X133700000Y-120387104D01*
X134148557Y-120387104D01*
X134149190Y-120546249D01*
X134155084Y-120838083D01*
X134345584Y-120838083D01*
X134366750Y-120181917D01*
X134432053Y-120175544D01*
X134453567Y-120174148D01*
X134492312Y-120178905D01*
X134520481Y-120198897D01*
X134540097Y-120239545D01*
X134553181Y-120306267D01*
X134561752Y-120404481D01*
X134567834Y-120539608D01*
X134578417Y-120838083D01*
X134668569Y-120844601D01*
X134674317Y-120844988D01*
X134740713Y-120842130D01*
X134769618Y-120822723D01*
X134772499Y-120798534D01*
X134774800Y-120737712D01*
X134775998Y-120648446D01*
X134776001Y-120538100D01*
X134774716Y-120414038D01*
X134768917Y-120033750D01*
X134678959Y-120027241D01*
X134669373Y-120026577D01*
X134617212Y-120026180D01*
X134594176Y-120037387D01*
X134589000Y-120064916D01*
X134589000Y-120109101D01*
X134527473Y-120063611D01*
X134494670Y-120044455D01*
X134408536Y-120021589D01*
X134316917Y-120024402D01*
X134238855Y-120053557D01*
X134221369Y-120067219D01*
X134189992Y-120109969D01*
X134168022Y-120174105D01*
X134154522Y-120264769D01*
X134148557Y-120387104D01*
X133700000Y-120387104D01*
X133700000Y-119568083D01*
X135530917Y-119568083D01*
X135611914Y-119574749D01*
X135655167Y-119576296D01*
X135689008Y-119566491D01*
X135704253Y-119538044D01*
X135705324Y-119533958D01*
X135714946Y-119508213D01*
X135731834Y-119509209D01*
X135768986Y-119536670D01*
X135800653Y-119555437D01*
X135881527Y-119575688D01*
X135971522Y-119572912D01*
X136052701Y-119546489D01*
X136062375Y-119540750D01*
X136121792Y-119480171D01*
X136166113Y-119390496D01*
X136193647Y-119281465D01*
X136202706Y-119162818D01*
X136419917Y-119162818D01*
X136419917Y-119568083D01*
X136510069Y-119574601D01*
X136513303Y-119574826D01*
X136581350Y-119572303D01*
X136610998Y-119553035D01*
X136613048Y-119536810D01*
X136615304Y-119482083D01*
X136616794Y-119395568D01*
X136617461Y-119283412D01*
X136864417Y-119283412D01*
X136864417Y-119568083D01*
X136954569Y-119574601D01*
X136960317Y-119574988D01*
X137026713Y-119572130D01*
X137055618Y-119552723D01*
X137058499Y-119528534D01*
X137060800Y-119467712D01*
X137061998Y-119378446D01*
X137062001Y-119268100D01*
X137287750Y-119268100D01*
X137287750Y-119568083D01*
X137377709Y-119574592D01*
X137388933Y-119575363D01*
X137440221Y-119575596D01*
X137462692Y-119564098D01*
X137467667Y-119536014D01*
X137467667Y-119490927D01*
X137523438Y-119534797D01*
X137527945Y-119538212D01*
X137601958Y-119571526D01*
X137688877Y-119580871D01*
X137772565Y-119566551D01*
X137836886Y-119528872D01*
X137861202Y-119498959D01*
X137879311Y-119457036D01*
X137891517Y-119394836D01*
X137900924Y-119301330D01*
X137904453Y-119236860D01*
X138120224Y-119236860D01*
X138129743Y-119345833D01*
X138149958Y-119403389D01*
X138204238Y-119477766D01*
X138290613Y-119530099D01*
X138326215Y-119540483D01*
X138403882Y-119553713D01*
X138506472Y-119564887D01*
X138623988Y-119572728D01*
X138885834Y-119585100D01*
X138885834Y-119458200D01*
X139396396Y-119458200D01*
X139397880Y-119500326D01*
X139404862Y-119539416D01*
X139427505Y-119566129D01*
X139478500Y-119579408D01*
X139573263Y-119582939D01*
X139581457Y-119581101D01*
X140621500Y-119581101D01*
X140711459Y-119574592D01*
X140767365Y-119567344D01*
X140797186Y-119550865D01*
X140808450Y-119518404D01*
X140815483Y-119468726D01*
X140863269Y-119513618D01*
X140908796Y-119547871D01*
X140995450Y-119580218D01*
X141085073Y-119581588D01*
X141167920Y-119554160D01*
X141234246Y-119500117D01*
X141274305Y-119421638D01*
X141279374Y-119398825D01*
X141278914Y-119297126D01*
X141269231Y-119273059D01*
X141470489Y-119273059D01*
X141471959Y-119388167D01*
X141472361Y-119398825D01*
X141478750Y-119568083D01*
X141669250Y-119568083D01*
X141675147Y-119262607D01*
X141675958Y-119223774D01*
X141680068Y-119101394D01*
X141687000Y-119014104D01*
X141698325Y-118956179D01*
X141715617Y-118921892D01*
X141740450Y-118905519D01*
X141774395Y-118901333D01*
X141780356Y-118901403D01*
X141820671Y-118908062D01*
X141850172Y-118929465D01*
X141870665Y-118971123D01*
X141883957Y-119038545D01*
X141891856Y-119137243D01*
X141896167Y-119272725D01*
X141902084Y-119568083D01*
X142092584Y-119568083D01*
X142097743Y-119282333D01*
X142100594Y-119148129D01*
X142104498Y-119048814D01*
X142110745Y-118980421D01*
X142120660Y-118937214D01*
X142135566Y-118913455D01*
X142156786Y-118903408D01*
X142185645Y-118901333D01*
X142202084Y-118901765D01*
X142240291Y-118909374D01*
X142268073Y-118930879D01*
X142287423Y-118971968D01*
X142300336Y-119038329D01*
X142308809Y-119135646D01*
X142314834Y-119269608D01*
X142325417Y-119568083D01*
X142415569Y-119574601D01*
X142421317Y-119574988D01*
X142487713Y-119572130D01*
X142516618Y-119552723D01*
X142519499Y-119528534D01*
X142521800Y-119467712D01*
X142522998Y-119378446D01*
X142523001Y-119268100D01*
X142522594Y-119228836D01*
X142697462Y-119228836D01*
X142701127Y-119268100D01*
X142706399Y-119324584D01*
X142723197Y-119371716D01*
X142773879Y-119449259D01*
X142841872Y-119515020D01*
X142913850Y-119554245D01*
X142918046Y-119555504D01*
X143069126Y-119584468D01*
X143204328Y-119577896D01*
X143320412Y-119536394D01*
X143414137Y-119460569D01*
X143449678Y-119413628D01*
X143483015Y-119353764D01*
X143500443Y-119302391D01*
X143496623Y-119271733D01*
X143492545Y-119269467D01*
X143457924Y-119259908D01*
X143402290Y-119249400D01*
X143380782Y-119246113D01*
X143334955Y-119244197D01*
X143309470Y-119260922D01*
X143288313Y-119303951D01*
X143287264Y-119306427D01*
X143243985Y-119365579D01*
X143181084Y-119403613D01*
X143108138Y-119420891D01*
X143034728Y-119417772D01*
X142970432Y-119394617D01*
X142924830Y-119351784D01*
X142907500Y-119289636D01*
X142907519Y-119287405D01*
X142920376Y-119237402D01*
X142960374Y-119192452D01*
X143032398Y-119148636D01*
X143141335Y-119102034D01*
X143144989Y-119100627D01*
X143232339Y-119061437D01*
X143313692Y-119015929D01*
X143371872Y-118973665D01*
X143409973Y-118936332D01*
X143434855Y-118898608D01*
X143445194Y-118851143D01*
X143447250Y-118777665D01*
X143447022Y-118750838D01*
X143441599Y-118682066D01*
X143425542Y-118635047D01*
X143394334Y-118594111D01*
X143315209Y-118527011D01*
X143218150Y-118486290D01*
X143097522Y-118473767D01*
X143038704Y-118476773D01*
X142916621Y-118508151D01*
X142819212Y-118573833D01*
X142746059Y-118674057D01*
X142728653Y-118711951D01*
X142732075Y-118734718D01*
X142763945Y-118750605D01*
X142778308Y-118755956D01*
X142845909Y-118779317D01*
X142885381Y-118786715D01*
X142906146Y-118778396D01*
X142917628Y-118754603D01*
X142923410Y-118740358D01*
X142967180Y-118685504D01*
X143030725Y-118643147D01*
X143096145Y-118626167D01*
X143104569Y-118626357D01*
X143176611Y-118645465D01*
X143227122Y-118690044D01*
X143246167Y-118751775D01*
X143245621Y-118770983D01*
X143238770Y-118802688D01*
X143218771Y-118829502D01*
X143179057Y-118856510D01*
X143113064Y-118888798D01*
X143014224Y-118931454D01*
X142988996Y-118942307D01*
X142861001Y-119007157D01*
X142771753Y-119073966D01*
X142718243Y-119146578D01*
X142697462Y-119228836D01*
X142522594Y-119228836D01*
X142521716Y-119144038D01*
X142515917Y-118763750D01*
X142425959Y-118757241D01*
X142416373Y-118756577D01*
X142364212Y-118756180D01*
X142341176Y-118767387D01*
X142336000Y-118794916D01*
X142336000Y-118839101D01*
X142274473Y-118793611D01*
X142228986Y-118767761D01*
X142140458Y-118748183D01*
X142052215Y-118760319D01*
X141978670Y-118803677D01*
X141923250Y-118856765D01*
X141875731Y-118807383D01*
X141872043Y-118803668D01*
X141799214Y-118759361D01*
X141711105Y-118744612D01*
X141621993Y-118759552D01*
X141546157Y-118804316D01*
X141542785Y-118807490D01*
X141516826Y-118838506D01*
X141499785Y-118878658D01*
X141488397Y-118939009D01*
X141479401Y-119030621D01*
X141473172Y-119144467D01*
X141470489Y-119273059D01*
X141269231Y-119273059D01*
X141242774Y-119207296D01*
X141176243Y-119135500D01*
X141084609Y-119087902D01*
X140973162Y-119070667D01*
X140955029Y-119070458D01*
X140883141Y-119061822D01*
X140844614Y-119038065D01*
X140833167Y-118995830D01*
X140845108Y-118946039D01*
X140884991Y-118898963D01*
X140940512Y-118880167D01*
X140942604Y-118880214D01*
X140990768Y-118898148D01*
X141039084Y-118938328D01*
X141069516Y-118985962D01*
X141073746Y-118993273D01*
X141104580Y-119003289D01*
X141168205Y-118997196D01*
X141180842Y-118995005D01*
X141230012Y-118982893D01*
X141248020Y-118965844D01*
X141244207Y-118936380D01*
X141215523Y-118875883D01*
X141146086Y-118807975D01*
X141047845Y-118765088D01*
X140925797Y-118750143D01*
X140886145Y-118751522D01*
X140776534Y-118774572D01*
X140696898Y-118825209D01*
X140649154Y-118902378D01*
X140648871Y-118903211D01*
X140638727Y-118955608D01*
X140630575Y-119041385D01*
X140625027Y-119151838D01*
X140622882Y-119268100D01*
X140622695Y-119278259D01*
X140621500Y-119581101D01*
X139581457Y-119581101D01*
X139668556Y-119561565D01*
X139740345Y-119516790D01*
X139750751Y-119505545D01*
X139766472Y-119480724D01*
X139777200Y-119445440D01*
X139784230Y-119391726D01*
X139788862Y-119311615D01*
X139792391Y-119197139D01*
X139793159Y-119167005D01*
X139796173Y-119064037D01*
X139799894Y-118994998D01*
X139805760Y-118953107D01*
X139815207Y-118931582D01*
X139829675Y-118923640D01*
X139850599Y-118922500D01*
X139853648Y-118922485D01*
X139885191Y-118916732D01*
X139898867Y-118892459D01*
X139901142Y-118850571D01*
X139969161Y-118850571D01*
X139969733Y-118857342D01*
X139978190Y-118908069D01*
X139998787Y-118931036D01*
X140042492Y-118939551D01*
X140093942Y-118949034D01*
X140133639Y-118970907D01*
X140161305Y-119010937D01*
X140179545Y-119075160D01*
X140190964Y-119169611D01*
X140198167Y-119300329D01*
X140208750Y-119568083D01*
X140298902Y-119574601D01*
X140304650Y-119574988D01*
X140371047Y-119572130D01*
X140399951Y-119552723D01*
X140402832Y-119528534D01*
X140405134Y-119467712D01*
X140406331Y-119378446D01*
X140406334Y-119268100D01*
X140405049Y-119144038D01*
X140399250Y-118763750D01*
X140314584Y-118763750D01*
X140306848Y-118763772D01*
X140255588Y-118767742D01*
X140232063Y-118784354D01*
X140223224Y-118821916D01*
X140216530Y-118880082D01*
X140165247Y-118819136D01*
X140157615Y-118810521D01*
X140099131Y-118765016D01*
X140037517Y-118744243D01*
X139986404Y-118753226D01*
X139982309Y-118757052D01*
X139970441Y-118793601D01*
X139969447Y-118837833D01*
X139969161Y-118850571D01*
X139901142Y-118850571D01*
X139901834Y-118837833D01*
X139901823Y-118832240D01*
X139898302Y-118780411D01*
X139883507Y-118758003D01*
X139850214Y-118753167D01*
X139845643Y-118753119D01*
X139814293Y-118745923D01*
X139796592Y-118718713D01*
X139784676Y-118660355D01*
X139780679Y-118635316D01*
X139767619Y-118588839D01*
X139742941Y-118566581D01*
X139695407Y-118555316D01*
X139644059Y-118549236D01*
X139605018Y-118557482D01*
X139588040Y-118591386D01*
X139584334Y-118659166D01*
X139583917Y-118699578D01*
X139577492Y-118737080D01*
X139555983Y-118751078D01*
X139510250Y-118753167D01*
X139488390Y-118753356D01*
X139452258Y-118759533D01*
X139438410Y-118783624D01*
X139436167Y-118837833D01*
X139436336Y-118863164D01*
X139441792Y-118904267D01*
X139463061Y-118919976D01*
X139510922Y-118922500D01*
X139585677Y-118922500D01*
X139579714Y-119171208D01*
X139573750Y-119419917D01*
X139482546Y-119426486D01*
X139449793Y-119429140D01*
X139410080Y-119437629D01*
X139396396Y-119458200D01*
X138885834Y-119458200D01*
X138885834Y-118471461D01*
X138605742Y-118484858D01*
X138576478Y-118486308D01*
X138451794Y-118494675D01*
X138360499Y-118506960D01*
X138295125Y-118526145D01*
X138248204Y-118555210D01*
X138212272Y-118597139D01*
X138192740Y-118631952D01*
X138179859Y-118654911D01*
X138174618Y-118666045D01*
X138151934Y-118764484D01*
X138169739Y-118859735D01*
X138226774Y-118944030D01*
X138284268Y-119001523D01*
X138217175Y-119058802D01*
X138212781Y-119062553D01*
X138149929Y-119139367D01*
X138120224Y-119236860D01*
X137904453Y-119236860D01*
X137907157Y-119187448D01*
X137909844Y-119058802D01*
X137908376Y-118943667D01*
X137901584Y-118763750D01*
X137711084Y-118763750D01*
X137705925Y-119049500D01*
X137703073Y-119183704D01*
X137699170Y-119283019D01*
X137692922Y-119351412D01*
X137683008Y-119394619D01*
X137668102Y-119418378D01*
X137646881Y-119428425D01*
X137618022Y-119430500D01*
X137601620Y-119430069D01*
X137563404Y-119422462D01*
X137535614Y-119400955D01*
X137516257Y-119359860D01*
X137503337Y-119293493D01*
X137494861Y-119196166D01*
X137488834Y-119062195D01*
X137478250Y-118763750D01*
X137287750Y-118763750D01*
X137287750Y-119268100D01*
X137062001Y-119268100D01*
X137060716Y-119144038D01*
X137054917Y-118763750D01*
X136864417Y-118763750D01*
X136864417Y-119283412D01*
X136617461Y-119283412D01*
X136617248Y-119151763D01*
X136616096Y-119006767D01*
X136612505Y-118679083D01*
X136864417Y-118679083D01*
X136954569Y-118685601D01*
X137005150Y-118686297D01*
X137046829Y-118671656D01*
X137063472Y-118631952D01*
X137061700Y-118559390D01*
X137058472Y-118531439D01*
X137047258Y-118501912D01*
X137018444Y-118490486D01*
X136959667Y-118488583D01*
X136864417Y-118488583D01*
X136864417Y-118679083D01*
X136612505Y-118679083D01*
X136610417Y-118488583D01*
X136419917Y-118488583D01*
X136419917Y-119162818D01*
X136202706Y-119162818D01*
X136191601Y-119044293D01*
X136158641Y-118935631D01*
X136134764Y-118890469D01*
X136065544Y-118811832D01*
X135980172Y-118765688D01*
X135886172Y-118755153D01*
X135791069Y-118783346D01*
X135733720Y-118813264D01*
X135727569Y-118650924D01*
X135721417Y-118488583D01*
X135530917Y-118488583D01*
X135530917Y-119568083D01*
X133700000Y-119568083D01*
X133700000Y-118276917D01*
X140737917Y-118276917D01*
X140833955Y-118283184D01*
X140861919Y-118284342D01*
X140916500Y-118282177D01*
X140945080Y-118274365D01*
X140950026Y-118263676D01*
X140957305Y-118219151D01*
X140960167Y-118155866D01*
X140960167Y-118052454D01*
X140737917Y-118065250D01*
X140737917Y-118276917D01*
X133700000Y-118276917D01*
X133700000Y-117488665D01*
X141066000Y-117488665D01*
X141066162Y-117490929D01*
X141073343Y-117526351D01*
X141089843Y-117594338D01*
X141113816Y-117687885D01*
X141143416Y-117799988D01*
X141176798Y-117923644D01*
X141212116Y-118051848D01*
X141212287Y-118052454D01*
X141247526Y-118177596D01*
X141248628Y-118181460D01*
X141267861Y-118243825D01*
X141285935Y-118275319D01*
X141312695Y-118285376D01*
X141357989Y-118283429D01*
X141436417Y-118276917D01*
X141560847Y-117768917D01*
X141600879Y-117948833D01*
X141606138Y-117972374D01*
X141627421Y-118065997D01*
X141646995Y-118149843D01*
X141661188Y-118208125D01*
X141662596Y-118213583D01*
X141679820Y-118262783D01*
X141705926Y-118283354D01*
X141755397Y-118287500D01*
X141811610Y-118279783D01*
X141843185Y-118251393D01*
X141854262Y-118219120D01*
X141875147Y-118150522D01*
X141900963Y-118060299D01*
X141929654Y-117956247D01*
X141959166Y-117846161D01*
X141987442Y-117737835D01*
X142012428Y-117639066D01*
X142032069Y-117557649D01*
X142044308Y-117501380D01*
X142045824Y-117488665D01*
X142103167Y-117488665D01*
X142103329Y-117490929D01*
X142110510Y-117526351D01*
X142127010Y-117594338D01*
X142150982Y-117687885D01*
X142180582Y-117799988D01*
X142213964Y-117923644D01*
X142249283Y-118051848D01*
X142284692Y-118177596D01*
X142285794Y-118181460D01*
X142305028Y-118243825D01*
X142323101Y-118275319D01*
X142349862Y-118285376D01*
X142395155Y-118283429D01*
X142473584Y-118276917D01*
X142598014Y-117768917D01*
X142638046Y-117948833D01*
X142643305Y-117972374D01*
X142664588Y-118065997D01*
X142684162Y-118149843D01*
X142698355Y-118208125D01*
X142699763Y-118213583D01*
X142716986Y-118262783D01*
X142743092Y-118283354D01*
X142792564Y-118287500D01*
X142848777Y-118279783D01*
X142880351Y-118251393D01*
X142891429Y-118219120D01*
X142912314Y-118150522D01*
X142938129Y-118060299D01*
X142966821Y-117956247D01*
X142996332Y-117846161D01*
X143024609Y-117737835D01*
X143049595Y-117639066D01*
X143069235Y-117557649D01*
X143081474Y-117501380D01*
X143082991Y-117488665D01*
X143140334Y-117488665D01*
X143140495Y-117490929D01*
X143147677Y-117526351D01*
X143164176Y-117594338D01*
X143188149Y-117687885D01*
X143217749Y-117799988D01*
X143251131Y-117923644D01*
X143286450Y-118051848D01*
X143321859Y-118177596D01*
X143322961Y-118181460D01*
X143342194Y-118243825D01*
X143360268Y-118275319D01*
X143387028Y-118285376D01*
X143432322Y-118283429D01*
X143510750Y-118276917D01*
X143572966Y-118022917D01*
X143635181Y-117768917D01*
X143675213Y-117948833D01*
X143680472Y-117972374D01*
X143701754Y-118065997D01*
X143721328Y-118149843D01*
X143735522Y-118208125D01*
X143736929Y-118213583D01*
X143754153Y-118262783D01*
X143780259Y-118283354D01*
X143829731Y-118287500D01*
X143885944Y-118279783D01*
X143917518Y-118251393D01*
X143928596Y-118219120D01*
X143949480Y-118150522D01*
X143975296Y-118060299D01*
X144003987Y-117956247D01*
X144033499Y-117846161D01*
X144061776Y-117737835D01*
X144086762Y-117639066D01*
X144106402Y-117557649D01*
X144118641Y-117501380D01*
X144121423Y-117478053D01*
X144117966Y-117474967D01*
X144083786Y-117465721D01*
X144028488Y-117462000D01*
X143975021Y-117465435D01*
X143945961Y-117481958D01*
X143930699Y-117520208D01*
X143926943Y-117535183D01*
X143912233Y-117594877D01*
X143892158Y-117677168D01*
X143869929Y-117768917D01*
X143857455Y-117817730D01*
X143837603Y-117883733D01*
X143821568Y-117922777D01*
X143811978Y-117927667D01*
X143806507Y-117909779D01*
X143792069Y-117855082D01*
X143772568Y-117776426D01*
X143750636Y-117684250D01*
X143701250Y-117472583D01*
X143622589Y-117466056D01*
X143577119Y-117464703D01*
X143546311Y-117476174D01*
X143531673Y-117508390D01*
X143526662Y-117529039D01*
X143512437Y-117589457D01*
X143493150Y-117672565D01*
X143471498Y-117766777D01*
X143423578Y-117976305D01*
X143373928Y-117787944D01*
X143355363Y-117717244D01*
X143328279Y-117614572D01*
X143308245Y-117543679D01*
X143292393Y-117498739D01*
X143277853Y-117473927D01*
X143261757Y-117463417D01*
X143245343Y-117461790D01*
X144621764Y-117461790D01*
X144621812Y-117478053D01*
X144624773Y-118471461D01*
X144627174Y-119276937D01*
X144627250Y-119302391D01*
X144630619Y-120432818D01*
X144631865Y-120850986D01*
X144632130Y-120939737D01*
X144632584Y-121092083D01*
X146681083Y-121097480D01*
X146705962Y-121097545D01*
X147056079Y-121098353D01*
X147366129Y-121098835D01*
X147638237Y-121098967D01*
X147874526Y-121098729D01*
X148077120Y-121098099D01*
X148248143Y-121097055D01*
X148389719Y-121095574D01*
X148503971Y-121093636D01*
X148593023Y-121091218D01*
X148659000Y-121088299D01*
X148704025Y-121084856D01*
X148730222Y-121080868D01*
X148739715Y-121076314D01*
X148740714Y-121064437D01*
X148742063Y-121013350D01*
X148743215Y-120925160D01*
X148744163Y-120803009D01*
X148744898Y-120650042D01*
X148745411Y-120469402D01*
X148745696Y-120264235D01*
X148745744Y-120037684D01*
X148745546Y-119792892D01*
X148745095Y-119533005D01*
X148744383Y-119261167D01*
X148738917Y-117472583D01*
X146680341Y-117467187D01*
X144621764Y-117461790D01*
X143245343Y-117461790D01*
X143241237Y-117461383D01*
X143213422Y-117462000D01*
X143211539Y-117462006D01*
X143159595Y-117469420D01*
X143150955Y-117478053D01*
X143140334Y-117488665D01*
X143082991Y-117488665D01*
X143084257Y-117478053D01*
X143080800Y-117474967D01*
X143046619Y-117465721D01*
X142991321Y-117462000D01*
X142937854Y-117465435D01*
X142908794Y-117481958D01*
X142893532Y-117520208D01*
X142889776Y-117535183D01*
X142875066Y-117594877D01*
X142854991Y-117677168D01*
X142832762Y-117768917D01*
X142820288Y-117817730D01*
X142800436Y-117883733D01*
X142784402Y-117922777D01*
X142774811Y-117927667D01*
X142769340Y-117909779D01*
X142754902Y-117855082D01*
X142735402Y-117776426D01*
X142713469Y-117684250D01*
X142664084Y-117472583D01*
X142585422Y-117466056D01*
X142539952Y-117464703D01*
X142509144Y-117476174D01*
X142494506Y-117508390D01*
X142489496Y-117529039D01*
X142475270Y-117589457D01*
X142455983Y-117672565D01*
X142434332Y-117766777D01*
X142386411Y-117976305D01*
X142336762Y-117787944D01*
X142318197Y-117717244D01*
X142291113Y-117614572D01*
X142271079Y-117543679D01*
X142255226Y-117498739D01*
X142240687Y-117473927D01*
X142224591Y-117463417D01*
X142204070Y-117461383D01*
X142176256Y-117462000D01*
X142174372Y-117462006D01*
X142122429Y-117469420D01*
X142113788Y-117478053D01*
X142103167Y-117488665D01*
X142045824Y-117488665D01*
X142047090Y-117478053D01*
X142043633Y-117474967D01*
X142009453Y-117465721D01*
X141954155Y-117462000D01*
X141900687Y-117465435D01*
X141871628Y-117481958D01*
X141856365Y-117520208D01*
X141852609Y-117535183D01*
X141837899Y-117594877D01*
X141817825Y-117677168D01*
X141795595Y-117768917D01*
X141783122Y-117817730D01*
X141763270Y-117883733D01*
X141747235Y-117922777D01*
X141737644Y-117927667D01*
X141732173Y-117909779D01*
X141717735Y-117855082D01*
X141698235Y-117776426D01*
X141676303Y-117684250D01*
X141626917Y-117472583D01*
X141548255Y-117466056D01*
X141502786Y-117464703D01*
X141471978Y-117476174D01*
X141457340Y-117508390D01*
X141452329Y-117529039D01*
X141438103Y-117589457D01*
X141418816Y-117672565D01*
X141397165Y-117766777D01*
X141349245Y-117976305D01*
X141299595Y-117787944D01*
X141281030Y-117717244D01*
X141253946Y-117614572D01*
X141233912Y-117543679D01*
X141218060Y-117498739D01*
X141203520Y-117473927D01*
X141187424Y-117463417D01*
X141166903Y-117461383D01*
X141139089Y-117462000D01*
X141137206Y-117462006D01*
X141085262Y-117469420D01*
X141066000Y-117488665D01*
X133700000Y-117488665D01*
X133700000Y-117292667D01*
X148940583Y-117292667D01*
X148939672Y-119250583D01*
X148939305Y-120037684D01*
X148938760Y-121208500D01*
G37*
D16*
%TO.C,EC6*%
X144324420Y-122730000D02*
X144605580Y-122730000D01*
X144324420Y-123750000D02*
X144605580Y-123750000D01*
D17*
%TO.C,ANT1*%
X140790000Y-123600000D02*
X132790000Y-123600000D01*
X132790000Y-125700000D02*
X140790000Y-125700000D01*
D18*
X143330500Y-124650000D02*
G75*
G03*
X143330500Y-124650000I-190500J0D01*
G01*
%TO.C,REF\u002A\u002A*%
D19*
X135342829Y-108561097D02*
X135402753Y-108583355D01*
X135427673Y-108600080D01*
X135452910Y-108624043D01*
X135470912Y-108654526D01*
X135482858Y-108696023D01*
X135489930Y-108753032D01*
X135493308Y-108830047D01*
X135494171Y-108931565D01*
X135494002Y-108984027D01*
X135493153Y-109055715D01*
X135491711Y-109112925D01*
X135489814Y-109150809D01*
X135487597Y-109164514D01*
X135473172Y-109159981D01*
X135444054Y-109147670D01*
X135443181Y-109147272D01*
X135428060Y-109139356D01*
X135417891Y-109128495D01*
X135411691Y-109109471D01*
X135408478Y-109077069D01*
X135407270Y-109026071D01*
X135407086Y-108951261D01*
X135406714Y-108903804D01*
X135402750Y-108814615D01*
X135393673Y-108749287D01*
X135378524Y-108704393D01*
X135356345Y-108676507D01*
X135326175Y-108662203D01*
X135321990Y-108661206D01*
X135265480Y-108660427D01*
X135221410Y-108685744D01*
X135190972Y-108736502D01*
X135185544Y-108751175D01*
X135173171Y-108783649D01*
X135166905Y-108798572D01*
X135154036Y-108796516D01*
X135125933Y-108785357D01*
X135099721Y-108766927D01*
X135087771Y-108732098D01*
X135091336Y-108707151D01*
X135113235Y-108656547D01*
X135148644Y-108609128D01*
X135190052Y-108576334D01*
X135207400Y-108568752D01*
X135273089Y-108556076D01*
X135342829Y-108561097D01*
G36*
X135342829Y-108561097D02*
G01*
X135402753Y-108583355D01*
X135427673Y-108600080D01*
X135452910Y-108624043D01*
X135470912Y-108654526D01*
X135482858Y-108696023D01*
X135489930Y-108753032D01*
X135493308Y-108830047D01*
X135494171Y-108931565D01*
X135494002Y-108984027D01*
X135493153Y-109055715D01*
X135491711Y-109112925D01*
X135489814Y-109150809D01*
X135487597Y-109164514D01*
X135473172Y-109159981D01*
X135444054Y-109147670D01*
X135443181Y-109147272D01*
X135428060Y-109139356D01*
X135417891Y-109128495D01*
X135411691Y-109109471D01*
X135408478Y-109077069D01*
X135407270Y-109026071D01*
X135407086Y-108951261D01*
X135406714Y-108903804D01*
X135402750Y-108814615D01*
X135393673Y-108749287D01*
X135378524Y-108704393D01*
X135356345Y-108676507D01*
X135326175Y-108662203D01*
X135321990Y-108661206D01*
X135265480Y-108660427D01*
X135221410Y-108685744D01*
X135190972Y-108736502D01*
X135185544Y-108751175D01*
X135173171Y-108783649D01*
X135166905Y-108798572D01*
X135154036Y-108796516D01*
X135125933Y-108785357D01*
X135099721Y-108766927D01*
X135087771Y-108732098D01*
X135091336Y-108707151D01*
X135113235Y-108656547D01*
X135148644Y-108609128D01*
X135190052Y-108576334D01*
X135207400Y-108568752D01*
X135273089Y-108556076D01*
X135342829Y-108561097D01*
G37*
X139291020Y-108527822D02*
X139358810Y-108559680D01*
X139414366Y-108614770D01*
X139425881Y-108632016D01*
X139435432Y-108651562D01*
X139442206Y-108676198D01*
X139446819Y-108710711D01*
X139449888Y-108759889D01*
X139452029Y-108828519D01*
X139453859Y-108921389D01*
X139458404Y-109179007D01*
X139420225Y-109164491D01*
X139385268Y-109151156D01*
X139359097Y-109138323D01*
X139342013Y-109121780D01*
X139332086Y-109096465D01*
X139327386Y-109057316D01*
X139325982Y-108999268D01*
X139325943Y-108917261D01*
X139325744Y-108851895D01*
X139324559Y-108789173D01*
X139321729Y-108746334D01*
X139316609Y-108718220D01*
X139308553Y-108699675D01*
X139296914Y-108685543D01*
X139268303Y-108665600D01*
X139220239Y-108658083D01*
X139172688Y-108677079D01*
X139169550Y-108679511D01*
X139159769Y-108690748D01*
X139152553Y-108708770D01*
X139147299Y-108738026D01*
X139143402Y-108782962D01*
X139140256Y-108848028D01*
X139137257Y-108937670D01*
X139130000Y-109177697D01*
X139068314Y-109150044D01*
X139006629Y-109122391D01*
X139006629Y-108903246D01*
X139006884Y-108843711D01*
X139009086Y-108760892D01*
X139014661Y-108699227D01*
X139024941Y-108653748D01*
X139041258Y-108619484D01*
X139064943Y-108591466D01*
X139097328Y-108564723D01*
X139143907Y-108537780D01*
X139217287Y-108520191D01*
X139291020Y-108527822D01*
G36*
X139291020Y-108527822D02*
G01*
X139358810Y-108559680D01*
X139414366Y-108614770D01*
X139425881Y-108632016D01*
X139435432Y-108651562D01*
X139442206Y-108676198D01*
X139446819Y-108710711D01*
X139449888Y-108759889D01*
X139452029Y-108828519D01*
X139453859Y-108921389D01*
X139458404Y-109179007D01*
X139420225Y-109164491D01*
X139385268Y-109151156D01*
X139359097Y-109138323D01*
X139342013Y-109121780D01*
X139332086Y-109096465D01*
X139327386Y-109057316D01*
X139325982Y-108999268D01*
X139325943Y-108917261D01*
X139325744Y-108851895D01*
X139324559Y-108789173D01*
X139321729Y-108746334D01*
X139316609Y-108718220D01*
X139308553Y-108699675D01*
X139296914Y-108685543D01*
X139268303Y-108665600D01*
X139220239Y-108658083D01*
X139172688Y-108677079D01*
X139169550Y-108679511D01*
X139159769Y-108690748D01*
X139152553Y-108708770D01*
X139147299Y-108738026D01*
X139143402Y-108782962D01*
X139140256Y-108848028D01*
X139137257Y-108937670D01*
X139130000Y-109177697D01*
X139068314Y-109150044D01*
X139006629Y-109122391D01*
X139006629Y-108903246D01*
X139006884Y-108843711D01*
X139009086Y-108760892D01*
X139014661Y-108699227D01*
X139024941Y-108653748D01*
X139041258Y-108619484D01*
X139064943Y-108591466D01*
X139097328Y-108564723D01*
X139143907Y-108537780D01*
X139217287Y-108520191D01*
X139291020Y-108527822D01*
G37*
X137467691Y-108576467D02*
X137472273Y-108579003D01*
X137509704Y-108608057D01*
X137543170Y-108645410D01*
X137549007Y-108653852D01*
X137560165Y-108673553D01*
X137568136Y-108696935D01*
X137573618Y-108729067D01*
X137577307Y-108775019D01*
X137579899Y-108839859D01*
X137582092Y-108928657D01*
X137582402Y-108943669D01*
X137583400Y-109040999D01*
X137581994Y-109109934D01*
X137578164Y-109150948D01*
X137571889Y-109164514D01*
X137552898Y-109160452D01*
X137520638Y-109148144D01*
X137513041Y-109144545D01*
X137501176Y-109136398D01*
X137492994Y-109123004D01*
X137487643Y-109099608D01*
X137484269Y-109061455D01*
X137482019Y-109003790D01*
X137480040Y-108921857D01*
X137479498Y-108897907D01*
X137477403Y-108822266D01*
X137474683Y-108769328D01*
X137470515Y-108734075D01*
X137464079Y-108711487D01*
X137454550Y-108696544D01*
X137441106Y-108684227D01*
X137401305Y-108662634D01*
X137352341Y-108658476D01*
X137308529Y-108674999D01*
X137277008Y-108709210D01*
X137264914Y-108758114D01*
X137264578Y-108771407D01*
X137257972Y-108795472D01*
X137238470Y-108799144D01*
X137200283Y-108784813D01*
X137191438Y-108780217D01*
X137167534Y-108753186D01*
X137167061Y-108712994D01*
X137189836Y-108657409D01*
X137210727Y-108627117D01*
X137264142Y-108584084D01*
X137330074Y-108559755D01*
X137400574Y-108556443D01*
X137467691Y-108576467D01*
G36*
X137467691Y-108576467D02*
G01*
X137472273Y-108579003D01*
X137509704Y-108608057D01*
X137543170Y-108645410D01*
X137549007Y-108653852D01*
X137560165Y-108673553D01*
X137568136Y-108696935D01*
X137573618Y-108729067D01*
X137577307Y-108775019D01*
X137579899Y-108839859D01*
X137582092Y-108928657D01*
X137582402Y-108943669D01*
X137583400Y-109040999D01*
X137581994Y-109109934D01*
X137578164Y-109150948D01*
X137571889Y-109164514D01*
X137552898Y-109160452D01*
X137520638Y-109148144D01*
X137513041Y-109144545D01*
X137501176Y-109136398D01*
X137492994Y-109123004D01*
X137487643Y-109099608D01*
X137484269Y-109061455D01*
X137482019Y-109003790D01*
X137480040Y-108921857D01*
X137479498Y-108897907D01*
X137477403Y-108822266D01*
X137474683Y-108769328D01*
X137470515Y-108734075D01*
X137464079Y-108711487D01*
X137454550Y-108696544D01*
X137441106Y-108684227D01*
X137401305Y-108662634D01*
X137352341Y-108658476D01*
X137308529Y-108674999D01*
X137277008Y-108709210D01*
X137264914Y-108758114D01*
X137264578Y-108771407D01*
X137257972Y-108795472D01*
X137238470Y-108799144D01*
X137200283Y-108784813D01*
X137191438Y-108780217D01*
X137167534Y-108753186D01*
X137167061Y-108712994D01*
X137189836Y-108657409D01*
X137210727Y-108627117D01*
X137264142Y-108584084D01*
X137330074Y-108559755D01*
X137400574Y-108556443D01*
X137467691Y-108576467D01*
G37*
X138538543Y-108359444D02*
X138585714Y-108379342D01*
X138585714Y-108776509D01*
X138585519Y-108879498D01*
X138584998Y-108972141D01*
X138584199Y-109050700D01*
X138583172Y-109111439D01*
X138581963Y-109150623D01*
X138580623Y-109164514D01*
X138580099Y-109164468D01*
X138562287Y-109159420D01*
X138529823Y-109148580D01*
X138484114Y-109132646D01*
X138484114Y-108928173D01*
X138483824Y-108847832D01*
X138482474Y-108789562D01*
X138479369Y-108749909D01*
X138473812Y-108723618D01*
X138465107Y-108705436D01*
X138452556Y-108690107D01*
X138443999Y-108681955D01*
X138397728Y-108659375D01*
X138346728Y-108661375D01*
X138299993Y-108688073D01*
X138293189Y-108694698D01*
X138282293Y-108708456D01*
X138274836Y-108726642D01*
X138270169Y-108754177D01*
X138267642Y-108795981D01*
X138266602Y-108856973D01*
X138266400Y-108942073D01*
X138266303Y-108985234D01*
X138265674Y-109056224D01*
X138264556Y-109113076D01*
X138263063Y-109150828D01*
X138261309Y-109164514D01*
X138260785Y-109164468D01*
X138242973Y-109159420D01*
X138210509Y-109148580D01*
X138164800Y-109132646D01*
X138164823Y-108927237D01*
X138164857Y-108908951D01*
X138166778Y-108813626D01*
X138172678Y-108741543D01*
X138184001Y-108687813D01*
X138202187Y-108647549D01*
X138228679Y-108615861D01*
X138264918Y-108587861D01*
X138300263Y-108570333D01*
X138356773Y-108556785D01*
X138412356Y-108556015D01*
X138455086Y-108569195D01*
X138458298Y-108571015D01*
X138468205Y-108570820D01*
X138474975Y-108555572D01*
X138479861Y-108520613D01*
X138484114Y-108461289D01*
X138491371Y-108339547D01*
X138538543Y-108359444D01*
G36*
X138538543Y-108359444D02*
G01*
X138585714Y-108379342D01*
X138585714Y-108776509D01*
X138585519Y-108879498D01*
X138584998Y-108972141D01*
X138584199Y-109050700D01*
X138583172Y-109111439D01*
X138581963Y-109150623D01*
X138580623Y-109164514D01*
X138580099Y-109164468D01*
X138562287Y-109159420D01*
X138529823Y-109148580D01*
X138484114Y-109132646D01*
X138484114Y-108928173D01*
X138483824Y-108847832D01*
X138482474Y-108789562D01*
X138479369Y-108749909D01*
X138473812Y-108723618D01*
X138465107Y-108705436D01*
X138452556Y-108690107D01*
X138443999Y-108681955D01*
X138397728Y-108659375D01*
X138346728Y-108661375D01*
X138299993Y-108688073D01*
X138293189Y-108694698D01*
X138282293Y-108708456D01*
X138274836Y-108726642D01*
X138270169Y-108754177D01*
X138267642Y-108795981D01*
X138266602Y-108856973D01*
X138266400Y-108942073D01*
X138266303Y-108985234D01*
X138265674Y-109056224D01*
X138264556Y-109113076D01*
X138263063Y-109150828D01*
X138261309Y-109164514D01*
X138260785Y-109164468D01*
X138242973Y-109159420D01*
X138210509Y-109148580D01*
X138164800Y-109132646D01*
X138164823Y-108927237D01*
X138164857Y-108908951D01*
X138166778Y-108813626D01*
X138172678Y-108741543D01*
X138184001Y-108687813D01*
X138202187Y-108647549D01*
X138228679Y-108615861D01*
X138264918Y-108587861D01*
X138300263Y-108570333D01*
X138356773Y-108556785D01*
X138412356Y-108556015D01*
X138455086Y-108569195D01*
X138458298Y-108571015D01*
X138468205Y-108570820D01*
X138474975Y-108555572D01*
X138479861Y-108520613D01*
X138484114Y-108461289D01*
X138491371Y-108339547D01*
X138538543Y-108359444D01*
G37*
X136513941Y-108559282D02*
X136545774Y-108571758D01*
X136582743Y-108588602D01*
X136582743Y-109075196D01*
X136536812Y-109121127D01*
X136526320Y-109131427D01*
X136497255Y-109154320D01*
X136467943Y-109161735D01*
X136424326Y-109158321D01*
X136406568Y-109156114D01*
X136360767Y-109151445D01*
X136328743Y-109149585D01*
X136319244Y-109149869D01*
X136280274Y-109152948D01*
X136233160Y-109158321D01*
X136218085Y-109160168D01*
X136180110Y-109160893D01*
X136152325Y-109149429D01*
X136120674Y-109121127D01*
X136074743Y-109075196D01*
X136074743Y-108815055D01*
X136075101Y-108738180D01*
X136076216Y-108664886D01*
X136077952Y-108606850D01*
X136080167Y-108568663D01*
X136082721Y-108554914D01*
X136083256Y-108554951D01*
X136101808Y-108561793D01*
X136133153Y-108576868D01*
X136175608Y-108598822D01*
X136179604Y-108827240D01*
X136183600Y-109055657D01*
X136270686Y-109055657D01*
X136274657Y-108805286D01*
X136275916Y-108737227D01*
X136277718Y-108664482D01*
X136279671Y-108606730D01*
X136281612Y-108568648D01*
X136283377Y-108554914D01*
X136283885Y-108554962D01*
X136301482Y-108560015D01*
X136333834Y-108570849D01*
X136379543Y-108586783D01*
X136379765Y-108806706D01*
X136379988Y-108844909D01*
X136381531Y-108919146D01*
X136384292Y-108981145D01*
X136387977Y-109025308D01*
X136392292Y-109046041D01*
X136407732Y-109057131D01*
X136439241Y-109060556D01*
X136473886Y-109055657D01*
X136477857Y-108805286D01*
X136479278Y-108741663D01*
X136482225Y-108666356D01*
X136486079Y-108607286D01*
X136490542Y-108568718D01*
X136495317Y-108554914D01*
X136513941Y-108559282D01*
G36*
X136513941Y-108559282D02*
G01*
X136545774Y-108571758D01*
X136582743Y-108588602D01*
X136582743Y-109075196D01*
X136536812Y-109121127D01*
X136526320Y-109131427D01*
X136497255Y-109154320D01*
X136467943Y-109161735D01*
X136424326Y-109158321D01*
X136406568Y-109156114D01*
X136360767Y-109151445D01*
X136328743Y-109149585D01*
X136319244Y-109149869D01*
X136280274Y-109152948D01*
X136233160Y-109158321D01*
X136218085Y-109160168D01*
X136180110Y-109160893D01*
X136152325Y-109149429D01*
X136120674Y-109121127D01*
X136074743Y-109075196D01*
X136074743Y-108815055D01*
X136075101Y-108738180D01*
X136076216Y-108664886D01*
X136077952Y-108606850D01*
X136080167Y-108568663D01*
X136082721Y-108554914D01*
X136083256Y-108554951D01*
X136101808Y-108561793D01*
X136133153Y-108576868D01*
X136175608Y-108598822D01*
X136179604Y-108827240D01*
X136183600Y-109055657D01*
X136270686Y-109055657D01*
X136274657Y-108805286D01*
X136275916Y-108737227D01*
X136277718Y-108664482D01*
X136279671Y-108606730D01*
X136281612Y-108568648D01*
X136283377Y-108554914D01*
X136283885Y-108554962D01*
X136301482Y-108560015D01*
X136333834Y-108570849D01*
X136379543Y-108586783D01*
X136379765Y-108806706D01*
X136379988Y-108844909D01*
X136381531Y-108919146D01*
X136384292Y-108981145D01*
X136387977Y-109025308D01*
X136392292Y-109046041D01*
X136407732Y-109057131D01*
X136439241Y-109060556D01*
X136473886Y-109055657D01*
X136477857Y-108805286D01*
X136479278Y-108741663D01*
X136482225Y-108666356D01*
X136486079Y-108607286D01*
X136490542Y-108568718D01*
X136495317Y-108554914D01*
X136513941Y-108559282D01*
G37*
X141125714Y-108845200D02*
X141125701Y-108860935D01*
X141124914Y-108931119D01*
X141122210Y-108980022D01*
X141116606Y-109014178D01*
X141107119Y-109040124D01*
X141092768Y-109064397D01*
X141089237Y-109069433D01*
X141051878Y-109109143D01*
X141009311Y-109139092D01*
X140987452Y-109148810D01*
X140908908Y-109165020D01*
X140831231Y-109154535D01*
X140759645Y-109118707D01*
X140699374Y-109058887D01*
X140694286Y-109050873D01*
X140677730Y-109004342D01*
X140666573Y-108939552D01*
X140661160Y-108864727D01*
X140661768Y-108795513D01*
X140808248Y-108795513D01*
X140809402Y-108891399D01*
X140809866Y-108897569D01*
X140816629Y-108950478D01*
X140828671Y-108984029D01*
X140849005Y-109007016D01*
X140883097Y-109028548D01*
X140916814Y-109029680D01*
X140951543Y-109004857D01*
X140957584Y-108998325D01*
X140969417Y-108978779D01*
X140976404Y-108950386D01*
X140979727Y-108906430D01*
X140980571Y-108840192D01*
X140979125Y-108778150D01*
X140971907Y-108719042D01*
X140957006Y-108681686D01*
X140932636Y-108662152D01*
X140897008Y-108656514D01*
X140883440Y-108657635D01*
X140845430Y-108678194D01*
X140820312Y-108724299D01*
X140808248Y-108795513D01*
X140661768Y-108795513D01*
X140661833Y-108788096D01*
X140668937Y-108717882D01*
X140682815Y-108662312D01*
X140700649Y-108625301D01*
X140750855Y-108567733D01*
X140818885Y-108531962D01*
X140902158Y-108519665D01*
X140924398Y-108520331D01*
X140989891Y-108533947D01*
X141043687Y-108568249D01*
X141093057Y-108627338D01*
X141095995Y-108631722D01*
X141109287Y-108655299D01*
X141117932Y-108681949D01*
X141122904Y-108718159D01*
X141125174Y-108770413D01*
X141125678Y-108840192D01*
X141125714Y-108845200D01*
G36*
X141125714Y-108845200D02*
G01*
X141125701Y-108860935D01*
X141124914Y-108931119D01*
X141122210Y-108980022D01*
X141116606Y-109014178D01*
X141107119Y-109040124D01*
X141092768Y-109064397D01*
X141089237Y-109069433D01*
X141051878Y-109109143D01*
X141009311Y-109139092D01*
X140987452Y-109148810D01*
X140908908Y-109165020D01*
X140831231Y-109154535D01*
X140759645Y-109118707D01*
X140699374Y-109058887D01*
X140694286Y-109050873D01*
X140677730Y-109004342D01*
X140666573Y-108939552D01*
X140661160Y-108864727D01*
X140661768Y-108795513D01*
X140808248Y-108795513D01*
X140809402Y-108891399D01*
X140809866Y-108897569D01*
X140816629Y-108950478D01*
X140828671Y-108984029D01*
X140849005Y-109007016D01*
X140883097Y-109028548D01*
X140916814Y-109029680D01*
X140951543Y-109004857D01*
X140957584Y-108998325D01*
X140969417Y-108978779D01*
X140976404Y-108950386D01*
X140979727Y-108906430D01*
X140980571Y-108840192D01*
X140979125Y-108778150D01*
X140971907Y-108719042D01*
X140957006Y-108681686D01*
X140932636Y-108662152D01*
X140897008Y-108656514D01*
X140883440Y-108657635D01*
X140845430Y-108678194D01*
X140820312Y-108724299D01*
X140808248Y-108795513D01*
X140661768Y-108795513D01*
X140661833Y-108788096D01*
X140668937Y-108717882D01*
X140682815Y-108662312D01*
X140700649Y-108625301D01*
X140750855Y-108567733D01*
X140818885Y-108531962D01*
X140902158Y-108519665D01*
X140924398Y-108520331D01*
X140989891Y-108533947D01*
X141043687Y-108568249D01*
X141093057Y-108627338D01*
X141095995Y-108631722D01*
X141109287Y-108655299D01*
X141117932Y-108681949D01*
X141122904Y-108718159D01*
X141125174Y-108770413D01*
X141125678Y-108840192D01*
X141125714Y-108845200D01*
G37*
X135000590Y-108862622D02*
X135000307Y-108901305D01*
X134996762Y-108977521D01*
X134987483Y-109033294D01*
X134970375Y-109074613D01*
X134943344Y-109107467D01*
X134904292Y-109137846D01*
X134879445Y-109151660D01*
X134839615Y-109160965D01*
X134783665Y-109160230D01*
X134752385Y-109157283D01*
X134714653Y-109148283D01*
X134684494Y-109128720D01*
X134649408Y-109092267D01*
X134644720Y-109086943D01*
X134613177Y-109045969D01*
X134598128Y-109010283D01*
X134594286Y-108967966D01*
X134594286Y-108905779D01*
X134637742Y-108922182D01*
X134669424Y-108941356D01*
X134696962Y-108986347D01*
X134702711Y-109000752D01*
X134734855Y-109041546D01*
X134778611Y-109062081D01*
X134826254Y-109060235D01*
X134870057Y-109033886D01*
X134885111Y-109017455D01*
X134898763Y-108992667D01*
X134894493Y-108970144D01*
X134869916Y-108946964D01*
X134822651Y-108920202D01*
X134750314Y-108886934D01*
X134601543Y-108821816D01*
X134597595Y-108757308D01*
X134599079Y-108716220D01*
X134696010Y-108716220D01*
X134703368Y-108741657D01*
X134736848Y-108768814D01*
X134797614Y-108799714D01*
X134807669Y-108804190D01*
X134855751Y-108825017D01*
X134891726Y-108839665D01*
X134908444Y-108845200D01*
X134910977Y-108841126D01*
X134911993Y-108816247D01*
X134908369Y-108776257D01*
X134899242Y-108737152D01*
X134870773Y-108687884D01*
X134829678Y-108660122D01*
X134780590Y-108656364D01*
X134728144Y-108679109D01*
X134713609Y-108690481D01*
X134696010Y-108716220D01*
X134599079Y-108716220D01*
X134599338Y-108709064D01*
X134621281Y-108648096D01*
X134648979Y-108614497D01*
X134706405Y-108576966D01*
X134774527Y-108558006D01*
X134844947Y-108559507D01*
X134909267Y-108583355D01*
X134923426Y-108592513D01*
X134955904Y-108620849D01*
X134978116Y-108656695D01*
X134991804Y-108705384D01*
X134998715Y-108772249D01*
X134999628Y-108816247D01*
X135000590Y-108862622D01*
G36*
X135000590Y-108862622D02*
G01*
X135000307Y-108901305D01*
X134996762Y-108977521D01*
X134987483Y-109033294D01*
X134970375Y-109074613D01*
X134943344Y-109107467D01*
X134904292Y-109137846D01*
X134879445Y-109151660D01*
X134839615Y-109160965D01*
X134783665Y-109160230D01*
X134752385Y-109157283D01*
X134714653Y-109148283D01*
X134684494Y-109128720D01*
X134649408Y-109092267D01*
X134644720Y-109086943D01*
X134613177Y-109045969D01*
X134598128Y-109010283D01*
X134594286Y-108967966D01*
X134594286Y-108905779D01*
X134637742Y-108922182D01*
X134669424Y-108941356D01*
X134696962Y-108986347D01*
X134702711Y-109000752D01*
X134734855Y-109041546D01*
X134778611Y-109062081D01*
X134826254Y-109060235D01*
X134870057Y-109033886D01*
X134885111Y-109017455D01*
X134898763Y-108992667D01*
X134894493Y-108970144D01*
X134869916Y-108946964D01*
X134822651Y-108920202D01*
X134750314Y-108886934D01*
X134601543Y-108821816D01*
X134597595Y-108757308D01*
X134599079Y-108716220D01*
X134696010Y-108716220D01*
X134703368Y-108741657D01*
X134736848Y-108768814D01*
X134797614Y-108799714D01*
X134807669Y-108804190D01*
X134855751Y-108825017D01*
X134891726Y-108839665D01*
X134908444Y-108845200D01*
X134910977Y-108841126D01*
X134911993Y-108816247D01*
X134908369Y-108776257D01*
X134899242Y-108737152D01*
X134870773Y-108687884D01*
X134829678Y-108660122D01*
X134780590Y-108656364D01*
X134728144Y-108679109D01*
X134713609Y-108690481D01*
X134696010Y-108716220D01*
X134599079Y-108716220D01*
X134599338Y-108709064D01*
X134621281Y-108648096D01*
X134648979Y-108614497D01*
X134706405Y-108576966D01*
X134774527Y-108558006D01*
X134844947Y-108559507D01*
X134909267Y-108583355D01*
X134923426Y-108592513D01*
X134955904Y-108620849D01*
X134978116Y-108656695D01*
X134991804Y-108705384D01*
X134998715Y-108772249D01*
X134999628Y-108816247D01*
X135000590Y-108862622D01*
G37*
X137090698Y-108859714D02*
X137089537Y-108916313D01*
X137081345Y-108993462D01*
X137063519Y-109051276D01*
X137033975Y-109095422D01*
X136990625Y-109131568D01*
X136949332Y-109152463D01*
X136879987Y-109164090D01*
X136810736Y-109151377D01*
X136748145Y-109115945D01*
X136698779Y-109059418D01*
X136692818Y-109048995D01*
X136684945Y-109030733D01*
X136679106Y-109007429D01*
X136674999Y-108975085D01*
X136672325Y-108929704D01*
X136670781Y-108867287D01*
X136670734Y-108861748D01*
X136771429Y-108861748D01*
X136771772Y-108914577D01*
X136773942Y-108962362D01*
X136779307Y-108993209D01*
X136789217Y-109013935D01*
X136805021Y-109031356D01*
X136808724Y-109034705D01*
X136856299Y-109059419D01*
X136906635Y-109056890D01*
X136953517Y-109027288D01*
X136967477Y-109011953D01*
X136979160Y-108991622D01*
X136985686Y-108963514D01*
X136988524Y-108920550D01*
X136989143Y-108855647D01*
X136988837Y-108806122D01*
X136986722Y-108757782D01*
X136981390Y-108726587D01*
X136971460Y-108705647D01*
X136955550Y-108688073D01*
X136946204Y-108680159D01*
X136897776Y-108658843D01*
X136847040Y-108662198D01*
X136802987Y-108690107D01*
X136793504Y-108701173D01*
X136781939Y-108722009D01*
X136775252Y-108751106D01*
X136772173Y-108795381D01*
X136771429Y-108861748D01*
X136670734Y-108861748D01*
X136670067Y-108783837D01*
X136669883Y-108675358D01*
X136669829Y-108338601D01*
X136717000Y-108358362D01*
X136729472Y-108363770D01*
X136749324Y-108375985D01*
X136760687Y-108394482D01*
X136766933Y-108426829D01*
X136771429Y-108480593D01*
X136775535Y-108528866D01*
X136780963Y-108560557D01*
X136788739Y-108572383D01*
X136800457Y-108569212D01*
X136830318Y-108558067D01*
X136883684Y-108555304D01*
X136941093Y-108565625D01*
X136990625Y-108587861D01*
X137017876Y-108608443D01*
X137052865Y-108648600D01*
X137075274Y-108700086D01*
X137087190Y-108768568D01*
X137090542Y-108855647D01*
X137090698Y-108859714D01*
G36*
X137090698Y-108859714D02*
G01*
X137089537Y-108916313D01*
X137081345Y-108993462D01*
X137063519Y-109051276D01*
X137033975Y-109095422D01*
X136990625Y-109131568D01*
X136949332Y-109152463D01*
X136879987Y-109164090D01*
X136810736Y-109151377D01*
X136748145Y-109115945D01*
X136698779Y-109059418D01*
X136692818Y-109048995D01*
X136684945Y-109030733D01*
X136679106Y-109007429D01*
X136674999Y-108975085D01*
X136672325Y-108929704D01*
X136670781Y-108867287D01*
X136670734Y-108861748D01*
X136771429Y-108861748D01*
X136771772Y-108914577D01*
X136773942Y-108962362D01*
X136779307Y-108993209D01*
X136789217Y-109013935D01*
X136805021Y-109031356D01*
X136808724Y-109034705D01*
X136856299Y-109059419D01*
X136906635Y-109056890D01*
X136953517Y-109027288D01*
X136967477Y-109011953D01*
X136979160Y-108991622D01*
X136985686Y-108963514D01*
X136988524Y-108920550D01*
X136989143Y-108855647D01*
X136988837Y-108806122D01*
X136986722Y-108757782D01*
X136981390Y-108726587D01*
X136971460Y-108705647D01*
X136955550Y-108688073D01*
X136946204Y-108680159D01*
X136897776Y-108658843D01*
X136847040Y-108662198D01*
X136802987Y-108690107D01*
X136793504Y-108701173D01*
X136781939Y-108722009D01*
X136775252Y-108751106D01*
X136772173Y-108795381D01*
X136771429Y-108861748D01*
X136670734Y-108861748D01*
X136670067Y-108783837D01*
X136669883Y-108675358D01*
X136669829Y-108338601D01*
X136717000Y-108358362D01*
X136729472Y-108363770D01*
X136749324Y-108375985D01*
X136760687Y-108394482D01*
X136766933Y-108426829D01*
X136771429Y-108480593D01*
X136775535Y-108528866D01*
X136780963Y-108560557D01*
X136788739Y-108572383D01*
X136800457Y-108569212D01*
X136830318Y-108558067D01*
X136883684Y-108555304D01*
X136941093Y-108565625D01*
X136990625Y-108587861D01*
X137017876Y-108608443D01*
X137052865Y-108648600D01*
X137075274Y-108700086D01*
X137087190Y-108768568D01*
X137090542Y-108855647D01*
X137090698Y-108859714D01*
G37*
X140022299Y-108804055D02*
X140017684Y-108914078D01*
X140015078Y-108937387D01*
X139995660Y-109020352D01*
X139960573Y-109083448D01*
X139907212Y-109131808D01*
X139904196Y-109133804D01*
X139836362Y-109162185D01*
X139765535Y-109164711D01*
X139697289Y-109143097D01*
X139637196Y-109099062D01*
X139590829Y-109034322D01*
X139590050Y-109032761D01*
X139574643Y-108992558D01*
X139563357Y-108946866D01*
X139557370Y-108903972D01*
X139557861Y-108872160D01*
X139566007Y-108859714D01*
X139573244Y-108860471D01*
X139607851Y-108874235D01*
X139647078Y-108899546D01*
X139680448Y-108928845D01*
X139697483Y-108954572D01*
X139715192Y-108989471D01*
X139751485Y-109021212D01*
X139793630Y-109033886D01*
X139809077Y-109030221D01*
X139839569Y-109011774D01*
X139866128Y-108986166D01*
X139877486Y-108962934D01*
X139877482Y-108962848D01*
X139864596Y-108952179D01*
X139830241Y-108932933D01*
X139779593Y-108907813D01*
X139717829Y-108879524D01*
X139717489Y-108879374D01*
X139650388Y-108849498D01*
X139605411Y-108827973D01*
X139578145Y-108811437D01*
X139564178Y-108796531D01*
X139559097Y-108779893D01*
X139558490Y-108758162D01*
X139562712Y-108717013D01*
X139706000Y-108717013D01*
X139720791Y-108729949D01*
X139757644Y-108749333D01*
X139758725Y-108749881D01*
X139802205Y-108770587D01*
X139841102Y-108787105D01*
X139865778Y-108794093D01*
X139875676Y-108784753D01*
X139877486Y-108752748D01*
X139869966Y-108712915D01*
X139843897Y-108676717D01*
X139806154Y-108657950D01*
X139764077Y-108659845D01*
X139725005Y-108685632D01*
X139709647Y-108703451D01*
X139706000Y-108717013D01*
X139562712Y-108717013D01*
X139563833Y-108706086D01*
X139590251Y-108635335D01*
X139634473Y-108579735D01*
X139691697Y-108541239D01*
X139757120Y-108521797D01*
X139825937Y-108523359D01*
X139893347Y-108547878D01*
X139954544Y-108597302D01*
X139988450Y-108646212D01*
X140012806Y-108716027D01*
X140016767Y-108752748D01*
X140022299Y-108804055D01*
G36*
X140022299Y-108804055D02*
G01*
X140017684Y-108914078D01*
X140015078Y-108937387D01*
X139995660Y-109020352D01*
X139960573Y-109083448D01*
X139907212Y-109131808D01*
X139904196Y-109133804D01*
X139836362Y-109162185D01*
X139765535Y-109164711D01*
X139697289Y-109143097D01*
X139637196Y-109099062D01*
X139590829Y-109034322D01*
X139590050Y-109032761D01*
X139574643Y-108992558D01*
X139563357Y-108946866D01*
X139557370Y-108903972D01*
X139557861Y-108872160D01*
X139566007Y-108859714D01*
X139573244Y-108860471D01*
X139607851Y-108874235D01*
X139647078Y-108899546D01*
X139680448Y-108928845D01*
X139697483Y-108954572D01*
X139715192Y-108989471D01*
X139751485Y-109021212D01*
X139793630Y-109033886D01*
X139809077Y-109030221D01*
X139839569Y-109011774D01*
X139866128Y-108986166D01*
X139877486Y-108962934D01*
X139877482Y-108962848D01*
X139864596Y-108952179D01*
X139830241Y-108932933D01*
X139779593Y-108907813D01*
X139717829Y-108879524D01*
X139717489Y-108879374D01*
X139650388Y-108849498D01*
X139605411Y-108827973D01*
X139578145Y-108811437D01*
X139564178Y-108796531D01*
X139559097Y-108779893D01*
X139558490Y-108758162D01*
X139562712Y-108717013D01*
X139706000Y-108717013D01*
X139720791Y-108729949D01*
X139757644Y-108749333D01*
X139758725Y-108749881D01*
X139802205Y-108770587D01*
X139841102Y-108787105D01*
X139865778Y-108794093D01*
X139875676Y-108784753D01*
X139877486Y-108752748D01*
X139869966Y-108712915D01*
X139843897Y-108676717D01*
X139806154Y-108657950D01*
X139764077Y-108659845D01*
X139725005Y-108685632D01*
X139709647Y-108703451D01*
X139706000Y-108717013D01*
X139562712Y-108717013D01*
X139563833Y-108706086D01*
X139590251Y-108635335D01*
X139634473Y-108579735D01*
X139691697Y-108541239D01*
X139757120Y-108521797D01*
X139825937Y-108523359D01*
X139893347Y-108547878D01*
X139954544Y-108597302D01*
X139988450Y-108646212D01*
X140012806Y-108716027D01*
X140016767Y-108752748D01*
X140022299Y-108804055D01*
G37*
X137949483Y-108570569D02*
X137999376Y-108599661D01*
X138021325Y-108622327D01*
X138063504Y-108690082D01*
X138077714Y-108763950D01*
X138077714Y-108814770D01*
X138030999Y-108795128D01*
X137998692Y-108775308D01*
X137973231Y-108734160D01*
X137970616Y-108725675D01*
X137942478Y-108682451D01*
X137900067Y-108659103D01*
X137851370Y-108658100D01*
X137804373Y-108681914D01*
X137797357Y-108688056D01*
X137773893Y-108714745D01*
X137770019Y-108738014D01*
X137787768Y-108760862D01*
X137829179Y-108786287D01*
X137896286Y-108817288D01*
X137900824Y-108819252D01*
X137975322Y-108853990D01*
X138026203Y-108884763D01*
X138057525Y-108915488D01*
X138073343Y-108950082D01*
X138077714Y-108992462D01*
X138071986Y-109039446D01*
X138043062Y-109099585D01*
X137992178Y-109142788D01*
X137955374Y-109155759D01*
X137903434Y-109162856D01*
X137852999Y-109161340D01*
X137816983Y-109150632D01*
X137813158Y-109147966D01*
X137802998Y-109129337D01*
X137810048Y-109096505D01*
X137822297Y-109070735D01*
X137841939Y-109060006D01*
X137879191Y-109060539D01*
X137930908Y-109057462D01*
X137964701Y-109036212D01*
X137976114Y-108996877D01*
X137976104Y-108995747D01*
X137969187Y-108972913D01*
X137945659Y-108951963D01*
X137899914Y-108927815D01*
X137837704Y-108898741D01*
X137796499Y-108882925D01*
X137772712Y-108883944D01*
X137761597Y-108904837D01*
X137758408Y-108948641D01*
X137758400Y-109018393D01*
X137758044Y-109061452D01*
X137756413Y-109114626D01*
X137753761Y-109151022D01*
X137750422Y-109164514D01*
X137749530Y-109164423D01*
X137730237Y-109157110D01*
X137698284Y-109141678D01*
X137654124Y-109118842D01*
X137659371Y-108913078D01*
X137659736Y-108899432D01*
X137663904Y-108803651D01*
X137671268Y-108731462D01*
X137683330Y-108678058D01*
X137701593Y-108638633D01*
X137727560Y-108608380D01*
X137762733Y-108582493D01*
X137763384Y-108582087D01*
X137820256Y-108560968D01*
X137886033Y-108557400D01*
X137949483Y-108570569D01*
G36*
X137949483Y-108570569D02*
G01*
X137999376Y-108599661D01*
X138021325Y-108622327D01*
X138063504Y-108690082D01*
X138077714Y-108763950D01*
X138077714Y-108814770D01*
X138030999Y-108795128D01*
X137998692Y-108775308D01*
X137973231Y-108734160D01*
X137970616Y-108725675D01*
X137942478Y-108682451D01*
X137900067Y-108659103D01*
X137851370Y-108658100D01*
X137804373Y-108681914D01*
X137797357Y-108688056D01*
X137773893Y-108714745D01*
X137770019Y-108738014D01*
X137787768Y-108760862D01*
X137829179Y-108786287D01*
X137896286Y-108817288D01*
X137900824Y-108819252D01*
X137975322Y-108853990D01*
X138026203Y-108884763D01*
X138057525Y-108915488D01*
X138073343Y-108950082D01*
X138077714Y-108992462D01*
X138071986Y-109039446D01*
X138043062Y-109099585D01*
X137992178Y-109142788D01*
X137955374Y-109155759D01*
X137903434Y-109162856D01*
X137852999Y-109161340D01*
X137816983Y-109150632D01*
X137813158Y-109147966D01*
X137802998Y-109129337D01*
X137810048Y-109096505D01*
X137822297Y-109070735D01*
X137841939Y-109060006D01*
X137879191Y-109060539D01*
X137930908Y-109057462D01*
X137964701Y-109036212D01*
X137976114Y-108996877D01*
X137976104Y-108995747D01*
X137969187Y-108972913D01*
X137945659Y-108951963D01*
X137899914Y-108927815D01*
X137837704Y-108898741D01*
X137796499Y-108882925D01*
X137772712Y-108883944D01*
X137761597Y-108904837D01*
X137758408Y-108948641D01*
X137758400Y-109018393D01*
X137758044Y-109061452D01*
X137756413Y-109114626D01*
X137753761Y-109151022D01*
X137750422Y-109164514D01*
X137749530Y-109164423D01*
X137730237Y-109157110D01*
X137698284Y-109141678D01*
X137654124Y-109118842D01*
X137659371Y-108913078D01*
X137659736Y-108899432D01*
X137663904Y-108803651D01*
X137671268Y-108731462D01*
X137683330Y-108678058D01*
X137701593Y-108638633D01*
X137727560Y-108608380D01*
X137762733Y-108582493D01*
X137763384Y-108582087D01*
X137820256Y-108560968D01*
X137886033Y-108557400D01*
X137949483Y-108570569D01*
G37*
X140569815Y-108911524D02*
X140571252Y-109023000D01*
X140571651Y-109055339D01*
X140572929Y-109163455D01*
X140573185Y-109246186D01*
X140571634Y-109306426D01*
X140567490Y-109347073D01*
X140559964Y-109371023D01*
X140548271Y-109381171D01*
X140531624Y-109380414D01*
X140509236Y-109371648D01*
X140480321Y-109357769D01*
X140474142Y-109354808D01*
X140448413Y-109340311D01*
X140434976Y-109323065D01*
X140429834Y-109294308D01*
X140428990Y-109245283D01*
X140428952Y-109157257D01*
X140338276Y-109157257D01*
X140282498Y-109154815D01*
X140238640Y-109144908D01*
X140202218Y-109124886D01*
X140199503Y-109122929D01*
X140162546Y-109089869D01*
X140136826Y-109049931D01*
X140120606Y-108997657D01*
X140112148Y-108927588D01*
X140110083Y-108848430D01*
X140254857Y-108848430D01*
X140254882Y-108861697D01*
X140256261Y-108921584D01*
X140260687Y-108960732D01*
X140269461Y-108986153D01*
X140283886Y-109004857D01*
X140284784Y-109005750D01*
X140320237Y-109029952D01*
X140354596Y-109027567D01*
X140393403Y-108998260D01*
X140402895Y-108988244D01*
X140416876Y-108967708D01*
X140424760Y-108940997D01*
X140428245Y-108900499D01*
X140429029Y-108838603D01*
X140428350Y-108801130D01*
X140420983Y-108732980D01*
X140404168Y-108688330D01*
X140376234Y-108663926D01*
X140335509Y-108656514D01*
X140318350Y-108658094D01*
X140288660Y-108673766D01*
X140269031Y-108708691D01*
X140258188Y-108765901D01*
X140254857Y-108848430D01*
X140110083Y-108848430D01*
X140109714Y-108834267D01*
X140110253Y-108766169D01*
X140112707Y-108714587D01*
X140118158Y-108678816D01*
X140127686Y-108652015D01*
X140142371Y-108627338D01*
X140155852Y-108608480D01*
X140204799Y-108557568D01*
X140260256Y-108529918D01*
X140329928Y-108521165D01*
X140409664Y-108529890D01*
X140478595Y-108561185D01*
X140533113Y-108616381D01*
X140537223Y-108622224D01*
X140546808Y-108637753D01*
X140554151Y-108655498D01*
X140559612Y-108679290D01*
X140563550Y-108712958D01*
X140566323Y-108760333D01*
X140568292Y-108825245D01*
X140568528Y-108838603D01*
X140569815Y-108911524D01*
G36*
X140569815Y-108911524D02*
G01*
X140571252Y-109023000D01*
X140571651Y-109055339D01*
X140572929Y-109163455D01*
X140573185Y-109246186D01*
X140571634Y-109306426D01*
X140567490Y-109347073D01*
X140559964Y-109371023D01*
X140548271Y-109381171D01*
X140531624Y-109380414D01*
X140509236Y-109371648D01*
X140480321Y-109357769D01*
X140474142Y-109354808D01*
X140448413Y-109340311D01*
X140434976Y-109323065D01*
X140429834Y-109294308D01*
X140428990Y-109245283D01*
X140428952Y-109157257D01*
X140338276Y-109157257D01*
X140282498Y-109154815D01*
X140238640Y-109144908D01*
X140202218Y-109124886D01*
X140199503Y-109122929D01*
X140162546Y-109089869D01*
X140136826Y-109049931D01*
X140120606Y-108997657D01*
X140112148Y-108927588D01*
X140110083Y-108848430D01*
X140254857Y-108848430D01*
X140254882Y-108861697D01*
X140256261Y-108921584D01*
X140260687Y-108960732D01*
X140269461Y-108986153D01*
X140283886Y-109004857D01*
X140284784Y-109005750D01*
X140320237Y-109029952D01*
X140354596Y-109027567D01*
X140393403Y-108998260D01*
X140402895Y-108988244D01*
X140416876Y-108967708D01*
X140424760Y-108940997D01*
X140428245Y-108900499D01*
X140429029Y-108838603D01*
X140428350Y-108801130D01*
X140420983Y-108732980D01*
X140404168Y-108688330D01*
X140376234Y-108663926D01*
X140335509Y-108656514D01*
X140318350Y-108658094D01*
X140288660Y-108673766D01*
X140269031Y-108708691D01*
X140258188Y-108765901D01*
X140254857Y-108848430D01*
X140110083Y-108848430D01*
X140109714Y-108834267D01*
X140110253Y-108766169D01*
X140112707Y-108714587D01*
X140118158Y-108678816D01*
X140127686Y-108652015D01*
X140142371Y-108627338D01*
X140155852Y-108608480D01*
X140204799Y-108557568D01*
X140260256Y-108529918D01*
X140329928Y-108521165D01*
X140409664Y-108529890D01*
X140478595Y-108561185D01*
X140533113Y-108616381D01*
X140537223Y-108622224D01*
X140546808Y-108637753D01*
X140554151Y-108655498D01*
X140559612Y-108679290D01*
X140563550Y-108712958D01*
X140566323Y-108760333D01*
X140568292Y-108825245D01*
X140568528Y-108838603D01*
X140569815Y-108911524D01*
G37*
X135827495Y-108556220D02*
X135858599Y-108564121D01*
X135887559Y-108583817D01*
X135924831Y-108620484D01*
X135948801Y-108646378D01*
X135973770Y-108679997D01*
X135985031Y-108711506D01*
X135987657Y-108751485D01*
X135987657Y-108816917D01*
X135943035Y-108793842D01*
X135907673Y-108765724D01*
X135883451Y-108727848D01*
X135879291Y-108717551D01*
X135847594Y-108677637D01*
X135803554Y-108657624D01*
X135755531Y-108659572D01*
X135711886Y-108685543D01*
X135693420Y-108706635D01*
X135682663Y-108733619D01*
X135694178Y-108757634D01*
X135729981Y-108781791D01*
X135792090Y-108809199D01*
X135801515Y-108812985D01*
X135858058Y-108837759D01*
X135906580Y-108862189D01*
X135937451Y-108881486D01*
X135968371Y-108915953D01*
X135988927Y-108970957D01*
X135986744Y-109029983D01*
X135962424Y-109085845D01*
X135916568Y-109131355D01*
X135879438Y-109150727D01*
X135807711Y-109164292D01*
X135767852Y-109162462D01*
X135730953Y-109152568D01*
X135716797Y-109131806D01*
X135722091Y-109097613D01*
X135723631Y-109093092D01*
X135735842Y-109069116D01*
X135756174Y-109060042D01*
X135794908Y-109060649D01*
X135822257Y-109061474D01*
X135854257Y-109054392D01*
X135876182Y-109033219D01*
X135888670Y-109007152D01*
X135890062Y-108979845D01*
X135889998Y-108979685D01*
X135873807Y-108964930D01*
X135839155Y-108943457D01*
X135794321Y-108919458D01*
X135747582Y-108897125D01*
X135707217Y-108880652D01*
X135681504Y-108874229D01*
X135677679Y-108880518D01*
X135672864Y-108910115D01*
X135669566Y-108958447D01*
X135668343Y-109019372D01*
X135668058Y-109061542D01*
X135666718Y-109114653D01*
X135664528Y-109151025D01*
X135661769Y-109164514D01*
X135647344Y-109159981D01*
X135618226Y-109147670D01*
X135581257Y-109130826D01*
X135581257Y-108914721D01*
X135581493Y-108859327D01*
X135583729Y-108775207D01*
X135589423Y-108712800D01*
X135599903Y-108667358D01*
X135616497Y-108634133D01*
X135640531Y-108608378D01*
X135673333Y-108585344D01*
X135715124Y-108566335D01*
X135792287Y-108554914D01*
X135827495Y-108556220D01*
G36*
X135827495Y-108556220D02*
G01*
X135858599Y-108564121D01*
X135887559Y-108583817D01*
X135924831Y-108620484D01*
X135948801Y-108646378D01*
X135973770Y-108679997D01*
X135985031Y-108711506D01*
X135987657Y-108751485D01*
X135987657Y-108816917D01*
X135943035Y-108793842D01*
X135907673Y-108765724D01*
X135883451Y-108727848D01*
X135879291Y-108717551D01*
X135847594Y-108677637D01*
X135803554Y-108657624D01*
X135755531Y-108659572D01*
X135711886Y-108685543D01*
X135693420Y-108706635D01*
X135682663Y-108733619D01*
X135694178Y-108757634D01*
X135729981Y-108781791D01*
X135792090Y-108809199D01*
X135801515Y-108812985D01*
X135858058Y-108837759D01*
X135906580Y-108862189D01*
X135937451Y-108881486D01*
X135968371Y-108915953D01*
X135988927Y-108970957D01*
X135986744Y-109029983D01*
X135962424Y-109085845D01*
X135916568Y-109131355D01*
X135879438Y-109150727D01*
X135807711Y-109164292D01*
X135767852Y-109162462D01*
X135730953Y-109152568D01*
X135716797Y-109131806D01*
X135722091Y-109097613D01*
X135723631Y-109093092D01*
X135735842Y-109069116D01*
X135756174Y-109060042D01*
X135794908Y-109060649D01*
X135822257Y-109061474D01*
X135854257Y-109054392D01*
X135876182Y-109033219D01*
X135888670Y-109007152D01*
X135890062Y-108979845D01*
X135889998Y-108979685D01*
X135873807Y-108964930D01*
X135839155Y-108943457D01*
X135794321Y-108919458D01*
X135747582Y-108897125D01*
X135707217Y-108880652D01*
X135681504Y-108874229D01*
X135677679Y-108880518D01*
X135672864Y-108910115D01*
X135669566Y-108958447D01*
X135668343Y-109019372D01*
X135668058Y-109061542D01*
X135666718Y-109114653D01*
X135664528Y-109151025D01*
X135661769Y-109164514D01*
X135647344Y-109159981D01*
X135618226Y-109147670D01*
X135581257Y-109130826D01*
X135581257Y-108914721D01*
X135581493Y-108859327D01*
X135583729Y-108775207D01*
X135589423Y-108712800D01*
X135599903Y-108667358D01*
X135616497Y-108634133D01*
X135640531Y-108608378D01*
X135673333Y-108585344D01*
X135715124Y-108566335D01*
X135792287Y-108554914D01*
X135827495Y-108556220D01*
G37*
X137973933Y-103852371D02*
X138049856Y-103852865D01*
X138104491Y-103854135D01*
X138141500Y-103856547D01*
X138164547Y-103860467D01*
X138177296Y-103866262D01*
X138183411Y-103874299D01*
X138186556Y-103884943D01*
X138186646Y-103885325D01*
X138191814Y-103910347D01*
X138201209Y-103958681D01*
X138213867Y-104025260D01*
X138228825Y-104105014D01*
X138245119Y-104192875D01*
X138246448Y-104200064D01*
X138262691Y-104285340D01*
X138277805Y-104360242D01*
X138290808Y-104420219D01*
X138300715Y-104460717D01*
X138306544Y-104477184D01*
X138306575Y-104477210D01*
X138324943Y-104486320D01*
X138362640Y-104501457D01*
X138411543Y-104519358D01*
X138414297Y-104520330D01*
X138476817Y-104543959D01*
X138549543Y-104573595D01*
X138617294Y-104603062D01*
X138728703Y-104653626D01*
X138975399Y-104485160D01*
X138992775Y-104473311D01*
X139067202Y-104422947D01*
X139133614Y-104378612D01*
X139188039Y-104342916D01*
X139226506Y-104318471D01*
X139245042Y-104307889D01*
X139257743Y-104310315D01*
X139286579Y-104329110D01*
X139331143Y-104366330D01*
X139392670Y-104423020D01*
X139472398Y-104500227D01*
X139479532Y-104507255D01*
X139542796Y-104570222D01*
X139598990Y-104627268D01*
X139644677Y-104674817D01*
X139676414Y-104709297D01*
X139690764Y-104727131D01*
X139690810Y-104727217D01*
X139692633Y-104740795D01*
X139685910Y-104762820D01*
X139668946Y-104796304D01*
X139640044Y-104844261D01*
X139597508Y-104909704D01*
X139539644Y-104995645D01*
X139529783Y-105010151D01*
X139479913Y-105083635D01*
X139435905Y-105148687D01*
X139400380Y-105201417D01*
X139375959Y-105237936D01*
X139365264Y-105254356D01*
X139364458Y-105257834D01*
X139369518Y-105283785D01*
X139384677Y-105326159D01*
X139407463Y-105377728D01*
X139438429Y-105445170D01*
X139473004Y-105525195D01*
X139502366Y-105597629D01*
X139509645Y-105616377D01*
X139528710Y-105664246D01*
X139542715Y-105697596D01*
X139549041Y-105710114D01*
X139556025Y-105711050D01*
X139587413Y-105716461D01*
X139638787Y-105725806D01*
X139704802Y-105738069D01*
X139780113Y-105752232D01*
X139859375Y-105767280D01*
X139937243Y-105782195D01*
X140008370Y-105795961D01*
X140067412Y-105807562D01*
X140109022Y-105815980D01*
X140127857Y-105820199D01*
X140130980Y-105821389D01*
X140138591Y-105827805D01*
X140144254Y-105841465D01*
X140148251Y-105865999D01*
X140150866Y-105905038D01*
X140152384Y-105962213D01*
X140153086Y-106041154D01*
X140153257Y-106145492D01*
X140153257Y-106462799D01*
X140077057Y-106477839D01*
X140067840Y-106479642D01*
X140018891Y-106488980D01*
X139951205Y-106501669D01*
X139872478Y-106516273D01*
X139790400Y-106531355D01*
X139758078Y-106537422D01*
X139685855Y-106552181D01*
X139625666Y-106566137D01*
X139583040Y-106577952D01*
X139563510Y-106586287D01*
X139554660Y-106599905D01*
X139538548Y-106635938D01*
X139522065Y-106682572D01*
X139516263Y-106700034D01*
X139494906Y-106757358D01*
X139467359Y-106825201D01*
X139438107Y-106892355D01*
X139422463Y-106927430D01*
X139400174Y-106979822D01*
X139384857Y-107019058D01*
X139379162Y-107038563D01*
X139379478Y-107040036D01*
X139390281Y-107060729D01*
X139414638Y-107100665D01*
X139450081Y-107155972D01*
X139494136Y-107222781D01*
X139544332Y-107297220D01*
X139709501Y-107539623D01*
X139492503Y-107756983D01*
X139471516Y-107777899D01*
X139407342Y-107840505D01*
X139349990Y-107894495D01*
X139302820Y-107936826D01*
X139269192Y-107964457D01*
X139252467Y-107974343D01*
X139234303Y-107966821D01*
X139196265Y-107945227D01*
X139142726Y-107912151D01*
X139077884Y-107870191D01*
X139005940Y-107821943D01*
X138935275Y-107774291D01*
X138871526Y-107732328D01*
X138819513Y-107699165D01*
X138783279Y-107677378D01*
X138766867Y-107669543D01*
X138765905Y-107669614D01*
X138744103Y-107677338D01*
X138705440Y-107695323D01*
X138657612Y-107720013D01*
X138657110Y-107720284D01*
X138593587Y-107752099D01*
X138550060Y-107767642D01*
X138523052Y-107767685D01*
X138509090Y-107753000D01*
X138503180Y-107738544D01*
X138487229Y-107699831D01*
X138462660Y-107640316D01*
X138430779Y-107563165D01*
X138392893Y-107471541D01*
X138350310Y-107368607D01*
X138304337Y-107257526D01*
X138262667Y-107156472D01*
X138220268Y-107052780D01*
X138182756Y-106960119D01*
X138151388Y-106881642D01*
X138127425Y-106820500D01*
X138112123Y-106779843D01*
X138106743Y-106762825D01*
X138117018Y-106747219D01*
X138145563Y-106721162D01*
X138185971Y-106690887D01*
X138282979Y-106611684D01*
X138369793Y-106510475D01*
X138433322Y-106399116D01*
X138473177Y-106280893D01*
X138488965Y-106159095D01*
X138480296Y-106037010D01*
X138446778Y-105917925D01*
X138388021Y-105805129D01*
X138303632Y-105701911D01*
X138259631Y-105661713D01*
X138154211Y-105590638D01*
X138041410Y-105544301D01*
X137924525Y-105521599D01*
X137806853Y-105521428D01*
X137691690Y-105542687D01*
X137582335Y-105584270D01*
X137482083Y-105645076D01*
X137394233Y-105724001D01*
X137322080Y-105819941D01*
X137268922Y-105931795D01*
X137238057Y-106058457D01*
X137232392Y-106119507D01*
X137240185Y-106251776D01*
X137275284Y-106377266D01*
X137336649Y-106493759D01*
X137423243Y-106599039D01*
X137534029Y-106690887D01*
X137572931Y-106719930D01*
X137602104Y-106746272D01*
X137613257Y-106762800D01*
X137608810Y-106777209D01*
X137594378Y-106815815D01*
X137571173Y-106875201D01*
X137540452Y-106952215D01*
X137503474Y-107043703D01*
X137461496Y-107146516D01*
X137415778Y-107257502D01*
X137374178Y-107358072D01*
X137331222Y-107461947D01*
X137292829Y-107554819D01*
X137260305Y-107633525D01*
X137234958Y-107694899D01*
X137218095Y-107735779D01*
X137211025Y-107753000D01*
X137210943Y-107753204D01*
X137196798Y-107767745D01*
X137169659Y-107767579D01*
X137126023Y-107751927D01*
X137062388Y-107720013D01*
X137057379Y-107717326D01*
X137010125Y-107693150D01*
X136972811Y-107676037D01*
X136953133Y-107669543D01*
X136937005Y-107677218D01*
X136900959Y-107698871D01*
X136849092Y-107731928D01*
X136785445Y-107773810D01*
X136714060Y-107821943D01*
X136643724Y-107869131D01*
X136578670Y-107911267D01*
X136524820Y-107944578D01*
X136486374Y-107966469D01*
X136467534Y-107974343D01*
X136464325Y-107973343D01*
X136441954Y-107957584D01*
X136403733Y-107925033D01*
X136353021Y-107878733D01*
X136293181Y-107821726D01*
X136227571Y-107757058D01*
X136010648Y-107539772D01*
X136179601Y-107291253D01*
X136348553Y-107042733D01*
X136297183Y-106931595D01*
X136297031Y-106931266D01*
X136266183Y-106860418D01*
X136234661Y-106781523D01*
X136209266Y-106711600D01*
X136205423Y-106700322D01*
X136186047Y-106647967D01*
X136168574Y-106607283D01*
X136156388Y-106586287D01*
X136151426Y-106583322D01*
X136121634Y-106573375D01*
X136071047Y-106560505D01*
X136005194Y-106546053D01*
X135929600Y-106531355D01*
X135906957Y-106527210D01*
X135825038Y-106512116D01*
X135748600Y-106497899D01*
X135685337Y-106485995D01*
X135642943Y-106477839D01*
X135566743Y-106462799D01*
X135566743Y-106145492D01*
X135566760Y-106106476D01*
X135567082Y-106011292D01*
X135568033Y-105940255D01*
X135569896Y-105889734D01*
X135572955Y-105856098D01*
X135577494Y-105835718D01*
X135583795Y-105824962D01*
X135592143Y-105820199D01*
X135600224Y-105818270D01*
X135633172Y-105811445D01*
X135685736Y-105801022D01*
X135752569Y-105788018D01*
X135828328Y-105773449D01*
X135907665Y-105758333D01*
X135985237Y-105743685D01*
X136055698Y-105730523D01*
X136113702Y-105719863D01*
X136153904Y-105712721D01*
X136170959Y-105710114D01*
X136172112Y-105708541D01*
X136181385Y-105688119D01*
X136197432Y-105649045D01*
X136217635Y-105597629D01*
X136245672Y-105528353D01*
X136280186Y-105448290D01*
X136312538Y-105377728D01*
X136319952Y-105361889D01*
X136340755Y-105312293D01*
X136353219Y-105274038D01*
X136354863Y-105254356D01*
X136354015Y-105252962D01*
X136340548Y-105232420D01*
X136313850Y-105192516D01*
X136276539Y-105137140D01*
X136231234Y-105070177D01*
X136180552Y-104995517D01*
X136123445Y-104910692D01*
X136080607Y-104844800D01*
X136051460Y-104796478D01*
X136034317Y-104762733D01*
X136027495Y-104740572D01*
X136029306Y-104727002D01*
X136029915Y-104725984D01*
X136046297Y-104706210D01*
X136079695Y-104670175D01*
X136126671Y-104621451D01*
X136183786Y-104563612D01*
X136247603Y-104500227D01*
X136313802Y-104435905D01*
X136378648Y-104375447D01*
X136426299Y-104334655D01*
X136457990Y-104312484D01*
X136474958Y-104307889D01*
X136477175Y-104308921D01*
X136500524Y-104322837D01*
X136542912Y-104350030D01*
X136600369Y-104387889D01*
X136668923Y-104433803D01*
X136744601Y-104485160D01*
X136991298Y-104653626D01*
X137102706Y-104603062D01*
X137105943Y-104601597D01*
X137174343Y-104571965D01*
X137246907Y-104542493D01*
X137308457Y-104519358D01*
X137308729Y-104519262D01*
X137357595Y-104501367D01*
X137395212Y-104486253D01*
X137413457Y-104477184D01*
X137413752Y-104476855D01*
X137419946Y-104458282D01*
X137430139Y-104416045D01*
X137443348Y-104354696D01*
X137458590Y-104278789D01*
X137474881Y-104192875D01*
X137475449Y-104189796D01*
X137491713Y-104102128D01*
X137506608Y-104022741D01*
X137519171Y-103956701D01*
X137528438Y-103909079D01*
X137533444Y-103884943D01*
X137533764Y-103883605D01*
X137537060Y-103873273D01*
X137543738Y-103865506D01*
X137557462Y-103859940D01*
X137581895Y-103856207D01*
X137620702Y-103853942D01*
X137677546Y-103852778D01*
X137756090Y-103852348D01*
X137860000Y-103852286D01*
X137873056Y-103852286D01*
X137973933Y-103852371D01*
G36*
X137973933Y-103852371D02*
G01*
X138049856Y-103852865D01*
X138104491Y-103854135D01*
X138141500Y-103856547D01*
X138164547Y-103860467D01*
X138177296Y-103866262D01*
X138183411Y-103874299D01*
X138186556Y-103884943D01*
X138186646Y-103885325D01*
X138191814Y-103910347D01*
X138201209Y-103958681D01*
X138213867Y-104025260D01*
X138228825Y-104105014D01*
X138245119Y-104192875D01*
X138246448Y-104200064D01*
X138262691Y-104285340D01*
X138277805Y-104360242D01*
X138290808Y-104420219D01*
X138300715Y-104460717D01*
X138306544Y-104477184D01*
X138306575Y-104477210D01*
X138324943Y-104486320D01*
X138362640Y-104501457D01*
X138411543Y-104519358D01*
X138414297Y-104520330D01*
X138476817Y-104543959D01*
X138549543Y-104573595D01*
X138617294Y-104603062D01*
X138728703Y-104653626D01*
X138975399Y-104485160D01*
X138992775Y-104473311D01*
X139067202Y-104422947D01*
X139133614Y-104378612D01*
X139188039Y-104342916D01*
X139226506Y-104318471D01*
X139245042Y-104307889D01*
X139257743Y-104310315D01*
X139286579Y-104329110D01*
X139331143Y-104366330D01*
X139392670Y-104423020D01*
X139472398Y-104500227D01*
X139479532Y-104507255D01*
X139542796Y-104570222D01*
X139598990Y-104627268D01*
X139644677Y-104674817D01*
X139676414Y-104709297D01*
X139690764Y-104727131D01*
X139690810Y-104727217D01*
X139692633Y-104740795D01*
X139685910Y-104762820D01*
X139668946Y-104796304D01*
X139640044Y-104844261D01*
X139597508Y-104909704D01*
X139539644Y-104995645D01*
X139529783Y-105010151D01*
X139479913Y-105083635D01*
X139435905Y-105148687D01*
X139400380Y-105201417D01*
X139375959Y-105237936D01*
X139365264Y-105254356D01*
X139364458Y-105257834D01*
X139369518Y-105283785D01*
X139384677Y-105326159D01*
X139407463Y-105377728D01*
X139438429Y-105445170D01*
X139473004Y-105525195D01*
X139502366Y-105597629D01*
X139509645Y-105616377D01*
X139528710Y-105664246D01*
X139542715Y-105697596D01*
X139549041Y-105710114D01*
X139556025Y-105711050D01*
X139587413Y-105716461D01*
X139638787Y-105725806D01*
X139704802Y-105738069D01*
X139780113Y-105752232D01*
X139859375Y-105767280D01*
X139937243Y-105782195D01*
X140008370Y-105795961D01*
X140067412Y-105807562D01*
X140109022Y-105815980D01*
X140127857Y-105820199D01*
X140130980Y-105821389D01*
X140138591Y-105827805D01*
X140144254Y-105841465D01*
X140148251Y-105865999D01*
X140150866Y-105905038D01*
X140152384Y-105962213D01*
X140153086Y-106041154D01*
X140153257Y-106145492D01*
X140153257Y-106462799D01*
X140077057Y-106477839D01*
X140067840Y-106479642D01*
X140018891Y-106488980D01*
X139951205Y-106501669D01*
X139872478Y-106516273D01*
X139790400Y-106531355D01*
X139758078Y-106537422D01*
X139685855Y-106552181D01*
X139625666Y-106566137D01*
X139583040Y-106577952D01*
X139563510Y-106586287D01*
X139554660Y-106599905D01*
X139538548Y-106635938D01*
X139522065Y-106682572D01*
X139516263Y-106700034D01*
X139494906Y-106757358D01*
X139467359Y-106825201D01*
X139438107Y-106892355D01*
X139422463Y-106927430D01*
X139400174Y-106979822D01*
X139384857Y-107019058D01*
X139379162Y-107038563D01*
X139379478Y-107040036D01*
X139390281Y-107060729D01*
X139414638Y-107100665D01*
X139450081Y-107155972D01*
X139494136Y-107222781D01*
X139544332Y-107297220D01*
X139709501Y-107539623D01*
X139492503Y-107756983D01*
X139471516Y-107777899D01*
X139407342Y-107840505D01*
X139349990Y-107894495D01*
X139302820Y-107936826D01*
X139269192Y-107964457D01*
X139252467Y-107974343D01*
X139234303Y-107966821D01*
X139196265Y-107945227D01*
X139142726Y-107912151D01*
X139077884Y-107870191D01*
X139005940Y-107821943D01*
X138935275Y-107774291D01*
X138871526Y-107732328D01*
X138819513Y-107699165D01*
X138783279Y-107677378D01*
X138766867Y-107669543D01*
X138765905Y-107669614D01*
X138744103Y-107677338D01*
X138705440Y-107695323D01*
X138657612Y-107720013D01*
X138657110Y-107720284D01*
X138593587Y-107752099D01*
X138550060Y-107767642D01*
X138523052Y-107767685D01*
X138509090Y-107753000D01*
X138503180Y-107738544D01*
X138487229Y-107699831D01*
X138462660Y-107640316D01*
X138430779Y-107563165D01*
X138392893Y-107471541D01*
X138350310Y-107368607D01*
X138304337Y-107257526D01*
X138262667Y-107156472D01*
X138220268Y-107052780D01*
X138182756Y-106960119D01*
X138151388Y-106881642D01*
X138127425Y-106820500D01*
X138112123Y-106779843D01*
X138106743Y-106762825D01*
X138117018Y-106747219D01*
X138145563Y-106721162D01*
X138185971Y-106690887D01*
X138282979Y-106611684D01*
X138369793Y-106510475D01*
X138433322Y-106399116D01*
X138473177Y-106280893D01*
X138488965Y-106159095D01*
X138480296Y-106037010D01*
X138446778Y-105917925D01*
X138388021Y-105805129D01*
X138303632Y-105701911D01*
X138259631Y-105661713D01*
X138154211Y-105590638D01*
X138041410Y-105544301D01*
X137924525Y-105521599D01*
X137806853Y-105521428D01*
X137691690Y-105542687D01*
X137582335Y-105584270D01*
X137482083Y-105645076D01*
X137394233Y-105724001D01*
X137322080Y-105819941D01*
X137268922Y-105931795D01*
X137238057Y-106058457D01*
X137232392Y-106119507D01*
X137240185Y-106251776D01*
X137275284Y-106377266D01*
X137336649Y-106493759D01*
X137423243Y-106599039D01*
X137534029Y-106690887D01*
X137572931Y-106719930D01*
X137602104Y-106746272D01*
X137613257Y-106762800D01*
X137608810Y-106777209D01*
X137594378Y-106815815D01*
X137571173Y-106875201D01*
X137540452Y-106952215D01*
X137503474Y-107043703D01*
X137461496Y-107146516D01*
X137415778Y-107257502D01*
X137374178Y-107358072D01*
X137331222Y-107461947D01*
X137292829Y-107554819D01*
X137260305Y-107633525D01*
X137234958Y-107694899D01*
X137218095Y-107735779D01*
X137211025Y-107753000D01*
X137210943Y-107753204D01*
X137196798Y-107767745D01*
X137169659Y-107767579D01*
X137126023Y-107751927D01*
X137062388Y-107720013D01*
X137057379Y-107717326D01*
X137010125Y-107693150D01*
X136972811Y-107676037D01*
X136953133Y-107669543D01*
X136937005Y-107677218D01*
X136900959Y-107698871D01*
X136849092Y-107731928D01*
X136785445Y-107773810D01*
X136714060Y-107821943D01*
X136643724Y-107869131D01*
X136578670Y-107911267D01*
X136524820Y-107944578D01*
X136486374Y-107966469D01*
X136467534Y-107974343D01*
X136464325Y-107973343D01*
X136441954Y-107957584D01*
X136403733Y-107925033D01*
X136353021Y-107878733D01*
X136293181Y-107821726D01*
X136227571Y-107757058D01*
X136010648Y-107539772D01*
X136179601Y-107291253D01*
X136348553Y-107042733D01*
X136297183Y-106931595D01*
X136297031Y-106931266D01*
X136266183Y-106860418D01*
X136234661Y-106781523D01*
X136209266Y-106711600D01*
X136205423Y-106700322D01*
X136186047Y-106647967D01*
X136168574Y-106607283D01*
X136156388Y-106586287D01*
X136151426Y-106583322D01*
X136121634Y-106573375D01*
X136071047Y-106560505D01*
X136005194Y-106546053D01*
X135929600Y-106531355D01*
X135906957Y-106527210D01*
X135825038Y-106512116D01*
X135748600Y-106497899D01*
X135685337Y-106485995D01*
X135642943Y-106477839D01*
X135566743Y-106462799D01*
X135566743Y-106145492D01*
X135566760Y-106106476D01*
X135567082Y-106011292D01*
X135568033Y-105940255D01*
X135569896Y-105889734D01*
X135572955Y-105856098D01*
X135577494Y-105835718D01*
X135583795Y-105824962D01*
X135592143Y-105820199D01*
X135600224Y-105818270D01*
X135633172Y-105811445D01*
X135685736Y-105801022D01*
X135752569Y-105788018D01*
X135828328Y-105773449D01*
X135907665Y-105758333D01*
X135985237Y-105743685D01*
X136055698Y-105730523D01*
X136113702Y-105719863D01*
X136153904Y-105712721D01*
X136170959Y-105710114D01*
X136172112Y-105708541D01*
X136181385Y-105688119D01*
X136197432Y-105649045D01*
X136217635Y-105597629D01*
X136245672Y-105528353D01*
X136280186Y-105448290D01*
X136312538Y-105377728D01*
X136319952Y-105361889D01*
X136340755Y-105312293D01*
X136353219Y-105274038D01*
X136354863Y-105254356D01*
X136354015Y-105252962D01*
X136340548Y-105232420D01*
X136313850Y-105192516D01*
X136276539Y-105137140D01*
X136231234Y-105070177D01*
X136180552Y-104995517D01*
X136123445Y-104910692D01*
X136080607Y-104844800D01*
X136051460Y-104796478D01*
X136034317Y-104762733D01*
X136027495Y-104740572D01*
X136029306Y-104727002D01*
X136029915Y-104725984D01*
X136046297Y-104706210D01*
X136079695Y-104670175D01*
X136126671Y-104621451D01*
X136183786Y-104563612D01*
X136247603Y-104500227D01*
X136313802Y-104435905D01*
X136378648Y-104375447D01*
X136426299Y-104334655D01*
X136457990Y-104312484D01*
X136474958Y-104307889D01*
X136477175Y-104308921D01*
X136500524Y-104322837D01*
X136542912Y-104350030D01*
X136600369Y-104387889D01*
X136668923Y-104433803D01*
X136744601Y-104485160D01*
X136991298Y-104653626D01*
X137102706Y-104603062D01*
X137105943Y-104601597D01*
X137174343Y-104571965D01*
X137246907Y-104542493D01*
X137308457Y-104519358D01*
X137308729Y-104519262D01*
X137357595Y-104501367D01*
X137395212Y-104486253D01*
X137413457Y-104477184D01*
X137413752Y-104476855D01*
X137419946Y-104458282D01*
X137430139Y-104416045D01*
X137443348Y-104354696D01*
X137458590Y-104278789D01*
X137474881Y-104192875D01*
X137475449Y-104189796D01*
X137491713Y-104102128D01*
X137506608Y-104022741D01*
X137519171Y-103956701D01*
X137528438Y-103909079D01*
X137533444Y-103884943D01*
X137533764Y-103883605D01*
X137537060Y-103873273D01*
X137543738Y-103865506D01*
X137557462Y-103859940D01*
X137581895Y-103856207D01*
X137620702Y-103853942D01*
X137677546Y-103852778D01*
X137756090Y-103852348D01*
X137860000Y-103852286D01*
X137873056Y-103852286D01*
X137973933Y-103852371D01*
G37*
D16*
%TO.C,EL1*%
X144292878Y-124610000D02*
X145092122Y-124610000D01*
X144292878Y-125730000D02*
X145092122Y-125730000D01*
%TO.C,J1*%
X165400000Y-111310000D02*
X162900000Y-111310000D01*
X162900000Y-111310000D02*
X162900000Y-112360000D01*
X162900000Y-112360000D02*
X161910000Y-112360000D01*
X167370000Y-112480000D02*
X167370000Y-119360000D01*
X165400000Y-120530000D02*
X162900000Y-120530000D01*
X162900000Y-120530000D02*
X162900000Y-119480000D01*
%TO.C,LR1*%
X122442500Y-105982742D02*
X122442500Y-106457258D01*
X121397500Y-105982742D02*
X121397500Y-106457258D01*
D20*
%TO.C,Sign-RoHS*%
X131016500Y-125448500D02*
X119205500Y-125448500D01*
X124158500Y-116431500D02*
X123297440Y-117051260D01*
X124158500Y-116431500D02*
X123292360Y-118547320D01*
D21*
X123777500Y-116939500D02*
X123269500Y-117828500D01*
D20*
X123777500Y-116939500D02*
X122764040Y-117577040D01*
D21*
X123269500Y-117828500D02*
X123142500Y-118336500D01*
X123142500Y-118336500D02*
X122764040Y-118844500D01*
X122888500Y-117828500D02*
X118316500Y-117828500D01*
X122764040Y-118844500D02*
X122764040Y-118463500D01*
X122764040Y-118463500D02*
X123142500Y-117577040D01*
D20*
X122764040Y-118082500D02*
X122482100Y-118430480D01*
D21*
X122764040Y-117577040D02*
X121618500Y-117577040D01*
X122634500Y-118971500D02*
X122253500Y-119479500D01*
X122380500Y-117955500D02*
X122888500Y-117828500D01*
X122253500Y-119479500D02*
X121999500Y-119860500D01*
X122253500Y-119098500D02*
X121491500Y-119733500D01*
X121999500Y-119860500D02*
X121110500Y-120749500D01*
X121618500Y-119098500D02*
X122380500Y-118717500D01*
X121618500Y-117577040D02*
X120602500Y-117447500D01*
D20*
X121580400Y-117389080D02*
X119431560Y-117193500D01*
D21*
X121491500Y-119733500D02*
X121364500Y-119606500D01*
D20*
X121377200Y-118496520D02*
X122764040Y-118082500D01*
D21*
X121364500Y-120114500D02*
X121237500Y-119987500D01*
X121364500Y-119606500D02*
X121237500Y-119606500D01*
D20*
X121308620Y-120934920D02*
X121273060Y-120970480D01*
D21*
X121237500Y-120241500D02*
X121364500Y-120114500D01*
X121237500Y-119987500D02*
X120729500Y-119987500D01*
X121237500Y-119606500D02*
X120094500Y-119733500D01*
X121110500Y-120749500D02*
X120602500Y-121130500D01*
X121110500Y-118336500D02*
X122380500Y-117955500D01*
X120881900Y-119352500D02*
X121618500Y-119098500D01*
X120729500Y-119987500D02*
X119713500Y-120241500D01*
X120602500Y-121130500D02*
X119713500Y-121384500D01*
X120602500Y-120749500D02*
X121237500Y-120241500D01*
X120602500Y-117447500D02*
X118951500Y-117447500D01*
D20*
X120455180Y-119182320D02*
X120145300Y-119243280D01*
D21*
X120272300Y-119352500D02*
X120881900Y-119352500D01*
X120094500Y-120876500D02*
X120602500Y-120749500D01*
X120094500Y-119733500D02*
X119078500Y-119987500D01*
X119967500Y-118463500D02*
X121110500Y-118336500D01*
X119840500Y-118463500D02*
X119967500Y-118463500D01*
X119713500Y-121384500D02*
X118824500Y-121384500D01*
X119713500Y-121003500D02*
X120094500Y-120876500D01*
X119713500Y-120241500D02*
X119459500Y-120241500D01*
D20*
X119510300Y-118786080D02*
X120028460Y-118712420D01*
D21*
X119459500Y-120622500D02*
X120729500Y-120368500D01*
X119459500Y-120241500D02*
X118951500Y-120495500D01*
D20*
X119403620Y-121638500D02*
X118888000Y-121638500D01*
D21*
X119332500Y-118463500D02*
X119840500Y-118463500D01*
D20*
X119205500Y-122400500D02*
X131016500Y-122400500D01*
D21*
X119078500Y-121003500D02*
X119713500Y-121003500D01*
X119078500Y-120749500D02*
X119459500Y-120622500D01*
X119078500Y-119987500D02*
X118443500Y-120495500D01*
X118951500Y-120622500D02*
X119078500Y-120749500D01*
X118951500Y-120495500D02*
X118951500Y-120622500D01*
X118951500Y-117447500D02*
X118316500Y-117828500D01*
X118875300Y-119835100D02*
X120272300Y-119352500D01*
X118824500Y-121384500D02*
X118062500Y-120876500D01*
X118697500Y-120876500D02*
X119078500Y-121003500D01*
X118697500Y-118844500D02*
X119332500Y-118463500D01*
X118570500Y-118844500D02*
X118316500Y-118336500D01*
X118443500Y-120876500D02*
X118697500Y-120876500D01*
X118443500Y-120495500D02*
X118316500Y-120622500D01*
D20*
X118349520Y-121417520D02*
X118296180Y-121364180D01*
D21*
X118316500Y-120622500D02*
X118443500Y-120876500D01*
X118316500Y-118336500D02*
X118316500Y-118082500D01*
X118316500Y-118336500D02*
X117935500Y-118844500D01*
X118316500Y-118082500D02*
X123269500Y-118006300D01*
X118316500Y-117828500D02*
X118316500Y-118082500D01*
X118316500Y-117828500D02*
X117808500Y-118336500D01*
D20*
X118235220Y-119294080D02*
X118242840Y-119289000D01*
D21*
X118189500Y-120241500D02*
X118875300Y-119835100D01*
X118189500Y-118463500D02*
X119840500Y-118463500D01*
D20*
X118062500Y-122908500D02*
X117572280Y-122418280D01*
D21*
X118062500Y-120876500D02*
X117681500Y-121003500D01*
D20*
X117935500Y-123035500D02*
X117427500Y-122273500D01*
X117935500Y-122908500D02*
X117750080Y-122723080D01*
D21*
X117935500Y-119225500D02*
X118570500Y-118844500D01*
X117808500Y-118336500D02*
X117554500Y-118844500D01*
X117681500Y-121003500D02*
X117427500Y-121257500D01*
X117681500Y-120749500D02*
X118189500Y-120241500D01*
D20*
X117590060Y-120513280D02*
X117419880Y-120701240D01*
X117577360Y-121364180D02*
X117300500Y-121638500D01*
D21*
X117554500Y-118844500D02*
X117427500Y-119860500D01*
X117427500Y-121257500D02*
X117681500Y-120749500D01*
X117427500Y-119860500D02*
X117935500Y-119225500D01*
D20*
X117381780Y-118709880D02*
X117234460Y-119309320D01*
X117300500Y-122146500D02*
X117196360Y-122253180D01*
X117300500Y-121811220D02*
X117300500Y-121765500D01*
X117277640Y-121592780D02*
X117300500Y-121638500D01*
X117176040Y-120368500D02*
X117178580Y-120365960D01*
X117176040Y-119987500D02*
X117176040Y-120368500D01*
X116665500Y-121511500D02*
X115903500Y-121511500D01*
X116665500Y-121407360D02*
X116665500Y-121384500D01*
X116665500Y-121384500D02*
X116665500Y-121130500D01*
X116665500Y-121384500D02*
X115903500Y-121384500D01*
X116665500Y-121130500D02*
X116538500Y-121130500D01*
X116591840Y-120525980D02*
X116538500Y-120432000D01*
X116546120Y-122281120D02*
X116411500Y-122146500D01*
X116538500Y-121765500D02*
X116538500Y-121892500D01*
X116538500Y-121765500D02*
X116030500Y-121765500D01*
X116538500Y-121638500D02*
X116538500Y-121765500D01*
X116538500Y-121638500D02*
X115903500Y-121638500D01*
X116538500Y-121257500D02*
X116538500Y-121638500D01*
X116538500Y-121257500D02*
X115903500Y-121257500D01*
X116538500Y-121130500D02*
X116538500Y-121257500D01*
X116538500Y-121130500D02*
X116411500Y-121130500D01*
X116411500Y-122146500D02*
X116708680Y-121727400D01*
X116411500Y-121130500D02*
X116411500Y-121765500D01*
X116411500Y-121130500D02*
X116030500Y-121130500D01*
X116398800Y-122146500D02*
X116411500Y-122146500D01*
X116109240Y-122022040D02*
X116137180Y-122049980D01*
X116030500Y-121130500D02*
X116030500Y-121638500D01*
X116030500Y-121130500D02*
X115776500Y-121130500D01*
X115817140Y-119786840D02*
X115395500Y-119606500D01*
X115776500Y-121130500D02*
X116284500Y-122019500D01*
X115776500Y-121003500D02*
X116665500Y-121003500D01*
X115776500Y-120876500D02*
X116665500Y-120876500D01*
X115776500Y-120749500D02*
X116538500Y-120749500D01*
X115776500Y-120622500D02*
X116538500Y-120622500D01*
X115725700Y-120952700D02*
X115725700Y-120945080D01*
X115649500Y-122019500D02*
X115141500Y-122019500D01*
X115649500Y-120495500D02*
X116538500Y-120495500D01*
X115649500Y-120368500D02*
X116411500Y-120368500D01*
X115522500Y-121892500D02*
X114887500Y-121892500D01*
X115522500Y-120241500D02*
X116284500Y-120241500D01*
X115522500Y-120114500D02*
X116157500Y-120114500D01*
X115497100Y-122146500D02*
X115852700Y-122146500D01*
X115395500Y-121765500D02*
X114760500Y-121765500D01*
X115395500Y-121638500D02*
X114633500Y-121638500D01*
X115395500Y-119987500D02*
X115903500Y-119987500D01*
X115395500Y-119733500D02*
X114633500Y-119733500D01*
X115395500Y-119606500D02*
X114379500Y-119225500D01*
X115344700Y-121511500D02*
X114506500Y-121511500D01*
X115319300Y-120955240D02*
X115344700Y-121346400D01*
X115268500Y-121384500D02*
X114506500Y-121384500D01*
X115268500Y-121257500D02*
X114506500Y-121257500D01*
X115268500Y-121130500D02*
X114506500Y-121130500D01*
X115268500Y-121003500D02*
X114506500Y-121003500D01*
X115268500Y-120876500D02*
X114506500Y-120876500D01*
X115268500Y-120749500D02*
X114506500Y-120749500D01*
X115268500Y-120622500D02*
X114633500Y-120622500D01*
X115141500Y-120495500D02*
X114633500Y-120495500D01*
X115141500Y-120368500D02*
X114633500Y-120368500D01*
X115141500Y-119606500D02*
X114506500Y-119606500D01*
X115014500Y-119479500D02*
X114506500Y-119479500D01*
X114887500Y-119860500D02*
X115776500Y-119860500D01*
X114887500Y-119860500D02*
X114887500Y-120368500D01*
X114760500Y-119860500D02*
X114887500Y-119860500D01*
X114760500Y-119860500D02*
X114760500Y-120368500D01*
X114694460Y-121826460D02*
X114717320Y-121849320D01*
X114633500Y-119860500D02*
X114760500Y-119860500D01*
X114379500Y-119225500D02*
X114514120Y-119763980D01*
X131016500Y-125448500D02*
G75*
G03*
X132540500Y-123924500I1J1523999D01*
G01*
X132540500Y-123924500D02*
G75*
G03*
X131016500Y-122400500I-1524000J0D01*
G01*
X121580401Y-117389076D02*
G75*
G03*
X123295452Y-117049022I447049J2240246D01*
G01*
X121308620Y-120934921D02*
G75*
G03*
X123289964Y-118552947I-6362680J7307561D01*
G01*
X120455180Y-119182318D02*
G75*
G03*
X122482041Y-118432277I-604430J4747018D01*
G01*
X120028460Y-118712419D02*
G75*
G03*
X121370879Y-118496686I-469960J7208919D01*
G01*
X119403620Y-121638499D02*
G75*
G03*
X121269433Y-120972513I126940J2590969D01*
G01*
X117681500Y-123924500D02*
G75*
G03*
X119205500Y-125448500I1524000J0D01*
G01*
X118349544Y-121417496D02*
G75*
G03*
X118888000Y-121640566I538356J538096D01*
G01*
X119510300Y-118786080D02*
G75*
G03*
X118246630Y-119286434I871300J-4046420D01*
G01*
X117300505Y-121811220D02*
G75*
G03*
X117806478Y-123035780I1734395J-180D01*
G01*
X117300484Y-121638500D02*
G75*
G03*
X117748050Y-122724058I1534216J-2500D01*
G01*
X119205500Y-122400500D02*
G75*
G03*
X117681500Y-123924500I0J-1524000D01*
G01*
X120145300Y-119243280D02*
G75*
G03*
X117590973Y-120512656I1099740J-5417660D01*
G01*
X118296180Y-121364180D02*
G75*
G03*
X117577360Y-121361640I-360680J-358120D01*
G01*
X117300508Y-121765500D02*
G75*
G03*
X117568757Y-122418211I921892J-2600D01*
G01*
X119431560Y-117193500D02*
G75*
G03*
X117381236Y-118706085I93980J-2273300D01*
G01*
X117419880Y-120701240D02*
G75*
G03*
X117299654Y-121638569I642620J-558800D01*
G01*
X116838220Y-122400502D02*
G75*
G03*
X117195634Y-122252454I-20J505502D01*
G01*
X118235217Y-119294076D02*
G75*
G03*
X117180141Y-120364265I2778883J-3794824D01*
G01*
X117234462Y-119309320D02*
G75*
G03*
X117174260Y-119986743I2989738J-607080D01*
G01*
X116546135Y-122281105D02*
G75*
G03*
X116838220Y-122402112I292165J292205D01*
G01*
X116708680Y-121727400D02*
G75*
G03*
X116794374Y-121283401I-1109980J444500D01*
G01*
X116411506Y-122019506D02*
G75*
G03*
X116665054Y-121408871I-612806J612406D01*
G01*
X116792499Y-121282900D02*
G75*
G03*
X116592293Y-120527821I-1523999J0D01*
G01*
X116109216Y-122022064D02*
G75*
G03*
X116413288Y-122148292I305084J305564D01*
G01*
X115725704Y-120952700D02*
G75*
G03*
X116135840Y-122049546I1529196J-53300D01*
G01*
X115344695Y-121346401D02*
G75*
G03*
X115846840Y-122142113I1211605J208301D01*
G01*
X116538504Y-120431998D02*
G75*
G03*
X115816500Y-119788011I-1323404J-757002D01*
G01*
X115298982Y-122123634D02*
G75*
G03*
X115498427Y-122147802I198218J800734D01*
G01*
X114717321Y-121849319D02*
G75*
G03*
X115296997Y-122122953I785079J912319D01*
G01*
X115725699Y-120945080D02*
G75*
G03*
X115218520Y-119913681I-1498599J-96520D01*
G01*
X115319301Y-120998420D02*
G75*
G03*
X114965295Y-120007566I-1763201J-71280D01*
G01*
X114379478Y-121069540D02*
G75*
G03*
X114693447Y-121827473I1071922J40D01*
G01*
X114450620Y-120701240D02*
G75*
G03*
X114514648Y-119766636I-1413620J566340D01*
G01*
X114450628Y-120701243D02*
G75*
G03*
X114379783Y-121069987I921172J-368157D01*
G01*
D11*
%TO.C,HLV1*%
X150019924Y-98652000D02*
X157019924Y-98652000D01*
X150019924Y-102052000D02*
X150019924Y-98652000D01*
X150019924Y-102052000D02*
X157019924Y-102052000D01*
X157019924Y-102052000D02*
X157019924Y-98652000D01*
D16*
%TO.C,Relay1*%
X125394924Y-70207000D02*
X131994924Y-70207000D01*
X116394924Y-70207000D02*
X122994924Y-70207000D01*
X116394924Y-70207000D02*
X116394924Y-90007000D01*
X124244924Y-74257000D02*
X124244924Y-73457000D01*
X124244924Y-74257000D02*
X127844924Y-74257000D01*
X130244924Y-75157000D02*
X130244924Y-77657000D01*
X126044924Y-75657000D02*
X122444924Y-75657000D01*
X122444924Y-75657000D02*
X122444924Y-79657000D01*
X126044924Y-77657000D02*
X130244924Y-77657000D01*
X118244924Y-77657000D02*
X118244924Y-75157000D01*
X118244924Y-77657000D02*
X122444924Y-77657000D01*
X126044924Y-79657000D02*
X126044924Y-75657000D01*
X126044924Y-79657000D02*
X122444924Y-75657000D01*
X122444924Y-79657000D02*
X126044924Y-79657000D01*
X127844924Y-81057000D02*
X127844924Y-74257000D01*
X124244924Y-81057000D02*
X127844924Y-81057000D01*
X124244924Y-81057000D02*
X124244924Y-82557000D01*
X124244924Y-82557000D02*
X121744924Y-87157000D01*
X128394924Y-85757000D02*
X125944924Y-85757000D01*
X119994924Y-85757000D02*
X122494924Y-85757000D01*
X131994924Y-90007000D02*
X131994924Y-70207000D01*
X116394924Y-90007000D02*
X131994924Y-90007000D01*
%TO.C,RST1*%
X160230000Y-124260000D02*
X160230000Y-124560000D01*
X160230000Y-124560000D02*
X163580000Y-124560000D01*
X160245000Y-122280000D02*
X160245000Y-122580000D01*
X163580000Y-124560000D02*
X163580000Y-124260000D01*
X163595000Y-122280000D02*
X160245000Y-122280000D01*
X163595000Y-122580000D02*
X163595000Y-122280000D01*
D17*
%TO.C,U4*%
X120525000Y-115835000D02*
X120525000Y-112835000D01*
X117355000Y-112835000D02*
X117355000Y-115835000D01*
D13*
X120040000Y-116590000D02*
G75*
G03*
X120040000Y-116590000I-100000J0D01*
G01*
D16*
%TO.C,PF1*%
X149379924Y-98052000D02*
X149379924Y-92730000D01*
X150829924Y-98052000D02*
X149379924Y-98052000D01*
X152579924Y-98052000D02*
X152329924Y-98052000D01*
X152579924Y-98052000D02*
X152579924Y-97831000D01*
X152579924Y-96073000D02*
X152579924Y-90752000D01*
X149379924Y-90973000D02*
X149379924Y-90752000D01*
X149629924Y-90752000D02*
X149379924Y-90752000D01*
X152579924Y-90752000D02*
X151128924Y-90752000D01*
%TO.C,LED1*%
X120945000Y-111485000D02*
X116860000Y-111485000D01*
X120945000Y-109315000D02*
X120945000Y-111485000D01*
X116860000Y-109315000D02*
X120945000Y-109315000D01*
D17*
%TO.C,J5*%
X126970000Y-98580000D02*
X126970000Y-90480000D01*
X126970000Y-90480000D02*
X115410000Y-90480000D01*
X115410000Y-98580000D02*
X126970000Y-98580000D01*
X115410000Y-90480000D02*
X115410000Y-98580000D01*
D13*
X128275000Y-93915000D02*
G75*
G03*
X128275000Y-93915000I-100000J0D01*
G01*
D16*
%TO.C,HLL2*%
X168430549Y-104638250D02*
X165430549Y-104638250D01*
X168430549Y-104638250D02*
X168430549Y-101638250D01*
X159464299Y-104267000D02*
X165930549Y-104258250D01*
X168050549Y-102138250D02*
X168058049Y-92620750D01*
X157351799Y-92624500D02*
X157344299Y-102147000D01*
X165938049Y-90500750D02*
X159471799Y-90504500D01*
X157344299Y-102147000D02*
G75*
G03*
X159464299Y-104267000I2120001J1D01*
G01*
X165930549Y-104258250D02*
G75*
G03*
X168050549Y-102138250I-1J2120001D01*
G01*
X159471799Y-90504500D02*
G75*
G03*
X157351799Y-92624500I0J-2120000D01*
G01*
X168058049Y-92620750D02*
G75*
G03*
X165938049Y-90500750I-2120000J0D01*
G01*
D22*
%TO.C,REF\u002A\u002A*%
X158749924Y-84492000D02*
X149859924Y-73062000D01*
D18*
X151256924Y-82587000D02*
X150494924Y-81952000D01*
X151256924Y-79793000D02*
X149859924Y-79793000D01*
X151129924Y-81571000D02*
X151256924Y-82587000D01*
X151002924Y-82206000D02*
X149224924Y-79412000D01*
X151002924Y-82079000D02*
X151129924Y-81571000D01*
X150875924Y-79666000D02*
X149605924Y-79666000D01*
X150494924Y-81952000D02*
X151002924Y-82206000D01*
X150494924Y-79412000D02*
X148716924Y-77380000D01*
X149859924Y-79793000D02*
X151002924Y-82079000D01*
D22*
X149859924Y-73062000D02*
X140969924Y-84492000D01*
D18*
X149732924Y-77507000D02*
X151256924Y-79793000D01*
X149478924Y-77888000D02*
X149605924Y-77380000D01*
X149478924Y-77761000D02*
X150875924Y-79666000D01*
X149224924Y-79412000D02*
X150494924Y-79412000D01*
X148716924Y-77368000D02*
X149478924Y-77876000D01*
D22*
X140969924Y-84492000D02*
X158749924Y-84492000D01*
D17*
%TO.C,J2*%
X148770000Y-98480000D02*
X148770000Y-90380000D01*
X148770000Y-90380000D02*
X127050000Y-90380000D01*
X127050000Y-98480000D02*
X148770000Y-98480000D01*
X127050000Y-90380000D02*
X127050000Y-98480000D01*
D13*
X150075000Y-93815000D02*
G75*
G03*
X150075000Y-93815000I-100000J0D01*
G01*
D16*
%TO.C,HiLink1*%
X168212424Y-76622000D02*
X168212424Y-78632000D01*
X167822424Y-90222000D02*
X133622424Y-90222000D01*
X167822424Y-70022000D02*
X167822424Y-90222000D01*
X133622424Y-90222000D02*
X133622424Y-70022000D01*
X133622424Y-70022000D02*
X167822424Y-70022000D01*
%TO.C,TEMPDS1*%
X152430000Y-122750000D02*
X152430000Y-122350000D01*
X153070000Y-122750000D02*
X152430000Y-122750000D01*
X152670000Y-122510000D02*
X152670000Y-114190000D01*
X153190000Y-122510000D02*
X153190000Y-114190000D01*
X158290000Y-122510000D02*
X158290000Y-114190000D01*
X159410000Y-122510000D02*
X152670000Y-122510000D01*
X159410000Y-122510000D02*
X159410000Y-114190000D01*
X159410000Y-114190000D02*
X152670000Y-114190000D01*
%TO.C,EC9*%
X147480000Y-124510580D02*
X147480000Y-124229420D01*
X148500000Y-124510580D02*
X148500000Y-124229420D01*
%TO.C,HLC2*%
X154770000Y-104620000D02*
X168010000Y-104620000D01*
X154770000Y-110860000D02*
X154770000Y-104620000D01*
X154770000Y-110860000D02*
X168010000Y-110860000D01*
X168010000Y-110860000D02*
X168010000Y-104620000D01*
%TD*%
%LPC*%
D23*
%TO.C,*%
X164860000Y-117910000D03*
%TD*%
%TO.C,*%
X164920000Y-113920000D03*
%TD*%
%TO.C,*%
X164810000Y-118930000D03*
%TD*%
%TO.C,*%
X164880000Y-116930000D03*
%TD*%
%TO.C,*%
X164900000Y-112930000D03*
%TD*%
%TO.C,*%
X164920000Y-115930000D03*
%TD*%
%TO.C,*%
X164920000Y-114920000D03*
%TD*%
D24*
%TO.C,EC6*%
X143690000Y-123240000D03*
X145240000Y-123240000D03*
%TD*%
D25*
%TO.C,ANT1*%
X141540000Y-124650000D03*
X132040000Y-124650000D03*
%TD*%
D26*
%TO.C,*%
X164590000Y-111600000D03*
%TD*%
D27*
%TO.C,EL1*%
X143630000Y-125170000D03*
X145755000Y-125170000D03*
%TD*%
D28*
%TO.C,J1*%
X162685000Y-112920000D03*
X162685000Y-113920000D03*
X162685000Y-114920000D03*
X162685000Y-115920000D03*
X162685000Y-116920000D03*
X162685000Y-117920000D03*
X162685000Y-118920000D03*
D29*
X166560000Y-111620000D03*
X166560000Y-120220000D03*
%TD*%
D30*
%TO.C,LR1*%
X121920000Y-105395000D03*
X121920000Y-107045000D03*
%TD*%
D31*
%TO.C,HLV1*%
X151019924Y-101002000D03*
X156019924Y-99702000D03*
%TD*%
D32*
%TO.C,Relay1*%
X124194924Y-71607000D03*
D33*
X130244924Y-73557000D03*
D32*
X130244924Y-85757000D03*
X118194924Y-85807000D03*
D33*
X118244924Y-73557000D03*
%TD*%
D34*
%TO.C,RST1*%
X160240000Y-123420000D03*
X163580000Y-123420000D03*
%TD*%
D35*
%TO.C,U4*%
X119940000Y-115320000D03*
X118940000Y-115320000D03*
X117940000Y-115320000D03*
X117940000Y-113350000D03*
X118940000Y-113350000D03*
X119940000Y-113350000D03*
%TD*%
D36*
%TO.C,PF1*%
X151579924Y-96952000D03*
X150379924Y-91852000D03*
%TD*%
D37*
%TO.C,LED1*%
X120040000Y-110950000D03*
X116860000Y-110960000D03*
X120040000Y-109810000D03*
X116850000Y-109840000D03*
%TD*%
D26*
%TO.C,*%
X164580000Y-120210000D03*
%TD*%
D38*
%TO.C,J5*%
X123730000Y-94180000D03*
D39*
X118650000Y-94180000D03*
%TD*%
D40*
%TO.C,HLL2*%
X166205549Y-101650750D03*
D41*
X159138049Y-101578250D03*
X166135549Y-93522750D03*
X159088049Y-93445250D03*
%TD*%
D38*
%TO.C,J2*%
X145530000Y-94080000D03*
D39*
X140450000Y-94080000D03*
X135370000Y-94080000D03*
X130290000Y-94080000D03*
%TD*%
D42*
%TO.C,HiLink1*%
X165422424Y-77622000D03*
D43*
X165422424Y-82622000D03*
X136022424Y-72422000D03*
X136022424Y-87822000D03*
%TD*%
D44*
%TO.C,TEMPDS1*%
X156040000Y-120890000D03*
D45*
X156040000Y-118350000D03*
X156040000Y-115810000D03*
%TD*%
D46*
%TO.C,EC9*%
X147990000Y-125145000D03*
X147990000Y-123595000D03*
%TD*%
D41*
%TO.C,HLC2*%
X156390000Y-107740000D03*
X166390000Y-107740000D03*
%TD*%
%LPD*%
D47*
X116034099Y-112111772D02*
X116052969Y-116354114D01*
X119467398Y-96819625D02*
X123278973Y-96819625D01*
X116053012Y-116354114D02*
G75*
G03*
X116483456Y-116764113I410688J214D01*
G01*
X122643533Y-112108968D02*
G75*
G03*
X122213106Y-111698969I-410133J368D01*
G01*
X132940932Y-89712067D02*
X132942993Y-85047165D01*
X149889022Y-101804022D02*
X149889022Y-99544022D01*
X130898425Y-96270000D02*
X134710000Y-96270000D01*
X141378425Y-96500871D02*
X145190000Y-96500871D01*
X119427398Y-96128754D02*
X123318973Y-96128754D01*
X138248899Y-75119216D02*
G75*
G03*
X137607176Y-75489714I-320899J-185184D01*
G01*
X148051575Y-93570000D02*
G75*
G03*
X147448425Y-93570000I-301575J0D01*
G01*
X121850193Y-112910000D02*
G75*
G03*
X121419756Y-112500002I-410293J200D01*
G01*
X133353969Y-90125104D02*
X136833969Y-90125975D01*
X117208950Y-93888754D02*
G75*
G03*
X119427398Y-96128754I2218450J-21446D01*
G01*
X114049965Y-120229930D02*
X114031486Y-76477000D01*
X132547381Y-104575763D02*
G75*
G03*
X124716477Y-104407324I-4057381J-6514237D01*
G01*
X141338425Y-95810000D02*
X145230000Y-95810000D01*
X130858425Y-95579129D02*
X134750000Y-95579129D01*
X159100000Y-109651080D02*
X154100000Y-109640000D01*
X124716477Y-104407324D02*
X124716477Y-117977196D01*
X117263698Y-112493958D02*
X121419756Y-112500001D01*
X116843168Y-115784446D02*
G75*
G03*
X117273699Y-116194445I410532J46D01*
G01*
X128063037Y-70017000D02*
G75*
G03*
X127650000Y-70430000I-37J-413000D01*
G01*
X153185000Y-104375978D02*
X151475000Y-102660000D01*
X122240273Y-116774315D02*
X121440275Y-116774758D01*
X154930000Y-106070000D02*
X154930000Y-108900000D01*
X150770978Y-103004022D02*
X152660978Y-104900000D01*
X136833969Y-90125905D02*
G75*
G03*
X136833969Y-89384895I-69J370505D01*
G01*
X138781907Y-84636044D02*
G75*
G03*
X139194944Y-84223042I-7J413044D01*
G01*
X117273699Y-116768755D02*
G75*
G03*
X117273699Y-116194445I1J287155D01*
G01*
X126140548Y-93888754D02*
G75*
G03*
X125537398Y-93888754I-301575J0D01*
G01*
X139120003Y-93570000D02*
G75*
G03*
X141338425Y-95810000I2218497J-21400D01*
G01*
X150935000Y-102120000D02*
X150205000Y-102120000D01*
X134106031Y-85375104D02*
X139591907Y-85376079D01*
X126898920Y-75336963D02*
G75*
G03*
X127640000Y-75336963I370540J0D01*
G01*
X154110000Y-106280000D02*
X154100000Y-109640000D01*
X134106031Y-89395104D02*
X136833969Y-89384895D01*
X140003969Y-78255104D02*
X138248970Y-75119175D01*
X137571575Y-93339129D02*
G75*
G03*
X136968425Y-93339129I-301575J0D01*
G01*
X133356030Y-84634093D02*
G75*
G03*
X132942993Y-85047165I70J-413107D01*
G01*
X128640075Y-93339130D02*
G75*
G03*
X130858425Y-95579129I2218425J-21470D01*
G01*
X133692994Y-88982067D02*
X133692994Y-85788141D01*
X132547381Y-118145635D02*
X132547381Y-104575763D01*
X126903000Y-70403037D02*
G75*
G03*
X126490000Y-69990000I-413000J37D01*
G01*
X149889022Y-99544022D02*
G75*
G03*
X149147942Y-99544022I-370540J0D01*
G01*
X123278973Y-96819607D02*
G75*
G03*
X126140548Y-93888754I-23673J2885507D01*
G01*
X138516788Y-93569999D02*
G75*
G03*
X141378425Y-96500871I2885312J-45301D01*
G01*
X139194944Y-84223042D02*
X139213969Y-78315104D01*
X168031605Y-76476965D02*
G75*
G03*
X161631486Y-70076895I-6400005J65D01*
G01*
X139213969Y-78315104D02*
X137607175Y-75489714D01*
X120431556Y-70076930D02*
X120597938Y-70076930D01*
X122240273Y-116774368D02*
G75*
G03*
X122650272Y-116343828I127J410368D01*
G01*
X126490000Y-69990000D02*
X122160000Y-69990000D01*
X139120000Y-93570000D02*
G75*
G03*
X138516850Y-93570000I-301575J0D01*
G01*
X127650000Y-70430000D02*
X127640000Y-75336963D01*
X134750000Y-95579128D02*
G75*
G03*
X136968424Y-93339129I0J2218528D01*
G01*
X168140070Y-120229930D02*
X168031556Y-76476965D01*
X132940896Y-89712067D02*
G75*
G03*
X133353969Y-90125104I413104J67D01*
G01*
X145230000Y-95810029D02*
G75*
G03*
X147448425Y-93570000I0J2218529D01*
G01*
X122649754Y-116343828D02*
X122643593Y-112108968D01*
X123318973Y-96128701D02*
G75*
G03*
X125537397Y-93888754I27J2218501D01*
G01*
X117208973Y-93888754D02*
G75*
G03*
X116605823Y-93888754I-301575J0D01*
G01*
X122160000Y-69989963D02*
G75*
G03*
X121746963Y-70403037I0J-413037D01*
G01*
X140004944Y-84963042D02*
X140003969Y-78255104D01*
X150770978Y-103004022D02*
X149895000Y-103001080D01*
X120431556Y-70076886D02*
G75*
G03*
X114031486Y-76477000I44J-6400114D01*
G01*
X116483456Y-116764113D02*
X117273699Y-116768716D01*
X149147942Y-102254022D02*
X149895000Y-103001080D01*
X128063037Y-70016963D02*
X161631486Y-70076895D01*
X116843212Y-115784446D02*
X116853699Y-112924445D01*
X117263698Y-112494005D02*
G75*
G03*
X116853700Y-112924445I-198J-410295D01*
G01*
X121005883Y-76300000D02*
G75*
G03*
X121746963Y-76300000I370540J0D01*
G01*
X151475000Y-102660000D02*
X150935000Y-102120000D01*
X134710000Y-96270034D02*
G75*
G03*
X137571574Y-93339129I-23700J2885534D01*
G01*
X145190001Y-96500935D02*
G75*
G03*
X148051575Y-93570000I-23701J2885535D01*
G01*
X133692996Y-88982067D02*
G75*
G03*
X134106031Y-89395104I413104J67D01*
G01*
X134106031Y-85375094D02*
G75*
G03*
X133692994Y-85788141I-31J-413006D01*
G01*
X121440275Y-116200442D02*
G75*
G03*
X121440275Y-116774758I25J-287158D01*
G01*
X138781907Y-84636079D02*
X133356030Y-84634128D01*
X161740000Y-126630000D02*
X120450035Y-126630000D01*
X128640000Y-93339129D02*
G75*
G03*
X128036850Y-93339129I-301575J0D01*
G01*
X150205000Y-102120000D02*
X149889022Y-101804022D01*
X159100000Y-109651000D02*
G75*
G03*
X159100000Y-108910000I0J370500D01*
G01*
X122213106Y-111698969D02*
X116444098Y-111681285D01*
X116444098Y-111681308D02*
G75*
G03*
X116034099Y-112111772I-98J-410392D01*
G01*
X116605834Y-93888754D02*
G75*
G03*
X119467398Y-96819625I2885266J-45346D01*
G01*
X152660978Y-104900000D02*
X154110000Y-106280000D01*
X121849756Y-115770000D02*
X121850243Y-112910000D01*
X149147942Y-99544022D02*
X149147942Y-102254022D01*
X121010975Y-70489967D02*
X121005883Y-76300000D01*
X121010970Y-70489967D02*
G75*
G03*
X120597938Y-70076930I-413070J-33D01*
G01*
X126903037Y-70403037D02*
X126898920Y-75336963D01*
X124716500Y-117977159D02*
G75*
G03*
X132547381Y-118145635I4057400J6514159D01*
G01*
X114050000Y-120229930D02*
G75*
G03*
X120450035Y-126630000I6400200J130D01*
G01*
X139591907Y-85376044D02*
G75*
G03*
X140004944Y-84963042I-7J413044D01*
G01*
X161740000Y-126630000D02*
G75*
G03*
X168140070Y-120229930I30J6400040D01*
G01*
X128036860Y-93339129D02*
G75*
G03*
X130898425Y-96270000I2885240J-45371D01*
G01*
X121440275Y-116200461D02*
G75*
G03*
X121850273Y-115770000I25J410461D01*
G01*
X121746963Y-70403037D02*
X121746963Y-76300000D01*
X153185000Y-104375978D02*
X154930000Y-106070000D01*
X154930000Y-108900000D02*
X159100000Y-108910000D01*
M02*
