%TF.GenerationSoftware,KiCad,Pcbnew,7.0.5*%
%TF.CreationDate,2023-05-31T16:50:52+02:00*%
%TF.ProjectId,smart_power_socket-54x54x1_6mm_3Cu,736d6172-745f-4706-9f77-65725f736f63,rev?*%
%TF.SameCoordinates,Original*%
%TF.FileFunction,Drillmap*%
%TF.FilePolarity,Positive*%
%FSLAX45Y45*%
G04 Gerber Fmt 4.5, Leading zero omitted, Abs format (unit mm)*
G04 Created by KiCad (PCBNEW 7.0.5) date 2023-05-31 16:50:52*
%MOMM*%
%LPD*%
G01*
G04 APERTURE LIST*
%ADD10C,0.100000*%
%ADD11C,0.200000*%
G04 APERTURE END LIST*
D10*
X11603410Y-11211177D02*
X11605297Y-11635411D01*
X11946740Y-9681963D02*
X12327897Y-9681963D01*
X11605301Y-11635411D02*
G75*
G03*
X11648346Y-11676411I41069J21D01*
G01*
X12264353Y-11210897D02*
G75*
G03*
X12221311Y-11169897I-41013J37D01*
G01*
X13294093Y-8971207D02*
X13294299Y-8504717D01*
X14988902Y-10180402D02*
X14988902Y-9954402D01*
X13089842Y-9627000D02*
X13471000Y-9627000D01*
X14137842Y-9650087D02*
X14519000Y-9650087D01*
X11942740Y-9612875D02*
X12331897Y-9612875D01*
X13824890Y-7511922D02*
G75*
G03*
X13760718Y-7548971I-32090J-18518D01*
G01*
X14805157Y-9357000D02*
G75*
G03*
X14744842Y-9357000I-30158J0D01*
G01*
X12185019Y-11291000D02*
G75*
G03*
X12141976Y-11250000I-41029J20D01*
G01*
X13335397Y-9012510D02*
X13683397Y-9012598D01*
X11720895Y-9388875D02*
G75*
G03*
X11942740Y-9612875I221845J-2145D01*
G01*
X11404996Y-12022993D02*
X11403149Y-7647700D01*
X13254738Y-10457576D02*
G75*
G03*
X12471648Y-10440732I-405738J-651424D01*
G01*
X14133842Y-9581000D02*
X14523000Y-9581000D01*
X13085842Y-9557913D02*
X13475000Y-9557913D01*
X15910000Y-10965108D02*
X15410000Y-10964000D01*
X12471648Y-10440732D02*
X12471648Y-11797720D01*
X11726370Y-11249396D02*
X12141976Y-11250000D01*
X11684317Y-11578445D02*
G75*
G03*
X11727370Y-11619444I41053J5D01*
G01*
X12806304Y-7001700D02*
G75*
G03*
X12765000Y-7043000I-4J-41300D01*
G01*
X15318500Y-10437598D02*
X15147500Y-10266000D01*
X12224027Y-11677431D02*
X12144027Y-11677476D01*
X15493000Y-10607000D02*
X15493000Y-10890000D01*
X15077098Y-10300402D02*
X15266098Y-10490000D01*
X13683397Y-9012591D02*
G75*
G03*
X13683397Y-8938490I-7J37051D01*
G01*
X13878191Y-8463604D02*
G75*
G03*
X13919494Y-8422304I-1J41304D01*
G01*
X11727370Y-11676875D02*
G75*
G03*
X11727370Y-11619444I0J28716D01*
G01*
X12614055Y-9388875D02*
G75*
G03*
X12553740Y-9388875I-30158J0D01*
G01*
X13912000Y-9357000D02*
G75*
G03*
X14133842Y-9581000I221850J-2140D01*
G01*
X15093500Y-10212000D02*
X15020500Y-10212000D01*
X13410603Y-8537510D02*
X13959191Y-8537608D01*
X12689892Y-7533696D02*
G75*
G03*
X12764000Y-7533696I37054J0D01*
G01*
X15411000Y-10628000D02*
X15410000Y-10964000D01*
X13410603Y-8939510D02*
X13683397Y-8938490D01*
X14000397Y-7825510D02*
X13824897Y-7511917D01*
X13757157Y-9333913D02*
G75*
G03*
X13696842Y-9333913I-30158J0D01*
G01*
X13335603Y-8463409D02*
G75*
G03*
X13294299Y-8504717I7J-41311D01*
G01*
X12864007Y-9333913D02*
G75*
G03*
X13085842Y-9557913I221843J-2147D01*
G01*
X13369299Y-8898207D02*
X13369299Y-8578814D01*
X13254738Y-11814563D02*
X13254738Y-10457576D01*
X12690300Y-7040304D02*
G75*
G03*
X12649000Y-6999000I-41300J4D01*
G01*
X14988902Y-9954402D02*
G75*
G03*
X14914794Y-9954402I-37054J0D01*
G01*
X12327897Y-9681961D02*
G75*
G03*
X12614055Y-9388875I-2367J288551D01*
G01*
X13851679Y-9357000D02*
G75*
G03*
X14137842Y-9650087I288531J-4530D01*
G01*
X13919494Y-8422304D02*
X13921397Y-7831510D01*
X16803161Y-7647696D02*
G75*
G03*
X16163149Y-7007689I-640001J7D01*
G01*
X13921397Y-7831510D02*
X13760717Y-7548971D01*
X12043156Y-7007693D02*
X12059794Y-7007693D01*
X12224027Y-11677437D02*
G75*
G03*
X12265027Y-11634383I13J41037D01*
G01*
X12649000Y-6999000D02*
X12216000Y-6999000D01*
X13912000Y-9357000D02*
G75*
G03*
X13851685Y-9357000I-30158J0D01*
G01*
X12765000Y-7043000D02*
X12764000Y-7533696D01*
X13475000Y-9557913D02*
G75*
G03*
X13696842Y-9333913I0J221853D01*
G01*
X16814007Y-12022993D02*
X16803156Y-7647696D01*
X13294090Y-8971207D02*
G75*
G03*
X13335397Y-9012510I41310J7D01*
G01*
X14523000Y-9581003D02*
G75*
G03*
X14744842Y-9357000I0J221853D01*
G01*
X12264975Y-11634383D02*
X12264359Y-11210897D01*
X12331897Y-9612870D02*
G75*
G03*
X12553740Y-9388875I3J221850D01*
G01*
X11720897Y-9388875D02*
G75*
G03*
X11660582Y-9388875I-30158J0D01*
G01*
X12216000Y-6998996D02*
G75*
G03*
X12174696Y-7040304I0J-41304D01*
G01*
X14000494Y-8496304D02*
X14000397Y-7825510D01*
X15077098Y-10300402D02*
X14989500Y-10300108D01*
X12043156Y-7007689D02*
G75*
G03*
X11403149Y-7647700I4J-640011D01*
G01*
X11648346Y-11676411D02*
X11727370Y-11676872D01*
X14914794Y-10225402D02*
X14989500Y-10300108D01*
X12806304Y-7001696D02*
X16163149Y-7007689D01*
X11684321Y-11578445D02*
X11685370Y-11292444D01*
X11726370Y-11249400D02*
G75*
G03*
X11685370Y-11292444I-20J-41030D01*
G01*
X12100588Y-7630000D02*
G75*
G03*
X12174696Y-7630000I37054J0D01*
G01*
X15147500Y-10266000D02*
X15093500Y-10212000D01*
X13471000Y-9627003D02*
G75*
G03*
X13757157Y-9333913I-2370J288553D01*
G01*
X14519000Y-9650094D02*
G75*
G03*
X14805157Y-9357000I-2370J288554D01*
G01*
X13369300Y-8898207D02*
G75*
G03*
X13410603Y-8939510I41310J7D01*
G01*
X13410603Y-8537509D02*
G75*
G03*
X13369299Y-8578814I-3J-41301D01*
G01*
X12144027Y-11620044D02*
G75*
G03*
X12144027Y-11677476I3J-28716D01*
G01*
X13878191Y-8463608D02*
X13335603Y-8463413D01*
X16174000Y-12663000D02*
X12045003Y-12663000D01*
X12864000Y-9333913D02*
G75*
G03*
X12803685Y-9333913I-30158J0D01*
G01*
X15020500Y-10212000D02*
X14988902Y-10180402D01*
X15910000Y-10965100D02*
G75*
G03*
X15910000Y-10891000I0J37050D01*
G01*
X12221311Y-11169897D02*
X11644410Y-11168129D01*
X11644410Y-11168131D02*
G75*
G03*
X11603410Y-11211177I-10J-41039D01*
G01*
X11660583Y-9388875D02*
G75*
G03*
X11946740Y-9681963I288527J-4535D01*
G01*
X15266098Y-10490000D02*
X15411000Y-10628000D01*
X12184976Y-11577000D02*
X12185024Y-11291000D01*
X14914794Y-9954402D02*
X14914794Y-10225402D01*
X12101097Y-7048997D02*
X12100588Y-7630000D01*
X12101097Y-7048997D02*
G75*
G03*
X12059794Y-7007693I-41307J-3D01*
G01*
X12690304Y-7040304D02*
X12689892Y-7533696D01*
X12471650Y-11797716D02*
G75*
G03*
X13254738Y-11814563I405740J651416D01*
G01*
X11405000Y-12022993D02*
G75*
G03*
X12045003Y-12663000I640020J13D01*
G01*
X13959191Y-8537604D02*
G75*
G03*
X14000494Y-8496304I-1J41304D01*
G01*
X16174000Y-12663000D02*
G75*
G03*
X16814007Y-12022993I3J640004D01*
G01*
X12803686Y-9333913D02*
G75*
G03*
X13089842Y-9627000I288524J-4537D01*
G01*
X12144027Y-11620046D02*
G75*
G03*
X12185027Y-11577000I3J41046D01*
G01*
X12174696Y-7040304D02*
X12174696Y-7630000D01*
X15318500Y-10437598D02*
X15493000Y-10607000D01*
X15493000Y-10890000D02*
X15910000Y-10891000D01*
D11*
X11658925Y-12979484D02*
X11658925Y-12779484D01*
X11658925Y-12779484D02*
X11706544Y-12779484D01*
X11706544Y-12779484D02*
X11735116Y-12789008D01*
X11735116Y-12789008D02*
X11754163Y-12808055D01*
X11754163Y-12808055D02*
X11763687Y-12827103D01*
X11763687Y-12827103D02*
X11773211Y-12865198D01*
X11773211Y-12865198D02*
X11773211Y-12893769D01*
X11773211Y-12893769D02*
X11763687Y-12931865D01*
X11763687Y-12931865D02*
X11754163Y-12950912D01*
X11754163Y-12950912D02*
X11735116Y-12969960D01*
X11735116Y-12969960D02*
X11706544Y-12979484D01*
X11706544Y-12979484D02*
X11658925Y-12979484D01*
X11858925Y-12979484D02*
X11858925Y-12846150D01*
X11858925Y-12884246D02*
X11868449Y-12865198D01*
X11868449Y-12865198D02*
X11877973Y-12855674D01*
X11877973Y-12855674D02*
X11897021Y-12846150D01*
X11897021Y-12846150D02*
X11916068Y-12846150D01*
X11982735Y-12979484D02*
X11982735Y-12846150D01*
X11982735Y-12779484D02*
X11973211Y-12789008D01*
X11973211Y-12789008D02*
X11982735Y-12798531D01*
X11982735Y-12798531D02*
X11992259Y-12789008D01*
X11992259Y-12789008D02*
X11982735Y-12779484D01*
X11982735Y-12779484D02*
X11982735Y-12798531D01*
X12106544Y-12979484D02*
X12087497Y-12969960D01*
X12087497Y-12969960D02*
X12077973Y-12950912D01*
X12077973Y-12950912D02*
X12077973Y-12779484D01*
X12211306Y-12979484D02*
X12192259Y-12969960D01*
X12192259Y-12969960D02*
X12182735Y-12950912D01*
X12182735Y-12950912D02*
X12182735Y-12779484D01*
X12439878Y-12979484D02*
X12439878Y-12779484D01*
X12439878Y-12779484D02*
X12506544Y-12922341D01*
X12506544Y-12922341D02*
X12573211Y-12779484D01*
X12573211Y-12779484D02*
X12573211Y-12979484D01*
X12754163Y-12979484D02*
X12754163Y-12874722D01*
X12754163Y-12874722D02*
X12744640Y-12855674D01*
X12744640Y-12855674D02*
X12725592Y-12846150D01*
X12725592Y-12846150D02*
X12687497Y-12846150D01*
X12687497Y-12846150D02*
X12668449Y-12855674D01*
X12754163Y-12969960D02*
X12735116Y-12979484D01*
X12735116Y-12979484D02*
X12687497Y-12979484D01*
X12687497Y-12979484D02*
X12668449Y-12969960D01*
X12668449Y-12969960D02*
X12658925Y-12950912D01*
X12658925Y-12950912D02*
X12658925Y-12931865D01*
X12658925Y-12931865D02*
X12668449Y-12912817D01*
X12668449Y-12912817D02*
X12687497Y-12903293D01*
X12687497Y-12903293D02*
X12735116Y-12903293D01*
X12735116Y-12903293D02*
X12754163Y-12893769D01*
X12849402Y-12846150D02*
X12849402Y-13046150D01*
X12849402Y-12855674D02*
X12868449Y-12846150D01*
X12868449Y-12846150D02*
X12906544Y-12846150D01*
X12906544Y-12846150D02*
X12925592Y-12855674D01*
X12925592Y-12855674D02*
X12935116Y-12865198D01*
X12935116Y-12865198D02*
X12944640Y-12884246D01*
X12944640Y-12884246D02*
X12944640Y-12941388D01*
X12944640Y-12941388D02*
X12935116Y-12960436D01*
X12935116Y-12960436D02*
X12925592Y-12969960D01*
X12925592Y-12969960D02*
X12906544Y-12979484D01*
X12906544Y-12979484D02*
X12868449Y-12979484D01*
X12868449Y-12979484D02*
X12849402Y-12969960D01*
X13030354Y-12960436D02*
X13039878Y-12969960D01*
X13039878Y-12969960D02*
X13030354Y-12979484D01*
X13030354Y-12979484D02*
X13020830Y-12969960D01*
X13020830Y-12969960D02*
X13030354Y-12960436D01*
X13030354Y-12960436D02*
X13030354Y-12979484D01*
X13030354Y-12855674D02*
X13039878Y-12865198D01*
X13039878Y-12865198D02*
X13030354Y-12874722D01*
X13030354Y-12874722D02*
X13020830Y-12865198D01*
X13020830Y-12865198D02*
X13030354Y-12855674D01*
X13030354Y-12855674D02*
X13030354Y-12874722D01*
M02*
