%TF.GenerationSoftware,KiCad,Pcbnew,7.0.5*%
%TF.CreationDate,2023-06-01T08:30:42+02:00*%
%TF.ProjectId,smart_power_socket-54x54x1_6mm_3Cu,736d6172-745f-4706-9f77-65725f736f63,rev?*%
%TF.SameCoordinates,Original*%
%TF.FileFunction,Legend,Top*%
%TF.FilePolarity,Positive*%
%FSLAX46Y46*%
G04 Gerber Fmt 4.6, Leading zero omitted, Abs format (unit mm)*
G04 Created by KiCad (PCBNEW 7.0.5) date 2023-06-01 08:30:42*
%MOMM*%
%LPD*%
G01*
G04 APERTURE LIST*
G04 Aperture macros list*
%AMRoundRect*
0 Rectangle with rounded corners*
0 $1 Rounding radius*
0 $2 $3 $4 $5 $6 $7 $8 $9 X,Y pos of 4 corners*
0 Add a 4 corners polygon primitive as box body*
4,1,4,$2,$3,$4,$5,$6,$7,$8,$9,$2,$3,0*
0 Add four circle primitives for the rounded corners*
1,1,$1+$1,$2,$3*
1,1,$1+$1,$4,$5*
1,1,$1+$1,$6,$7*
1,1,$1+$1,$8,$9*
0 Add four rect primitives between the rounded corners*
20,1,$1+$1,$2,$3,$4,$5,0*
20,1,$1+$1,$4,$5,$6,$7,0*
20,1,$1+$1,$6,$7,$8,$9,0*
20,1,$1+$1,$8,$9,$2,$3,0*%
%AMRotRect*
0 Rectangle, with rotation*
0 The origin of the aperture is its center*
0 $1 length*
0 $2 width*
0 $3 Rotation angle, in degrees counterclockwise*
0 Add horizontal line*
21,1,$1,$2,0,0,$3*%
G04 Aperture macros list end*
%ADD10C,0.150000*%
%ADD11C,0.300000*%
%ADD12C,2.068289*%
%ADD13C,2.309457*%
%ADD14C,1.932841*%
%ADD15C,0.250000*%
%ADD16C,0.200000*%
%ADD17C,0.254000*%
%ADD18C,0.120000*%
%ADD19C,0.127000*%
%ADD20RoundRect,0.218750X0.218750X0.381250X-0.218750X0.381250X-0.218750X-0.381250X0.218750X-0.381250X0*%
%ADD21RoundRect,0.200000X-0.200000X-0.275000X0.200000X-0.275000X0.200000X0.275000X-0.200000X0.275000X0*%
%ADD22RoundRect,0.250000X-0.450000X0.262500X-0.450000X-0.262500X0.450000X-0.262500X0.450000X0.262500X0*%
%ADD23RoundRect,0.225000X-0.250000X0.225000X-0.250000X-0.225000X0.250000X-0.225000X0.250000X0.225000X0*%
%ADD24RoundRect,0.250000X1.075000X-0.375000X1.075000X0.375000X-1.075000X0.375000X-1.075000X-0.375000X0*%
%ADD25RoundRect,0.250000X0.475000X-0.250000X0.475000X0.250000X-0.475000X0.250000X-0.475000X-0.250000X0*%
%ADD26C,1.000000*%
%ADD27RoundRect,0.200000X-0.275000X0.200000X-0.275000X-0.200000X0.275000X-0.200000X0.275000X0.200000X0*%
%ADD28RoundRect,0.150000X-0.512500X-0.150000X0.512500X-0.150000X0.512500X0.150000X-0.512500X0.150000X0*%
%ADD29RoundRect,0.225000X0.225000X0.250000X-0.225000X0.250000X-0.225000X-0.250000X0.225000X-0.250000X0*%
%ADD30RoundRect,0.200000X0.275000X-0.200000X0.275000X0.200000X-0.275000X0.200000X-0.275000X-0.200000X0*%
%ADD31RoundRect,0.250000X0.250000X0.475000X-0.250000X0.475000X-0.250000X-0.475000X0.250000X-0.475000X0*%
%ADD32RoundRect,0.250001X0.462499X0.624999X-0.462499X0.624999X-0.462499X-0.624999X0.462499X-0.624999X0*%
%ADD33RoundRect,0.250000X0.450000X-0.262500X0.450000X0.262500X-0.450000X0.262500X-0.450000X-0.262500X0*%
%ADD34R,0.840000X0.420000*%
%ADD35R,1.600000X2.500000*%
%ADD36RoundRect,0.225000X-0.225000X-0.250000X0.225000X-0.250000X0.225000X0.250000X-0.225000X0.250000X0*%
%ADD37RoundRect,0.225000X0.250000X-0.225000X0.250000X0.225000X-0.250000X0.225000X-0.250000X-0.225000X0*%
%ADD38RoundRect,0.150000X-0.825000X-0.150000X0.825000X-0.150000X0.825000X0.150000X-0.825000X0.150000X0*%
%ADD39R,1.200000X1.400000*%
%ADD40RoundRect,0.087500X-0.087500X0.225000X-0.087500X-0.225000X0.087500X-0.225000X0.087500X0.225000X0*%
%ADD41RoundRect,0.087500X-0.225000X0.087500X-0.225000X-0.087500X0.225000X-0.087500X0.225000X0.087500X0*%
%ADD42RoundRect,0.041300X-0.253700X0.948700X-0.253700X-0.948700X0.253700X-0.948700X0.253700X0.948700X0*%
%ADD43R,1.000000X1.000000*%
%ADD44RoundRect,0.050000X0.309359X-0.238649X-0.238649X0.309359X-0.309359X0.238649X0.238649X-0.309359X0*%
%ADD45RoundRect,0.050000X0.309359X0.238649X0.238649X0.309359X-0.309359X-0.238649X-0.238649X-0.309359X0*%
%ADD46RoundRect,0.002500X0.003536X0.000000X0.000000X0.003536X-0.003536X0.000000X0.000000X-0.003536X0*%
%ADD47RotRect,5.600000X5.600000X135.000000*%
%ADD48RoundRect,0.250000X0.262500X0.450000X-0.262500X0.450000X-0.262500X-0.450000X0.262500X-0.450000X0*%
%ADD49R,0.400000X16.500000*%
%ADD50R,0.400000X25.400000*%
%ADD51R,2.195000X2.195000*%
%ADD52RoundRect,0.250000X0.375000X1.075000X-0.375000X1.075000X-0.375000X-1.075000X0.375000X-1.075000X0*%
%ADD53R,2.250000X1.100000*%
%ADD54R,1.100000X1.050000*%
%ADD55R,14.000000X0.400000*%
%ADD56R,5.700000X0.400000*%
%ADD57R,13.300000X0.400000*%
%ADD58C,1.600000*%
%ADD59C,3.000000*%
%ADD60C,2.500000*%
%ADD61C,2.010000*%
%ADD62R,2.340000X2.340000*%
%ADD63C,2.340000*%
%ADD64R,2.000000X2.000000*%
%ADD65C,2.000000*%
%ADD66R,2.300000X2.000000*%
%ADD67C,2.300000*%
%ADD68R,2.100000X2.100000*%
%ADD69C,2.100000*%
%TA.AperFunction,Profile*%
%ADD70C,0.100000*%
%TD*%
G04 APERTURE END LIST*
D10*
X149399924Y-90647000D02*
X152679924Y-90647000D01*
X152679924Y-98032000D01*
X149399924Y-98032000D01*
X149399924Y-90647000D01*
G36*
X149399924Y-90647000D02*
G01*
X152679924Y-90647000D01*
X152679924Y-98032000D01*
X149399924Y-98032000D01*
X149399924Y-90647000D01*
G37*
D11*
X139594642Y-98460000D02*
G75*
G03*
X139594642Y-98460000I-174642J0D01*
G01*
D12*
X146344144Y-93613288D02*
G75*
G03*
X146344144Y-93613288I-1034144J0D01*
G01*
D11*
X114724566Y-101172000D02*
G75*
G03*
X114724566Y-101172000I-174642J0D01*
G01*
D13*
X166544652Y-77607543D02*
G75*
G03*
X166544652Y-77607543I-1154728J0D01*
G01*
D11*
X145239638Y-105490000D02*
G75*
G03*
X145239638Y-105490000I-129638J0D01*
G01*
X146070950Y-119250000D02*
G75*
G03*
X146070950Y-119250000I-210950J0D01*
G01*
X159594642Y-81110000D02*
G75*
G03*
X159594642Y-81110000I-174642J0D01*
G01*
X144400950Y-97960000D02*
G75*
G03*
X144400950Y-97960000I-210950J0D01*
G01*
D12*
X142324144Y-93673288D02*
G75*
G03*
X142324144Y-93673288I-1034144J0D01*
G01*
D10*
X149854924Y-98692000D02*
X156924924Y-98692000D01*
X156924924Y-102142000D01*
X149854924Y-102142000D01*
X149854924Y-98692000D01*
G36*
X149854924Y-98692000D02*
G01*
X156924924Y-98692000D01*
X156924924Y-102142000D01*
X149854924Y-102142000D01*
X149854924Y-98692000D01*
G37*
D13*
X125450271Y-72390000D02*
G75*
G03*
X125450271Y-72390000I-1154728J0D01*
G01*
D14*
X160028503Y-93432000D02*
G75*
G03*
X160028503Y-93432000I-966420J0D01*
G01*
X157938579Y-106920000D02*
G75*
G03*
X157938579Y-106920000I-966420J0D01*
G01*
X166846344Y-108154159D02*
G75*
G03*
X166846344Y-108154159I-966420J0D01*
G01*
D12*
X131904144Y-93423288D02*
G75*
G03*
X131904144Y-93423288I-1034144J0D01*
G01*
D14*
X167094185Y-101732000D02*
G75*
G03*
X167094185Y-101732000I-966420J0D01*
G01*
D13*
X166584652Y-82537543D02*
G75*
G03*
X166584652Y-82537543I-1154728J0D01*
G01*
D10*
X134939924Y-79482000D02*
X137899924Y-79482000D01*
X137899924Y-84572000D01*
X134939924Y-84572000D01*
X134939924Y-79482000D01*
G36*
X134939924Y-79482000D02*
G01*
X137899924Y-79482000D01*
X137899924Y-84572000D01*
X134939924Y-84572000D01*
X134939924Y-79482000D01*
G37*
D14*
X167016344Y-93604159D02*
G75*
G03*
X167016344Y-93604159I-966420J0D01*
G01*
X160158503Y-101622000D02*
G75*
G03*
X160158503Y-101622000I-966420J0D01*
G01*
D12*
X135854144Y-93403288D02*
G75*
G03*
X135854144Y-93403288I-1034144J0D01*
G01*
D10*
X126890000Y-99170000D02*
X126890000Y-95950000D01*
D12*
X120524144Y-93953288D02*
G75*
G03*
X120524144Y-93953288I-1034144J0D01*
G01*
D13*
X131579109Y-85832000D02*
G75*
G03*
X131579109Y-85832000I-1154728J0D01*
G01*
D11*
X138404642Y-78370000D02*
G75*
G03*
X138404642Y-78370000I-174642J0D01*
G01*
D12*
X124324144Y-93933288D02*
G75*
G03*
X124324144Y-93933288I-1034144J0D01*
G01*
D15*
X163125380Y-111281905D02*
X164125380Y-111281905D01*
X163649190Y-111281905D02*
X163649190Y-111853333D01*
X163125380Y-111853333D02*
X164125380Y-111853333D01*
X164125380Y-112520000D02*
X164125380Y-112710476D01*
X164125380Y-112710476D02*
X164077761Y-112805714D01*
X164077761Y-112805714D02*
X163982523Y-112900952D01*
X163982523Y-112900952D02*
X163792047Y-112948571D01*
X163792047Y-112948571D02*
X163458714Y-112948571D01*
X163458714Y-112948571D02*
X163268238Y-112900952D01*
X163268238Y-112900952D02*
X163173000Y-112805714D01*
X163173000Y-112805714D02*
X163125380Y-112710476D01*
X163125380Y-112710476D02*
X163125380Y-112520000D01*
X163125380Y-112520000D02*
X163173000Y-112424762D01*
X163173000Y-112424762D02*
X163268238Y-112329524D01*
X163268238Y-112329524D02*
X163458714Y-112281905D01*
X163458714Y-112281905D02*
X163792047Y-112281905D01*
X163792047Y-112281905D02*
X163982523Y-112329524D01*
X163982523Y-112329524D02*
X164077761Y-112424762D01*
X164077761Y-112424762D02*
X164125380Y-112520000D01*
X163125380Y-113377143D02*
X164125380Y-113377143D01*
X164125380Y-113377143D02*
X163411095Y-113710476D01*
X163411095Y-113710476D02*
X164125380Y-114043809D01*
X164125380Y-114043809D02*
X163125380Y-114043809D01*
X163649190Y-114520000D02*
X163649190Y-114853333D01*
X163125380Y-114996190D02*
X163125380Y-114520000D01*
X163125380Y-114520000D02*
X164125380Y-114520000D01*
X164125380Y-114520000D02*
X164125380Y-114996190D01*
X163411095Y-116139048D02*
X163411095Y-116615238D01*
X163125380Y-116043810D02*
X164125380Y-116377143D01*
X164125380Y-116377143D02*
X163125380Y-116710476D01*
X164125380Y-117043810D02*
X163315857Y-117043810D01*
X163315857Y-117043810D02*
X163220619Y-117091429D01*
X163220619Y-117091429D02*
X163173000Y-117139048D01*
X163173000Y-117139048D02*
X163125380Y-117234286D01*
X163125380Y-117234286D02*
X163125380Y-117424762D01*
X163125380Y-117424762D02*
X163173000Y-117520000D01*
X163173000Y-117520000D02*
X163220619Y-117567619D01*
X163220619Y-117567619D02*
X163315857Y-117615238D01*
X163315857Y-117615238D02*
X164125380Y-117615238D01*
X164125380Y-117948572D02*
X164125380Y-118520000D01*
X163125380Y-118234286D02*
X164125380Y-118234286D01*
X164125380Y-119043810D02*
X164125380Y-119234286D01*
X164125380Y-119234286D02*
X164077761Y-119329524D01*
X164077761Y-119329524D02*
X163982523Y-119424762D01*
X163982523Y-119424762D02*
X163792047Y-119472381D01*
X163792047Y-119472381D02*
X163458714Y-119472381D01*
X163458714Y-119472381D02*
X163268238Y-119424762D01*
X163268238Y-119424762D02*
X163173000Y-119329524D01*
X163173000Y-119329524D02*
X163125380Y-119234286D01*
X163125380Y-119234286D02*
X163125380Y-119043810D01*
X163125380Y-119043810D02*
X163173000Y-118948572D01*
X163173000Y-118948572D02*
X163268238Y-118853334D01*
X163268238Y-118853334D02*
X163458714Y-118805715D01*
X163458714Y-118805715D02*
X163792047Y-118805715D01*
X163792047Y-118805715D02*
X163982523Y-118853334D01*
X163982523Y-118853334D02*
X164077761Y-118948572D01*
X164077761Y-118948572D02*
X164125380Y-119043810D01*
X163125380Y-119900953D02*
X164125380Y-119900953D01*
X164125380Y-119900953D02*
X163411095Y-120234286D01*
X163411095Y-120234286D02*
X164125380Y-120567619D01*
X164125380Y-120567619D02*
X163125380Y-120567619D01*
X163411095Y-120996191D02*
X163411095Y-121472381D01*
X163125380Y-120900953D02*
X164125380Y-121234286D01*
X164125380Y-121234286D02*
X163125380Y-121567619D01*
X164125380Y-121758096D02*
X164125380Y-122329524D01*
X163125380Y-122043810D02*
X164125380Y-122043810D01*
X163125380Y-122662858D02*
X164125380Y-122662858D01*
X164125380Y-123329524D02*
X164125380Y-123520000D01*
X164125380Y-123520000D02*
X164077761Y-123615238D01*
X164077761Y-123615238D02*
X163982523Y-123710476D01*
X163982523Y-123710476D02*
X163792047Y-123758095D01*
X163792047Y-123758095D02*
X163458714Y-123758095D01*
X163458714Y-123758095D02*
X163268238Y-123710476D01*
X163268238Y-123710476D02*
X163173000Y-123615238D01*
X163173000Y-123615238D02*
X163125380Y-123520000D01*
X163125380Y-123520000D02*
X163125380Y-123329524D01*
X163125380Y-123329524D02*
X163173000Y-123234286D01*
X163173000Y-123234286D02*
X163268238Y-123139048D01*
X163268238Y-123139048D02*
X163458714Y-123091429D01*
X163458714Y-123091429D02*
X163792047Y-123091429D01*
X163792047Y-123091429D02*
X163982523Y-123139048D01*
X163982523Y-123139048D02*
X164077761Y-123234286D01*
X164077761Y-123234286D02*
X164125380Y-123329524D01*
X163125380Y-124186667D02*
X164125380Y-124186667D01*
X164125380Y-124186667D02*
X163125380Y-124758095D01*
X163125380Y-124758095D02*
X164125380Y-124758095D01*
X161563000Y-112639047D02*
X161515380Y-112781904D01*
X161515380Y-112781904D02*
X161515380Y-113019999D01*
X161515380Y-113019999D02*
X161563000Y-113115237D01*
X161563000Y-113115237D02*
X161610619Y-113162856D01*
X161610619Y-113162856D02*
X161705857Y-113210475D01*
X161705857Y-113210475D02*
X161801095Y-113210475D01*
X161801095Y-113210475D02*
X161896333Y-113162856D01*
X161896333Y-113162856D02*
X161943952Y-113115237D01*
X161943952Y-113115237D02*
X161991571Y-113019999D01*
X161991571Y-113019999D02*
X162039190Y-112829523D01*
X162039190Y-112829523D02*
X162086809Y-112734285D01*
X162086809Y-112734285D02*
X162134428Y-112686666D01*
X162134428Y-112686666D02*
X162229666Y-112639047D01*
X162229666Y-112639047D02*
X162324904Y-112639047D01*
X162324904Y-112639047D02*
X162420142Y-112686666D01*
X162420142Y-112686666D02*
X162467761Y-112734285D01*
X162467761Y-112734285D02*
X162515380Y-112829523D01*
X162515380Y-112829523D02*
X162515380Y-113067618D01*
X162515380Y-113067618D02*
X162467761Y-113210475D01*
X161515380Y-113639047D02*
X162515380Y-113639047D01*
X162515380Y-113639047D02*
X161801095Y-113972380D01*
X161801095Y-113972380D02*
X162515380Y-114305713D01*
X162515380Y-114305713D02*
X161515380Y-114305713D01*
X161801095Y-114734285D02*
X161801095Y-115210475D01*
X161515380Y-114639047D02*
X162515380Y-114972380D01*
X162515380Y-114972380D02*
X161515380Y-115305713D01*
X161515380Y-116210475D02*
X161991571Y-115877142D01*
X161515380Y-115639047D02*
X162515380Y-115639047D01*
X162515380Y-115639047D02*
X162515380Y-116019999D01*
X162515380Y-116019999D02*
X162467761Y-116115237D01*
X162467761Y-116115237D02*
X162420142Y-116162856D01*
X162420142Y-116162856D02*
X162324904Y-116210475D01*
X162324904Y-116210475D02*
X162182047Y-116210475D01*
X162182047Y-116210475D02*
X162086809Y-116162856D01*
X162086809Y-116162856D02*
X162039190Y-116115237D01*
X162039190Y-116115237D02*
X161991571Y-116019999D01*
X161991571Y-116019999D02*
X161991571Y-115639047D01*
X162515380Y-116496190D02*
X162515380Y-117067618D01*
X161515380Y-116781904D02*
X162515380Y-116781904D01*
X161563000Y-118115238D02*
X161515380Y-118258095D01*
X161515380Y-118258095D02*
X161515380Y-118496190D01*
X161515380Y-118496190D02*
X161563000Y-118591428D01*
X161563000Y-118591428D02*
X161610619Y-118639047D01*
X161610619Y-118639047D02*
X161705857Y-118686666D01*
X161705857Y-118686666D02*
X161801095Y-118686666D01*
X161801095Y-118686666D02*
X161896333Y-118639047D01*
X161896333Y-118639047D02*
X161943952Y-118591428D01*
X161943952Y-118591428D02*
X161991571Y-118496190D01*
X161991571Y-118496190D02*
X162039190Y-118305714D01*
X162039190Y-118305714D02*
X162086809Y-118210476D01*
X162086809Y-118210476D02*
X162134428Y-118162857D01*
X162134428Y-118162857D02*
X162229666Y-118115238D01*
X162229666Y-118115238D02*
X162324904Y-118115238D01*
X162324904Y-118115238D02*
X162420142Y-118162857D01*
X162420142Y-118162857D02*
X162467761Y-118210476D01*
X162467761Y-118210476D02*
X162515380Y-118305714D01*
X162515380Y-118305714D02*
X162515380Y-118543809D01*
X162515380Y-118543809D02*
X162467761Y-118686666D01*
X162515380Y-119305714D02*
X162515380Y-119496190D01*
X162515380Y-119496190D02*
X162467761Y-119591428D01*
X162467761Y-119591428D02*
X162372523Y-119686666D01*
X162372523Y-119686666D02*
X162182047Y-119734285D01*
X162182047Y-119734285D02*
X161848714Y-119734285D01*
X161848714Y-119734285D02*
X161658238Y-119686666D01*
X161658238Y-119686666D02*
X161563000Y-119591428D01*
X161563000Y-119591428D02*
X161515380Y-119496190D01*
X161515380Y-119496190D02*
X161515380Y-119305714D01*
X161515380Y-119305714D02*
X161563000Y-119210476D01*
X161563000Y-119210476D02*
X161658238Y-119115238D01*
X161658238Y-119115238D02*
X161848714Y-119067619D01*
X161848714Y-119067619D02*
X162182047Y-119067619D01*
X162182047Y-119067619D02*
X162372523Y-119115238D01*
X162372523Y-119115238D02*
X162467761Y-119210476D01*
X162467761Y-119210476D02*
X162515380Y-119305714D01*
X161610619Y-120734285D02*
X161563000Y-120686666D01*
X161563000Y-120686666D02*
X161515380Y-120543809D01*
X161515380Y-120543809D02*
X161515380Y-120448571D01*
X161515380Y-120448571D02*
X161563000Y-120305714D01*
X161563000Y-120305714D02*
X161658238Y-120210476D01*
X161658238Y-120210476D02*
X161753476Y-120162857D01*
X161753476Y-120162857D02*
X161943952Y-120115238D01*
X161943952Y-120115238D02*
X162086809Y-120115238D01*
X162086809Y-120115238D02*
X162277285Y-120162857D01*
X162277285Y-120162857D02*
X162372523Y-120210476D01*
X162372523Y-120210476D02*
X162467761Y-120305714D01*
X162467761Y-120305714D02*
X162515380Y-120448571D01*
X162515380Y-120448571D02*
X162515380Y-120543809D01*
X162515380Y-120543809D02*
X162467761Y-120686666D01*
X162467761Y-120686666D02*
X162420142Y-120734285D01*
X161515380Y-121162857D02*
X162515380Y-121162857D01*
X161515380Y-121734285D02*
X162086809Y-121305714D01*
X162515380Y-121734285D02*
X161943952Y-121162857D01*
X162039190Y-122162857D02*
X162039190Y-122496190D01*
X161515380Y-122639047D02*
X161515380Y-122162857D01*
X161515380Y-122162857D02*
X162515380Y-122162857D01*
X162515380Y-122162857D02*
X162515380Y-122639047D01*
X162515380Y-122924762D02*
X162515380Y-123496190D01*
X161515380Y-123210476D02*
X162515380Y-123210476D01*
D10*
X123180390Y-106669523D02*
X123142295Y-106745713D01*
X123142295Y-106745713D02*
X123142295Y-106859999D01*
X123142295Y-106859999D02*
X123180390Y-106974285D01*
X123180390Y-106974285D02*
X123256580Y-107050475D01*
X123256580Y-107050475D02*
X123332771Y-107088570D01*
X123332771Y-107088570D02*
X123485152Y-107126666D01*
X123485152Y-107126666D02*
X123599438Y-107126666D01*
X123599438Y-107126666D02*
X123751819Y-107088570D01*
X123751819Y-107088570D02*
X123828009Y-107050475D01*
X123828009Y-107050475D02*
X123904200Y-106974285D01*
X123904200Y-106974285D02*
X123942295Y-106859999D01*
X123942295Y-106859999D02*
X123942295Y-106783808D01*
X123942295Y-106783808D02*
X123904200Y-106669523D01*
X123904200Y-106669523D02*
X123866104Y-106631427D01*
X123866104Y-106631427D02*
X123599438Y-106631427D01*
X123599438Y-106631427D02*
X123599438Y-106783808D01*
X123942295Y-106288570D02*
X123142295Y-106288570D01*
X123142295Y-106288570D02*
X123942295Y-105831427D01*
X123942295Y-105831427D02*
X123142295Y-105831427D01*
X123942295Y-105450475D02*
X123142295Y-105450475D01*
X123142295Y-105450475D02*
X123142295Y-105259999D01*
X123142295Y-105259999D02*
X123180390Y-105145713D01*
X123180390Y-105145713D02*
X123256580Y-105069523D01*
X123256580Y-105069523D02*
X123332771Y-105031428D01*
X123332771Y-105031428D02*
X123485152Y-104993332D01*
X123485152Y-104993332D02*
X123599438Y-104993332D01*
X123599438Y-104993332D02*
X123751819Y-105031428D01*
X123751819Y-105031428D02*
X123828009Y-105069523D01*
X123828009Y-105069523D02*
X123904200Y-105145713D01*
X123904200Y-105145713D02*
X123942295Y-105259999D01*
X123942295Y-105259999D02*
X123942295Y-105450475D01*
D16*
X161323495Y-72552381D02*
X161323495Y-73028571D01*
X161037780Y-72457143D02*
X162037780Y-72790476D01*
X162037780Y-72790476D02*
X161037780Y-73123809D01*
X161133019Y-74028571D02*
X161085400Y-73980952D01*
X161085400Y-73980952D02*
X161037780Y-73838095D01*
X161037780Y-73838095D02*
X161037780Y-73742857D01*
X161037780Y-73742857D02*
X161085400Y-73600000D01*
X161085400Y-73600000D02*
X161180638Y-73504762D01*
X161180638Y-73504762D02*
X161275876Y-73457143D01*
X161275876Y-73457143D02*
X161466352Y-73409524D01*
X161466352Y-73409524D02*
X161609209Y-73409524D01*
X161609209Y-73409524D02*
X161799685Y-73457143D01*
X161799685Y-73457143D02*
X161894923Y-73504762D01*
X161894923Y-73504762D02*
X161990161Y-73600000D01*
X161990161Y-73600000D02*
X162037780Y-73742857D01*
X162037780Y-73742857D02*
X162037780Y-73838095D01*
X162037780Y-73838095D02*
X161990161Y-73980952D01*
X161990161Y-73980952D02*
X161942542Y-74028571D01*
X161609209Y-75361905D02*
X161656828Y-75266667D01*
X161656828Y-75266667D02*
X161704447Y-75219048D01*
X161704447Y-75219048D02*
X161799685Y-75171429D01*
X161799685Y-75171429D02*
X161847304Y-75171429D01*
X161847304Y-75171429D02*
X161942542Y-75219048D01*
X161942542Y-75219048D02*
X161990161Y-75266667D01*
X161990161Y-75266667D02*
X162037780Y-75361905D01*
X162037780Y-75361905D02*
X162037780Y-75552381D01*
X162037780Y-75552381D02*
X161990161Y-75647619D01*
X161990161Y-75647619D02*
X161942542Y-75695238D01*
X161942542Y-75695238D02*
X161847304Y-75742857D01*
X161847304Y-75742857D02*
X161799685Y-75742857D01*
X161799685Y-75742857D02*
X161704447Y-75695238D01*
X161704447Y-75695238D02*
X161656828Y-75647619D01*
X161656828Y-75647619D02*
X161609209Y-75552381D01*
X161609209Y-75552381D02*
X161609209Y-75361905D01*
X161609209Y-75361905D02*
X161561590Y-75266667D01*
X161561590Y-75266667D02*
X161513971Y-75219048D01*
X161513971Y-75219048D02*
X161418733Y-75171429D01*
X161418733Y-75171429D02*
X161228257Y-75171429D01*
X161228257Y-75171429D02*
X161133019Y-75219048D01*
X161133019Y-75219048D02*
X161085400Y-75266667D01*
X161085400Y-75266667D02*
X161037780Y-75361905D01*
X161037780Y-75361905D02*
X161037780Y-75552381D01*
X161037780Y-75552381D02*
X161085400Y-75647619D01*
X161085400Y-75647619D02*
X161133019Y-75695238D01*
X161133019Y-75695238D02*
X161228257Y-75742857D01*
X161228257Y-75742857D02*
X161418733Y-75742857D01*
X161418733Y-75742857D02*
X161513971Y-75695238D01*
X161513971Y-75695238D02*
X161561590Y-75647619D01*
X161561590Y-75647619D02*
X161609209Y-75552381D01*
X162037780Y-76647619D02*
X162037780Y-76171429D01*
X162037780Y-76171429D02*
X161561590Y-76123810D01*
X161561590Y-76123810D02*
X161609209Y-76171429D01*
X161609209Y-76171429D02*
X161656828Y-76266667D01*
X161656828Y-76266667D02*
X161656828Y-76504762D01*
X161656828Y-76504762D02*
X161609209Y-76600000D01*
X161609209Y-76600000D02*
X161561590Y-76647619D01*
X161561590Y-76647619D02*
X161466352Y-76695238D01*
X161466352Y-76695238D02*
X161228257Y-76695238D01*
X161228257Y-76695238D02*
X161133019Y-76647619D01*
X161133019Y-76647619D02*
X161085400Y-76600000D01*
X161085400Y-76600000D02*
X161037780Y-76504762D01*
X161037780Y-76504762D02*
X161037780Y-76266667D01*
X161037780Y-76266667D02*
X161085400Y-76171429D01*
X161085400Y-76171429D02*
X161133019Y-76123810D01*
X161418733Y-77123810D02*
X161418733Y-77885715D01*
X161942542Y-78314286D02*
X161990161Y-78361905D01*
X161990161Y-78361905D02*
X162037780Y-78457143D01*
X162037780Y-78457143D02*
X162037780Y-78695238D01*
X162037780Y-78695238D02*
X161990161Y-78790476D01*
X161990161Y-78790476D02*
X161942542Y-78838095D01*
X161942542Y-78838095D02*
X161847304Y-78885714D01*
X161847304Y-78885714D02*
X161752066Y-78885714D01*
X161752066Y-78885714D02*
X161609209Y-78838095D01*
X161609209Y-78838095D02*
X161037780Y-78266667D01*
X161037780Y-78266667D02*
X161037780Y-78885714D01*
X162037780Y-79504762D02*
X162037780Y-79600000D01*
X162037780Y-79600000D02*
X161990161Y-79695238D01*
X161990161Y-79695238D02*
X161942542Y-79742857D01*
X161942542Y-79742857D02*
X161847304Y-79790476D01*
X161847304Y-79790476D02*
X161656828Y-79838095D01*
X161656828Y-79838095D02*
X161418733Y-79838095D01*
X161418733Y-79838095D02*
X161228257Y-79790476D01*
X161228257Y-79790476D02*
X161133019Y-79742857D01*
X161133019Y-79742857D02*
X161085400Y-79695238D01*
X161085400Y-79695238D02*
X161037780Y-79600000D01*
X161037780Y-79600000D02*
X161037780Y-79504762D01*
X161037780Y-79504762D02*
X161085400Y-79409524D01*
X161085400Y-79409524D02*
X161133019Y-79361905D01*
X161133019Y-79361905D02*
X161228257Y-79314286D01*
X161228257Y-79314286D02*
X161418733Y-79266667D01*
X161418733Y-79266667D02*
X161656828Y-79266667D01*
X161656828Y-79266667D02*
X161847304Y-79314286D01*
X161847304Y-79314286D02*
X161942542Y-79361905D01*
X161942542Y-79361905D02*
X161990161Y-79409524D01*
X161990161Y-79409524D02*
X162037780Y-79504762D01*
X162037780Y-80457143D02*
X162037780Y-80552381D01*
X162037780Y-80552381D02*
X161990161Y-80647619D01*
X161990161Y-80647619D02*
X161942542Y-80695238D01*
X161942542Y-80695238D02*
X161847304Y-80742857D01*
X161847304Y-80742857D02*
X161656828Y-80790476D01*
X161656828Y-80790476D02*
X161418733Y-80790476D01*
X161418733Y-80790476D02*
X161228257Y-80742857D01*
X161228257Y-80742857D02*
X161133019Y-80695238D01*
X161133019Y-80695238D02*
X161085400Y-80647619D01*
X161085400Y-80647619D02*
X161037780Y-80552381D01*
X161037780Y-80552381D02*
X161037780Y-80457143D01*
X161037780Y-80457143D02*
X161085400Y-80361905D01*
X161085400Y-80361905D02*
X161133019Y-80314286D01*
X161133019Y-80314286D02*
X161228257Y-80266667D01*
X161228257Y-80266667D02*
X161418733Y-80219048D01*
X161418733Y-80219048D02*
X161656828Y-80219048D01*
X161656828Y-80219048D02*
X161847304Y-80266667D01*
X161847304Y-80266667D02*
X161942542Y-80314286D01*
X161942542Y-80314286D02*
X161990161Y-80361905D01*
X161990161Y-80361905D02*
X162037780Y-80457143D01*
X162037780Y-81076191D02*
X161037780Y-81409524D01*
X161037780Y-81409524D02*
X162037780Y-81742857D01*
D15*
X119965809Y-124415714D02*
X120013428Y-124272857D01*
X120013428Y-124272857D02*
X120061047Y-124225238D01*
X120061047Y-124225238D02*
X120156285Y-124177619D01*
X120156285Y-124177619D02*
X120299142Y-124177619D01*
X120299142Y-124177619D02*
X120394380Y-124225238D01*
X120394380Y-124225238D02*
X120442000Y-124272857D01*
X120442000Y-124272857D02*
X120489619Y-124368095D01*
X120489619Y-124368095D02*
X120489619Y-124749047D01*
X120489619Y-124749047D02*
X119489619Y-124749047D01*
X119489619Y-124749047D02*
X119489619Y-124415714D01*
X119489619Y-124415714D02*
X119537238Y-124320476D01*
X119537238Y-124320476D02*
X119584857Y-124272857D01*
X119584857Y-124272857D02*
X119680095Y-124225238D01*
X119680095Y-124225238D02*
X119775333Y-124225238D01*
X119775333Y-124225238D02*
X119870571Y-124272857D01*
X119870571Y-124272857D02*
X119918190Y-124320476D01*
X119918190Y-124320476D02*
X119965809Y-124415714D01*
X119965809Y-124415714D02*
X119965809Y-124749047D01*
X119822952Y-123320476D02*
X120489619Y-123320476D01*
X119442000Y-123558571D02*
X120156285Y-123796666D01*
X120156285Y-123796666D02*
X120156285Y-123177619D01*
X119489619Y-122320476D02*
X119489619Y-122796666D01*
X119489619Y-122796666D02*
X119965809Y-122844285D01*
X119965809Y-122844285D02*
X119918190Y-122796666D01*
X119918190Y-122796666D02*
X119870571Y-122701428D01*
X119870571Y-122701428D02*
X119870571Y-122463333D01*
X119870571Y-122463333D02*
X119918190Y-122368095D01*
X119918190Y-122368095D02*
X119965809Y-122320476D01*
X119965809Y-122320476D02*
X120061047Y-122272857D01*
X120061047Y-122272857D02*
X120299142Y-122272857D01*
X120299142Y-122272857D02*
X120394380Y-122320476D01*
X120394380Y-122320476D02*
X120442000Y-122368095D01*
X120442000Y-122368095D02*
X120489619Y-122463333D01*
X120489619Y-122463333D02*
X120489619Y-122701428D01*
X120489619Y-122701428D02*
X120442000Y-122796666D01*
X120442000Y-122796666D02*
X120394380Y-122844285D01*
X119489619Y-121987142D02*
X120489619Y-121653809D01*
X120489619Y-121653809D02*
X119489619Y-121320476D01*
X119822952Y-120558571D02*
X120489619Y-120558571D01*
X119442000Y-120796666D02*
X120156285Y-121034761D01*
X120156285Y-121034761D02*
X120156285Y-120415714D01*
D16*
X123032219Y-125117142D02*
X123032219Y-125593332D01*
X123032219Y-125593332D02*
X123508409Y-125640951D01*
X123508409Y-125640951D02*
X123460790Y-125593332D01*
X123460790Y-125593332D02*
X123413171Y-125498094D01*
X123413171Y-125498094D02*
X123413171Y-125259999D01*
X123413171Y-125259999D02*
X123460790Y-125164761D01*
X123460790Y-125164761D02*
X123508409Y-125117142D01*
X123508409Y-125117142D02*
X123603647Y-125069523D01*
X123603647Y-125069523D02*
X123841742Y-125069523D01*
X123841742Y-125069523D02*
X123936980Y-125117142D01*
X123936980Y-125117142D02*
X123984600Y-125164761D01*
X123984600Y-125164761D02*
X124032219Y-125259999D01*
X124032219Y-125259999D02*
X124032219Y-125498094D01*
X124032219Y-125498094D02*
X123984600Y-125593332D01*
X123984600Y-125593332D02*
X123936980Y-125640951D01*
X123032219Y-124736189D02*
X123032219Y-124069523D01*
X123032219Y-124069523D02*
X124032219Y-124498094D01*
X123936980Y-123688570D02*
X123984600Y-123640951D01*
X123984600Y-123640951D02*
X124032219Y-123688570D01*
X124032219Y-123688570D02*
X123984600Y-123736189D01*
X123984600Y-123736189D02*
X123936980Y-123688570D01*
X123936980Y-123688570D02*
X124032219Y-123688570D01*
X123032219Y-123307618D02*
X123032219Y-122688571D01*
X123032219Y-122688571D02*
X123413171Y-123021904D01*
X123413171Y-123021904D02*
X123413171Y-122879047D01*
X123413171Y-122879047D02*
X123460790Y-122783809D01*
X123460790Y-122783809D02*
X123508409Y-122736190D01*
X123508409Y-122736190D02*
X123603647Y-122688571D01*
X123603647Y-122688571D02*
X123841742Y-122688571D01*
X123841742Y-122688571D02*
X123936980Y-122736190D01*
X123936980Y-122736190D02*
X123984600Y-122783809D01*
X123984600Y-122783809D02*
X124032219Y-122879047D01*
X124032219Y-122879047D02*
X124032219Y-123164761D01*
X124032219Y-123164761D02*
X123984600Y-123259999D01*
X123984600Y-123259999D02*
X123936980Y-123307618D01*
X124032219Y-122355237D02*
X123365552Y-121831428D01*
X123365552Y-122355237D02*
X124032219Y-121831428D01*
X123032219Y-120974285D02*
X123032219Y-121450475D01*
X123032219Y-121450475D02*
X123508409Y-121498094D01*
X123508409Y-121498094D02*
X123460790Y-121450475D01*
X123460790Y-121450475D02*
X123413171Y-121355237D01*
X123413171Y-121355237D02*
X123413171Y-121117142D01*
X123413171Y-121117142D02*
X123460790Y-121021904D01*
X123460790Y-121021904D02*
X123508409Y-120974285D01*
X123508409Y-120974285D02*
X123603647Y-120926666D01*
X123603647Y-120926666D02*
X123841742Y-120926666D01*
X123841742Y-120926666D02*
X123936980Y-120974285D01*
X123936980Y-120974285D02*
X123984600Y-121021904D01*
X123984600Y-121021904D02*
X124032219Y-121117142D01*
X124032219Y-121117142D02*
X124032219Y-121355237D01*
X124032219Y-121355237D02*
X123984600Y-121450475D01*
X123984600Y-121450475D02*
X123936980Y-121498094D01*
X123365552Y-120069523D02*
X124032219Y-120069523D01*
X122984600Y-120307618D02*
X123698885Y-120545713D01*
X123698885Y-120545713D02*
X123698885Y-119926666D01*
X123936980Y-119545713D02*
X123984600Y-119498094D01*
X123984600Y-119498094D02*
X124032219Y-119545713D01*
X124032219Y-119545713D02*
X123984600Y-119593332D01*
X123984600Y-119593332D02*
X123936980Y-119545713D01*
X123936980Y-119545713D02*
X124032219Y-119545713D01*
X123032219Y-118879047D02*
X123032219Y-118783809D01*
X123032219Y-118783809D02*
X123079838Y-118688571D01*
X123079838Y-118688571D02*
X123127457Y-118640952D01*
X123127457Y-118640952D02*
X123222695Y-118593333D01*
X123222695Y-118593333D02*
X123413171Y-118545714D01*
X123413171Y-118545714D02*
X123651266Y-118545714D01*
X123651266Y-118545714D02*
X123841742Y-118593333D01*
X123841742Y-118593333D02*
X123936980Y-118640952D01*
X123936980Y-118640952D02*
X123984600Y-118688571D01*
X123984600Y-118688571D02*
X124032219Y-118783809D01*
X124032219Y-118783809D02*
X124032219Y-118879047D01*
X124032219Y-118879047D02*
X123984600Y-118974285D01*
X123984600Y-118974285D02*
X123936980Y-119021904D01*
X123936980Y-119021904D02*
X123841742Y-119069523D01*
X123841742Y-119069523D02*
X123651266Y-119117142D01*
X123651266Y-119117142D02*
X123413171Y-119117142D01*
X123413171Y-119117142D02*
X123222695Y-119069523D01*
X123222695Y-119069523D02*
X123127457Y-119021904D01*
X123127457Y-119021904D02*
X123079838Y-118974285D01*
X123079838Y-118974285D02*
X123032219Y-118879047D01*
X124032219Y-118117142D02*
X123365552Y-118117142D01*
X123460790Y-118117142D02*
X123413171Y-118069523D01*
X123413171Y-118069523D02*
X123365552Y-117974285D01*
X123365552Y-117974285D02*
X123365552Y-117831428D01*
X123365552Y-117831428D02*
X123413171Y-117736190D01*
X123413171Y-117736190D02*
X123508409Y-117688571D01*
X123508409Y-117688571D02*
X124032219Y-117688571D01*
X123508409Y-117688571D02*
X123413171Y-117640952D01*
X123413171Y-117640952D02*
X123365552Y-117545714D01*
X123365552Y-117545714D02*
X123365552Y-117402857D01*
X123365552Y-117402857D02*
X123413171Y-117307618D01*
X123413171Y-117307618D02*
X123508409Y-117259999D01*
X123508409Y-117259999D02*
X124032219Y-117259999D01*
X124032219Y-116783809D02*
X123365552Y-116783809D01*
X123460790Y-116783809D02*
X123413171Y-116736190D01*
X123413171Y-116736190D02*
X123365552Y-116640952D01*
X123365552Y-116640952D02*
X123365552Y-116498095D01*
X123365552Y-116498095D02*
X123413171Y-116402857D01*
X123413171Y-116402857D02*
X123508409Y-116355238D01*
X123508409Y-116355238D02*
X124032219Y-116355238D01*
X123508409Y-116355238D02*
X123413171Y-116307619D01*
X123413171Y-116307619D02*
X123365552Y-116212381D01*
X123365552Y-116212381D02*
X123365552Y-116069524D01*
X123365552Y-116069524D02*
X123413171Y-115974285D01*
X123413171Y-115974285D02*
X123508409Y-115926666D01*
X123508409Y-115926666D02*
X124032219Y-115926666D01*
D10*
X152210000Y-123695866D02*
X152443334Y-123695866D01*
X152543334Y-124062533D02*
X152210000Y-124062533D01*
X152210000Y-124062533D02*
X152210000Y-123362533D01*
X152210000Y-123362533D02*
X152543334Y-123362533D01*
X152776667Y-123362533D02*
X153243333Y-124062533D01*
X153243333Y-123362533D02*
X152776667Y-124062533D01*
X153410000Y-123362533D02*
X153810000Y-123362533D01*
X153610000Y-124062533D02*
X153610000Y-123362533D01*
X152160000Y-124989533D02*
X152493333Y-124989533D01*
X152093333Y-125189533D02*
X152326667Y-124489533D01*
X152326667Y-124489533D02*
X152560000Y-125189533D01*
X152793333Y-125189533D02*
X152793333Y-124489533D01*
X152793333Y-124489533D02*
X153193333Y-125189533D01*
X153193333Y-125189533D02*
X153193333Y-124489533D01*
X153426666Y-124489533D02*
X153826666Y-124489533D01*
X153626666Y-125189533D02*
X153626666Y-124489533D01*
D16*
X154592381Y-97116504D02*
X155068571Y-97116504D01*
X154497143Y-97402219D02*
X154830476Y-96402219D01*
X154830476Y-96402219D02*
X155163809Y-97402219D01*
X156068571Y-97306980D02*
X156020952Y-97354600D01*
X156020952Y-97354600D02*
X155878095Y-97402219D01*
X155878095Y-97402219D02*
X155782857Y-97402219D01*
X155782857Y-97402219D02*
X155640000Y-97354600D01*
X155640000Y-97354600D02*
X155544762Y-97259361D01*
X155544762Y-97259361D02*
X155497143Y-97164123D01*
X155497143Y-97164123D02*
X155449524Y-96973647D01*
X155449524Y-96973647D02*
X155449524Y-96830790D01*
X155449524Y-96830790D02*
X155497143Y-96640314D01*
X155497143Y-96640314D02*
X155544762Y-96545076D01*
X155544762Y-96545076D02*
X155640000Y-96449838D01*
X155640000Y-96449838D02*
X155782857Y-96402219D01*
X155782857Y-96402219D02*
X155878095Y-96402219D01*
X155878095Y-96402219D02*
X156020952Y-96449838D01*
X156020952Y-96449838D02*
X156068571Y-96497457D01*
X157401905Y-96830790D02*
X157306667Y-96783171D01*
X157306667Y-96783171D02*
X157259048Y-96735552D01*
X157259048Y-96735552D02*
X157211429Y-96640314D01*
X157211429Y-96640314D02*
X157211429Y-96592695D01*
X157211429Y-96592695D02*
X157259048Y-96497457D01*
X157259048Y-96497457D02*
X157306667Y-96449838D01*
X157306667Y-96449838D02*
X157401905Y-96402219D01*
X157401905Y-96402219D02*
X157592381Y-96402219D01*
X157592381Y-96402219D02*
X157687619Y-96449838D01*
X157687619Y-96449838D02*
X157735238Y-96497457D01*
X157735238Y-96497457D02*
X157782857Y-96592695D01*
X157782857Y-96592695D02*
X157782857Y-96640314D01*
X157782857Y-96640314D02*
X157735238Y-96735552D01*
X157735238Y-96735552D02*
X157687619Y-96783171D01*
X157687619Y-96783171D02*
X157592381Y-96830790D01*
X157592381Y-96830790D02*
X157401905Y-96830790D01*
X157401905Y-96830790D02*
X157306667Y-96878409D01*
X157306667Y-96878409D02*
X157259048Y-96926028D01*
X157259048Y-96926028D02*
X157211429Y-97021266D01*
X157211429Y-97021266D02*
X157211429Y-97211742D01*
X157211429Y-97211742D02*
X157259048Y-97306980D01*
X157259048Y-97306980D02*
X157306667Y-97354600D01*
X157306667Y-97354600D02*
X157401905Y-97402219D01*
X157401905Y-97402219D02*
X157592381Y-97402219D01*
X157592381Y-97402219D02*
X157687619Y-97354600D01*
X157687619Y-97354600D02*
X157735238Y-97306980D01*
X157735238Y-97306980D02*
X157782857Y-97211742D01*
X157782857Y-97211742D02*
X157782857Y-97021266D01*
X157782857Y-97021266D02*
X157735238Y-96926028D01*
X157735238Y-96926028D02*
X157687619Y-96878409D01*
X157687619Y-96878409D02*
X157592381Y-96830790D01*
X158687619Y-96402219D02*
X158211429Y-96402219D01*
X158211429Y-96402219D02*
X158163810Y-96878409D01*
X158163810Y-96878409D02*
X158211429Y-96830790D01*
X158211429Y-96830790D02*
X158306667Y-96783171D01*
X158306667Y-96783171D02*
X158544762Y-96783171D01*
X158544762Y-96783171D02*
X158640000Y-96830790D01*
X158640000Y-96830790D02*
X158687619Y-96878409D01*
X158687619Y-96878409D02*
X158735238Y-96973647D01*
X158735238Y-96973647D02*
X158735238Y-97211742D01*
X158735238Y-97211742D02*
X158687619Y-97306980D01*
X158687619Y-97306980D02*
X158640000Y-97354600D01*
X158640000Y-97354600D02*
X158544762Y-97402219D01*
X158544762Y-97402219D02*
X158306667Y-97402219D01*
X158306667Y-97402219D02*
X158211429Y-97354600D01*
X158211429Y-97354600D02*
X158163810Y-97306980D01*
X159163810Y-97021266D02*
X159925715Y-97021266D01*
X160354286Y-96497457D02*
X160401905Y-96449838D01*
X160401905Y-96449838D02*
X160497143Y-96402219D01*
X160497143Y-96402219D02*
X160735238Y-96402219D01*
X160735238Y-96402219D02*
X160830476Y-96449838D01*
X160830476Y-96449838D02*
X160878095Y-96497457D01*
X160878095Y-96497457D02*
X160925714Y-96592695D01*
X160925714Y-96592695D02*
X160925714Y-96687933D01*
X160925714Y-96687933D02*
X160878095Y-96830790D01*
X160878095Y-96830790D02*
X160306667Y-97402219D01*
X160306667Y-97402219D02*
X160925714Y-97402219D01*
X161544762Y-96402219D02*
X161640000Y-96402219D01*
X161640000Y-96402219D02*
X161735238Y-96449838D01*
X161735238Y-96449838D02*
X161782857Y-96497457D01*
X161782857Y-96497457D02*
X161830476Y-96592695D01*
X161830476Y-96592695D02*
X161878095Y-96783171D01*
X161878095Y-96783171D02*
X161878095Y-97021266D01*
X161878095Y-97021266D02*
X161830476Y-97211742D01*
X161830476Y-97211742D02*
X161782857Y-97306980D01*
X161782857Y-97306980D02*
X161735238Y-97354600D01*
X161735238Y-97354600D02*
X161640000Y-97402219D01*
X161640000Y-97402219D02*
X161544762Y-97402219D01*
X161544762Y-97402219D02*
X161449524Y-97354600D01*
X161449524Y-97354600D02*
X161401905Y-97306980D01*
X161401905Y-97306980D02*
X161354286Y-97211742D01*
X161354286Y-97211742D02*
X161306667Y-97021266D01*
X161306667Y-97021266D02*
X161306667Y-96783171D01*
X161306667Y-96783171D02*
X161354286Y-96592695D01*
X161354286Y-96592695D02*
X161401905Y-96497457D01*
X161401905Y-96497457D02*
X161449524Y-96449838D01*
X161449524Y-96449838D02*
X161544762Y-96402219D01*
X162497143Y-96402219D02*
X162592381Y-96402219D01*
X162592381Y-96402219D02*
X162687619Y-96449838D01*
X162687619Y-96449838D02*
X162735238Y-96497457D01*
X162735238Y-96497457D02*
X162782857Y-96592695D01*
X162782857Y-96592695D02*
X162830476Y-96783171D01*
X162830476Y-96783171D02*
X162830476Y-97021266D01*
X162830476Y-97021266D02*
X162782857Y-97211742D01*
X162782857Y-97211742D02*
X162735238Y-97306980D01*
X162735238Y-97306980D02*
X162687619Y-97354600D01*
X162687619Y-97354600D02*
X162592381Y-97402219D01*
X162592381Y-97402219D02*
X162497143Y-97402219D01*
X162497143Y-97402219D02*
X162401905Y-97354600D01*
X162401905Y-97354600D02*
X162354286Y-97306980D01*
X162354286Y-97306980D02*
X162306667Y-97211742D01*
X162306667Y-97211742D02*
X162259048Y-97021266D01*
X162259048Y-97021266D02*
X162259048Y-96783171D01*
X162259048Y-96783171D02*
X162306667Y-96592695D01*
X162306667Y-96592695D02*
X162354286Y-96497457D01*
X162354286Y-96497457D02*
X162401905Y-96449838D01*
X162401905Y-96449838D02*
X162497143Y-96402219D01*
X163116191Y-96402219D02*
X163449524Y-97402219D01*
X163449524Y-97402219D02*
X163782857Y-96402219D01*
D10*
X123122295Y-104066189D02*
X123922295Y-103799522D01*
X123922295Y-103799522D02*
X123122295Y-103532856D01*
X123922295Y-103266189D02*
X123122295Y-103266189D01*
X123922295Y-102885237D02*
X123122295Y-102885237D01*
X123122295Y-102885237D02*
X123922295Y-102428094D01*
X123922295Y-102428094D02*
X123122295Y-102428094D01*
D16*
X134925238Y-123192980D02*
X135658572Y-124292980D01*
X135658572Y-123192980D02*
X134925238Y-124292980D01*
X135920476Y-123559647D02*
X136339524Y-123559647D01*
X136077619Y-123192980D02*
X136077619Y-124135838D01*
X136077619Y-124135838D02*
X136130000Y-124240600D01*
X136130000Y-124240600D02*
X136234762Y-124292980D01*
X136234762Y-124292980D02*
X136339524Y-124292980D01*
X137125238Y-124240600D02*
X137020476Y-124292980D01*
X137020476Y-124292980D02*
X136810952Y-124292980D01*
X136810952Y-124292980D02*
X136706190Y-124240600D01*
X136706190Y-124240600D02*
X136653809Y-124135838D01*
X136653809Y-124135838D02*
X136653809Y-123716790D01*
X136653809Y-123716790D02*
X136706190Y-123612028D01*
X136706190Y-123612028D02*
X136810952Y-123559647D01*
X136810952Y-123559647D02*
X137020476Y-123559647D01*
X137020476Y-123559647D02*
X137125238Y-123612028D01*
X137125238Y-123612028D02*
X137177619Y-123716790D01*
X137177619Y-123716790D02*
X137177619Y-123821552D01*
X137177619Y-123821552D02*
X136653809Y-123926314D01*
X137649047Y-123559647D02*
X137649047Y-124292980D01*
X137649047Y-123664409D02*
X137701428Y-123612028D01*
X137701428Y-123612028D02*
X137806190Y-123559647D01*
X137806190Y-123559647D02*
X137963333Y-123559647D01*
X137963333Y-123559647D02*
X138068095Y-123612028D01*
X138068095Y-123612028D02*
X138120476Y-123716790D01*
X138120476Y-123716790D02*
X138120476Y-124292980D01*
X138591904Y-124240600D02*
X138696666Y-124292980D01*
X138696666Y-124292980D02*
X138906190Y-124292980D01*
X138906190Y-124292980D02*
X139010952Y-124240600D01*
X139010952Y-124240600D02*
X139063333Y-124135838D01*
X139063333Y-124135838D02*
X139063333Y-124083457D01*
X139063333Y-124083457D02*
X139010952Y-123978695D01*
X139010952Y-123978695D02*
X138906190Y-123926314D01*
X138906190Y-123926314D02*
X138749047Y-123926314D01*
X138749047Y-123926314D02*
X138644285Y-123873933D01*
X138644285Y-123873933D02*
X138591904Y-123769171D01*
X138591904Y-123769171D02*
X138591904Y-123716790D01*
X138591904Y-123716790D02*
X138644285Y-123612028D01*
X138644285Y-123612028D02*
X138749047Y-123559647D01*
X138749047Y-123559647D02*
X138906190Y-123559647D01*
X138906190Y-123559647D02*
X139010952Y-123612028D01*
X140006190Y-124292980D02*
X140006190Y-123716790D01*
X140006190Y-123716790D02*
X139953809Y-123612028D01*
X139953809Y-123612028D02*
X139849047Y-123559647D01*
X139849047Y-123559647D02*
X139639523Y-123559647D01*
X139639523Y-123559647D02*
X139534761Y-123612028D01*
X140006190Y-124240600D02*
X139901428Y-124292980D01*
X139901428Y-124292980D02*
X139639523Y-124292980D01*
X139639523Y-124292980D02*
X139534761Y-124240600D01*
X139534761Y-124240600D02*
X139482380Y-124135838D01*
X139482380Y-124135838D02*
X139482380Y-124031076D01*
X139482380Y-124031076D02*
X139534761Y-123926314D01*
X139534761Y-123926314D02*
X139639523Y-123873933D01*
X139639523Y-123873933D02*
X139901428Y-123873933D01*
X139901428Y-123873933D02*
X140006190Y-123821552D01*
X141891904Y-124292980D02*
X141368094Y-124292980D01*
X141368094Y-124292980D02*
X141368094Y-123192980D01*
X142153808Y-123192980D02*
X142887142Y-124292980D01*
X142887142Y-123192980D02*
X142153808Y-124292980D01*
X143201427Y-123192980D02*
X143934761Y-123192980D01*
X143934761Y-123192980D02*
X143463332Y-124292980D01*
X135580000Y-126063980D02*
X135580000Y-124963980D01*
X135580000Y-124963980D02*
X135841905Y-124963980D01*
X135841905Y-124963980D02*
X135999048Y-125016361D01*
X135999048Y-125016361D02*
X136103810Y-125121123D01*
X136103810Y-125121123D02*
X136156191Y-125225885D01*
X136156191Y-125225885D02*
X136208572Y-125435409D01*
X136208572Y-125435409D02*
X136208572Y-125592552D01*
X136208572Y-125592552D02*
X136156191Y-125802076D01*
X136156191Y-125802076D02*
X136103810Y-125906838D01*
X136103810Y-125906838D02*
X135999048Y-126011600D01*
X135999048Y-126011600D02*
X135841905Y-126063980D01*
X135841905Y-126063980D02*
X135580000Y-126063980D01*
X137151429Y-125330647D02*
X137151429Y-126063980D01*
X136680000Y-125330647D02*
X136680000Y-125906838D01*
X136680000Y-125906838D02*
X136732381Y-126011600D01*
X136732381Y-126011600D02*
X136837143Y-126063980D01*
X136837143Y-126063980D02*
X136994286Y-126063980D01*
X136994286Y-126063980D02*
X137099048Y-126011600D01*
X137099048Y-126011600D02*
X137151429Y-125959219D01*
X138146667Y-126063980D02*
X138146667Y-125487790D01*
X138146667Y-125487790D02*
X138094286Y-125383028D01*
X138094286Y-125383028D02*
X137989524Y-125330647D01*
X137989524Y-125330647D02*
X137780000Y-125330647D01*
X137780000Y-125330647D02*
X137675238Y-125383028D01*
X138146667Y-126011600D02*
X138041905Y-126063980D01*
X138041905Y-126063980D02*
X137780000Y-126063980D01*
X137780000Y-126063980D02*
X137675238Y-126011600D01*
X137675238Y-126011600D02*
X137622857Y-125906838D01*
X137622857Y-125906838D02*
X137622857Y-125802076D01*
X137622857Y-125802076D02*
X137675238Y-125697314D01*
X137675238Y-125697314D02*
X137780000Y-125644933D01*
X137780000Y-125644933D02*
X138041905Y-125644933D01*
X138041905Y-125644933D02*
X138146667Y-125592552D01*
X138827619Y-126063980D02*
X138722857Y-126011600D01*
X138722857Y-126011600D02*
X138670476Y-125906838D01*
X138670476Y-125906838D02*
X138670476Y-124963980D01*
X140713333Y-125959219D02*
X140660952Y-126011600D01*
X140660952Y-126011600D02*
X140503809Y-126063980D01*
X140503809Y-126063980D02*
X140399047Y-126063980D01*
X140399047Y-126063980D02*
X140241904Y-126011600D01*
X140241904Y-126011600D02*
X140137142Y-125906838D01*
X140137142Y-125906838D02*
X140084761Y-125802076D01*
X140084761Y-125802076D02*
X140032380Y-125592552D01*
X140032380Y-125592552D02*
X140032380Y-125435409D01*
X140032380Y-125435409D02*
X140084761Y-125225885D01*
X140084761Y-125225885D02*
X140137142Y-125121123D01*
X140137142Y-125121123D02*
X140241904Y-125016361D01*
X140241904Y-125016361D02*
X140399047Y-124963980D01*
X140399047Y-124963980D02*
X140503809Y-124963980D01*
X140503809Y-124963980D02*
X140660952Y-125016361D01*
X140660952Y-125016361D02*
X140713333Y-125068742D01*
X141341904Y-126063980D02*
X141237142Y-126011600D01*
X141237142Y-126011600D02*
X141184761Y-125959219D01*
X141184761Y-125959219D02*
X141132380Y-125854457D01*
X141132380Y-125854457D02*
X141132380Y-125540171D01*
X141132380Y-125540171D02*
X141184761Y-125435409D01*
X141184761Y-125435409D02*
X141237142Y-125383028D01*
X141237142Y-125383028D02*
X141341904Y-125330647D01*
X141341904Y-125330647D02*
X141499047Y-125330647D01*
X141499047Y-125330647D02*
X141603809Y-125383028D01*
X141603809Y-125383028D02*
X141656190Y-125435409D01*
X141656190Y-125435409D02*
X141708571Y-125540171D01*
X141708571Y-125540171D02*
X141708571Y-125854457D01*
X141708571Y-125854457D02*
X141656190Y-125959219D01*
X141656190Y-125959219D02*
X141603809Y-126011600D01*
X141603809Y-126011600D02*
X141499047Y-126063980D01*
X141499047Y-126063980D02*
X141341904Y-126063980D01*
X142179999Y-126063980D02*
X142179999Y-125330647D01*
X142179999Y-125540171D02*
X142232380Y-125435409D01*
X142232380Y-125435409D02*
X142284761Y-125383028D01*
X142284761Y-125383028D02*
X142389523Y-125330647D01*
X142389523Y-125330647D02*
X142494285Y-125330647D01*
X143279999Y-126011600D02*
X143175237Y-126063980D01*
X143175237Y-126063980D02*
X142965713Y-126063980D01*
X142965713Y-126063980D02*
X142860951Y-126011600D01*
X142860951Y-126011600D02*
X142808570Y-125906838D01*
X142808570Y-125906838D02*
X142808570Y-125487790D01*
X142808570Y-125487790D02*
X142860951Y-125383028D01*
X142860951Y-125383028D02*
X142965713Y-125330647D01*
X142965713Y-125330647D02*
X143175237Y-125330647D01*
X143175237Y-125330647D02*
X143279999Y-125383028D01*
X143279999Y-125383028D02*
X143332380Y-125487790D01*
X143332380Y-125487790D02*
X143332380Y-125592552D01*
X143332380Y-125592552D02*
X142808570Y-125697314D01*
D15*
X121755809Y-125083333D02*
X121755809Y-125416666D01*
X122279619Y-125416666D02*
X121279619Y-125416666D01*
X121279619Y-125416666D02*
X121279619Y-124940476D01*
X122279619Y-124559523D02*
X121279619Y-124559523D01*
X121279619Y-124226190D02*
X121279619Y-123654762D01*
X122279619Y-123940476D02*
X121279619Y-123940476D01*
X122232000Y-123369047D02*
X122279619Y-123226190D01*
X122279619Y-123226190D02*
X122279619Y-122988095D01*
X122279619Y-122988095D02*
X122232000Y-122892857D01*
X122232000Y-122892857D02*
X122184380Y-122845238D01*
X122184380Y-122845238D02*
X122089142Y-122797619D01*
X122089142Y-122797619D02*
X121993904Y-122797619D01*
X121993904Y-122797619D02*
X121898666Y-122845238D01*
X121898666Y-122845238D02*
X121851047Y-122892857D01*
X121851047Y-122892857D02*
X121803428Y-122988095D01*
X121803428Y-122988095D02*
X121755809Y-123178571D01*
X121755809Y-123178571D02*
X121708190Y-123273809D01*
X121708190Y-123273809D02*
X121660571Y-123321428D01*
X121660571Y-123321428D02*
X121565333Y-123369047D01*
X121565333Y-123369047D02*
X121470095Y-123369047D01*
X121470095Y-123369047D02*
X121374857Y-123321428D01*
X121374857Y-123321428D02*
X121327238Y-123273809D01*
X121327238Y-123273809D02*
X121279619Y-123178571D01*
X121279619Y-123178571D02*
X121279619Y-122940476D01*
X121279619Y-122940476D02*
X121327238Y-122797619D01*
X121755809Y-121273809D02*
X121803428Y-121130952D01*
X121803428Y-121130952D02*
X121851047Y-121083333D01*
X121851047Y-121083333D02*
X121946285Y-121035714D01*
X121946285Y-121035714D02*
X122089142Y-121035714D01*
X122089142Y-121035714D02*
X122184380Y-121083333D01*
X122184380Y-121083333D02*
X122232000Y-121130952D01*
X122232000Y-121130952D02*
X122279619Y-121226190D01*
X122279619Y-121226190D02*
X122279619Y-121607142D01*
X122279619Y-121607142D02*
X121279619Y-121607142D01*
X121279619Y-121607142D02*
X121279619Y-121273809D01*
X121279619Y-121273809D02*
X121327238Y-121178571D01*
X121327238Y-121178571D02*
X121374857Y-121130952D01*
X121374857Y-121130952D02*
X121470095Y-121083333D01*
X121470095Y-121083333D02*
X121565333Y-121083333D01*
X121565333Y-121083333D02*
X121660571Y-121130952D01*
X121660571Y-121130952D02*
X121708190Y-121178571D01*
X121708190Y-121178571D02*
X121755809Y-121273809D01*
X121755809Y-121273809D02*
X121755809Y-121607142D01*
X121279619Y-120416666D02*
X121279619Y-120226190D01*
X121279619Y-120226190D02*
X121327238Y-120130952D01*
X121327238Y-120130952D02*
X121422476Y-120035714D01*
X121422476Y-120035714D02*
X121612952Y-119988095D01*
X121612952Y-119988095D02*
X121946285Y-119988095D01*
X121946285Y-119988095D02*
X122136761Y-120035714D01*
X122136761Y-120035714D02*
X122232000Y-120130952D01*
X122232000Y-120130952D02*
X122279619Y-120226190D01*
X122279619Y-120226190D02*
X122279619Y-120416666D01*
X122279619Y-120416666D02*
X122232000Y-120511904D01*
X122232000Y-120511904D02*
X122136761Y-120607142D01*
X122136761Y-120607142D02*
X121946285Y-120654761D01*
X121946285Y-120654761D02*
X121612952Y-120654761D01*
X121612952Y-120654761D02*
X121422476Y-120607142D01*
X121422476Y-120607142D02*
X121327238Y-120511904D01*
X121327238Y-120511904D02*
X121279619Y-120416666D01*
X121279619Y-119654761D02*
X122279619Y-118988095D01*
X121279619Y-118988095D02*
X122279619Y-119654761D01*
D16*
X165687780Y-112383809D02*
X166354447Y-112383809D01*
X166163971Y-112383809D02*
X166259209Y-112431428D01*
X166259209Y-112431428D02*
X166306828Y-112479047D01*
X166306828Y-112479047D02*
X166354447Y-112574285D01*
X166354447Y-112574285D02*
X166354447Y-112669523D01*
X165735400Y-113383809D02*
X165687780Y-113288571D01*
X165687780Y-113288571D02*
X165687780Y-113098095D01*
X165687780Y-113098095D02*
X165735400Y-113002857D01*
X165735400Y-113002857D02*
X165830638Y-112955238D01*
X165830638Y-112955238D02*
X166211590Y-112955238D01*
X166211590Y-112955238D02*
X166306828Y-113002857D01*
X166306828Y-113002857D02*
X166354447Y-113098095D01*
X166354447Y-113098095D02*
X166354447Y-113288571D01*
X166354447Y-113288571D02*
X166306828Y-113383809D01*
X166306828Y-113383809D02*
X166211590Y-113431428D01*
X166211590Y-113431428D02*
X166116352Y-113431428D01*
X166116352Y-113431428D02*
X166021114Y-112955238D01*
X166354447Y-113764762D02*
X165687780Y-114002857D01*
X165687780Y-114002857D02*
X166354447Y-114240952D01*
X165783019Y-114621905D02*
X165735400Y-114669524D01*
X165735400Y-114669524D02*
X165687780Y-114621905D01*
X165687780Y-114621905D02*
X165735400Y-114574286D01*
X165735400Y-114574286D02*
X165783019Y-114621905D01*
X165783019Y-114621905D02*
X165687780Y-114621905D01*
X166687780Y-116050476D02*
X166687780Y-116145714D01*
X166687780Y-116145714D02*
X166640161Y-116240952D01*
X166640161Y-116240952D02*
X166592542Y-116288571D01*
X166592542Y-116288571D02*
X166497304Y-116336190D01*
X166497304Y-116336190D02*
X166306828Y-116383809D01*
X166306828Y-116383809D02*
X166068733Y-116383809D01*
X166068733Y-116383809D02*
X165878257Y-116336190D01*
X165878257Y-116336190D02*
X165783019Y-116288571D01*
X165783019Y-116288571D02*
X165735400Y-116240952D01*
X165735400Y-116240952D02*
X165687780Y-116145714D01*
X165687780Y-116145714D02*
X165687780Y-116050476D01*
X165687780Y-116050476D02*
X165735400Y-115955238D01*
X165735400Y-115955238D02*
X165783019Y-115907619D01*
X165783019Y-115907619D02*
X165878257Y-115860000D01*
X165878257Y-115860000D02*
X166068733Y-115812381D01*
X166068733Y-115812381D02*
X166306828Y-115812381D01*
X166306828Y-115812381D02*
X166497304Y-115860000D01*
X166497304Y-115860000D02*
X166592542Y-115907619D01*
X166592542Y-115907619D02*
X166640161Y-115955238D01*
X166640161Y-115955238D02*
X166687780Y-116050476D01*
X166687780Y-117240952D02*
X166687780Y-117050476D01*
X166687780Y-117050476D02*
X166640161Y-116955238D01*
X166640161Y-116955238D02*
X166592542Y-116907619D01*
X166592542Y-116907619D02*
X166449685Y-116812381D01*
X166449685Y-116812381D02*
X166259209Y-116764762D01*
X166259209Y-116764762D02*
X165878257Y-116764762D01*
X165878257Y-116764762D02*
X165783019Y-116812381D01*
X165783019Y-116812381D02*
X165735400Y-116860000D01*
X165735400Y-116860000D02*
X165687780Y-116955238D01*
X165687780Y-116955238D02*
X165687780Y-117145714D01*
X165687780Y-117145714D02*
X165735400Y-117240952D01*
X165735400Y-117240952D02*
X165783019Y-117288571D01*
X165783019Y-117288571D02*
X165878257Y-117336190D01*
X165878257Y-117336190D02*
X166116352Y-117336190D01*
X166116352Y-117336190D02*
X166211590Y-117288571D01*
X166211590Y-117288571D02*
X166259209Y-117240952D01*
X166259209Y-117240952D02*
X166306828Y-117145714D01*
X166306828Y-117145714D02*
X166306828Y-116955238D01*
X166306828Y-116955238D02*
X166259209Y-116860000D01*
X166259209Y-116860000D02*
X166211590Y-116812381D01*
X166211590Y-116812381D02*
X166116352Y-116764762D01*
X166068733Y-117764762D02*
X166068733Y-118526667D01*
X166592542Y-118955238D02*
X166640161Y-119002857D01*
X166640161Y-119002857D02*
X166687780Y-119098095D01*
X166687780Y-119098095D02*
X166687780Y-119336190D01*
X166687780Y-119336190D02*
X166640161Y-119431428D01*
X166640161Y-119431428D02*
X166592542Y-119479047D01*
X166592542Y-119479047D02*
X166497304Y-119526666D01*
X166497304Y-119526666D02*
X166402066Y-119526666D01*
X166402066Y-119526666D02*
X166259209Y-119479047D01*
X166259209Y-119479047D02*
X165687780Y-118907619D01*
X165687780Y-118907619D02*
X165687780Y-119526666D01*
X166687780Y-120145714D02*
X166687780Y-120240952D01*
X166687780Y-120240952D02*
X166640161Y-120336190D01*
X166640161Y-120336190D02*
X166592542Y-120383809D01*
X166592542Y-120383809D02*
X166497304Y-120431428D01*
X166497304Y-120431428D02*
X166306828Y-120479047D01*
X166306828Y-120479047D02*
X166068733Y-120479047D01*
X166068733Y-120479047D02*
X165878257Y-120431428D01*
X165878257Y-120431428D02*
X165783019Y-120383809D01*
X165783019Y-120383809D02*
X165735400Y-120336190D01*
X165735400Y-120336190D02*
X165687780Y-120240952D01*
X165687780Y-120240952D02*
X165687780Y-120145714D01*
X165687780Y-120145714D02*
X165735400Y-120050476D01*
X165735400Y-120050476D02*
X165783019Y-120002857D01*
X165783019Y-120002857D02*
X165878257Y-119955238D01*
X165878257Y-119955238D02*
X166068733Y-119907619D01*
X166068733Y-119907619D02*
X166306828Y-119907619D01*
X166306828Y-119907619D02*
X166497304Y-119955238D01*
X166497304Y-119955238D02*
X166592542Y-120002857D01*
X166592542Y-120002857D02*
X166640161Y-120050476D01*
X166640161Y-120050476D02*
X166687780Y-120145714D01*
X166592542Y-120860000D02*
X166640161Y-120907619D01*
X166640161Y-120907619D02*
X166687780Y-121002857D01*
X166687780Y-121002857D02*
X166687780Y-121240952D01*
X166687780Y-121240952D02*
X166640161Y-121336190D01*
X166640161Y-121336190D02*
X166592542Y-121383809D01*
X166592542Y-121383809D02*
X166497304Y-121431428D01*
X166497304Y-121431428D02*
X166402066Y-121431428D01*
X166402066Y-121431428D02*
X166259209Y-121383809D01*
X166259209Y-121383809D02*
X165687780Y-120812381D01*
X165687780Y-120812381D02*
X165687780Y-121431428D01*
X166687780Y-121764762D02*
X166687780Y-122383809D01*
X166687780Y-122383809D02*
X166306828Y-122050476D01*
X166306828Y-122050476D02*
X166306828Y-122193333D01*
X166306828Y-122193333D02*
X166259209Y-122288571D01*
X166259209Y-122288571D02*
X166211590Y-122336190D01*
X166211590Y-122336190D02*
X166116352Y-122383809D01*
X166116352Y-122383809D02*
X165878257Y-122383809D01*
X165878257Y-122383809D02*
X165783019Y-122336190D01*
X165783019Y-122336190D02*
X165735400Y-122288571D01*
X165735400Y-122288571D02*
X165687780Y-122193333D01*
X165687780Y-122193333D02*
X165687780Y-121907619D01*
X165687780Y-121907619D02*
X165735400Y-121812381D01*
X165735400Y-121812381D02*
X165783019Y-121764762D01*
D10*
X123182295Y-110490476D02*
X123182295Y-109995238D01*
X123182295Y-109995238D02*
X123487057Y-110261904D01*
X123487057Y-110261904D02*
X123487057Y-110147619D01*
X123487057Y-110147619D02*
X123525152Y-110071428D01*
X123525152Y-110071428D02*
X123563247Y-110033333D01*
X123563247Y-110033333D02*
X123639438Y-109995238D01*
X123639438Y-109995238D02*
X123829914Y-109995238D01*
X123829914Y-109995238D02*
X123906104Y-110033333D01*
X123906104Y-110033333D02*
X123944200Y-110071428D01*
X123944200Y-110071428D02*
X123982295Y-110147619D01*
X123982295Y-110147619D02*
X123982295Y-110376190D01*
X123982295Y-110376190D02*
X123944200Y-110452381D01*
X123944200Y-110452381D02*
X123906104Y-110490476D01*
X123182295Y-109766666D02*
X123982295Y-109499999D01*
X123982295Y-109499999D02*
X123182295Y-109233333D01*
X123182295Y-109042857D02*
X123182295Y-108547619D01*
X123182295Y-108547619D02*
X123487057Y-108814285D01*
X123487057Y-108814285D02*
X123487057Y-108700000D01*
X123487057Y-108700000D02*
X123525152Y-108623809D01*
X123525152Y-108623809D02*
X123563247Y-108585714D01*
X123563247Y-108585714D02*
X123639438Y-108547619D01*
X123639438Y-108547619D02*
X123829914Y-108547619D01*
X123829914Y-108547619D02*
X123906104Y-108585714D01*
X123906104Y-108585714D02*
X123944200Y-108623809D01*
X123944200Y-108623809D02*
X123982295Y-108700000D01*
X123982295Y-108700000D02*
X123982295Y-108928571D01*
X123982295Y-108928571D02*
X123944200Y-109004762D01*
X123944200Y-109004762D02*
X123906104Y-109042857D01*
D15*
X118015809Y-123875714D02*
X118063428Y-123732857D01*
X118063428Y-123732857D02*
X118111047Y-123685238D01*
X118111047Y-123685238D02*
X118206285Y-123637619D01*
X118206285Y-123637619D02*
X118349142Y-123637619D01*
X118349142Y-123637619D02*
X118444380Y-123685238D01*
X118444380Y-123685238D02*
X118492000Y-123732857D01*
X118492000Y-123732857D02*
X118539619Y-123828095D01*
X118539619Y-123828095D02*
X118539619Y-124209047D01*
X118539619Y-124209047D02*
X117539619Y-124209047D01*
X117539619Y-124209047D02*
X117539619Y-123875714D01*
X117539619Y-123875714D02*
X117587238Y-123780476D01*
X117587238Y-123780476D02*
X117634857Y-123732857D01*
X117634857Y-123732857D02*
X117730095Y-123685238D01*
X117730095Y-123685238D02*
X117825333Y-123685238D01*
X117825333Y-123685238D02*
X117920571Y-123732857D01*
X117920571Y-123732857D02*
X117968190Y-123780476D01*
X117968190Y-123780476D02*
X118015809Y-123875714D01*
X118015809Y-123875714D02*
X118015809Y-124209047D01*
X117539619Y-122780476D02*
X117539619Y-122970952D01*
X117539619Y-122970952D02*
X117587238Y-123066190D01*
X117587238Y-123066190D02*
X117634857Y-123113809D01*
X117634857Y-123113809D02*
X117777714Y-123209047D01*
X117777714Y-123209047D02*
X117968190Y-123256666D01*
X117968190Y-123256666D02*
X118349142Y-123256666D01*
X118349142Y-123256666D02*
X118444380Y-123209047D01*
X118444380Y-123209047D02*
X118492000Y-123161428D01*
X118492000Y-123161428D02*
X118539619Y-123066190D01*
X118539619Y-123066190D02*
X118539619Y-122875714D01*
X118539619Y-122875714D02*
X118492000Y-122780476D01*
X118492000Y-122780476D02*
X118444380Y-122732857D01*
X118444380Y-122732857D02*
X118349142Y-122685238D01*
X118349142Y-122685238D02*
X118111047Y-122685238D01*
X118111047Y-122685238D02*
X118015809Y-122732857D01*
X118015809Y-122732857D02*
X117968190Y-122780476D01*
X117968190Y-122780476D02*
X117920571Y-122875714D01*
X117920571Y-122875714D02*
X117920571Y-123066190D01*
X117920571Y-123066190D02*
X117968190Y-123161428D01*
X117968190Y-123161428D02*
X118015809Y-123209047D01*
X118015809Y-123209047D02*
X118111047Y-123256666D01*
X117539619Y-121780476D02*
X117539619Y-122256666D01*
X117539619Y-122256666D02*
X118015809Y-122304285D01*
X118015809Y-122304285D02*
X117968190Y-122256666D01*
X117968190Y-122256666D02*
X117920571Y-122161428D01*
X117920571Y-122161428D02*
X117920571Y-121923333D01*
X117920571Y-121923333D02*
X117968190Y-121828095D01*
X117968190Y-121828095D02*
X118015809Y-121780476D01*
X118015809Y-121780476D02*
X118111047Y-121732857D01*
X118111047Y-121732857D02*
X118349142Y-121732857D01*
X118349142Y-121732857D02*
X118444380Y-121780476D01*
X118444380Y-121780476D02*
X118492000Y-121828095D01*
X118492000Y-121828095D02*
X118539619Y-121923333D01*
X118539619Y-121923333D02*
X118539619Y-122161428D01*
X118539619Y-122161428D02*
X118492000Y-122256666D01*
X118492000Y-122256666D02*
X118444380Y-122304285D01*
X117539619Y-121447142D02*
X118539619Y-121113809D01*
X118539619Y-121113809D02*
X117539619Y-120780476D01*
X117872952Y-120018571D02*
X118539619Y-120018571D01*
X117492000Y-120256666D02*
X118206285Y-120494761D01*
X118206285Y-120494761D02*
X118206285Y-119875714D01*
D10*
%TO.C,*%
D17*
%TO.C,Sign-PbFree*%
X164602211Y-88807965D02*
X164602211Y-87107965D01*
X164602211Y-87107965D02*
X165173640Y-87107965D01*
X165173640Y-87107965D02*
X165316497Y-87188917D01*
X165316497Y-87188917D02*
X165387926Y-87269870D01*
X165387926Y-87269870D02*
X165459354Y-87431774D01*
X165459354Y-87431774D02*
X165459354Y-87674632D01*
X165459354Y-87674632D02*
X165387926Y-87836536D01*
X165387926Y-87836536D02*
X165316497Y-87917489D01*
X165316497Y-87917489D02*
X165173640Y-87998441D01*
X165173640Y-87998441D02*
X164602211Y-87998441D01*
X166102211Y-88807965D02*
X166102211Y-87107965D01*
X166102211Y-87755584D02*
X166245069Y-87674632D01*
X166245069Y-87674632D02*
X166530783Y-87674632D01*
X166530783Y-87674632D02*
X166673640Y-87755584D01*
X166673640Y-87755584D02*
X166745069Y-87836536D01*
X166745069Y-87836536D02*
X166816497Y-87998441D01*
X166816497Y-87998441D02*
X166816497Y-88484155D01*
X166816497Y-88484155D02*
X166745069Y-88646060D01*
X166745069Y-88646060D02*
X166673640Y-88727013D01*
X166673640Y-88727013D02*
X166530783Y-88807965D01*
X166530783Y-88807965D02*
X166245069Y-88807965D01*
X166245069Y-88807965D02*
X166102211Y-88727013D01*
D10*
%TO.C,*%
D18*
%TO.C,L1*%
X150042122Y-120050000D02*
X149242878Y-120050000D01*
X150042122Y-118930000D02*
X149242878Y-118930000D01*
%TO.C,ER2*%
X137887818Y-115608000D02*
X138362334Y-115608000D01*
X137887818Y-116653000D02*
X138362334Y-116653000D01*
%TO.C,AR1*%
X118705000Y-98800436D02*
X118705000Y-99254564D01*
X117235000Y-98800436D02*
X117235000Y-99254564D01*
%TO.C,EC15*%
X142355076Y-119589920D02*
X142355076Y-119871080D01*
X141335076Y-119589920D02*
X141335076Y-119871080D01*
%TO.C,AL1*%
X114899924Y-107032064D02*
X114899924Y-105827936D01*
X117619924Y-107032064D02*
X117619924Y-105827936D01*
%TO.C,AC1*%
X118585000Y-106961252D02*
X118585000Y-106438748D01*
X120055000Y-106961252D02*
X120055000Y-106438748D01*
%TO.C,TP3*%
X122410000Y-103190000D02*
G75*
G03*
X122410000Y-103190000I-700000J0D01*
G01*
%TO.C,ER5*%
X142152424Y-74759742D02*
X142152424Y-75234258D01*
X141107424Y-74759742D02*
X141107424Y-75234258D01*
%TO.C,RQ1*%
X117107500Y-77980000D02*
X115307500Y-77980000D01*
X117107500Y-77980000D02*
X117907500Y-77980000D01*
X117107500Y-81100000D02*
X116307500Y-81100000D01*
X117107500Y-81100000D02*
X117907500Y-81100000D01*
%TO.C,EC19*%
X142580504Y-86057000D02*
X142299344Y-86057000D01*
X142580504Y-85037000D02*
X142299344Y-85037000D01*
%TO.C,ATH20_C1*%
X119485580Y-115160000D02*
X119204420Y-115160000D01*
X119485580Y-114140000D02*
X119204420Y-114140000D01*
%TO.C,ER1*%
X151117500Y-116857258D02*
X151117500Y-116382742D01*
X152162500Y-116857258D02*
X152162500Y-116382742D01*
%TO.C,EC3*%
X151601252Y-110175000D02*
X151078748Y-110175000D01*
X151601252Y-108705000D02*
X151078748Y-108705000D01*
%TO.C,ER4*%
X141077424Y-78084258D02*
X141077424Y-77609742D01*
X142122424Y-78084258D02*
X142122424Y-77609742D01*
%TO.C,IMUC1*%
X142215580Y-102650000D02*
X141934420Y-102650000D01*
X142215580Y-101630000D02*
X141934420Y-101630000D01*
%TO.C,HLD1*%
X152589924Y-83627000D02*
X152589924Y-81357000D01*
X152589924Y-81357000D02*
X148529924Y-81357000D01*
X148529924Y-83627000D02*
X152589924Y-83627000D01*
%TO.C,AR2*%
X114935000Y-98917064D02*
X114935000Y-98462936D01*
X116405000Y-98917064D02*
X116405000Y-98462936D01*
D19*
%TO.C,AU1*%
X115669924Y-100642000D02*
X116049924Y-100642000D01*
X115669924Y-100662000D02*
X115669924Y-100642000D01*
X115669924Y-103642000D02*
X115669924Y-103622000D01*
X116049924Y-103642000D02*
X115669924Y-103642000D01*
X118289924Y-100642000D02*
X118669924Y-100642000D01*
X118669924Y-100642000D02*
X118669924Y-100662000D01*
X118669924Y-103642000D02*
X118289924Y-103642000D01*
X118669924Y-103642000D02*
X118669924Y-103622000D01*
D16*
X114989925Y-101162000D02*
G75*
G03*
X114989925Y-101162000I-192354J0D01*
G01*
D18*
%TO.C,EC10*%
X149804496Y-120490500D02*
X150085656Y-120490500D01*
X149804496Y-121510500D02*
X150085656Y-121510500D01*
%TO.C,EC1*%
X149590000Y-116785580D02*
X149590000Y-116504420D01*
X150610000Y-116785580D02*
X150610000Y-116504420D01*
%TO.C,AUC1*%
X139355000Y-103103080D02*
X139355000Y-102821920D01*
X140375000Y-103103080D02*
X140375000Y-102821920D01*
%TO.C,ACS1*%
X140079924Y-79477000D02*
X136629924Y-79477000D01*
X140079924Y-79477000D02*
X142029924Y-79477000D01*
X140079924Y-84597000D02*
X138129924Y-84597000D01*
X140079924Y-84597000D02*
X142029924Y-84597000D01*
%TO.C,ECY1*%
X144465000Y-103352500D02*
X147765000Y-103352500D01*
X147765000Y-103352500D02*
X147765000Y-99352500D01*
%TO.C,EC4*%
X142650076Y-119301752D02*
X142650076Y-118779248D01*
X144120076Y-119301752D02*
X144120076Y-118779248D01*
D16*
%TO.C,Sign-PbFree*%
X164396020Y-86891720D02*
X166829340Y-89312340D01*
D17*
X167359037Y-88055040D02*
G75*
G03*
X167359037Y-88055040I-1802237J0D01*
G01*
D18*
%TO.C,HLC1*%
X145454924Y-82843252D02*
X145454924Y-82320748D01*
X146924924Y-82843252D02*
X146924924Y-82320748D01*
%TO.C,ECY2*%
X137150000Y-121620000D02*
X140450000Y-121620000D01*
X140450000Y-121620000D02*
X140450000Y-117620000D01*
%TO.C,G\u002A\u002A\u002A*%
G36*
X125139530Y-77496136D02*
G01*
X125148476Y-77516604D01*
X125161650Y-77549001D01*
X125177688Y-77589745D01*
X125195223Y-77635257D01*
X125212892Y-77681953D01*
X125229329Y-77726253D01*
X125243171Y-77764575D01*
X125253052Y-77793338D01*
X125257607Y-77808961D01*
X125257760Y-77810238D01*
X125248269Y-77813483D01*
X125222472Y-77816126D01*
X125184377Y-77817885D01*
X125140920Y-77818480D01*
X125094918Y-77818185D01*
X125057443Y-77817384D01*
X125032505Y-77816202D01*
X125024080Y-77814853D01*
X125027377Y-77804572D01*
X125036489Y-77778495D01*
X125050247Y-77739907D01*
X125067483Y-77692094D01*
X125079960Y-77657732D01*
X125098955Y-77604830D01*
X125115224Y-77558139D01*
X125127570Y-77521207D01*
X125134794Y-77497584D01*
X125136176Y-77491179D01*
X125139530Y-77496136D01*
G37*
G36*
X123402463Y-77437976D02*
G01*
X123458303Y-77440112D01*
X123499570Y-77444857D01*
X123529133Y-77453181D01*
X123549860Y-77466052D01*
X123564619Y-77484441D01*
X123576278Y-77509317D01*
X123581200Y-77522667D01*
X123589862Y-77551093D01*
X123589946Y-77571231D01*
X123580787Y-77593512D01*
X123576120Y-77602204D01*
X123560220Y-77628995D01*
X123543818Y-77648996D01*
X123523711Y-77663271D01*
X123496693Y-77672884D01*
X123459560Y-77678901D01*
X123409107Y-77682386D01*
X123342129Y-77684402D01*
X123327761Y-77684698D01*
X123270994Y-77685337D01*
X123221654Y-77684974D01*
X123183174Y-77683709D01*
X123158988Y-77681642D01*
X123152291Y-77679618D01*
X123150550Y-77666623D01*
X123149280Y-77637718D01*
X123148612Y-77597308D01*
X123148634Y-77554320D01*
X123149560Y-77437480D01*
X123329182Y-77437480D01*
X123402463Y-77437976D01*
G37*
G36*
X126001980Y-77434541D02*
G01*
X126074804Y-77438266D01*
X126130835Y-77444557D01*
X126173549Y-77454526D01*
X126206420Y-77469287D01*
X126232922Y-77489953D01*
X126254980Y-77515550D01*
X126289300Y-77576687D01*
X126311682Y-77650713D01*
X126321388Y-77733565D01*
X126317682Y-77821177D01*
X126314515Y-77843712D01*
X126295273Y-77923889D01*
X126266199Y-77988343D01*
X126227890Y-78036162D01*
X126180944Y-78066439D01*
X126164120Y-78072296D01*
X126139075Y-78077113D01*
X126101591Y-78081574D01*
X126056153Y-78085454D01*
X126007246Y-78088529D01*
X125959355Y-78090574D01*
X125916968Y-78091365D01*
X125884568Y-78090677D01*
X125866641Y-78088285D01*
X125864820Y-78087273D01*
X125862963Y-78075508D01*
X125861270Y-78045908D01*
X125859798Y-78000959D01*
X125858602Y-77943147D01*
X125857741Y-77874957D01*
X125857271Y-77798874D01*
X125857200Y-77754425D01*
X125857200Y-77429598D01*
X126001980Y-77434541D01*
G37*
G36*
X123142160Y-79806336D02*
G01*
X123178913Y-79807914D01*
X123204651Y-79810663D01*
X123222474Y-79814831D01*
X123235483Y-79820665D01*
X123239108Y-79822906D01*
X123266400Y-79840788D01*
X123266400Y-80138332D01*
X123266202Y-80228853D01*
X123265552Y-80301011D01*
X123264367Y-80356762D01*
X123262562Y-80398058D01*
X123260053Y-80426854D01*
X123256755Y-80445104D01*
X123252772Y-80454512D01*
X123243949Y-80464056D01*
X123232056Y-80468181D01*
X123211815Y-80467241D01*
X123177950Y-80461592D01*
X123169897Y-80460083D01*
X123133887Y-80453736D01*
X123101237Y-80449425D01*
X123068806Y-80447315D01*
X123033454Y-80447572D01*
X122992039Y-80450362D01*
X122941419Y-80455851D01*
X122878454Y-80464205D01*
X122800003Y-80475589D01*
X122758400Y-80481807D01*
X122700684Y-80493927D01*
X122629240Y-80514466D01*
X122548115Y-80541996D01*
X122461359Y-80575092D01*
X122373017Y-80612326D01*
X122321520Y-80635785D01*
X122302524Y-80646335D01*
X122271330Y-80665350D01*
X122232544Y-80689869D01*
X122190771Y-80716932D01*
X122150619Y-80743582D01*
X122116694Y-80766858D01*
X122109122Y-80772236D01*
X122090670Y-80787423D01*
X122061090Y-80813966D01*
X122023566Y-80848796D01*
X121981283Y-80888846D01*
X121937427Y-80931047D01*
X121895182Y-80972332D01*
X121857733Y-81009633D01*
X121828265Y-81039881D01*
X121809963Y-81060008D01*
X121808440Y-81061886D01*
X121797351Y-81077301D01*
X121779199Y-81103810D01*
X121757982Y-81135467D01*
X121737702Y-81166323D01*
X121727315Y-81182501D01*
X121686506Y-81252951D01*
X121645887Y-81333640D01*
X121608820Y-81417192D01*
X121578668Y-81496231D01*
X121565553Y-81537508D01*
X121555237Y-81569899D01*
X121544985Y-81596710D01*
X121541750Y-81603548D01*
X121535439Y-81621276D01*
X121526490Y-81653955D01*
X121516192Y-81696598D01*
X121507717Y-81735160D01*
X121499413Y-81777119D01*
X121493346Y-81815298D01*
X121489212Y-81854111D01*
X121486704Y-81897969D01*
X121485516Y-81951286D01*
X121485342Y-82018476D01*
X121485517Y-82055200D01*
X121486235Y-82129285D01*
X121487545Y-82186711D01*
X121489743Y-82231132D01*
X121493120Y-82266207D01*
X121497971Y-82295593D01*
X121504589Y-82322946D01*
X121507924Y-82334567D01*
X121518415Y-82372566D01*
X121525973Y-82405060D01*
X121529033Y-82425276D01*
X121529040Y-82425811D01*
X121532614Y-82446314D01*
X121541791Y-82477290D01*
X121549743Y-82499344D01*
X121565612Y-82540882D01*
X121583140Y-82587665D01*
X121591851Y-82611301D01*
X121632480Y-82710241D01*
X121680482Y-82806760D01*
X121732771Y-82895245D01*
X121786263Y-82970083D01*
X121794924Y-82980651D01*
X121811649Y-83002497D01*
X121818600Y-83012697D01*
X121837558Y-83038315D01*
X121865974Y-83071678D01*
X121901007Y-83109957D01*
X121939814Y-83150324D01*
X121979554Y-83189951D01*
X122017385Y-83226009D01*
X122050464Y-83255671D01*
X122075951Y-83276108D01*
X122091003Y-83284493D01*
X122091781Y-83284560D01*
X122102439Y-83290401D01*
X122124406Y-83305802D01*
X122153164Y-83327578D01*
X122156609Y-83330273D01*
X122186183Y-83352614D01*
X122209870Y-83368901D01*
X122222971Y-83375924D01*
X122223537Y-83375993D01*
X122236144Y-83381772D01*
X122257970Y-83396376D01*
X122269257Y-83404879D01*
X122328715Y-83443710D01*
X122406788Y-83481817D01*
X122504166Y-83519517D01*
X122557262Y-83537335D01*
X122734015Y-83583978D01*
X122912062Y-83610697D01*
X123090252Y-83617335D01*
X123136690Y-83615741D01*
X123187401Y-83613384D01*
X123221379Y-83612570D01*
X123242187Y-83613785D01*
X123253383Y-83617515D01*
X123258528Y-83624242D01*
X123260794Y-83632634D01*
X123262464Y-83650803D01*
X123263604Y-83685121D01*
X123264254Y-83732504D01*
X123264452Y-83789869D01*
X123264239Y-83854130D01*
X123263655Y-83922205D01*
X123262739Y-83991008D01*
X123261532Y-84057456D01*
X123260072Y-84118465D01*
X123258401Y-84170951D01*
X123256557Y-84211829D01*
X123254580Y-84238015D01*
X123252877Y-84246373D01*
X123239018Y-84250199D01*
X123208277Y-84253103D01*
X123164073Y-84255099D01*
X123109823Y-84256204D01*
X123048945Y-84256432D01*
X122984856Y-84255798D01*
X122920973Y-84254318D01*
X122860715Y-84252008D01*
X122807497Y-84248882D01*
X122764739Y-84244956D01*
X122758400Y-84244163D01*
X122691248Y-84234280D01*
X122622562Y-84222366D01*
X122555862Y-84209210D01*
X122494668Y-84195603D01*
X122442503Y-84182334D01*
X122402886Y-84170194D01*
X122379339Y-84159974D01*
X122377400Y-84158647D01*
X122360748Y-84150942D01*
X122336760Y-84143854D01*
X122308134Y-84135118D01*
X122265558Y-84119553D01*
X122213455Y-84099006D01*
X122156250Y-84075325D01*
X122098364Y-84050356D01*
X122044224Y-84025948D01*
X121998251Y-84003948D01*
X121982509Y-83995906D01*
X121848096Y-83917076D01*
X121713010Y-83822033D01*
X121581682Y-83714230D01*
X121458546Y-83597122D01*
X121423547Y-83560349D01*
X121397686Y-83532553D01*
X121367031Y-83499664D01*
X121351240Y-83482746D01*
X121317895Y-83444158D01*
X121279615Y-83395366D01*
X121240500Y-83342047D01*
X121204650Y-83289874D01*
X121176166Y-83244523D01*
X121166269Y-83226757D01*
X121144771Y-83187375D01*
X121121787Y-83148122D01*
X121099988Y-83113246D01*
X121082045Y-83086991D01*
X121070628Y-83073604D01*
X121069483Y-83072893D01*
X121062035Y-83061203D01*
X121061679Y-83057459D01*
X121057417Y-83043677D01*
X121045939Y-83016295D01*
X121029212Y-82979839D01*
X121016822Y-82954166D01*
X120973199Y-82854822D01*
X120933065Y-82742787D01*
X120899109Y-82625672D01*
X120894906Y-82608920D01*
X120884616Y-82567284D01*
X120874853Y-82528183D01*
X120868150Y-82501715D01*
X120855904Y-82441858D01*
X120845345Y-82365961D01*
X120836840Y-82278262D01*
X120830761Y-82182996D01*
X120827477Y-82084403D01*
X120826995Y-82029800D01*
X120829073Y-81903165D01*
X120835654Y-81790230D01*
X120847465Y-81684728D01*
X120865229Y-81580393D01*
X120889673Y-81470958D01*
X120893447Y-81455760D01*
X120921970Y-81357667D01*
X120959877Y-81250544D01*
X121004614Y-81140358D01*
X121053627Y-81033077D01*
X121104360Y-80934670D01*
X121148337Y-80860249D01*
X121166486Y-80831154D01*
X121179214Y-80809366D01*
X121183599Y-80800082D01*
X121189221Y-80789608D01*
X121204094Y-80767104D01*
X121225236Y-80736764D01*
X121249662Y-80702779D01*
X121274387Y-80669343D01*
X121296427Y-80640648D01*
X121302388Y-80633198D01*
X121333500Y-80597380D01*
X121375330Y-80552838D01*
X121424837Y-80502477D01*
X121478980Y-80449198D01*
X121534718Y-80395907D01*
X121589008Y-80345506D01*
X121638811Y-80300899D01*
X121681085Y-80264990D01*
X121712788Y-80240682D01*
X121715311Y-80238967D01*
X121750276Y-80215918D01*
X121778535Y-80197901D01*
X121796123Y-80187413D01*
X121799809Y-80185760D01*
X121810203Y-80180167D01*
X121830249Y-80166184D01*
X121838016Y-80160360D01*
X121860523Y-80144437D01*
X121876188Y-80135597D01*
X121878656Y-80134960D01*
X121890688Y-80129315D01*
X121911674Y-80115247D01*
X121918768Y-80109962D01*
X121940861Y-80095699D01*
X121977029Y-80075153D01*
X122022907Y-80050573D01*
X122074127Y-80024210D01*
X122126324Y-79998310D01*
X122175132Y-79975124D01*
X122214840Y-79957466D01*
X122263998Y-79938306D01*
X122320358Y-79918806D01*
X122377790Y-79900858D01*
X122430164Y-79886353D01*
X122471352Y-79877181D01*
X122479000Y-79875969D01*
X122510636Y-79870136D01*
X122534281Y-79863208D01*
X122540941Y-79859738D01*
X122555221Y-79854963D01*
X122584946Y-79849325D01*
X122625310Y-79843636D01*
X122657781Y-79840012D01*
X122706281Y-79834397D01*
X122750979Y-79827868D01*
X122785575Y-79821410D01*
X122799040Y-79817922D01*
X122822319Y-79813772D01*
X122862644Y-79810298D01*
X122916746Y-79807679D01*
X122981358Y-79806092D01*
X123023208Y-79805711D01*
X123091291Y-79805685D01*
X123142160Y-79806336D01*
G37*
G36*
X127001033Y-79815126D02*
G01*
X127042863Y-79819043D01*
X127069234Y-79825129D01*
X127076621Y-79830160D01*
X127079238Y-79844263D01*
X127081439Y-79875549D01*
X127083220Y-79920889D01*
X127084580Y-79977155D01*
X127085514Y-80041219D01*
X127086018Y-80109951D01*
X127086091Y-80180225D01*
X127085727Y-80248911D01*
X127084925Y-80312881D01*
X127083680Y-80369008D01*
X127081989Y-80414161D01*
X127079849Y-80445214D01*
X127077294Y-80458979D01*
X127065383Y-80467360D01*
X127041804Y-80468703D01*
X127019030Y-80466230D01*
X126932529Y-80456185D01*
X126855854Y-80452441D01*
X126779526Y-80454952D01*
X126694070Y-80463668D01*
X126687221Y-80464546D01*
X126633145Y-80472208D01*
X126582683Y-80480535D01*
X126541199Y-80488567D01*
X126514061Y-80495340D01*
X126512520Y-80495850D01*
X126480326Y-80505954D01*
X126438675Y-80517812D01*
X126405840Y-80526480D01*
X126370651Y-80536054D01*
X126343091Y-80544795D01*
X126329640Y-80550540D01*
X126315792Y-80557783D01*
X126288603Y-80570116D01*
X126253583Y-80585052D01*
X126248360Y-80587213D01*
X126188160Y-80613862D01*
X126126343Y-80644463D01*
X126065968Y-80677164D01*
X126010094Y-80710111D01*
X125961783Y-80741452D01*
X125924092Y-80769335D01*
X125900083Y-80791906D01*
X125893545Y-80802057D01*
X125880992Y-80814503D01*
X125875237Y-80815680D01*
X125863341Y-80822547D01*
X125840631Y-80841110D01*
X125810265Y-80868309D01*
X125775402Y-80901088D01*
X125739200Y-80936386D01*
X125704816Y-80971147D01*
X125675410Y-81002310D01*
X125654139Y-81026819D01*
X125646529Y-81037162D01*
X125630235Y-81059129D01*
X125616143Y-81072724D01*
X125604418Y-81085543D01*
X125603200Y-81090298D01*
X125597459Y-81102699D01*
X125582448Y-81125904D01*
X125562603Y-81153293D01*
X125541799Y-81182354D01*
X125527143Y-81205920D01*
X125521963Y-81218295D01*
X125514876Y-81234008D01*
X125507615Y-81241623D01*
X125493363Y-81258588D01*
X125477990Y-81283838D01*
X125476855Y-81286047D01*
X125463045Y-81312522D01*
X125451747Y-81332829D01*
X125451139Y-81333840D01*
X125437449Y-81359483D01*
X125421908Y-81393074D01*
X125407101Y-81428388D01*
X125395611Y-81459202D01*
X125390022Y-81479291D01*
X125389840Y-81481503D01*
X125385103Y-81502390D01*
X125374969Y-81525312D01*
X125364403Y-81550031D01*
X125352711Y-81585579D01*
X125345207Y-81613240D01*
X125339698Y-81633533D01*
X125334777Y-81650894D01*
X125331855Y-81665547D01*
X125332342Y-81677719D01*
X125337649Y-81687638D01*
X125349187Y-81695528D01*
X125368365Y-81701616D01*
X125396594Y-81706130D01*
X125435285Y-81709294D01*
X125485847Y-81711335D01*
X125549692Y-81712480D01*
X125628230Y-81712956D01*
X125722871Y-81712987D01*
X125835025Y-81712801D01*
X125964527Y-81712626D01*
X126074496Y-81712690D01*
X126178835Y-81713026D01*
X126275698Y-81713610D01*
X126363238Y-81714416D01*
X126439611Y-81715422D01*
X126502969Y-81716603D01*
X126551467Y-81717935D01*
X126583259Y-81719393D01*
X126596340Y-81720886D01*
X126619200Y-81729577D01*
X126619200Y-82349840D01*
X126591260Y-82349996D01*
X126576207Y-82350019D01*
X126542723Y-82350031D01*
X126492696Y-82350032D01*
X126428015Y-82350022D01*
X126350568Y-82350003D01*
X126262245Y-82349974D01*
X126164933Y-82349935D01*
X126060522Y-82349889D01*
X125967299Y-82349842D01*
X125837674Y-82349710D01*
X125726917Y-82349599D01*
X125633578Y-82349721D01*
X125556205Y-82350286D01*
X125493348Y-82351506D01*
X125443555Y-82353591D01*
X125405375Y-82356754D01*
X125377359Y-82361205D01*
X125358054Y-82367155D01*
X125346010Y-82374816D01*
X125339776Y-82384398D01*
X125337901Y-82396112D01*
X125338934Y-82410171D01*
X125341424Y-82426784D01*
X125343328Y-82440641D01*
X125354698Y-82500095D01*
X125374959Y-82568837D01*
X125401761Y-82639232D01*
X125410811Y-82659720D01*
X125423658Y-82688418D01*
X125433264Y-82710990D01*
X125435070Y-82715600D01*
X125443173Y-82732374D01*
X125458109Y-82759577D01*
X125470927Y-82781640D01*
X125491101Y-82815928D01*
X125509767Y-82848234D01*
X125518065Y-82862920D01*
X125530655Y-82882507D01*
X125552497Y-82913597D01*
X125580280Y-82951719D01*
X125610692Y-82992406D01*
X125640423Y-83031188D01*
X125666160Y-83063596D01*
X125672112Y-83070815D01*
X125706940Y-83110269D01*
X125747582Y-83152652D01*
X125791200Y-83195405D01*
X125834959Y-83235971D01*
X125876022Y-83271789D01*
X125911552Y-83300302D01*
X125938713Y-83318951D01*
X125954116Y-83325200D01*
X125964957Y-83331062D01*
X125985989Y-83346119D01*
X126002810Y-83359244D01*
X126039985Y-83385853D01*
X126089069Y-83416536D01*
X126143508Y-83447604D01*
X126196748Y-83475370D01*
X126242235Y-83496146D01*
X126254451Y-83500848D01*
X126287535Y-83512693D01*
X126330168Y-83527924D01*
X126370280Y-83542231D01*
X126406699Y-83553334D01*
X126457231Y-83566199D01*
X126515915Y-83579428D01*
X126576792Y-83591620D01*
X126593800Y-83594725D01*
X126659771Y-83605932D01*
X126713378Y-83613323D01*
X126762098Y-83617450D01*
X126813413Y-83618868D01*
X126874800Y-83618130D01*
X126900772Y-83617444D01*
X126955040Y-83616441D01*
X127002138Y-83616619D01*
X127038319Y-83617880D01*
X127059839Y-83620130D01*
X127063949Y-83621613D01*
X127066028Y-83633590D01*
X127067734Y-83663291D01*
X127069019Y-83708126D01*
X127069836Y-83765501D01*
X127070135Y-83832824D01*
X127069870Y-83907504D01*
X127069666Y-83931736D01*
X127068620Y-84022059D01*
X127067328Y-84094010D01*
X127065687Y-84149539D01*
X127063594Y-84190592D01*
X127060945Y-84219118D01*
X127057635Y-84237066D01*
X127053561Y-84246382D01*
X127052847Y-84247187D01*
X127036705Y-84253255D01*
X127003681Y-84258266D01*
X126957192Y-84262116D01*
X126900654Y-84264705D01*
X126837482Y-84265927D01*
X126771092Y-84265681D01*
X126704901Y-84263864D01*
X126642324Y-84260374D01*
X126634440Y-84259776D01*
X126546959Y-84249915D01*
X126449062Y-84233877D01*
X126349097Y-84213286D01*
X126255410Y-84189766D01*
X126217880Y-84178769D01*
X126174479Y-84165399D01*
X126131489Y-84152237D01*
X126101040Y-84142986D01*
X126065534Y-84130932D01*
X126019554Y-84113470D01*
X125968828Y-84092983D01*
X125919083Y-84071853D01*
X125876044Y-84052461D01*
X125845440Y-84037191D01*
X125841960Y-84035220D01*
X125816773Y-84021477D01*
X125781344Y-84003280D01*
X125747487Y-83986586D01*
X125715533Y-83969737D01*
X125676648Y-83947166D01*
X125635834Y-83922029D01*
X125598092Y-83897484D01*
X125568425Y-83876691D01*
X125552400Y-83863417D01*
X125537495Y-83850233D01*
X125514530Y-83832298D01*
X125489348Y-83813874D01*
X125467793Y-83799225D01*
X125455708Y-83792615D01*
X125455270Y-83792560D01*
X125442481Y-83786215D01*
X125431332Y-83776851D01*
X125403559Y-83750510D01*
X125372110Y-83721852D01*
X125340810Y-83694209D01*
X125313484Y-83670914D01*
X125293957Y-83655298D01*
X125286348Y-83650551D01*
X125277581Y-83642913D01*
X125259533Y-83622512D01*
X125235168Y-83592802D01*
X125216940Y-83569610D01*
X125189853Y-83535257D01*
X125167013Y-83507514D01*
X125151449Y-83489992D01*
X125146656Y-83485790D01*
X125137720Y-83476925D01*
X125120033Y-83455824D01*
X125096695Y-83426537D01*
X125070807Y-83393113D01*
X125045472Y-83359602D01*
X125023790Y-83330051D01*
X125008862Y-83308511D01*
X125003760Y-83299214D01*
X124998421Y-83287924D01*
X124985167Y-83267193D01*
X124980874Y-83261022D01*
X124966181Y-83239886D01*
X124953031Y-83219723D01*
X124939478Y-83197092D01*
X124923580Y-83168554D01*
X124903393Y-83130670D01*
X124876974Y-83079997D01*
X124859273Y-83045800D01*
X124839842Y-83007490D01*
X124823311Y-82972752D01*
X124807623Y-82936717D01*
X124790721Y-82894514D01*
X124770547Y-82841272D01*
X124754131Y-82796880D01*
X124725186Y-82716712D01*
X124702802Y-82650723D01*
X124685707Y-82594337D01*
X124672634Y-82542982D01*
X124662313Y-82492083D01*
X124653474Y-82437068D01*
X124652616Y-82431120D01*
X124645151Y-82380257D01*
X124637576Y-82330904D01*
X124631014Y-82290283D01*
X124628127Y-82273640D01*
X124625098Y-82246915D01*
X124622421Y-82204279D01*
X124620278Y-82150140D01*
X124618849Y-82088906D01*
X124618332Y-82034880D01*
X124620440Y-81920550D01*
X124627153Y-81809581D01*
X124638032Y-81705994D01*
X124652640Y-81613810D01*
X124670536Y-81537049D01*
X124673885Y-81525787D01*
X124701917Y-81436359D01*
X124726399Y-81360955D01*
X124746888Y-81300859D01*
X124762943Y-81257353D01*
X124774123Y-81231718D01*
X124776639Y-81227439D01*
X124787574Y-81205995D01*
X124790400Y-81193419D01*
X124794605Y-81178514D01*
X124805866Y-81150359D01*
X124822147Y-81113878D01*
X124831040Y-81095080D01*
X124848916Y-81056967D01*
X124862784Y-81025490D01*
X124870636Y-81005297D01*
X124871680Y-81000930D01*
X124877370Y-80986508D01*
X124890319Y-80966910D01*
X124905259Y-80944572D01*
X124924337Y-80912239D01*
X124938187Y-80886800D01*
X124958302Y-80852016D01*
X124985861Y-80809090D01*
X125015770Y-80765869D01*
X125023919Y-80754720D01*
X125051087Y-80717671D01*
X125075423Y-80683758D01*
X125093049Y-80658410D01*
X125097486Y-80651677D01*
X125111466Y-80634008D01*
X125137309Y-80605247D01*
X125172148Y-80568300D01*
X125213113Y-80526072D01*
X125257337Y-80481465D01*
X125301950Y-80437386D01*
X125344084Y-80396738D01*
X125380870Y-80362425D01*
X125400000Y-80345377D01*
X125436799Y-80313524D01*
X125461749Y-80292218D01*
X125478308Y-80278643D01*
X125489937Y-80269986D01*
X125500094Y-80263431D01*
X125502527Y-80261960D01*
X125517965Y-80252172D01*
X125545736Y-80234109D01*
X125581260Y-80210759D01*
X125604500Y-80195383D01*
X125677647Y-80148646D01*
X125754995Y-80102357D01*
X125832530Y-80058693D01*
X125906236Y-80019832D01*
X125972098Y-79987952D01*
X126026101Y-79965231D01*
X126034221Y-79962294D01*
X126099383Y-79939308D01*
X126151021Y-79920690D01*
X126192480Y-79905279D01*
X126224916Y-79895610D01*
X126264344Y-79887218D01*
X126278840Y-79884954D01*
X126318450Y-79877801D01*
X126357189Y-79868072D01*
X126368523Y-79864449D01*
X126405933Y-79854376D01*
X126456795Y-79845072D01*
X126518218Y-79836677D01*
X126587311Y-79829331D01*
X126661183Y-79823174D01*
X126736942Y-79818346D01*
X126811698Y-79814988D01*
X126882559Y-79813238D01*
X126946634Y-79813237D01*
X127001033Y-79815126D01*
G37*
G36*
X124452270Y-76904090D02*
G01*
X124735553Y-76904123D01*
X124999795Y-76904182D01*
X125245636Y-76904269D01*
X125473715Y-76904387D01*
X125684673Y-76904540D01*
X125879148Y-76904730D01*
X126057781Y-76904960D01*
X126221211Y-76905234D01*
X126370078Y-76905553D01*
X126505021Y-76905921D01*
X126626681Y-76906340D01*
X126735696Y-76906815D01*
X126832706Y-76907347D01*
X126918351Y-76907939D01*
X126993270Y-76908594D01*
X127058104Y-76909316D01*
X127113492Y-76910107D01*
X127160073Y-76910970D01*
X127198487Y-76911908D01*
X127229374Y-76912924D01*
X127253374Y-76914021D01*
X127271125Y-76915201D01*
X127283268Y-76916468D01*
X127290443Y-76917824D01*
X127291955Y-76918344D01*
X127319370Y-76927480D01*
X127358124Y-76937299D01*
X127396440Y-76945042D01*
X127481065Y-76966562D01*
X127574921Y-77003305D01*
X127678799Y-77055642D01*
X127793489Y-77123947D01*
X127838400Y-77153060D01*
X127864850Y-77170864D01*
X127883690Y-77184132D01*
X127889200Y-77188482D01*
X127899253Y-77197590D01*
X127919399Y-77215194D01*
X127934156Y-77227926D01*
X127970226Y-77262844D01*
X128011876Y-77309298D01*
X128055006Y-77362078D01*
X128095518Y-77415972D01*
X128129313Y-77465769D01*
X128151030Y-77503649D01*
X128168979Y-77536844D01*
X128188394Y-77568372D01*
X128189286Y-77569689D01*
X128213929Y-77613005D01*
X128239267Y-77669568D01*
X128262784Y-77732561D01*
X128281970Y-77795165D01*
X128294311Y-77850562D01*
X128295380Y-77857565D01*
X128301863Y-77893985D01*
X128309648Y-77924678D01*
X128314999Y-77938680D01*
X128316014Y-77950600D01*
X128316983Y-77981855D01*
X128317908Y-78031500D01*
X128318786Y-78098593D01*
X128319619Y-78182190D01*
X128320406Y-78281347D01*
X128321147Y-78395121D01*
X128321842Y-78522568D01*
X128322490Y-78662745D01*
X128323092Y-78814707D01*
X128323648Y-78977513D01*
X128324157Y-79150217D01*
X128324619Y-79331877D01*
X128325034Y-79521548D01*
X128325402Y-79718288D01*
X128325722Y-79921153D01*
X128325996Y-80129199D01*
X128326221Y-80341482D01*
X128326399Y-80557060D01*
X128326529Y-80774989D01*
X128326611Y-80994324D01*
X128326645Y-81214123D01*
X128326631Y-81433442D01*
X128326568Y-81651337D01*
X128326457Y-81866865D01*
X128326297Y-82079083D01*
X128326088Y-82287046D01*
X128325830Y-82489811D01*
X128325523Y-82686435D01*
X128325167Y-82875975D01*
X128324761Y-83057485D01*
X128324306Y-83230024D01*
X128323801Y-83392647D01*
X128323246Y-83544411D01*
X128322641Y-83684373D01*
X128321986Y-83811588D01*
X128321281Y-83925113D01*
X128320525Y-84024005D01*
X128319719Y-84107321D01*
X128318862Y-84174116D01*
X128317954Y-84223447D01*
X128316995Y-84254370D01*
X128315985Y-84265943D01*
X128315957Y-84265978D01*
X128308851Y-84280874D01*
X128300813Y-84309096D01*
X128295081Y-84336590D01*
X128275045Y-84418202D01*
X128243851Y-84506836D01*
X128204549Y-84594988D01*
X128160186Y-84675151D01*
X128152884Y-84686640D01*
X128134634Y-84715479D01*
X128120535Y-84739048D01*
X128115921Y-84747600D01*
X128095883Y-84780717D01*
X128064153Y-84823031D01*
X128024365Y-84870398D01*
X127980157Y-84918675D01*
X127935165Y-84963722D01*
X127893291Y-85001177D01*
X127869030Y-85019590D01*
X127836301Y-85042292D01*
X127799485Y-85066510D01*
X127762963Y-85089474D01*
X127731119Y-85108409D01*
X127708334Y-85120546D01*
X127699896Y-85123520D01*
X127687246Y-85128297D01*
X127686000Y-85131655D01*
X127676803Y-85142421D01*
X127651478Y-85157462D01*
X127613423Y-85175427D01*
X127566038Y-85194969D01*
X127512720Y-85214738D01*
X127456869Y-85233387D01*
X127401883Y-85249567D01*
X127365960Y-85258648D01*
X127274520Y-85279862D01*
X124140160Y-85282689D01*
X123853454Y-85282918D01*
X123577097Y-85283079D01*
X123311634Y-85283172D01*
X123057611Y-85283201D01*
X122815573Y-85283164D01*
X122586066Y-85283064D01*
X122369636Y-85282901D01*
X122166830Y-85282678D01*
X121978191Y-85282394D01*
X121804268Y-85282051D01*
X121645604Y-85281649D01*
X121502747Y-85281192D01*
X121376242Y-85280678D01*
X121266634Y-85280110D01*
X121174470Y-85279488D01*
X121100295Y-85278814D01*
X121044655Y-85278088D01*
X121008096Y-85277313D01*
X120991164Y-85276488D01*
X120990028Y-85276257D01*
X120973679Y-85270334D01*
X120942551Y-85261944D01*
X120901829Y-85252417D01*
X120875016Y-85246724D01*
X120778984Y-85220041D01*
X120677089Y-85179217D01*
X120573863Y-85126959D01*
X120473837Y-85065973D01*
X120381543Y-84998967D01*
X120301512Y-84928646D01*
X120251325Y-84874219D01*
X120216916Y-84830501D01*
X120181892Y-84782806D01*
X120149962Y-84736462D01*
X120124836Y-84696796D01*
X120113593Y-84676480D01*
X120099536Y-84649186D01*
X120087815Y-84628030D01*
X120086385Y-84625680D01*
X120077104Y-84607951D01*
X120063768Y-84579231D01*
X120055212Y-84559640D01*
X120040097Y-84524849D01*
X120025910Y-84493302D01*
X120020250Y-84481233D01*
X120011706Y-84457951D01*
X120001428Y-84421934D01*
X119991455Y-84380416D01*
X119990194Y-84374553D01*
X119979929Y-84329019D01*
X119968806Y-84284264D01*
X119959155Y-84249644D01*
X119958769Y-84248396D01*
X119957284Y-84233552D01*
X119955868Y-84199395D01*
X119954522Y-84146881D01*
X119953245Y-84076961D01*
X119952038Y-83990589D01*
X119950900Y-83888720D01*
X119949833Y-83772307D01*
X119948835Y-83642303D01*
X119947906Y-83499662D01*
X119947049Y-83345337D01*
X119946261Y-83180283D01*
X119945543Y-83005452D01*
X119944896Y-82821799D01*
X119944320Y-82630276D01*
X119943815Y-82431838D01*
X119943379Y-82227438D01*
X119943015Y-82018030D01*
X119942721Y-81804567D01*
X119942499Y-81588002D01*
X119942348Y-81369291D01*
X119942315Y-81278966D01*
X120198001Y-81278966D01*
X120198006Y-81360173D01*
X120198021Y-81643427D01*
X120198028Y-81907101D01*
X120198039Y-82151935D01*
X120198068Y-82378670D01*
X120198125Y-82588045D01*
X120198222Y-82780801D01*
X120198374Y-82957677D01*
X120198590Y-83119414D01*
X120198884Y-83266752D01*
X120199268Y-83400431D01*
X120199754Y-83521191D01*
X120200354Y-83629772D01*
X120201080Y-83726915D01*
X120201944Y-83813359D01*
X120202960Y-83889844D01*
X120204138Y-83957111D01*
X120205491Y-84015900D01*
X120207031Y-84066951D01*
X120208771Y-84111003D01*
X120210723Y-84148798D01*
X120212898Y-84181075D01*
X120215309Y-84208574D01*
X120217968Y-84232036D01*
X120220888Y-84252200D01*
X120224080Y-84269807D01*
X120227557Y-84285596D01*
X120231330Y-84300309D01*
X120235413Y-84314684D01*
X120239817Y-84329462D01*
X120244555Y-84345384D01*
X120247310Y-84354907D01*
X120258702Y-84391104D01*
X120269750Y-84419976D01*
X120278121Y-84435456D01*
X120278335Y-84435679D01*
X120288587Y-84455492D01*
X120289519Y-84462762D01*
X120295109Y-84483851D01*
X120310233Y-84516900D01*
X120332419Y-84557472D01*
X120359199Y-84601131D01*
X120388103Y-84643440D01*
X120396200Y-84654386D01*
X120412649Y-84673527D01*
X120439377Y-84701938D01*
X120471810Y-84735018D01*
X120505377Y-84768166D01*
X120535507Y-84796782D01*
X120554444Y-84813640D01*
X120620622Y-84862772D01*
X120696710Y-84908745D01*
X120775646Y-84947788D01*
X120850362Y-84976129D01*
X120868640Y-84981389D01*
X120898228Y-84990017D01*
X120919723Y-84997708D01*
X120924520Y-85000089D01*
X120929521Y-85002857D01*
X120936157Y-85005444D01*
X120945099Y-85007858D01*
X120957020Y-85010103D01*
X120972592Y-85012188D01*
X120992487Y-85014118D01*
X121017378Y-85015900D01*
X121047937Y-85017540D01*
X121084837Y-85019044D01*
X121128749Y-85020418D01*
X121180346Y-85021670D01*
X121240300Y-85022805D01*
X121309284Y-85023830D01*
X121387969Y-85024752D01*
X121477029Y-85025575D01*
X121577136Y-85026308D01*
X121688962Y-85026956D01*
X121813178Y-85027526D01*
X121950459Y-85028024D01*
X122101475Y-85028456D01*
X122266899Y-85028829D01*
X122447404Y-85029149D01*
X122643662Y-85029423D01*
X122856345Y-85029657D01*
X123086126Y-85029857D01*
X123333676Y-85030030D01*
X123599669Y-85030181D01*
X123884776Y-85030319D01*
X124124920Y-85030421D01*
X124426142Y-85030534D01*
X124707702Y-85030616D01*
X124970255Y-85030664D01*
X125214460Y-85030675D01*
X125440973Y-85030646D01*
X125650450Y-85030575D01*
X125843549Y-85030460D01*
X126020927Y-85030296D01*
X126183241Y-85030082D01*
X126331148Y-85029814D01*
X126465305Y-85029491D01*
X126586368Y-85029108D01*
X126694995Y-85028664D01*
X126791843Y-85028156D01*
X126877568Y-85027580D01*
X126952828Y-85026935D01*
X127018280Y-85026217D01*
X127074581Y-85025423D01*
X127122387Y-85024552D01*
X127162355Y-85023599D01*
X127195143Y-85022563D01*
X127221408Y-85021440D01*
X127241806Y-85020228D01*
X127256994Y-85018924D01*
X127267630Y-85017525D01*
X127269440Y-85017202D01*
X127394873Y-84986002D01*
X127509567Y-84942568D01*
X127594560Y-84897797D01*
X127625118Y-84879787D01*
X127651653Y-84865232D01*
X127661276Y-84860503D01*
X127680790Y-84847618D01*
X127710314Y-84823183D01*
X127746211Y-84790703D01*
X127784843Y-84753681D01*
X127822573Y-84715623D01*
X127855763Y-84680032D01*
X127880774Y-84650414D01*
X127884558Y-84645402D01*
X127925953Y-84580600D01*
X127966553Y-84501868D01*
X128003718Y-84415517D01*
X128034809Y-84327852D01*
X128057188Y-84245182D01*
X128061997Y-84221264D01*
X128063087Y-84205211D01*
X128064118Y-84170077D01*
X128065091Y-84116863D01*
X128066006Y-84046567D01*
X128066861Y-83960191D01*
X128067659Y-83858734D01*
X128068399Y-83743197D01*
X128069081Y-83614579D01*
X128069705Y-83473880D01*
X128070272Y-83322100D01*
X128070782Y-83160241D01*
X128071234Y-82989300D01*
X128071630Y-82810279D01*
X128071969Y-82624178D01*
X128072251Y-82431996D01*
X128072477Y-82234734D01*
X128072647Y-82033392D01*
X128072760Y-81828969D01*
X128072818Y-81622466D01*
X128072820Y-81414883D01*
X128072767Y-81207220D01*
X128072658Y-81000477D01*
X128072494Y-80795653D01*
X128072275Y-80593750D01*
X128072002Y-80395766D01*
X128071673Y-80202703D01*
X128071291Y-80015559D01*
X128070854Y-79835336D01*
X128070362Y-79663033D01*
X128069817Y-79499650D01*
X128069219Y-79346187D01*
X128068566Y-79203644D01*
X128067861Y-79073022D01*
X128067102Y-78955320D01*
X128066290Y-78851539D01*
X128065425Y-78762677D01*
X128064508Y-78689737D01*
X128063538Y-78633716D01*
X128062515Y-78595617D01*
X128061441Y-78576437D01*
X128060997Y-78574288D01*
X128057720Y-78573058D01*
X128049616Y-78571899D01*
X128036121Y-78570809D01*
X128016670Y-78569788D01*
X127990700Y-78568831D01*
X127957646Y-78567939D01*
X127916945Y-78567107D01*
X127868031Y-78566336D01*
X127810342Y-78565621D01*
X127743312Y-78564963D01*
X127666377Y-78564358D01*
X127578974Y-78563804D01*
X127480539Y-78563300D01*
X127370506Y-78562843D01*
X127248313Y-78562432D01*
X127113394Y-78562064D01*
X126965186Y-78561738D01*
X126803124Y-78561451D01*
X126626645Y-78561202D01*
X126435184Y-78560988D01*
X126228177Y-78560807D01*
X126005060Y-78560658D01*
X125765269Y-78560538D01*
X125508240Y-78560446D01*
X125233407Y-78560379D01*
X124940209Y-78560336D01*
X124628079Y-78560313D01*
X124296454Y-78560310D01*
X124136375Y-78560315D01*
X123855467Y-78560347D01*
X123579706Y-78560420D01*
X123309790Y-78560532D01*
X123046414Y-78560682D01*
X122790275Y-78560868D01*
X122542069Y-78561089D01*
X122302492Y-78561343D01*
X122072240Y-78561630D01*
X121852010Y-78561946D01*
X121642497Y-78562292D01*
X121444398Y-78562665D01*
X121258408Y-78563064D01*
X121085225Y-78563487D01*
X120925544Y-78563934D01*
X120780061Y-78564402D01*
X120649473Y-78564890D01*
X120534475Y-78565397D01*
X120435764Y-78565921D01*
X120354036Y-78566460D01*
X120289987Y-78567014D01*
X120244314Y-78567581D01*
X120217712Y-78568158D01*
X120210635Y-78568624D01*
X120209294Y-78572909D01*
X120208045Y-78584414D01*
X120206884Y-78603753D01*
X120205810Y-78631544D01*
X120204819Y-78668402D01*
X120203908Y-78714942D01*
X120203075Y-78771781D01*
X120202316Y-78839534D01*
X120201630Y-78918817D01*
X120201013Y-79010247D01*
X120200463Y-79114439D01*
X120199976Y-79232008D01*
X120199550Y-79363571D01*
X120199183Y-79509743D01*
X120198870Y-79671141D01*
X120198611Y-79848380D01*
X120198401Y-80042076D01*
X120198238Y-80252845D01*
X120198119Y-80481303D01*
X120198042Y-80728065D01*
X120198004Y-80993748D01*
X120198001Y-81278966D01*
X119942315Y-81278966D01*
X119942267Y-81149385D01*
X119942259Y-80929238D01*
X119942321Y-80709805D01*
X119942456Y-80492039D01*
X119942662Y-80276893D01*
X119942939Y-80065321D01*
X119943289Y-79858277D01*
X119943710Y-79656714D01*
X119944203Y-79461585D01*
X119944769Y-79273845D01*
X119945407Y-79094446D01*
X119946117Y-78924343D01*
X119946901Y-78764490D01*
X119947756Y-78615838D01*
X119948685Y-78479343D01*
X119949686Y-78355958D01*
X119950760Y-78246637D01*
X119951907Y-78152332D01*
X119953128Y-78073998D01*
X119954421Y-78012588D01*
X119955788Y-77969056D01*
X119957228Y-77944355D01*
X119958069Y-77939100D01*
X119968289Y-77907179D01*
X119977037Y-77868496D01*
X119979122Y-77855841D01*
X119993669Y-77791914D01*
X120004066Y-77761764D01*
X120752537Y-77761764D01*
X120754713Y-77824227D01*
X120760251Y-77879707D01*
X120765920Y-77909920D01*
X120794306Y-77994004D01*
X120835376Y-78070514D01*
X120886652Y-78136136D01*
X120945655Y-78187558D01*
X120994319Y-78215182D01*
X121074597Y-78240881D01*
X121163335Y-78252178D01*
X121254022Y-78248411D01*
X121280471Y-78244275D01*
X121366692Y-78218368D01*
X121445425Y-78173698D01*
X121455307Y-78166383D01*
X121486073Y-78137371D01*
X121515996Y-78099476D01*
X121543047Y-78056722D01*
X121565196Y-78013131D01*
X121580413Y-77972728D01*
X121586669Y-77939536D01*
X121581934Y-77917579D01*
X121581261Y-77916712D01*
X121579218Y-77915461D01*
X121720897Y-77915461D01*
X121721045Y-77992832D01*
X121721452Y-78063046D01*
X121722129Y-78123605D01*
X121723088Y-78172010D01*
X121724343Y-78205765D01*
X121725905Y-78222370D01*
X121726284Y-78223463D01*
X121738191Y-78226808D01*
X121767527Y-78229627D01*
X121811407Y-78231920D01*
X121866948Y-78233690D01*
X121931266Y-78234941D01*
X122001476Y-78235674D01*
X122074693Y-78235891D01*
X122148035Y-78235596D01*
X122218616Y-78234790D01*
X122283553Y-78233476D01*
X122339961Y-78231656D01*
X122384956Y-78229333D01*
X122415654Y-78226508D01*
X122429171Y-78223186D01*
X122429437Y-78222878D01*
X122433703Y-78204803D01*
X122434701Y-78175419D01*
X122432870Y-78142634D01*
X122428649Y-78114360D01*
X122422538Y-78098567D01*
X122410014Y-78095887D01*
X122379659Y-78093610D01*
X122333958Y-78091817D01*
X122275397Y-78090586D01*
X122206463Y-78089997D01*
X122154077Y-78090006D01*
X122064806Y-78089973D01*
X121994848Y-78089149D01*
X121943212Y-78087495D01*
X121908904Y-78084972D01*
X121890933Y-78081541D01*
X121887783Y-78079506D01*
X121884422Y-78064530D01*
X121881489Y-78034514D01*
X121879148Y-77994738D01*
X121877560Y-77950481D01*
X121876889Y-77907020D01*
X121877297Y-77869637D01*
X121878947Y-77843608D01*
X121880290Y-77836498D01*
X121883598Y-77830925D01*
X121891151Y-77826595D01*
X121905355Y-77823314D01*
X121928616Y-77820886D01*
X121963338Y-77819117D01*
X122011927Y-77817811D01*
X122076789Y-77816773D01*
X122131647Y-77816119D01*
X122377400Y-77813400D01*
X122380127Y-77755826D01*
X122992080Y-77755826D01*
X122992232Y-77851223D01*
X122992668Y-77940353D01*
X122993356Y-78021165D01*
X122994265Y-78091608D01*
X122995365Y-78149633D01*
X122996623Y-78193187D01*
X122998010Y-78220221D01*
X122999269Y-78228682D01*
X123012425Y-78231948D01*
X123039761Y-78233441D01*
X123072929Y-78232916D01*
X123139400Y-78229960D01*
X123144480Y-78039068D01*
X123146613Y-77969600D01*
X123148969Y-77917885D01*
X123151809Y-77881355D01*
X123155390Y-77857445D01*
X123159973Y-77843586D01*
X123164800Y-77837824D01*
X123185765Y-77831906D01*
X123220236Y-77830276D01*
X123261978Y-77832391D01*
X123304761Y-77837708D01*
X123342351Y-77845682D01*
X123368176Y-77855568D01*
X123389668Y-77871619D01*
X123414807Y-77897390D01*
X123444894Y-77934572D01*
X123481230Y-77984852D01*
X123525114Y-78049922D01*
X123564724Y-78110944D01*
X123644313Y-78235040D01*
X123729995Y-78235040D01*
X123774525Y-78234193D01*
X123802366Y-78231260D01*
X123817095Y-78225649D01*
X123821474Y-78219934D01*
X123818327Y-78205666D01*
X123805167Y-78178152D01*
X123784014Y-78140519D01*
X123756889Y-78095894D01*
X123725814Y-78047404D01*
X123692808Y-77998176D01*
X123659892Y-77951337D01*
X123648362Y-77935871D01*
X123918424Y-77935871D01*
X123918446Y-78016372D01*
X123918683Y-78086590D01*
X123919126Y-78144422D01*
X123919764Y-78187763D01*
X123920588Y-78214509D01*
X123921342Y-78222471D01*
X123926852Y-78226009D01*
X123941483Y-78228793D01*
X123966911Y-78230873D01*
X124004808Y-78232294D01*
X124056850Y-78233106D01*
X124124711Y-78233354D01*
X124210064Y-78233088D01*
X124279591Y-78232631D01*
X124632920Y-78229960D01*
X124633439Y-78219908D01*
X124712852Y-78219908D01*
X124712900Y-78220077D01*
X124721610Y-78228322D01*
X124742272Y-78233055D01*
X124778449Y-78234934D01*
X124793921Y-78235040D01*
X124869200Y-78235040D01*
X124968200Y-77960322D01*
X125320646Y-77965800D01*
X125424062Y-78235040D01*
X125503790Y-78235040D01*
X125547167Y-78234012D01*
X125573718Y-78230540D01*
X125586853Y-78224035D01*
X125589154Y-78220350D01*
X125586548Y-78208272D01*
X125576905Y-78179292D01*
X125560946Y-78135289D01*
X125539389Y-78078141D01*
X125512952Y-78009728D01*
X125483940Y-77935956D01*
X125696446Y-77935956D01*
X125696493Y-78016532D01*
X125696763Y-78086842D01*
X125697247Y-78144778D01*
X125697931Y-78188232D01*
X125698806Y-78215096D01*
X125699601Y-78223145D01*
X125704944Y-78227502D01*
X125718603Y-78230697D01*
X125742735Y-78232816D01*
X125779497Y-78233945D01*
X125831046Y-78234170D01*
X125899538Y-78233575D01*
X125946090Y-78232916D01*
X126023448Y-78231594D01*
X126083547Y-78230137D01*
X126129444Y-78228269D01*
X126164201Y-78225714D01*
X126190876Y-78222197D01*
X126212528Y-78217441D01*
X126232218Y-78211169D01*
X126246213Y-78205833D01*
X126313693Y-78168383D01*
X126371582Y-78114424D01*
X126418850Y-78045876D01*
X126454467Y-77964658D01*
X126477403Y-77872689D01*
X126486628Y-77771889D01*
X126486767Y-77757520D01*
X126479503Y-77656151D01*
X126458357Y-77563319D01*
X126424293Y-77481194D01*
X126378279Y-77411946D01*
X126321280Y-77357746D01*
X126303337Y-77345470D01*
X126273631Y-77328318D01*
X126243439Y-77315048D01*
X126212075Y-77305912D01*
X126541397Y-77305912D01*
X126545228Y-77319272D01*
X126560416Y-77348337D01*
X126586473Y-77392299D01*
X126622907Y-77450355D01*
X126669231Y-77521697D01*
X126709356Y-77582223D01*
X126883360Y-77842783D01*
X126883360Y-78032138D01*
X126883728Y-78092248D01*
X126884751Y-78145269D01*
X126886310Y-78187889D01*
X126888282Y-78216797D01*
X126890536Y-78228669D01*
X126903584Y-78231839D01*
X126931096Y-78233381D01*
X126967255Y-78232982D01*
X126969276Y-78232902D01*
X127040840Y-78229960D01*
X127045920Y-78029382D01*
X127051000Y-77828805D01*
X127227042Y-77573928D01*
X127274164Y-77504984D01*
X127315320Y-77443336D01*
X127349379Y-77390773D01*
X127375207Y-77349085D01*
X127391671Y-77320060D01*
X127397640Y-77305488D01*
X127397541Y-77304605D01*
X127388722Y-77296810D01*
X127367448Y-77292226D01*
X127330455Y-77290305D01*
X127311409Y-77290160D01*
X127230820Y-77290160D01*
X127100534Y-77488828D01*
X127057737Y-77553595D01*
X127024454Y-77602685D01*
X126999473Y-77637679D01*
X126981577Y-77660156D01*
X126969554Y-77671696D01*
X126962188Y-77673879D01*
X126959824Y-77671885D01*
X126951410Y-77658941D01*
X126933828Y-77631651D01*
X126908860Y-77592787D01*
X126878284Y-77545122D01*
X126843883Y-77491427D01*
X126832560Y-77473740D01*
X126715720Y-77291206D01*
X126631581Y-77290683D01*
X126588087Y-77291197D01*
X126561012Y-77293832D01*
X126546506Y-77299238D01*
X126541397Y-77305912D01*
X126212075Y-77305912D01*
X126209744Y-77305233D01*
X126169530Y-77298448D01*
X126119779Y-77294268D01*
X126057475Y-77292269D01*
X125979602Y-77292024D01*
X125927574Y-77292500D01*
X125699720Y-77295240D01*
X125697070Y-77752440D01*
X125696635Y-77847222D01*
X125696446Y-77935956D01*
X125483940Y-77935956D01*
X125482356Y-77931929D01*
X125448319Y-77846624D01*
X125411560Y-77755691D01*
X125408495Y-77748160D01*
X125222200Y-77290659D01*
X125140491Y-77290409D01*
X125058783Y-77290160D01*
X124882971Y-77747637D01*
X124847974Y-77839304D01*
X124815530Y-77925454D01*
X124786325Y-78004184D01*
X124761043Y-78073590D01*
X124740369Y-78131768D01*
X124724990Y-78176816D01*
X124715589Y-78206830D01*
X124712852Y-78219908D01*
X124633439Y-78219908D01*
X124636011Y-78170059D01*
X124636124Y-78136207D01*
X124633227Y-78110440D01*
X124629327Y-78100383D01*
X124616557Y-78097500D01*
X124585743Y-78094893D01*
X124539161Y-78092654D01*
X124479089Y-78090875D01*
X124407802Y-78089648D01*
X124351916Y-78089164D01*
X124084280Y-78087720D01*
X124078610Y-77818480D01*
X124577040Y-77818480D01*
X124577040Y-77747360D01*
X124576579Y-77710115D01*
X124574253Y-77688747D01*
X124568646Y-77678816D01*
X124558341Y-77675883D01*
X124554180Y-77675705D01*
X124537570Y-77675459D01*
X124503950Y-77675072D01*
X124456628Y-77674578D01*
X124398913Y-77674010D01*
X124334112Y-77673403D01*
X124307800Y-77673165D01*
X124084280Y-77671160D01*
X124078558Y-77432738D01*
X124612600Y-77427320D01*
X124612600Y-77295240D01*
X123921720Y-77295240D01*
X123919070Y-77752440D01*
X123918629Y-77847192D01*
X123918424Y-77935871D01*
X123648362Y-77935871D01*
X123629087Y-77910015D01*
X123602415Y-77877335D01*
X123594272Y-77868351D01*
X123540700Y-77811542D01*
X123582632Y-77798979D01*
X123626406Y-77777822D01*
X123670389Y-77743232D01*
X123708504Y-77701097D01*
X123734673Y-77657307D01*
X123738133Y-77648300D01*
X123752901Y-77575915D01*
X123749059Y-77504048D01*
X123727381Y-77436402D01*
X123688644Y-77376679D01*
X123679032Y-77366130D01*
X123657674Y-77345441D01*
X123636028Y-77328860D01*
X123611617Y-77315940D01*
X123581964Y-77306231D01*
X123544594Y-77299284D01*
X123497030Y-77294653D01*
X123436794Y-77291887D01*
X123361411Y-77290540D01*
X123268404Y-77290161D01*
X123259475Y-77290159D01*
X122992080Y-77290160D01*
X122992080Y-77755826D01*
X122380127Y-77755826D01*
X122380446Y-77749081D01*
X122381325Y-77713248D01*
X122378975Y-77692813D01*
X122372329Y-77682972D01*
X122365084Y-77679948D01*
X122349948Y-77678483D01*
X122317634Y-77677022D01*
X122271286Y-77675649D01*
X122214047Y-77674449D01*
X122149059Y-77673508D01*
X122113118Y-77673147D01*
X121879560Y-77671160D01*
X121879560Y-77437480D01*
X122407880Y-77427320D01*
X122407880Y-77295240D01*
X122073249Y-77292558D01*
X121992676Y-77292142D01*
X121918612Y-77292200D01*
X121853500Y-77292695D01*
X121799785Y-77293591D01*
X121759910Y-77294853D01*
X121736319Y-77296443D01*
X121730871Y-77297638D01*
X121729122Y-77309198D01*
X121727506Y-77338579D01*
X121726037Y-77383284D01*
X121724727Y-77440814D01*
X121723588Y-77508673D01*
X121722633Y-77584362D01*
X121721874Y-77665383D01*
X121721324Y-77749239D01*
X121720994Y-77833431D01*
X121720897Y-77915461D01*
X121579218Y-77915461D01*
X121563895Y-77906076D01*
X121533915Y-77895836D01*
X121498979Y-77887752D01*
X121466746Y-77883583D01*
X121444875Y-77885091D01*
X121444404Y-77885264D01*
X121429710Y-77899053D01*
X121427216Y-77908467D01*
X121423003Y-77927734D01*
X121412729Y-77955801D01*
X121408350Y-77965800D01*
X121371719Y-78023148D01*
X121322695Y-78066337D01*
X121264387Y-78094344D01*
X121199904Y-78106148D01*
X121132354Y-78100727D01*
X121066834Y-78078041D01*
X121014450Y-78045004D01*
X120975855Y-78002228D01*
X120947638Y-77945543D01*
X120939978Y-77922931D01*
X120920668Y-77835453D01*
X120915185Y-77746441D01*
X120923206Y-77660635D01*
X120944410Y-77582776D01*
X120966153Y-77536864D01*
X121006708Y-77486405D01*
X121060558Y-77448575D01*
X121124015Y-77424841D01*
X121193393Y-77416672D01*
X121252703Y-77422737D01*
X121291958Y-77433535D01*
X121322053Y-77450288D01*
X121352975Y-77478570D01*
X121353264Y-77478869D01*
X121379255Y-77510698D01*
X121400175Y-77544904D01*
X121408212Y-77564120D01*
X121420643Y-77592913D01*
X121434824Y-77604845D01*
X121436668Y-77604999D01*
X121461358Y-77601873D01*
X121493693Y-77594160D01*
X121526983Y-77583940D01*
X121554536Y-77573295D01*
X121569662Y-77564305D01*
X121570327Y-77563432D01*
X121572829Y-77542015D01*
X121563686Y-77509960D01*
X121545226Y-77471380D01*
X121519781Y-77430388D01*
X121489681Y-77391096D01*
X121457255Y-77357617D01*
X121450348Y-77351693D01*
X121390476Y-77314107D01*
X121318173Y-77287744D01*
X121238626Y-77273708D01*
X121157025Y-77273103D01*
X121110447Y-77279408D01*
X121017595Y-77306831D01*
X120936909Y-77350369D01*
X120869127Y-77409335D01*
X120814986Y-77483042D01*
X120775224Y-77570803D01*
X120766133Y-77600040D01*
X120758252Y-77642913D01*
X120753718Y-77699074D01*
X120752537Y-77761764D01*
X120004066Y-77761764D01*
X120019505Y-77716993D01*
X120054571Y-77635405D01*
X120096807Y-77551474D01*
X120144152Y-77469527D01*
X120194547Y-77393890D01*
X120207347Y-77376520D01*
X120239205Y-77335042D01*
X120269146Y-77297508D01*
X120293780Y-77268081D01*
X120309562Y-77251063D01*
X120333722Y-77230168D01*
X120365394Y-77204866D01*
X120400458Y-77178183D01*
X120434794Y-77153145D01*
X120464281Y-77132779D01*
X120484800Y-77120112D01*
X120491457Y-77117440D01*
X120505496Y-77109875D01*
X120509995Y-77104191D01*
X120523972Y-77091272D01*
X120548110Y-77076284D01*
X120553680Y-77073430D01*
X120580998Y-77059474D01*
X120602157Y-77047818D01*
X120604480Y-77046410D01*
X120649522Y-77022647D01*
X120708244Y-76997836D01*
X120774266Y-76974179D01*
X120841209Y-76953877D01*
X120902694Y-76939131D01*
X120928243Y-76934695D01*
X120967514Y-76928063D01*
X121000585Y-76920793D01*
X121020730Y-76914380D01*
X121021555Y-76913964D01*
X121033641Y-76912938D01*
X121065811Y-76911964D01*
X121117828Y-76911042D01*
X121189457Y-76910175D01*
X121280461Y-76909362D01*
X121390604Y-76908604D01*
X121519649Y-76907902D01*
X121667361Y-76907256D01*
X121833503Y-76906668D01*
X122017839Y-76906138D01*
X122220132Y-76905667D01*
X122440147Y-76905255D01*
X122677648Y-76904904D01*
X122932398Y-76904614D01*
X123204160Y-76904386D01*
X123492699Y-76904220D01*
X123797779Y-76904118D01*
X124119163Y-76904080D01*
X124149307Y-76904080D01*
X124452270Y-76904090D01*
G37*
%TO.C,RR1*%
X116942742Y-81717500D02*
X117417258Y-81717500D01*
X116942742Y-82762500D02*
X117417258Y-82762500D01*
%TO.C,TP2*%
X122490000Y-105970000D02*
G75*
G03*
X122490000Y-105970000I-700000J0D01*
G01*
%TO.C,EC18*%
X143549924Y-77216420D02*
X143549924Y-77497580D01*
X142529924Y-77216420D02*
X142529924Y-77497580D01*
%TO.C,U3*%
X140760000Y-97717500D02*
X140935000Y-97717500D01*
X143480000Y-98392500D02*
X143480000Y-97717500D01*
X140760000Y-98392500D02*
X140760000Y-97717500D01*
X143480000Y-100262500D02*
X143480000Y-100937500D01*
X140760000Y-100262500D02*
X140760000Y-100937500D01*
X143480000Y-100937500D02*
X143305000Y-100937500D01*
X140760000Y-100937500D02*
X140935000Y-100937500D01*
%TO.C,HLD3*%
X119460000Y-77445000D02*
X119460000Y-75175000D01*
X119460000Y-75175000D02*
X115400000Y-75175000D01*
X115400000Y-77445000D02*
X119460000Y-77445000D01*
D19*
%TO.C,U1*%
X139075000Y-99385000D02*
X139075000Y-103375000D01*
X134035000Y-99385000D02*
X134035000Y-103375000D01*
D16*
X139150000Y-96930000D02*
G75*
G03*
X139150000Y-96930000I-100000J0D01*
G01*
D18*
%TO.C,EC17*%
X135740656Y-119180500D02*
X135459496Y-119180500D01*
X135740656Y-118160500D02*
X135459496Y-118160500D01*
%TO.C,REF\u002A\u002A*%
X146090000Y-123090000D02*
X147490000Y-123090000D01*
X146090000Y-124490000D02*
X146090000Y-123090000D01*
X147490000Y-123090000D02*
X147490000Y-124490000D01*
X147490000Y-124490000D02*
X146090000Y-124490000D01*
%TO.C,ESP32S1*%
X149375311Y-112137551D02*
X148915692Y-112597170D01*
X143810381Y-116783243D02*
X144270000Y-117242862D01*
X148915692Y-111677932D02*
X149375311Y-112137551D01*
X139624308Y-112597170D02*
X139164689Y-112137551D01*
X144729619Y-107491859D02*
X144270000Y-107032240D01*
X139164689Y-112137551D02*
X139624308Y-111677932D01*
X144270000Y-107032240D02*
X143810381Y-107491859D01*
%TO.C,ER3*%
X134907818Y-116718000D02*
X135382334Y-116718000D01*
X134907818Y-117763000D02*
X135382334Y-117763000D01*
%TO.C,DS1*%
X157314564Y-112845000D02*
X156860436Y-112845000D01*
X157314564Y-111375000D02*
X156860436Y-111375000D01*
%TO.C,EC11*%
X137945656Y-115210500D02*
X137664496Y-115210500D01*
X137945656Y-114190500D02*
X137664496Y-114190500D01*
%TO.C,EC7*%
X152780000Y-120159420D02*
X152780000Y-120440580D01*
X151760000Y-120159420D02*
X151760000Y-120440580D01*
%TO.C,AC2*%
X121634924Y-99683252D02*
X121634924Y-99160748D01*
X123104924Y-99683252D02*
X123104924Y-99160748D01*
%TO.C,EC2*%
X144470076Y-120391752D02*
X144470076Y-119869248D01*
X145940076Y-120391752D02*
X145940076Y-119869248D01*
%TO.C,BZ1*%
X158244924Y-77847000D02*
X158244924Y-73847000D01*
X155874924Y-71477000D02*
X151874924Y-71477000D01*
X151124924Y-80217000D02*
X155874924Y-80217000D01*
X151124924Y-80217000D02*
X149504924Y-78597000D01*
X149504924Y-73847000D02*
X149504924Y-78597000D01*
%TO.C,IMR2*%
X141842818Y-103030000D02*
X142317334Y-103030000D01*
X141842818Y-104075000D02*
X142317334Y-104075000D01*
%TO.C,IMR1*%
X141887742Y-104650000D02*
X142362258Y-104650000D01*
X141887742Y-105695000D02*
X142362258Y-105695000D01*
%TO.C,HLL1*%
X147061988Y-87152000D02*
X145857860Y-87152000D01*
X147061988Y-84432000D02*
X145857860Y-84432000D01*
%TO.C,EC12*%
X146240580Y-104800000D02*
X145959420Y-104800000D01*
X146240580Y-103780000D02*
X145959420Y-103780000D01*
D19*
%TO.C,J4*%
X151150000Y-125315000D02*
X151150000Y-122715000D01*
D18*
%TO.C,HLR2*%
X145746988Y-80217000D02*
X145292860Y-80217000D01*
X145746988Y-78747000D02*
X145292860Y-78747000D01*
%TO.C,TP1*%
X122480000Y-109170000D02*
G75*
G03*
X122480000Y-109170000I-700000J0D01*
G01*
D10*
%TO.C,Sign-RecycleBin*%
X158428000Y-89178000D02*
X163000000Y-89178000D01*
X158428000Y-89940000D02*
X158428000Y-89178000D01*
X158478800Y-89330400D02*
X162949200Y-89330400D01*
X158478800Y-89381200D02*
X162898400Y-89381200D01*
X158478800Y-89533600D02*
X162949200Y-89533600D01*
X158478800Y-89838400D02*
X162898400Y-89838400D01*
D17*
X158634000Y-84402000D02*
X162825000Y-88593000D01*
X158761000Y-88466000D02*
X162825000Y-84529000D01*
X159269000Y-84910000D02*
X162190000Y-84910000D01*
X159777000Y-84275000D02*
X159904000Y-84275000D01*
X159777000Y-84783000D02*
X159777000Y-84275000D01*
X159777000Y-88085000D02*
X159523000Y-85037000D01*
X159777000Y-88085000D02*
X159777000Y-88466000D01*
X159777000Y-88085000D02*
X161174000Y-88085000D01*
X159777000Y-88466000D02*
X160285000Y-88466000D01*
X159904000Y-84275000D02*
X159904000Y-84783000D01*
X160285000Y-88466000D02*
X160285000Y-88212000D01*
X160539000Y-84021000D02*
X160539000Y-84148000D01*
X160539000Y-84148000D02*
X160920000Y-84148000D01*
X160539000Y-85418000D02*
X161428000Y-85418000D01*
X160539000Y-85799000D02*
X160539000Y-85418000D01*
X160666000Y-85545000D02*
X161301000Y-85545000D01*
X160920000Y-84021000D02*
X160539000Y-84021000D01*
X160920000Y-84148000D02*
X160920000Y-84021000D01*
X161428000Y-85418000D02*
X161428000Y-85799000D01*
X161428000Y-85799000D02*
X160539000Y-85799000D01*
X161682000Y-87577000D02*
X161809000Y-85545000D01*
X161809000Y-84910000D02*
X161809000Y-85418000D01*
X161809000Y-85418000D02*
X162190000Y-85418000D01*
X161936000Y-84910000D02*
X162063000Y-85291000D01*
X161936000Y-85037000D02*
X161936000Y-85164000D01*
X161936000Y-85037000D02*
X161936000Y-85164000D01*
X161936000Y-85037000D02*
X162063000Y-85037000D01*
X161936000Y-85418000D02*
X161936000Y-85037000D01*
X162063000Y-85037000D02*
X162063000Y-85418000D01*
X162190000Y-85418000D02*
X162190000Y-84910000D01*
D10*
X162898400Y-89736800D02*
X158529600Y-89736800D01*
X162949200Y-89228800D02*
X158529600Y-89228800D01*
X162949200Y-89482800D02*
X158529600Y-89482800D01*
X162949200Y-89635200D02*
X158529600Y-89635200D01*
X163000000Y-89178000D02*
X163000000Y-89940000D01*
X163000000Y-89940000D02*
X158428000Y-89940000D01*
D17*
X161809000Y-84783000D02*
G75*
G03*
X159523000Y-84783000I-1143000J-1143000D01*
G01*
D19*
X161809000Y-88085000D02*
G75*
G03*
X161809000Y-88085000I-127000J0D01*
G01*
D17*
X162083609Y-88085000D02*
G75*
G03*
X162083609Y-88085000I-401609J0D01*
G01*
D18*
%TO.C,EC14*%
X146079420Y-97930000D02*
X146360580Y-97930000D01*
X146079420Y-98950000D02*
X146360580Y-98950000D01*
%TO.C,G\u002A\u002A\u002A*%
G36*
X141870911Y-71326896D02*
G01*
X141914682Y-71352868D01*
X141955790Y-71408884D01*
X141963992Y-71473869D01*
X141943535Y-71536498D01*
X141898663Y-71585443D01*
X141833621Y-71609377D01*
X141818250Y-71610166D01*
X141749548Y-71594514D01*
X141712169Y-71567560D01*
X141675657Y-71502984D01*
X141673698Y-71438266D01*
X141699267Y-71380853D01*
X141745342Y-71338189D01*
X141804898Y-71317721D01*
X141870911Y-71326896D01*
G37*
G36*
X141924807Y-71675226D02*
G01*
X142004075Y-71681089D01*
X142059710Y-71690495D01*
X142078599Y-71699066D01*
X142091903Y-71735465D01*
X142100398Y-71812197D01*
X142103910Y-71927516D01*
X142104000Y-71953066D01*
X142103363Y-72054317D01*
X142100646Y-72120522D01*
X142094634Y-72158958D01*
X142084115Y-72176905D01*
X142067876Y-72181639D01*
X142065900Y-72181666D01*
X142030444Y-72186903D01*
X142005676Y-72206699D01*
X141989785Y-72247177D01*
X141980958Y-72314463D01*
X141977383Y-72414682D01*
X141977000Y-72482233D01*
X141977000Y-72732000D01*
X141659500Y-72732000D01*
X141659500Y-72482233D01*
X141657950Y-72362359D01*
X141652095Y-72278621D01*
X141640123Y-72224892D01*
X141620222Y-72195048D01*
X141590579Y-72182964D01*
X141570600Y-72181666D01*
X141553724Y-72177849D01*
X141542690Y-72161544D01*
X141536284Y-72125473D01*
X141533293Y-72062359D01*
X141532504Y-71964924D01*
X141532500Y-71953066D01*
X141535066Y-71830766D01*
X141542647Y-71746729D01*
X141555071Y-71702700D01*
X141557900Y-71699066D01*
X141590790Y-71687211D01*
X141654896Y-71678900D01*
X141739247Y-71674132D01*
X141832874Y-71672907D01*
X141924807Y-71675226D01*
G37*
G36*
X139642433Y-71718241D02*
G01*
X139716703Y-71773746D01*
X139748069Y-71809863D01*
X139751420Y-71830902D01*
X139728133Y-71852254D01*
X139723996Y-71855289D01*
X139661533Y-71882985D01*
X139606921Y-71872629D01*
X139585166Y-71853583D01*
X139538194Y-71826398D01*
X139477099Y-71826188D01*
X139419329Y-71851723D01*
X139403238Y-71866388D01*
X139373812Y-71924817D01*
X139361520Y-72004498D01*
X139366365Y-72087973D01*
X139388345Y-72157782D01*
X139403238Y-72179444D01*
X139460464Y-72215293D01*
X139529929Y-72222685D01*
X139594003Y-72201323D01*
X139615668Y-72183046D01*
X139651533Y-72155262D01*
X139691785Y-72160214D01*
X139703615Y-72165277D01*
X139745006Y-72197455D01*
X139747174Y-72235667D01*
X139712222Y-72276769D01*
X139642253Y-72317621D01*
X139586746Y-72339859D01*
X139526992Y-72360540D01*
X139488631Y-72368455D01*
X139452709Y-72363662D01*
X139400277Y-72346221D01*
X139384083Y-72340495D01*
X139284302Y-72285469D01*
X139215714Y-72202750D01*
X139179363Y-72094366D01*
X139176293Y-71962340D01*
X139178609Y-71941853D01*
X139209861Y-71847885D01*
X139271352Y-71772905D01*
X139354219Y-71719681D01*
X139449597Y-71690983D01*
X139548623Y-71689580D01*
X139642433Y-71718241D01*
G37*
G36*
X138907901Y-71690238D02*
G01*
X139011472Y-71726917D01*
X139071537Y-71769689D01*
X139108581Y-71805042D01*
X139116387Y-71826237D01*
X139097763Y-71846776D01*
X139088996Y-71853631D01*
X139027635Y-71882648D01*
X138973237Y-71873457D01*
X138950166Y-71853583D01*
X138904583Y-71827700D01*
X138841950Y-71824296D01*
X138781301Y-71843706D01*
X138771008Y-71850411D01*
X138741821Y-71892150D01*
X138725020Y-71968310D01*
X138722548Y-71993286D01*
X138720122Y-72068291D01*
X138730514Y-72119285D01*
X138757397Y-72163590D01*
X138759122Y-72165791D01*
X138818684Y-72212414D01*
X138887709Y-72223004D01*
X138954054Y-72196634D01*
X138971021Y-72181978D01*
X139009176Y-72153688D01*
X139048504Y-72156814D01*
X139066271Y-72164209D01*
X139105180Y-72186347D01*
X139119500Y-72202270D01*
X139102804Y-72230993D01*
X139060885Y-72269927D01*
X139005989Y-72309587D01*
X138950366Y-72340492D01*
X138931133Y-72348119D01*
X138883686Y-72363486D01*
X138851617Y-72368462D01*
X138815988Y-72362978D01*
X138759666Y-72347469D01*
X138664429Y-72301400D01*
X138588985Y-72227605D01*
X138542944Y-72136525D01*
X138535823Y-72104337D01*
X138532037Y-71973674D01*
X138563844Y-71863878D01*
X138611527Y-71793285D01*
X138698360Y-71723913D01*
X138800341Y-71689400D01*
X138907901Y-71690238D01*
G37*
G36*
X147264088Y-71471355D02*
G01*
X147394322Y-71519264D01*
X147500933Y-71600919D01*
X147586943Y-71718088D01*
X147601567Y-71745215D01*
X147630815Y-71809473D01*
X147648013Y-71871276D01*
X147656241Y-71946223D01*
X147658494Y-72033500D01*
X147657525Y-72127290D01*
X147650910Y-72193990D01*
X147635481Y-72248771D01*
X147608068Y-72306804D01*
X147597221Y-72326775D01*
X147549342Y-72400928D01*
X147493870Y-72469076D01*
X147461063Y-72500810D01*
X147341472Y-72574236D01*
X147205985Y-72615471D01*
X147065416Y-72623117D01*
X146930579Y-72595775D01*
X146882536Y-72575648D01*
X146783955Y-72512101D01*
X146704846Y-72431439D01*
X146652554Y-72342976D01*
X146634416Y-72261041D01*
X146636375Y-72227722D01*
X146650259Y-72210395D01*
X146686416Y-72203839D01*
X146749799Y-72202833D01*
X146817172Y-72204408D01*
X146855541Y-72213538D01*
X146878225Y-72236830D01*
X146896298Y-72275510D01*
X146948756Y-72349110D01*
X147029507Y-72397205D01*
X147129648Y-72414499D01*
X147130032Y-72414500D01*
X147186125Y-72406451D01*
X147238060Y-72377052D01*
X147286526Y-72333140D01*
X147344463Y-72262912D01*
X147378643Y-72186085D01*
X147393767Y-72089291D01*
X147395666Y-72022916D01*
X147388418Y-71905795D01*
X147364484Y-71817805D01*
X147320578Y-71747925D01*
X147310294Y-71736410D01*
X147269341Y-71698835D01*
X147226662Y-71680086D01*
X147165052Y-71673969D01*
X147136028Y-71673666D01*
X147047202Y-71680534D01*
X146984785Y-71703491D01*
X146965855Y-71716552D01*
X146917494Y-71766883D01*
X146894630Y-71816841D01*
X146900962Y-71856171D01*
X146911859Y-71866238D01*
X146920761Y-71883786D01*
X146904440Y-71914885D01*
X146859448Y-71965403D01*
X146844794Y-71980273D01*
X146749005Y-72076354D01*
X146644506Y-71970260D01*
X146591544Y-71914192D01*
X146567215Y-71881264D01*
X146568545Y-71866455D01*
X146581683Y-71864166D01*
X146614544Y-71850509D01*
X146640935Y-71804704D01*
X146650989Y-71775636D01*
X146702199Y-71658641D01*
X146777905Y-71569380D01*
X146859887Y-71511470D01*
X146922462Y-71479519D01*
X146983205Y-71462327D01*
X147059832Y-71455878D01*
X147107212Y-71455419D01*
X147264088Y-71471355D01*
G37*
G36*
X147231103Y-70922034D02*
G01*
X147355995Y-70945760D01*
X147569714Y-71020439D01*
X147756297Y-71127334D01*
X147914365Y-71265068D01*
X148042540Y-71432261D01*
X148139442Y-71627535D01*
X148187072Y-71776837D01*
X148215971Y-71972228D01*
X148206416Y-72172523D01*
X148160252Y-72369658D01*
X148079322Y-72555567D01*
X147973046Y-72713062D01*
X147826216Y-72861472D01*
X147657242Y-72979304D01*
X147472202Y-73064546D01*
X147277172Y-73115185D01*
X147078230Y-73129208D01*
X146881453Y-73104602D01*
X146830685Y-73091423D01*
X146737122Y-73059484D01*
X146639142Y-73018682D01*
X146587317Y-72993280D01*
X146491570Y-72929910D01*
X146387008Y-72841317D01*
X146285290Y-72739147D01*
X146198073Y-72635043D01*
X146140164Y-72546640D01*
X146083425Y-72419504D01*
X146037820Y-72276356D01*
X146008045Y-72134582D01*
X145998666Y-72022916D01*
X146200653Y-72022916D01*
X146212512Y-72197800D01*
X146250887Y-72348629D01*
X146319972Y-72484901D01*
X146423961Y-72616116D01*
X146493241Y-72685520D01*
X146614470Y-72781684D01*
X146751923Y-72861183D01*
X146889633Y-72915244D01*
X146930000Y-72925491D01*
X147020948Y-72935364D01*
X147134728Y-72934121D01*
X147253717Y-72923125D01*
X147360292Y-72903736D01*
X147411928Y-72888276D01*
X147589390Y-72801528D01*
X147738545Y-72687463D01*
X147858179Y-72550977D01*
X147947074Y-72396967D01*
X148004015Y-72230330D01*
X148027788Y-72055962D01*
X148017175Y-71878759D01*
X147970962Y-71703619D01*
X147887933Y-71535437D01*
X147782421Y-71395942D01*
X147645499Y-71274314D01*
X147488627Y-71185850D01*
X147318167Y-71130671D01*
X147140481Y-71108902D01*
X146961930Y-71120665D01*
X146788875Y-71166081D01*
X146627678Y-71245275D01*
X146484700Y-71358368D01*
X146472483Y-71370687D01*
X146350779Y-71515318D01*
X146267348Y-71662452D01*
X146218580Y-71820753D01*
X146200864Y-71998884D01*
X146200653Y-72022916D01*
X145998666Y-72022916D01*
X146010164Y-71897854D01*
X146041561Y-71755557D01*
X146088213Y-71613282D01*
X146139604Y-71499144D01*
X146201078Y-71405310D01*
X146286947Y-71303137D01*
X146386633Y-71202979D01*
X146489560Y-71115189D01*
X146585148Y-71050123D01*
X146613420Y-71035336D01*
X146823568Y-70955727D01*
X147029168Y-70917995D01*
X147231103Y-70922034D01*
G37*
G36*
X139344474Y-70933793D02*
G01*
X139553014Y-70994111D01*
X139637289Y-71030459D01*
X139784500Y-71118595D01*
X139923656Y-71235991D01*
X140043681Y-71371713D01*
X140133499Y-71514826D01*
X140138683Y-71525500D01*
X140217261Y-71735382D01*
X140254553Y-71944765D01*
X140251066Y-72150517D01*
X140207307Y-72349507D01*
X140123780Y-72538603D01*
X140000993Y-72714674D01*
X139934798Y-72787071D01*
X139790706Y-72913418D01*
X139635965Y-73008036D01*
X139458654Y-73077621D01*
X139377082Y-73100364D01*
X139209445Y-73127883D01*
X139042199Y-73123163D01*
X138883983Y-73092196D01*
X138689453Y-73020156D01*
X138512125Y-72912344D01*
X138356441Y-72773353D01*
X138226841Y-72607774D01*
X138127763Y-72420200D01*
X138072285Y-72252694D01*
X138044430Y-72055031D01*
X138046513Y-72022916D01*
X138243514Y-72022916D01*
X138244736Y-72125100D01*
X138250190Y-72199285D01*
X138262563Y-72259775D01*
X138284540Y-72320875D01*
X138310287Y-72378615D01*
X138403473Y-72534979D01*
X138526933Y-72674593D01*
X138672572Y-72790837D01*
X138832292Y-72877087D01*
X138975064Y-72922294D01*
X139079391Y-72933487D01*
X139203584Y-72930970D01*
X139327960Y-72916126D01*
X139432835Y-72890341D01*
X139433676Y-72890047D01*
X139613557Y-72807473D01*
X139770111Y-72695740D01*
X139897227Y-72559712D01*
X139951703Y-72477478D01*
X140025294Y-72308983D01*
X140061804Y-72128663D01*
X140062075Y-71943505D01*
X140026949Y-71760499D01*
X139957268Y-71586632D01*
X139853874Y-71428893D01*
X139820738Y-71390469D01*
X139745447Y-71322896D01*
X139645381Y-71253125D01*
X139536295Y-71191184D01*
X139443621Y-71150486D01*
X139342563Y-71126431D01*
X139217155Y-71114484D01*
X139083607Y-71114631D01*
X138958130Y-71126860D01*
X138857493Y-71150956D01*
X138681192Y-71236487D01*
X138527736Y-71356880D01*
X138399368Y-71510012D01*
X138309438Y-71669091D01*
X138278399Y-71739993D01*
X138258946Y-71799534D01*
X138248424Y-71861964D01*
X138244178Y-71941535D01*
X138243514Y-72022916D01*
X138046513Y-72022916D01*
X138057273Y-71857007D01*
X138109448Y-71663014D01*
X138199586Y-71477444D01*
X138326322Y-71304689D01*
X138387754Y-71239367D01*
X138556819Y-71099106D01*
X138740268Y-70997875D01*
X138934857Y-70936218D01*
X139137340Y-70914677D01*
X139344474Y-70933793D01*
G37*
G36*
X142002698Y-70931792D02*
G01*
X142065248Y-70945672D01*
X142278182Y-71019758D01*
X142464494Y-71126390D01*
X142622581Y-71263964D01*
X142750837Y-71430876D01*
X142847660Y-71625521D01*
X142895494Y-71775917D01*
X142925477Y-71977361D01*
X142913777Y-72182027D01*
X142860288Y-72390823D01*
X142807219Y-72520333D01*
X142752874Y-72610112D01*
X142672010Y-72710816D01*
X142574759Y-72812181D01*
X142471249Y-72903939D01*
X142371610Y-72975825D01*
X142339374Y-72994471D01*
X142150606Y-73073828D01*
X141952373Y-73118231D01*
X141753470Y-73126614D01*
X141562691Y-73097912D01*
X141539019Y-73091423D01*
X141362214Y-73025508D01*
X141206190Y-72933525D01*
X141058248Y-72807855D01*
X141045714Y-72795452D01*
X140920198Y-72652260D01*
X140828540Y-72503845D01*
X140763040Y-72336913D01*
X140746877Y-72279457D01*
X140714278Y-72107102D01*
X140713195Y-72022916D01*
X140908690Y-72022916D01*
X140921076Y-72198533D01*
X140959849Y-72349753D01*
X141029253Y-72486184D01*
X141133537Y-72617432D01*
X141201574Y-72685520D01*
X141322926Y-72781768D01*
X141460538Y-72861322D01*
X141598419Y-72915396D01*
X141638333Y-72925529D01*
X141721045Y-72934724D01*
X141826571Y-72934632D01*
X141938561Y-72926432D01*
X142040666Y-72911304D01*
X142114760Y-72891142D01*
X142298587Y-72798403D01*
X142453455Y-72679106D01*
X142576941Y-72536906D01*
X142666624Y-72375458D01*
X142720081Y-72198417D01*
X142734891Y-72009438D01*
X142732163Y-71959416D01*
X142696139Y-71761208D01*
X142623433Y-71582005D01*
X142516587Y-71425133D01*
X142378142Y-71293916D01*
X142210641Y-71191679D01*
X142114583Y-71151674D01*
X142006254Y-71125559D01*
X141875963Y-71113149D01*
X141739662Y-71114386D01*
X141613303Y-71129211D01*
X141521916Y-71153867D01*
X141335975Y-71247013D01*
X141179713Y-71370340D01*
X141053369Y-71523610D01*
X140957182Y-71706582D01*
X140949201Y-71726583D01*
X140924840Y-71808711D01*
X140911973Y-71906001D01*
X140908690Y-72022916D01*
X140713195Y-72022916D01*
X140712228Y-71947734D01*
X140740726Y-71785037D01*
X140746787Y-71762385D01*
X140804925Y-71591623D01*
X140880507Y-71447231D01*
X140982384Y-71314123D01*
X141053737Y-71239367D01*
X141221887Y-71100454D01*
X141404613Y-70999150D01*
X141598160Y-70936544D01*
X141798773Y-70913729D01*
X142002698Y-70931792D01*
G37*
G36*
X144648531Y-70931792D02*
G01*
X144711082Y-70945672D01*
X144924016Y-71019758D01*
X145110328Y-71126390D01*
X145268414Y-71263964D01*
X145396670Y-71430876D01*
X145493493Y-71625521D01*
X145541327Y-71775917D01*
X145571310Y-71977361D01*
X145559611Y-72182027D01*
X145506121Y-72390823D01*
X145453052Y-72520333D01*
X145398707Y-72610112D01*
X145317844Y-72710816D01*
X145220592Y-72812181D01*
X145117082Y-72903939D01*
X145017443Y-72975825D01*
X144985207Y-72994471D01*
X144796439Y-73073828D01*
X144598206Y-73118231D01*
X144399303Y-73126614D01*
X144208524Y-73097912D01*
X144184852Y-73091423D01*
X144008047Y-73025508D01*
X143852023Y-72933525D01*
X143704081Y-72807855D01*
X143691547Y-72795452D01*
X143568555Y-72655830D01*
X143478143Y-72511497D01*
X143411736Y-72347827D01*
X143393789Y-72287665D01*
X143358715Y-72103613D01*
X143359434Y-72013184D01*
X143554806Y-72013184D01*
X143554846Y-72033500D01*
X143568431Y-72207907D01*
X143609921Y-72359717D01*
X143683340Y-72497900D01*
X143792713Y-72631426D01*
X143847407Y-72685520D01*
X143994265Y-72799363D01*
X144157378Y-72882693D01*
X144287898Y-72922294D01*
X144396998Y-72933920D01*
X144526158Y-72930641D01*
X144656369Y-72913854D01*
X144761119Y-72887554D01*
X144909741Y-72821823D01*
X145041051Y-72734036D01*
X145059595Y-72718264D01*
X145104337Y-72674191D01*
X145154840Y-72617842D01*
X145202747Y-72559480D01*
X145239703Y-72509367D01*
X145257351Y-72477766D01*
X145257833Y-72474793D01*
X145239806Y-72457510D01*
X145191739Y-72429047D01*
X145122655Y-72394543D01*
X145093791Y-72381372D01*
X145013604Y-72345136D01*
X144945162Y-72313259D01*
X144900237Y-72291252D01*
X144893189Y-72287447D01*
X144863710Y-72280298D01*
X144838678Y-72303710D01*
X144824419Y-72328860D01*
X144771228Y-72398842D01*
X144695000Y-72461445D01*
X144613808Y-72502469D01*
X144597647Y-72507054D01*
X144558377Y-72523637D01*
X144539921Y-72557966D01*
X144534147Y-72599792D01*
X144525881Y-72652436D01*
X144506941Y-72674829D01*
X144474666Y-72679083D01*
X144438933Y-72673163D01*
X144421879Y-72647348D01*
X144415223Y-72600435D01*
X144406767Y-72547640D01*
X144384102Y-72521907D01*
X144333535Y-72508232D01*
X144330557Y-72507691D01*
X144224455Y-72477966D01*
X144141642Y-72428247D01*
X144130190Y-72418613D01*
X144109243Y-72396136D01*
X144110227Y-72374280D01*
X144136572Y-72340852D01*
X144158559Y-72317813D01*
X144224488Y-72249791D01*
X144312535Y-72300140D01*
X144398790Y-72339786D01*
X144471948Y-72348323D01*
X144545868Y-72327284D01*
X144548261Y-72326204D01*
X144594582Y-72288889D01*
X144617465Y-72238273D01*
X144612005Y-72189256D01*
X144599119Y-72171808D01*
X144567431Y-72151470D01*
X144507259Y-72120187D01*
X144429186Y-72083321D01*
X144390000Y-72065888D01*
X144296507Y-72024913D01*
X144205253Y-71984593D01*
X144131999Y-71951901D01*
X144114833Y-71944143D01*
X144036075Y-71908797D01*
X143955762Y-71873385D01*
X143934916Y-71864335D01*
X143861760Y-71832247D01*
X143778875Y-71795182D01*
X143750869Y-71782480D01*
X143687402Y-71756287D01*
X143636161Y-71739922D01*
X143618981Y-71737166D01*
X143590220Y-71753128D01*
X143570309Y-71802732D01*
X143558691Y-71888558D01*
X143554806Y-72013184D01*
X143359434Y-72013184D01*
X143360119Y-71926948D01*
X143392621Y-71762385D01*
X143450759Y-71591623D01*
X143491049Y-71514651D01*
X143712666Y-71514651D01*
X143730573Y-71535033D01*
X143777566Y-71565029D01*
X143843552Y-71598218D01*
X143844958Y-71598853D01*
X143925075Y-71634990D01*
X144000458Y-71669044D01*
X144047470Y-71690326D01*
X144091290Y-71708053D01*
X144120510Y-71706868D01*
X144150309Y-71681672D01*
X144180878Y-71645521D01*
X144251097Y-71581926D01*
X144326518Y-71544160D01*
X144380468Y-71523721D01*
X144405674Y-71496129D01*
X144415051Y-71446695D01*
X144415360Y-71443103D01*
X144423933Y-71391678D01*
X144444157Y-71370343D01*
X144474666Y-71366750D01*
X144510673Y-71372824D01*
X144527701Y-71399149D01*
X144534020Y-71443900D01*
X144541914Y-71493505D01*
X144563044Y-71520658D01*
X144609899Y-71538412D01*
X144629270Y-71543462D01*
X144695785Y-71565093D01*
X144750622Y-71590971D01*
X144760416Y-71597461D01*
X144784941Y-71618612D01*
X144786934Y-71638195D01*
X144763480Y-71668347D01*
X144736819Y-71695714D01*
X144694369Y-71736126D01*
X144664892Y-71750108D01*
X144632034Y-71741758D01*
X144605579Y-71728606D01*
X144542385Y-71704712D01*
X144482676Y-71694833D01*
X144423889Y-71708395D01*
X144374227Y-71741826D01*
X144348599Y-71784240D01*
X144347666Y-71793405D01*
X144367292Y-71816369D01*
X144424813Y-71852354D01*
X144518199Y-71900313D01*
X144645418Y-71959201D01*
X144798150Y-72025322D01*
X144884215Y-72062486D01*
X144984504Y-72107027D01*
X145062733Y-72142614D01*
X145169526Y-72191576D01*
X145244430Y-72224651D01*
X145293799Y-72244105D01*
X145323987Y-72252200D01*
X145341350Y-72251203D01*
X145350509Y-72245154D01*
X145361303Y-72216148D01*
X145371711Y-72157552D01*
X145379458Y-72082292D01*
X145372777Y-71891134D01*
X145326893Y-71709179D01*
X145244709Y-71541287D01*
X145129131Y-71392318D01*
X144983066Y-71267134D01*
X144843813Y-71186227D01*
X144675889Y-71128472D01*
X144495277Y-71105910D01*
X144312143Y-71118097D01*
X144136651Y-71164591D01*
X144015078Y-71222342D01*
X143955547Y-71263101D01*
X143888577Y-71317852D01*
X143822488Y-71378552D01*
X143765604Y-71437156D01*
X143726246Y-71485620D01*
X143712666Y-71514651D01*
X143491049Y-71514651D01*
X143526340Y-71447231D01*
X143628217Y-71314123D01*
X143699570Y-71239367D01*
X143867720Y-71100454D01*
X144050446Y-70999150D01*
X144243993Y-70936544D01*
X144444606Y-70913729D01*
X144648531Y-70931792D01*
G37*
%TO.C,EC8*%
X149604420Y-106782500D02*
X149885580Y-106782500D01*
X149604420Y-107802500D02*
X149885580Y-107802500D01*
%TO.C,EC5*%
X151631252Y-112365000D02*
X151108748Y-112365000D01*
X151631252Y-110895000D02*
X151108748Y-110895000D01*
%TD*%
%LPC*%
D20*
%TO.C,L1*%
X150705000Y-119490000D03*
X148580000Y-119490000D03*
%TD*%
D21*
%TO.C,ER2*%
X137300076Y-116130500D03*
X138950076Y-116130500D03*
%TD*%
D22*
%TO.C,AR1*%
X117970000Y-98115000D03*
X117970000Y-99940000D03*
%TD*%
D23*
%TO.C,EC15*%
X141845076Y-118955500D03*
X141845076Y-120505500D03*
%TD*%
D24*
%TO.C,AL1*%
X116259924Y-107830000D03*
X116259924Y-105030000D03*
%TD*%
D25*
%TO.C,AC1*%
X119320000Y-107650000D03*
X119320000Y-105750000D03*
%TD*%
D26*
%TO.C,TP3*%
X121710000Y-103190000D03*
%TD*%
D27*
%TO.C,ER5*%
X141629924Y-74172000D03*
X141629924Y-75822000D03*
%TD*%
D28*
%TO.C,RQ1*%
X115970000Y-78590000D03*
X115970000Y-80490000D03*
X118245000Y-79540000D03*
%TD*%
D29*
%TO.C,EC19*%
X143214924Y-85547000D03*
X141664924Y-85547000D03*
%TD*%
%TO.C,ATH20_C1*%
X120120000Y-114650000D03*
X118570000Y-114650000D03*
%TD*%
D30*
%TO.C,ER1*%
X151640000Y-117445000D03*
X151640000Y-115795000D03*
%TD*%
D31*
%TO.C,EC3*%
X152290000Y-109440000D03*
X150390000Y-109440000D03*
%TD*%
D30*
%TO.C,ER4*%
X141599924Y-78672000D03*
X141599924Y-77022000D03*
%TD*%
D29*
%TO.C,IMUC1*%
X142850000Y-102140000D03*
X141300000Y-102140000D03*
%TD*%
D32*
%TO.C,HLD1*%
X151617424Y-82492000D03*
X148642424Y-82492000D03*
%TD*%
D33*
%TO.C,AR2*%
X115670000Y-99602500D03*
X115670000Y-97777500D03*
%TD*%
D34*
%TO.C,AU1*%
X115734924Y-101192000D03*
X115734924Y-102142000D03*
X115734924Y-103092000D03*
X118604924Y-103092000D03*
X118604924Y-102142000D03*
X118604924Y-101192000D03*
D35*
X117169924Y-102142000D03*
%TD*%
D36*
%TO.C,EC10*%
X149170076Y-121000500D03*
X150720076Y-121000500D03*
%TD*%
D37*
%TO.C,EC1*%
X150100000Y-117420000D03*
X150100000Y-115870000D03*
%TD*%
%TO.C,AUC1*%
X139865000Y-103737500D03*
X139865000Y-102187500D03*
%TD*%
D38*
%TO.C,ACS1*%
X137604924Y-80132000D03*
X137604924Y-81402000D03*
X137604924Y-82672000D03*
X137604924Y-83942000D03*
X142554924Y-83942000D03*
X142554924Y-82672000D03*
X142554924Y-81402000D03*
X142554924Y-80132000D03*
%TD*%
D39*
%TO.C,ECY1*%
X146965000Y-102452500D03*
X146965000Y-100252500D03*
X145265000Y-100252500D03*
X145265000Y-102452500D03*
%TD*%
D25*
%TO.C,EC4*%
X143385076Y-119990500D03*
X143385076Y-118090500D03*
%TD*%
%TO.C,HLC1*%
X146189924Y-83532000D03*
X146189924Y-81632000D03*
%TD*%
D39*
%TO.C,ECY2*%
X139650000Y-120720000D03*
X139650000Y-118520000D03*
X137950000Y-118520000D03*
X137950000Y-120720000D03*
%TD*%
D21*
%TO.C,RR1*%
X116355000Y-82240000D03*
X118005000Y-82240000D03*
%TD*%
D26*
%TO.C,TP2*%
X121790000Y-105970000D03*
%TD*%
D23*
%TO.C,EC18*%
X143039924Y-76582000D03*
X143039924Y-78132000D03*
%TD*%
D40*
%TO.C,U3*%
X142870000Y-98165000D03*
X142370000Y-98165000D03*
X141870000Y-98165000D03*
X141370000Y-98165000D03*
D41*
X141207500Y-98827500D03*
X141207500Y-99327500D03*
X141207500Y-99827500D03*
D40*
X141370000Y-100490000D03*
X141870000Y-100490000D03*
X142370000Y-100490000D03*
X142870000Y-100490000D03*
D41*
X143032500Y-99827500D03*
X143032500Y-99327500D03*
X143032500Y-98827500D03*
%TD*%
D32*
%TO.C,HLD3*%
X118487500Y-76310000D03*
X115512500Y-76310000D03*
%TD*%
D42*
%TO.C,U1*%
X138460000Y-98910000D03*
X137190000Y-98910000D03*
X135920000Y-98910000D03*
X134650000Y-98910000D03*
X134650000Y-103850000D03*
X135920000Y-103850000D03*
X137190000Y-103850000D03*
X138460000Y-103850000D03*
%TD*%
D29*
%TO.C,EC17*%
X136375076Y-118670500D03*
X134825076Y-118670500D03*
%TD*%
D43*
%TO.C,REF\u002A\u002A*%
X146790000Y-123790000D03*
%TD*%
D44*
%TO.C,ESP32S1*%
X144862202Y-116406708D03*
X145145045Y-116123865D03*
X145427887Y-115841023D03*
X145710730Y-115558180D03*
X145993573Y-115275337D03*
X146276415Y-114992495D03*
X146559258Y-114709652D03*
X146842101Y-114426809D03*
X147124944Y-114143966D03*
X147407786Y-113861124D03*
X147690629Y-113578281D03*
X147973472Y-113295438D03*
X148256314Y-113012596D03*
X148539157Y-112729753D03*
D45*
X148539157Y-111545349D03*
X148256314Y-111262506D03*
X147973472Y-110979664D03*
X147690629Y-110696821D03*
X147407786Y-110413978D03*
X147124944Y-110131136D03*
X146842101Y-109848293D03*
X146559258Y-109565450D03*
D46*
X146276415Y-109282607D03*
D45*
X145993573Y-108999765D03*
X145710730Y-108716922D03*
X145427887Y-108434079D03*
X145145045Y-108151237D03*
X144862202Y-107868394D03*
D44*
X143677798Y-107868394D03*
X143394955Y-108151237D03*
X143112113Y-108434079D03*
X142829270Y-108716922D03*
X142546427Y-108999765D03*
X142263585Y-109282607D03*
X141980742Y-109565450D03*
X141697899Y-109848293D03*
X141415056Y-110131136D03*
X141132214Y-110413978D03*
X140849371Y-110696821D03*
X140566528Y-110979664D03*
X140283686Y-111262506D03*
X140000843Y-111545349D03*
D45*
X140000843Y-112729753D03*
X140283686Y-113012596D03*
X140566528Y-113295438D03*
X140849371Y-113578281D03*
D46*
X141132214Y-113861124D03*
D45*
X141415056Y-114143966D03*
X141697899Y-114426809D03*
X141980742Y-114709652D03*
X142263585Y-114992495D03*
X142546427Y-115275337D03*
X142829270Y-115558180D03*
X143112113Y-115841023D03*
X143394955Y-116123865D03*
X143677798Y-116406708D03*
D47*
X144270000Y-112137551D03*
%TD*%
D21*
%TO.C,ER3*%
X134320076Y-117240500D03*
X135970076Y-117240500D03*
%TD*%
D48*
%TO.C,DS1*%
X158000000Y-112110000D03*
X156175000Y-112110000D03*
%TD*%
D29*
%TO.C,EC11*%
X138580076Y-114700500D03*
X137030076Y-114700500D03*
%TD*%
D23*
%TO.C,EC7*%
X152270000Y-119525000D03*
X152270000Y-121075000D03*
%TD*%
D25*
%TO.C,AC2*%
X122369924Y-100372000D03*
X122369924Y-98472000D03*
%TD*%
D49*
%TO.C,*%
X153500000Y-114090000D03*
%TD*%
D50*
%TO.C,*%
X133420076Y-109695500D03*
%TD*%
D25*
%TO.C,EC2*%
X145205076Y-121080500D03*
X145205076Y-119180500D03*
%TD*%
D51*
%TO.C,BZ1*%
X157574924Y-79547000D03*
X157574924Y-72147000D03*
X150174924Y-72147000D03*
%TD*%
D21*
%TO.C,IMR2*%
X141255076Y-103552500D03*
X142905076Y-103552500D03*
%TD*%
%TO.C,IMR1*%
X141300000Y-105172500D03*
X142950000Y-105172500D03*
%TD*%
D52*
%TO.C,HLL1*%
X147859924Y-85792000D03*
X145059924Y-85792000D03*
%TD*%
D29*
%TO.C,EC12*%
X146875000Y-104290000D03*
X145325000Y-104290000D03*
%TD*%
D53*
%TO.C,J4*%
X149850000Y-122540000D03*
X149850000Y-125490000D03*
D54*
X148300000Y-124015000D03*
%TD*%
D48*
%TO.C,HLR2*%
X146432424Y-79482000D03*
X144607424Y-79482000D03*
%TD*%
D55*
%TO.C,REF\u002A\u002A*%
X140225076Y-97170500D03*
%TD*%
D26*
%TO.C,TP1*%
X121780000Y-109170000D03*
%TD*%
D56*
%TO.C,*%
X150790076Y-122155500D03*
%TD*%
D36*
%TO.C,EC14*%
X145445000Y-98440000D03*
X146995000Y-98440000D03*
%TD*%
D57*
%TO.C,REF\u002A\u002A*%
X139890228Y-122195449D03*
%TD*%
D36*
%TO.C,EC8*%
X148970000Y-107292500D03*
X150520000Y-107292500D03*
%TD*%
D31*
%TO.C,EC5*%
X152320000Y-111630000D03*
X150420000Y-111630000D03*
%TD*%
D58*
%TO.C,HLV1*%
X151019924Y-101002000D03*
X156019924Y-99702000D03*
%TD*%
D59*
%TO.C,Relay1*%
X124194924Y-71607000D03*
D60*
X130244924Y-73557000D03*
D59*
X130244924Y-85757000D03*
X118194924Y-85807000D03*
D60*
X118244924Y-73557000D03*
%TD*%
D61*
%TO.C,PF1*%
X151579924Y-96952000D03*
X150379924Y-91852000D03*
%TD*%
D62*
%TO.C,J5*%
X123730000Y-94180000D03*
D63*
X118650000Y-94180000D03*
%TD*%
D64*
%TO.C,HLL2*%
X166205549Y-101650750D03*
D65*
X159138049Y-101578250D03*
X166135549Y-93522750D03*
X159088049Y-93445250D03*
%TD*%
D62*
%TO.C,J2*%
X145530000Y-94080000D03*
D63*
X140450000Y-94080000D03*
X135370000Y-94080000D03*
X130290000Y-94080000D03*
%TD*%
D66*
%TO.C,HiLink1*%
X165422424Y-77622000D03*
D67*
X165422424Y-82622000D03*
X136022424Y-72422000D03*
X136022424Y-87822000D03*
%TD*%
D68*
%TO.C,TEMPDS1*%
X156040000Y-120890000D03*
D69*
X156040000Y-118350000D03*
X156040000Y-115810000D03*
%TD*%
D65*
%TO.C,HLC2*%
X156390000Y-107740000D03*
X166390000Y-107740000D03*
%TD*%
%LPD*%
D70*
X116034099Y-112111772D02*
X116052969Y-116354114D01*
X119467398Y-96819625D02*
X123278973Y-96819625D01*
X116053012Y-116354114D02*
G75*
G03*
X116483456Y-116764113I410688J214D01*
G01*
X122643533Y-112108968D02*
G75*
G03*
X122213106Y-111698969I-410133J368D01*
G01*
X132940932Y-89712067D02*
X132942993Y-85047165D01*
X149889022Y-101804022D02*
X149889022Y-99544022D01*
X130898425Y-96270000D02*
X134710000Y-96270000D01*
X141378425Y-96500871D02*
X145190000Y-96500871D01*
X119427398Y-96128754D02*
X123318973Y-96128754D01*
X138248899Y-75119216D02*
G75*
G03*
X137607176Y-75489714I-320899J-185184D01*
G01*
X148051575Y-93570000D02*
G75*
G03*
X147448425Y-93570000I-301575J0D01*
G01*
X121850193Y-112910000D02*
G75*
G03*
X121419756Y-112500002I-410293J200D01*
G01*
X133353969Y-90125104D02*
X136833969Y-90125975D01*
X117208950Y-93888754D02*
G75*
G03*
X119427398Y-96128754I2218450J-21446D01*
G01*
X114049965Y-120229930D02*
X114031486Y-76477000D01*
X132547381Y-104575763D02*
G75*
G03*
X124716477Y-104407324I-4057381J-6514237D01*
G01*
X141338425Y-95810000D02*
X145230000Y-95810000D01*
X130858425Y-95579129D02*
X134750000Y-95579129D01*
X159100000Y-109651080D02*
X154100000Y-109640000D01*
X124716477Y-104407324D02*
X124716477Y-117977196D01*
X117263698Y-112493958D02*
X121419756Y-112500001D01*
X116843168Y-115784446D02*
G75*
G03*
X117273699Y-116194445I410532J46D01*
G01*
X128063037Y-70017000D02*
G75*
G03*
X127650000Y-70430000I-37J-413000D01*
G01*
X153185000Y-104375978D02*
X151475000Y-102660000D01*
X122240273Y-116774315D02*
X121440275Y-116774758D01*
X154930000Y-106070000D02*
X154930000Y-108900000D01*
X150770978Y-103004022D02*
X152660978Y-104900000D01*
X136833969Y-90125905D02*
G75*
G03*
X136833969Y-89384895I-69J370505D01*
G01*
X138781907Y-84636044D02*
G75*
G03*
X139194944Y-84223042I-7J413044D01*
G01*
X117273699Y-116768755D02*
G75*
G03*
X117273699Y-116194445I1J287155D01*
G01*
X126140548Y-93888754D02*
G75*
G03*
X125537398Y-93888754I-301575J0D01*
G01*
X139120003Y-93570000D02*
G75*
G03*
X141338425Y-95810000I2218497J-21400D01*
G01*
X150935000Y-102120000D02*
X150205000Y-102120000D01*
X134106031Y-85375104D02*
X139591907Y-85376079D01*
X126898920Y-75336963D02*
G75*
G03*
X127640000Y-75336963I370540J0D01*
G01*
X154110000Y-106280000D02*
X154100000Y-109640000D01*
X134106031Y-89395104D02*
X136833969Y-89384895D01*
X140003969Y-78255104D02*
X138248970Y-75119175D01*
X137571575Y-93339129D02*
G75*
G03*
X136968425Y-93339129I-301575J0D01*
G01*
X133356030Y-84634093D02*
G75*
G03*
X132942993Y-85047165I70J-413107D01*
G01*
X128640075Y-93339130D02*
G75*
G03*
X130858425Y-95579129I2218425J-21470D01*
G01*
X133692994Y-88982067D02*
X133692994Y-85788141D01*
X132547381Y-118145635D02*
X132547381Y-104575763D01*
X126903000Y-70403037D02*
G75*
G03*
X126490000Y-69990000I-413000J37D01*
G01*
X149889022Y-99544022D02*
G75*
G03*
X149147942Y-99544022I-370540J0D01*
G01*
X123278973Y-96819607D02*
G75*
G03*
X126140548Y-93888754I-23673J2885507D01*
G01*
X138516788Y-93569999D02*
G75*
G03*
X141378425Y-96500871I2885312J-45301D01*
G01*
X139194944Y-84223042D02*
X139213969Y-78315104D01*
X168031605Y-76476965D02*
G75*
G03*
X161631486Y-70076895I-6400005J65D01*
G01*
X139213969Y-78315104D02*
X137607175Y-75489714D01*
X120431556Y-70076930D02*
X120597938Y-70076930D01*
X122240273Y-116774368D02*
G75*
G03*
X122650272Y-116343828I127J410368D01*
G01*
X126490000Y-69990000D02*
X122160000Y-69990000D01*
X139120000Y-93570000D02*
G75*
G03*
X138516850Y-93570000I-301575J0D01*
G01*
X127650000Y-70430000D02*
X127640000Y-75336963D01*
X134750000Y-95579128D02*
G75*
G03*
X136968424Y-93339129I0J2218528D01*
G01*
X168140070Y-120229930D02*
X168031556Y-76476965D01*
X132940896Y-89712067D02*
G75*
G03*
X133353969Y-90125104I413104J67D01*
G01*
X145230000Y-95810029D02*
G75*
G03*
X147448425Y-93570000I0J2218529D01*
G01*
X122649754Y-116343828D02*
X122643593Y-112108968D01*
X123318973Y-96128701D02*
G75*
G03*
X125537397Y-93888754I27J2218501D01*
G01*
X117208973Y-93888754D02*
G75*
G03*
X116605823Y-93888754I-301575J0D01*
G01*
X122160000Y-69989963D02*
G75*
G03*
X121746963Y-70403037I0J-413037D01*
G01*
X140004944Y-84963042D02*
X140003969Y-78255104D01*
X150770978Y-103004022D02*
X149895000Y-103001080D01*
X120431556Y-70076886D02*
G75*
G03*
X114031486Y-76477000I44J-6400114D01*
G01*
X116483456Y-116764113D02*
X117273699Y-116768716D01*
X149147942Y-102254022D02*
X149895000Y-103001080D01*
X128063037Y-70016963D02*
X161631486Y-70076895D01*
X116843212Y-115784446D02*
X116853699Y-112924445D01*
X117263698Y-112494005D02*
G75*
G03*
X116853700Y-112924445I-198J-410295D01*
G01*
X121005883Y-76300000D02*
G75*
G03*
X121746963Y-76300000I370540J0D01*
G01*
X151475000Y-102660000D02*
X150935000Y-102120000D01*
X134710000Y-96270034D02*
G75*
G03*
X137571574Y-93339129I-23700J2885534D01*
G01*
X145190001Y-96500935D02*
G75*
G03*
X148051575Y-93570000I-23701J2885535D01*
G01*
X133692996Y-88982067D02*
G75*
G03*
X134106031Y-89395104I413104J67D01*
G01*
X134106031Y-85375094D02*
G75*
G03*
X133692994Y-85788141I-31J-413006D01*
G01*
X121440275Y-116200442D02*
G75*
G03*
X121440275Y-116774758I25J-287158D01*
G01*
X138781907Y-84636079D02*
X133356030Y-84634128D01*
X161740000Y-126630000D02*
X120450035Y-126630000D01*
X128640000Y-93339129D02*
G75*
G03*
X128036850Y-93339129I-301575J0D01*
G01*
X150205000Y-102120000D02*
X149889022Y-101804022D01*
X159100000Y-109651000D02*
G75*
G03*
X159100000Y-108910000I0J370500D01*
G01*
X122213106Y-111698969D02*
X116444098Y-111681285D01*
X116444098Y-111681308D02*
G75*
G03*
X116034099Y-112111772I-98J-410392D01*
G01*
X116605834Y-93888754D02*
G75*
G03*
X119467398Y-96819625I2885266J-45346D01*
G01*
X152660978Y-104900000D02*
X154110000Y-106280000D01*
X121849756Y-115770000D02*
X121850243Y-112910000D01*
X149147942Y-99544022D02*
X149147942Y-102254022D01*
X121010975Y-70489967D02*
X121005883Y-76300000D01*
X121010970Y-70489967D02*
G75*
G03*
X120597938Y-70076930I-413070J-33D01*
G01*
X126903037Y-70403037D02*
X126898920Y-75336963D01*
X124716500Y-117977159D02*
G75*
G03*
X132547381Y-118145635I4057400J6514159D01*
G01*
X114050000Y-120229930D02*
G75*
G03*
X120450035Y-126630000I6400200J130D01*
G01*
X139591907Y-85376044D02*
G75*
G03*
X140004944Y-84963042I-7J413044D01*
G01*
X161740000Y-126630000D02*
G75*
G03*
X168140070Y-120229930I30J6400040D01*
G01*
X128036860Y-93339129D02*
G75*
G03*
X130898425Y-96270000I2885240J-45371D01*
G01*
X121440275Y-116200461D02*
G75*
G03*
X121850273Y-115770000I25J410461D01*
G01*
X121746963Y-70403037D02*
X121746963Y-76300000D01*
X153185000Y-104375978D02*
X154930000Y-106070000D01*
X154930000Y-108900000D02*
X159100000Y-108910000D01*
M02*
