%TF.GenerationSoftware,KiCad,Pcbnew,7.0.6*%
%TF.CreationDate,2023-07-20T17:02:44+02:00*%
%TF.ProjectId,smart_power_socket-54x54x1_6mm_3Cu,736d6172-745f-4706-9f77-65725f736f63,rev?*%
%TF.SameCoordinates,Original*%
%TF.FileFunction,Soldermask,Top*%
%TF.FilePolarity,Negative*%
%FSLAX46Y46*%
G04 Gerber Fmt 4.6, Leading zero omitted, Abs format (unit mm)*
G04 Created by KiCad (PCBNEW 7.0.6) date 2023-07-20 17:02:44*
%MOMM*%
%LPD*%
G01*
G04 APERTURE LIST*
G04 Aperture macros list*
%AMRoundRect*
0 Rectangle with rounded corners*
0 $1 Rounding radius*
0 $2 $3 $4 $5 $6 $7 $8 $9 X,Y pos of 4 corners*
0 Add a 4 corners polygon primitive as box body*
4,1,4,$2,$3,$4,$5,$6,$7,$8,$9,$2,$3,0*
0 Add four circle primitives for the rounded corners*
1,1,$1+$1,$2,$3*
1,1,$1+$1,$4,$5*
1,1,$1+$1,$6,$7*
1,1,$1+$1,$8,$9*
0 Add four rect primitives between the rounded corners*
20,1,$1+$1,$2,$3,$4,$5,0*
20,1,$1+$1,$4,$5,$6,$7,0*
20,1,$1+$1,$6,$7,$8,$9,0*
20,1,$1+$1,$8,$9,$2,$3,0*%
%AMRotRect*
0 Rectangle, with rotation*
0 The origin of the aperture is its center*
0 $1 length*
0 $2 width*
0 $3 Rotation angle, in degrees counterclockwise*
0 Add horizontal line*
21,1,$1,$2,0,0,$3*%
G04 Aperture macros list end*
%ADD10RoundRect,0.218750X0.218750X0.381250X-0.218750X0.381250X-0.218750X-0.381250X0.218750X-0.381250X0*%
%ADD11RoundRect,0.200000X-0.200000X-0.275000X0.200000X-0.275000X0.200000X0.275000X-0.200000X0.275000X0*%
%ADD12RoundRect,0.250000X-0.450000X0.262500X-0.450000X-0.262500X0.450000X-0.262500X0.450000X0.262500X0*%
%ADD13RoundRect,0.225000X-0.250000X0.225000X-0.250000X-0.225000X0.250000X-0.225000X0.250000X0.225000X0*%
%ADD14RoundRect,0.250000X1.075000X-0.375000X1.075000X0.375000X-1.075000X0.375000X-1.075000X-0.375000X0*%
%ADD15RoundRect,0.250000X0.475000X-0.250000X0.475000X0.250000X-0.475000X0.250000X-0.475000X-0.250000X0*%
%ADD16C,1.000000*%
%ADD17RoundRect,0.200000X-0.275000X0.200000X-0.275000X-0.200000X0.275000X-0.200000X0.275000X0.200000X0*%
%ADD18RoundRect,0.150000X-0.512500X-0.150000X0.512500X-0.150000X0.512500X0.150000X-0.512500X0.150000X0*%
%ADD19RoundRect,0.225000X0.225000X0.250000X-0.225000X0.250000X-0.225000X-0.250000X0.225000X-0.250000X0*%
%ADD20RoundRect,0.200000X0.275000X-0.200000X0.275000X0.200000X-0.275000X0.200000X-0.275000X-0.200000X0*%
%ADD21RoundRect,0.250000X0.250000X0.475000X-0.250000X0.475000X-0.250000X-0.475000X0.250000X-0.475000X0*%
%ADD22RoundRect,0.250001X0.462499X0.624999X-0.462499X0.624999X-0.462499X-0.624999X0.462499X-0.624999X0*%
%ADD23RoundRect,0.250000X0.450000X-0.262500X0.450000X0.262500X-0.450000X0.262500X-0.450000X-0.262500X0*%
%ADD24R,0.840000X0.420000*%
%ADD25R,1.600000X2.500000*%
%ADD26RoundRect,0.225000X-0.225000X-0.250000X0.225000X-0.250000X0.225000X0.250000X-0.225000X0.250000X0*%
%ADD27RoundRect,0.225000X0.250000X-0.225000X0.250000X0.225000X-0.250000X0.225000X-0.250000X-0.225000X0*%
%ADD28RoundRect,0.150000X-0.825000X-0.150000X0.825000X-0.150000X0.825000X0.150000X-0.825000X0.150000X0*%
%ADD29R,1.200000X1.400000*%
%ADD30RoundRect,0.087500X-0.087500X0.225000X-0.087500X-0.225000X0.087500X-0.225000X0.087500X0.225000X0*%
%ADD31RoundRect,0.087500X-0.225000X0.087500X-0.225000X-0.087500X0.225000X-0.087500X0.225000X0.087500X0*%
%ADD32RoundRect,0.041300X-0.253700X0.948700X-0.253700X-0.948700X0.253700X-0.948700X0.253700X0.948700X0*%
%ADD33R,1.000000X1.000000*%
%ADD34RoundRect,0.050000X0.309359X-0.238649X-0.238649X0.309359X-0.309359X0.238649X0.238649X-0.309359X0*%
%ADD35RoundRect,0.050000X0.309359X0.238649X0.238649X0.309359X-0.309359X-0.238649X-0.238649X-0.309359X0*%
%ADD36RoundRect,0.002500X0.003536X0.000000X0.000000X0.003536X-0.003536X0.000000X0.000000X-0.003536X0*%
%ADD37RotRect,5.600000X5.600000X135.000000*%
%ADD38RoundRect,0.250000X0.262500X0.450000X-0.262500X0.450000X-0.262500X-0.450000X0.262500X-0.450000X0*%
%ADD39R,0.400000X16.500000*%
%ADD40R,0.400000X25.400000*%
%ADD41R,2.195000X2.195000*%
%ADD42RoundRect,0.250000X0.375000X1.075000X-0.375000X1.075000X-0.375000X-1.075000X0.375000X-1.075000X0*%
%ADD43R,2.250000X1.100000*%
%ADD44R,1.100000X1.050000*%
%ADD45R,14.000000X0.400000*%
%ADD46R,5.700000X0.400000*%
%ADD47R,13.300000X0.400000*%
%ADD48C,1.600000*%
%ADD49C,3.000000*%
%ADD50C,2.500000*%
%ADD51C,2.010000*%
%ADD52R,2.340000X2.340000*%
%ADD53C,2.340000*%
%ADD54R,2.000000X2.000000*%
%ADD55C,2.000000*%
%ADD56R,2.300000X2.000000*%
%ADD57C,2.300000*%
%ADD58R,2.100000X2.100000*%
%ADD59C,2.100000*%
%TA.AperFunction,Profile*%
%ADD60C,0.100000*%
%TD*%
G04 APERTURE END LIST*
D10*
%TO.C,L1*%
X150705000Y-119490000D03*
X148580000Y-119490000D03*
%TD*%
D11*
%TO.C,ER2*%
X137000000Y-115680000D03*
X138650000Y-115680000D03*
%TD*%
D12*
%TO.C,AR1*%
X117970000Y-98115000D03*
X117970000Y-99940000D03*
%TD*%
D13*
%TO.C,EC15*%
X141845076Y-118955500D03*
X141845076Y-120505500D03*
%TD*%
D14*
%TO.C,AL1*%
X116259924Y-107830000D03*
X116259924Y-105030000D03*
%TD*%
D15*
%TO.C,AC1*%
X119320000Y-107650000D03*
X119320000Y-105750000D03*
%TD*%
D16*
%TO.C,TP3*%
X121710000Y-103190000D03*
%TD*%
D17*
%TO.C,ER5*%
X141629924Y-74172000D03*
X141629924Y-75822000D03*
%TD*%
D18*
%TO.C,RQ1*%
X115970000Y-78590000D03*
X115970000Y-80490000D03*
X118245000Y-79540000D03*
%TD*%
D19*
%TO.C,EC19*%
X143214924Y-85547000D03*
X141664924Y-85547000D03*
%TD*%
%TO.C,ATH20_C1*%
X120120000Y-114650000D03*
X118570000Y-114650000D03*
%TD*%
D20*
%TO.C,ER1*%
X151640000Y-117445000D03*
X151640000Y-115795000D03*
%TD*%
D21*
%TO.C,EC3*%
X152290000Y-109440000D03*
X150390000Y-109440000D03*
%TD*%
D20*
%TO.C,ER4*%
X141599924Y-78672000D03*
X141599924Y-77022000D03*
%TD*%
D19*
%TO.C,IMUC1*%
X142850000Y-102140000D03*
X141300000Y-102140000D03*
%TD*%
D22*
%TO.C,HLD1*%
X151617424Y-82492000D03*
X148642424Y-82492000D03*
%TD*%
D23*
%TO.C,AR2*%
X115670000Y-99602500D03*
X115670000Y-97777500D03*
%TD*%
D24*
%TO.C,AU1*%
X115734924Y-101192000D03*
X115734924Y-102142000D03*
X115734924Y-103092000D03*
X118604924Y-103092000D03*
X118604924Y-102142000D03*
X118604924Y-101192000D03*
D25*
X117169924Y-102142000D03*
%TD*%
D26*
%TO.C,EC10*%
X149170076Y-121000500D03*
X150720076Y-121000500D03*
%TD*%
D27*
%TO.C,EC1*%
X150100000Y-117420000D03*
X150100000Y-115870000D03*
%TD*%
%TO.C,AUC1*%
X139865000Y-103737500D03*
X139865000Y-102187500D03*
%TD*%
D28*
%TO.C,ACS1*%
X137604924Y-80132000D03*
X137604924Y-81402000D03*
X137604924Y-82672000D03*
X137604924Y-83942000D03*
X142554924Y-83942000D03*
X142554924Y-82672000D03*
X142554924Y-81402000D03*
X142554924Y-80132000D03*
%TD*%
D29*
%TO.C,ECY1*%
X146965000Y-102452500D03*
X146965000Y-100252500D03*
X145265000Y-100252500D03*
X145265000Y-102452500D03*
%TD*%
D15*
%TO.C,EC4*%
X143385076Y-119990500D03*
X143385076Y-118090500D03*
%TD*%
%TO.C,HLC1*%
X146189924Y-83532000D03*
X146189924Y-81632000D03*
%TD*%
D29*
%TO.C,ECY2*%
X139650000Y-120720000D03*
X139650000Y-118520000D03*
X137950000Y-118520000D03*
X137950000Y-120720000D03*
%TD*%
D11*
%TO.C,RR1*%
X116355000Y-82240000D03*
X118005000Y-82240000D03*
%TD*%
D16*
%TO.C,TP2*%
X121790000Y-105970000D03*
%TD*%
D13*
%TO.C,EC18*%
X143039924Y-76582000D03*
X143039924Y-78132000D03*
%TD*%
D30*
%TO.C,U3*%
X142870000Y-98165000D03*
X142370000Y-98165000D03*
X141870000Y-98165000D03*
X141370000Y-98165000D03*
D31*
X141207500Y-98827500D03*
X141207500Y-99327500D03*
X141207500Y-99827500D03*
D30*
X141370000Y-100490000D03*
X141870000Y-100490000D03*
X142370000Y-100490000D03*
X142870000Y-100490000D03*
D31*
X143032500Y-99827500D03*
X143032500Y-99327500D03*
X143032500Y-98827500D03*
%TD*%
D22*
%TO.C,HLD3*%
X118487500Y-76310000D03*
X115512500Y-76310000D03*
%TD*%
D32*
%TO.C,U1*%
X138460000Y-98910000D03*
X137190000Y-98910000D03*
X135920000Y-98910000D03*
X134650000Y-98910000D03*
X134650000Y-103850000D03*
X135920000Y-103850000D03*
X137190000Y-103850000D03*
X138460000Y-103850000D03*
%TD*%
D19*
%TO.C,EC17*%
X136375076Y-118670500D03*
X134825076Y-118670500D03*
%TD*%
D33*
%TO.C,REF\u002A\u002A*%
X146790000Y-123790000D03*
%TD*%
D34*
%TO.C,ESP32S1*%
X144862202Y-116406708D03*
X145145045Y-116123865D03*
X145427887Y-115841023D03*
X145710730Y-115558180D03*
X145993573Y-115275337D03*
X146276415Y-114992495D03*
X146559258Y-114709652D03*
X146842101Y-114426809D03*
X147124944Y-114143966D03*
X147407786Y-113861124D03*
X147690629Y-113578281D03*
X147973472Y-113295438D03*
X148256314Y-113012596D03*
X148539157Y-112729753D03*
D35*
X148539157Y-111545349D03*
X148256314Y-111262506D03*
X147973472Y-110979664D03*
X147690629Y-110696821D03*
X147407786Y-110413978D03*
X147124944Y-110131136D03*
X146842101Y-109848293D03*
X146559258Y-109565450D03*
D36*
X146276415Y-109282607D03*
D35*
X145993573Y-108999765D03*
X145710730Y-108716922D03*
X145427887Y-108434079D03*
X145145045Y-108151237D03*
X144862202Y-107868394D03*
D34*
X143677798Y-107868394D03*
X143394955Y-108151237D03*
X143112113Y-108434079D03*
X142829270Y-108716922D03*
X142546427Y-108999765D03*
X142263585Y-109282607D03*
X141980742Y-109565450D03*
X141697899Y-109848293D03*
X141415056Y-110131136D03*
X141132214Y-110413978D03*
X140849371Y-110696821D03*
X140566528Y-110979664D03*
X140283686Y-111262506D03*
X140000843Y-111545349D03*
D35*
X140000843Y-112729753D03*
X140283686Y-113012596D03*
X140566528Y-113295438D03*
X140849371Y-113578281D03*
D36*
X141132214Y-113861124D03*
D35*
X141415056Y-114143966D03*
X141697899Y-114426809D03*
X141980742Y-114709652D03*
X142263585Y-114992495D03*
X142546427Y-115275337D03*
X142829270Y-115558180D03*
X143112113Y-115841023D03*
X143394955Y-116123865D03*
X143677798Y-116406708D03*
D37*
X144270000Y-112137551D03*
%TD*%
D11*
%TO.C,ER3*%
X134320076Y-117240500D03*
X135970076Y-117240500D03*
%TD*%
D38*
%TO.C,DS1*%
X158000000Y-112110000D03*
X156175000Y-112110000D03*
%TD*%
D27*
%TO.C,EC11*%
X137820000Y-113685000D03*
X137820000Y-112135000D03*
%TD*%
D13*
%TO.C,EC7*%
X152270000Y-119525000D03*
X152270000Y-121075000D03*
%TD*%
D15*
%TO.C,AC2*%
X122369924Y-100372000D03*
X122369924Y-98472000D03*
%TD*%
D39*
%TO.C,*%
X153500000Y-114090000D03*
%TD*%
D40*
%TO.C,*%
X133420076Y-109695500D03*
%TD*%
D15*
%TO.C,EC2*%
X145205076Y-121080500D03*
X145205076Y-119180500D03*
%TD*%
D41*
%TO.C,BZ1*%
X157574924Y-79547000D03*
X157574924Y-72147000D03*
X150174924Y-72147000D03*
%TD*%
D11*
%TO.C,IMR2*%
X141255076Y-103552500D03*
X142905076Y-103552500D03*
%TD*%
%TO.C,IMR1*%
X141300000Y-105172500D03*
X142950000Y-105172500D03*
%TD*%
D42*
%TO.C,HLL1*%
X147859924Y-85792000D03*
X145059924Y-85792000D03*
%TD*%
D19*
%TO.C,EC12*%
X146875000Y-104290000D03*
X145325000Y-104290000D03*
%TD*%
D43*
%TO.C,J4*%
X149850000Y-122540000D03*
X149850000Y-125490000D03*
D44*
X148300000Y-124015000D03*
%TD*%
D38*
%TO.C,HLR2*%
X146432424Y-79482000D03*
X144607424Y-79482000D03*
%TD*%
D45*
%TO.C,REF\u002A\u002A*%
X140225076Y-97170500D03*
%TD*%
D16*
%TO.C,TP1*%
X121780000Y-109170000D03*
%TD*%
D46*
%TO.C,*%
X150790076Y-122155500D03*
%TD*%
D26*
%TO.C,EC14*%
X145445000Y-98440000D03*
X146995000Y-98440000D03*
%TD*%
D47*
%TO.C,REF\u002A\u002A*%
X139890228Y-122195449D03*
%TD*%
D26*
%TO.C,EC8*%
X148970000Y-107292500D03*
X150520000Y-107292500D03*
%TD*%
D21*
%TO.C,EC5*%
X152320000Y-111630000D03*
X150420000Y-111630000D03*
%TD*%
D48*
%TO.C,HLV1*%
X151019924Y-101002000D03*
X156019924Y-99702000D03*
%TD*%
D49*
%TO.C,Relay1*%
X124194924Y-71607000D03*
D50*
X130244924Y-73557000D03*
D49*
X130244924Y-85757000D03*
X118194924Y-85807000D03*
D50*
X118244924Y-73557000D03*
%TD*%
D51*
%TO.C,PF1*%
X151579924Y-96952000D03*
X150379924Y-91852000D03*
%TD*%
D52*
%TO.C,J5*%
X123730000Y-94180000D03*
D53*
X118650000Y-94180000D03*
%TD*%
D54*
%TO.C,HLL2*%
X166205549Y-101650750D03*
D55*
X159138049Y-101578250D03*
X166135549Y-93522750D03*
X159088049Y-93445250D03*
%TD*%
D52*
%TO.C,J2*%
X145530000Y-94080000D03*
D53*
X140450000Y-94080000D03*
X135370000Y-94080000D03*
X130290000Y-94080000D03*
%TD*%
D56*
%TO.C,HiLink1*%
X165422424Y-77622000D03*
D57*
X165422424Y-82622000D03*
X136022424Y-72422000D03*
X136022424Y-87822000D03*
%TD*%
D58*
%TO.C,TEMPDS1*%
X156040000Y-120890000D03*
D59*
X156040000Y-118350000D03*
X156040000Y-115810000D03*
%TD*%
D55*
%TO.C,HLC2*%
X156390000Y-107740000D03*
X166390000Y-107740000D03*
%TD*%
D60*
X116034099Y-112111772D02*
X116052969Y-116354114D01*
X119467398Y-96819625D02*
X123278973Y-96819625D01*
X116053012Y-116354114D02*
G75*
G03*
X116483456Y-116764113I410688J214D01*
G01*
X122643533Y-112108968D02*
G75*
G03*
X122213106Y-111698969I-410133J368D01*
G01*
X132940932Y-89712067D02*
X132942993Y-85047165D01*
X149889022Y-101804022D02*
X149889022Y-99544022D01*
X130898425Y-96270000D02*
X134710000Y-96270000D01*
X141378425Y-96500871D02*
X145190000Y-96500871D01*
X119427398Y-96128754D02*
X123318973Y-96128754D01*
X138248899Y-75119216D02*
G75*
G03*
X137607176Y-75489714I-320899J-185184D01*
G01*
X148051575Y-93570000D02*
G75*
G03*
X147448425Y-93570000I-301575J0D01*
G01*
X121850193Y-112910000D02*
G75*
G03*
X121419756Y-112500002I-410293J200D01*
G01*
X133353969Y-90125104D02*
X136833969Y-90125975D01*
X117208950Y-93888754D02*
G75*
G03*
X119427398Y-96128754I2218450J-21446D01*
G01*
X114049965Y-120229930D02*
X114031486Y-76477000D01*
X132547381Y-104575763D02*
G75*
G03*
X124716477Y-104407324I-4057381J-6514237D01*
G01*
X141338425Y-95810000D02*
X145230000Y-95810000D01*
X130858425Y-95579129D02*
X134750000Y-95579129D01*
X159100000Y-109651080D02*
X154100000Y-109640000D01*
X124716477Y-104407324D02*
X124716477Y-117977196D01*
X117263698Y-112493958D02*
X121419756Y-112500001D01*
X116843168Y-115784446D02*
G75*
G03*
X117273699Y-116194445I410532J46D01*
G01*
X128063037Y-70017000D02*
G75*
G03*
X127650000Y-70430000I-37J-413000D01*
G01*
X153185000Y-104375978D02*
X151475000Y-102660000D01*
X122240273Y-116774315D02*
X121440275Y-116774758D01*
X154930000Y-106070000D02*
X154930000Y-108900000D01*
X150770978Y-103004022D02*
X152660978Y-104900000D01*
X136833969Y-90125905D02*
G75*
G03*
X136833969Y-89384895I-69J370505D01*
G01*
X138781907Y-84636044D02*
G75*
G03*
X139194944Y-84223042I-7J413044D01*
G01*
X117273699Y-116768755D02*
G75*
G03*
X117273699Y-116194445I1J287155D01*
G01*
X126140548Y-93888754D02*
G75*
G03*
X125537398Y-93888754I-301575J0D01*
G01*
X139120003Y-93570000D02*
G75*
G03*
X141338425Y-95810000I2218497J-21400D01*
G01*
X150935000Y-102120000D02*
X150205000Y-102120000D01*
X134106031Y-85375104D02*
X139591907Y-85376079D01*
X126898920Y-75336963D02*
G75*
G03*
X127640000Y-75336963I370540J0D01*
G01*
X154110000Y-106280000D02*
X154100000Y-109640000D01*
X134106031Y-89395104D02*
X136833969Y-89384895D01*
X140003969Y-78255104D02*
X138248970Y-75119175D01*
X137571575Y-93339129D02*
G75*
G03*
X136968425Y-93339129I-301575J0D01*
G01*
X133356030Y-84634093D02*
G75*
G03*
X132942993Y-85047165I70J-413107D01*
G01*
X128640075Y-93339130D02*
G75*
G03*
X130858425Y-95579129I2218425J-21470D01*
G01*
X133692994Y-88982067D02*
X133692994Y-85788141D01*
X132547381Y-118145635D02*
X132547381Y-104575763D01*
X126903000Y-70403037D02*
G75*
G03*
X126490000Y-69990000I-413000J37D01*
G01*
X149889022Y-99544022D02*
G75*
G03*
X149147942Y-99544022I-370540J0D01*
G01*
X123278973Y-96819607D02*
G75*
G03*
X126140548Y-93888754I-23673J2885507D01*
G01*
X138516788Y-93569999D02*
G75*
G03*
X141378425Y-96500871I2885312J-45301D01*
G01*
X139194944Y-84223042D02*
X139213969Y-78315104D01*
X168031605Y-76476965D02*
G75*
G03*
X161631486Y-70076895I-6400005J65D01*
G01*
X139213969Y-78315104D02*
X137607175Y-75489714D01*
X120431556Y-70076930D02*
X120597938Y-70076930D01*
X122240273Y-116774368D02*
G75*
G03*
X122650272Y-116343828I127J410368D01*
G01*
X126490000Y-69990000D02*
X122160000Y-69990000D01*
X139120000Y-93570000D02*
G75*
G03*
X138516850Y-93570000I-301575J0D01*
G01*
X127650000Y-70430000D02*
X127640000Y-75336963D01*
X134750000Y-95579128D02*
G75*
G03*
X136968424Y-93339129I0J2218528D01*
G01*
X168140070Y-120229930D02*
X168031556Y-76476965D01*
X132940896Y-89712067D02*
G75*
G03*
X133353969Y-90125104I413104J67D01*
G01*
X145230000Y-95810029D02*
G75*
G03*
X147448425Y-93570000I0J2218529D01*
G01*
X122649754Y-116343828D02*
X122643593Y-112108968D01*
X123318973Y-96128701D02*
G75*
G03*
X125537397Y-93888754I27J2218501D01*
G01*
X117208973Y-93888754D02*
G75*
G03*
X116605823Y-93888754I-301575J0D01*
G01*
X122160000Y-69989963D02*
G75*
G03*
X121746963Y-70403037I0J-413037D01*
G01*
X140004944Y-84963042D02*
X140003969Y-78255104D01*
X150770978Y-103004022D02*
X149895000Y-103001080D01*
X120431556Y-70076886D02*
G75*
G03*
X114031486Y-76477000I44J-6400114D01*
G01*
X116483456Y-116764113D02*
X117273699Y-116768716D01*
X149147942Y-102254022D02*
X149895000Y-103001080D01*
X128063037Y-70016963D02*
X161631486Y-70076895D01*
X116843212Y-115784446D02*
X116853699Y-112924445D01*
X117263698Y-112494005D02*
G75*
G03*
X116853700Y-112924445I-198J-410295D01*
G01*
X121005883Y-76300000D02*
G75*
G03*
X121746963Y-76300000I370540J0D01*
G01*
X151475000Y-102660000D02*
X150935000Y-102120000D01*
X134710000Y-96270034D02*
G75*
G03*
X137571574Y-93339129I-23700J2885534D01*
G01*
X145190001Y-96500935D02*
G75*
G03*
X148051575Y-93570000I-23701J2885535D01*
G01*
X133692996Y-88982067D02*
G75*
G03*
X134106031Y-89395104I413104J67D01*
G01*
X134106031Y-85375094D02*
G75*
G03*
X133692994Y-85788141I-31J-413006D01*
G01*
X121440275Y-116200442D02*
G75*
G03*
X121440275Y-116774758I25J-287158D01*
G01*
X138781907Y-84636079D02*
X133356030Y-84634128D01*
X161740000Y-126630000D02*
X120450035Y-126630000D01*
X128640000Y-93339129D02*
G75*
G03*
X128036850Y-93339129I-301575J0D01*
G01*
X150205000Y-102120000D02*
X149889022Y-101804022D01*
X159100000Y-109651000D02*
G75*
G03*
X159100000Y-108910000I0J370500D01*
G01*
X122213106Y-111698969D02*
X116444098Y-111681285D01*
X116444098Y-111681308D02*
G75*
G03*
X116034099Y-112111772I-98J-410392D01*
G01*
X116605834Y-93888754D02*
G75*
G03*
X119467398Y-96819625I2885266J-45346D01*
G01*
X152660978Y-104900000D02*
X154110000Y-106280000D01*
X121849756Y-115770000D02*
X121850243Y-112910000D01*
X149147942Y-99544022D02*
X149147942Y-102254022D01*
X121010975Y-70489967D02*
X121005883Y-76300000D01*
X121010970Y-70489967D02*
G75*
G03*
X120597938Y-70076930I-413070J-33D01*
G01*
X126903037Y-70403037D02*
X126898920Y-75336963D01*
X124716500Y-117977159D02*
G75*
G03*
X132547381Y-118145635I4057400J6514159D01*
G01*
X114050000Y-120229930D02*
G75*
G03*
X120450035Y-126630000I6400200J130D01*
G01*
X139591907Y-85376044D02*
G75*
G03*
X140004944Y-84963042I-7J413044D01*
G01*
X161740000Y-126630000D02*
G75*
G03*
X168140070Y-120229930I30J6400040D01*
G01*
X128036860Y-93339129D02*
G75*
G03*
X130898425Y-96270000I2885240J-45371D01*
G01*
X121440275Y-116200461D02*
G75*
G03*
X121850273Y-115770000I25J410461D01*
G01*
X121746963Y-70403037D02*
X121746963Y-76300000D01*
X153185000Y-104375978D02*
X154930000Y-106070000D01*
X154930000Y-108900000D02*
X159100000Y-108910000D01*
M02*
