%TF.GenerationSoftware,KiCad,Pcbnew,7.0.6*%
%TF.CreationDate,2023-07-20T17:02:44+02:00*%
%TF.ProjectId,smart_power_socket-54x54x1_6mm_3Cu,736d6172-745f-4706-9f77-65725f736f63,rev?*%
%TF.SameCoordinates,Original*%
%TF.FileFunction,Copper,L2,Bot*%
%TF.FilePolarity,Positive*%
%FSLAX46Y46*%
G04 Gerber Fmt 4.6, Leading zero omitted, Abs format (unit mm)*
G04 Created by KiCad (PCBNEW 7.0.6) date 2023-07-20 17:02:44*
%MOMM*%
%LPD*%
G01*
G04 APERTURE LIST*
G04 Aperture macros list*
%AMRoundRect*
0 Rectangle with rounded corners*
0 $1 Rounding radius*
0 $2 $3 $4 $5 $6 $7 $8 $9 X,Y pos of 4 corners*
0 Add a 4 corners polygon primitive as box body*
4,1,4,$2,$3,$4,$5,$6,$7,$8,$9,$2,$3,0*
0 Add four circle primitives for the rounded corners*
1,1,$1+$1,$2,$3*
1,1,$1+$1,$4,$5*
1,1,$1+$1,$6,$7*
1,1,$1+$1,$8,$9*
0 Add four rect primitives between the rounded corners*
20,1,$1+$1,$2,$3,$4,$5,0*
20,1,$1+$1,$4,$5,$6,$7,0*
20,1,$1+$1,$6,$7,$8,$9,0*
20,1,$1+$1,$8,$9,$2,$3,0*%
G04 Aperture macros list end*
%TA.AperFunction,SMDPad,CuDef*%
%ADD10R,4.500000X0.300000*%
%TD*%
%TA.AperFunction,SMDPad,CuDef*%
%ADD11RoundRect,0.225000X-0.225000X-0.250000X0.225000X-0.250000X0.225000X0.250000X-0.225000X0.250000X0*%
%TD*%
%TA.AperFunction,SMDPad,CuDef*%
%ADD12R,1.400000X2.100000*%
%TD*%
%TA.AperFunction,SMDPad,CuDef*%
%ADD13R,5.700000X0.800000*%
%TD*%
%TA.AperFunction,SMDPad,CuDef*%
%ADD14RoundRect,0.218750X-0.218750X-0.381250X0.218750X-0.381250X0.218750X0.381250X-0.218750X0.381250X0*%
%TD*%
%TA.AperFunction,SMDPad,CuDef*%
%ADD15RoundRect,0.150000X-0.625000X0.150000X-0.625000X-0.150000X0.625000X-0.150000X0.625000X0.150000X0*%
%TD*%
%TA.AperFunction,SMDPad,CuDef*%
%ADD16RoundRect,0.250000X-0.650000X0.350000X-0.650000X-0.350000X0.650000X-0.350000X0.650000X0.350000X0*%
%TD*%
%TA.AperFunction,SMDPad,CuDef*%
%ADD17RoundRect,0.200000X-0.275000X0.200000X-0.275000X-0.200000X0.275000X-0.200000X0.275000X0.200000X0*%
%TD*%
%TA.AperFunction,ComponentPad*%
%ADD18C,1.600000*%
%TD*%
%TA.AperFunction,ComponentPad*%
%ADD19C,3.000000*%
%TD*%
%TA.AperFunction,ComponentPad*%
%ADD20C,2.500000*%
%TD*%
%TA.AperFunction,SMDPad,CuDef*%
%ADD21RoundRect,0.200000X-0.200000X-0.600000X0.200000X-0.600000X0.200000X0.600000X-0.200000X0.600000X0*%
%TD*%
%TA.AperFunction,SMDPad,CuDef*%
%ADD22RoundRect,0.037100X0.227900X-0.317900X0.227900X0.317900X-0.227900X0.317900X-0.227900X-0.317900X0*%
%TD*%
%TA.AperFunction,ComponentPad*%
%ADD23C,2.010000*%
%TD*%
%TA.AperFunction,SMDPad,CuDef*%
%ADD24RoundRect,0.124800X0.475200X0.275200X-0.475200X0.275200X-0.475200X-0.275200X0.475200X-0.275200X0*%
%TD*%
%TA.AperFunction,ComponentPad*%
%ADD25R,2.340000X2.340000*%
%TD*%
%TA.AperFunction,ComponentPad*%
%ADD26C,2.340000*%
%TD*%
%TA.AperFunction,ComponentPad*%
%ADD27R,2.000000X2.000000*%
%TD*%
%TA.AperFunction,ComponentPad*%
%ADD28C,2.000000*%
%TD*%
%TA.AperFunction,ComponentPad*%
%ADD29R,2.300000X2.000000*%
%TD*%
%TA.AperFunction,ComponentPad*%
%ADD30C,2.300000*%
%TD*%
%TA.AperFunction,ComponentPad*%
%ADD31R,2.100000X2.100000*%
%TD*%
%TA.AperFunction,ComponentPad*%
%ADD32C,2.100000*%
%TD*%
%TA.AperFunction,SMDPad,CuDef*%
%ADD33RoundRect,0.225000X0.250000X-0.225000X0.250000X0.225000X-0.250000X0.225000X-0.250000X-0.225000X0*%
%TD*%
%TA.AperFunction,ViaPad*%
%ADD34C,0.700000*%
%TD*%
%TA.AperFunction,ViaPad*%
%ADD35C,0.600000*%
%TD*%
%TA.AperFunction,ViaPad*%
%ADD36C,0.800000*%
%TD*%
%TA.AperFunction,Conductor*%
%ADD37C,0.400000*%
%TD*%
%TA.AperFunction,Conductor*%
%ADD38C,0.150000*%
%TD*%
%TA.AperFunction,Conductor*%
%ADD39C,0.510000*%
%TD*%
%TA.AperFunction,Conductor*%
%ADD40C,0.200000*%
%TD*%
%TA.AperFunction,Conductor*%
%ADD41C,0.300000*%
%TD*%
%TA.AperFunction,Conductor*%
%ADD42C,0.250000*%
%TD*%
%TA.AperFunction,Conductor*%
%ADD43C,0.320000*%
%TD*%
%TA.AperFunction,Conductor*%
%ADD44C,1.000000*%
%TD*%
%TA.AperFunction,Conductor*%
%ADD45C,2.800000*%
%TD*%
%TA.AperFunction,Profile*%
%ADD46C,0.100000*%
%TD*%
G04 APERTURE END LIST*
D10*
%TO.P,,1*%
%TO.N,ESP_GPIO0_BOOT-DTR*%
X164860000Y-117910000D03*
%TD*%
%TO.P,,1*%
%TO.N,GND*%
X164920000Y-113920000D03*
%TD*%
%TO.P,,1*%
%TO.N,CHIP_EN*%
X164810000Y-118930000D03*
%TD*%
%TO.P,,1*%
%TO.N,3V3*%
X164900000Y-112930000D03*
%TD*%
%TO.P,,1*%
%TO.N,GND3*%
X164920000Y-114920000D03*
%TD*%
D11*
%TO.P,EC6,1*%
%TO.N,Net-(ANT1-Pad1)*%
X143690000Y-123240000D03*
%TO.P,EC6,2*%
%TO.N,GND*%
X145240000Y-123240000D03*
%TD*%
D12*
%TO.P,ANT1,1,1*%
%TO.N,Net-(ANT1-Pad1)*%
X141540000Y-124650000D03*
%TO.P,ANT1,2,2*%
%TO.N,unconnected-(ANT1-Pad2)*%
X132040000Y-124650000D03*
%TD*%
D13*
%TO.P,,1*%
%TO.N,GND3*%
X164590000Y-111600000D03*
%TD*%
D14*
%TO.P,EL1,1,1*%
%TO.N,Net-(ANT1-Pad1)*%
X143630000Y-125170000D03*
%TO.P,EL1,2,2*%
%TO.N,ESP_LNA_RF*%
X145755000Y-125170000D03*
%TD*%
D15*
%TO.P,J1,1,Pin_1*%
%TO.N,3V3*%
X162685000Y-112920000D03*
%TO.P,J1,2,Pin_2*%
%TO.N,GND*%
X162685000Y-113920000D03*
%TO.P,J1,3,Pin_3*%
%TO.N,unconnected-(J1-Pin_3-Pad3)*%
X162685000Y-114920000D03*
%TO.P,J1,4,Pin_4*%
%TO.N,TXD0*%
X162685000Y-115920000D03*
%TO.P,J1,5,Pin_5*%
%TO.N,RXD0*%
X162685000Y-116920000D03*
%TO.P,J1,6,Pin_6*%
%TO.N,ESP_GPIO0_BOOT-DTR*%
X162685000Y-117920000D03*
%TO.P,J1,7,Pin_7*%
%TO.N,CHIP_EN*%
X162685000Y-118920000D03*
D16*
%TO.P,J1,MP*%
%TO.N,N/C*%
X166560000Y-111620000D03*
X166560000Y-120220000D03*
%TD*%
D17*
%TO.P,LR1,1*%
%TO.N,LED_R_IO13*%
X121920000Y-105395000D03*
%TO.P,LR1,2*%
%TO.N,Net-(LED1-RA)*%
X121920000Y-107045000D03*
%TD*%
D18*
%TO.P,HLV1,1*%
%TO.N,Net-(HLC2-Pad1)*%
X151019924Y-101002000D03*
%TO.P,HLV1,2*%
%TO.N,/GND_220*%
X156019924Y-99702000D03*
%TD*%
D19*
%TO.P,Relay1,1*%
%TO.N,Net-(ACS1-IP--Pad3)*%
X124194924Y-71607000D03*
D20*
%TO.P,Relay1,2*%
%TO.N,GND*%
X130244924Y-73557000D03*
D19*
%TO.P,Relay1,3*%
%TO.N,LINE_OUT*%
X130244924Y-85757000D03*
%TO.P,Relay1,4*%
%TO.N,unconnected-(Relay1-Pad4)*%
X118194924Y-85807000D03*
D20*
%TO.P,Relay1,5*%
%TO.N,Net-(HLD3-K)*%
X118244924Y-73557000D03*
%TD*%
D21*
%TO.P,RST1,1,1*%
%TO.N,GND*%
X161240000Y-123620000D03*
%TO.P,RST1,2,2*%
%TO.N,CHIP_EN*%
X164580000Y-123620000D03*
%TD*%
D22*
%TO.P,U4,1,NC*%
%TO.N,unconnected-(U4-NC-Pad1)*%
X119940000Y-115320000D03*
%TO.P,U4,2,VDD*%
%TO.N,3V3*%
X118940000Y-115320000D03*
%TO.P,U4,3,SCL*%
%TO.N,GPIO9_I2C_SCL*%
X117940000Y-115320000D03*
%TO.P,U4,4,SDA*%
%TO.N,GPIO8_I2C_SDA*%
X117940000Y-113350000D03*
%TO.P,U4,5,GND*%
%TO.N,GND*%
X118940000Y-113350000D03*
%TO.P,U4,6,NC*%
%TO.N,unconnected-(U4-NC-Pad6)*%
X119940000Y-113350000D03*
%TD*%
D23*
%TO.P,PF1,1*%
%TO.N,Net-(HLC2-Pad1)*%
X151579924Y-96952000D03*
%TO.P,PF1,2*%
%TO.N,/AC_220_IN*%
X150379924Y-91852000D03*
%TD*%
D24*
%TO.P,LED1,1,GA*%
%TO.N,LED_G_IO14*%
X120040000Y-110950000D03*
%TO.P,LED1,2,BA*%
%TO.N,LED_B_IO12*%
X116860000Y-110960000D03*
%TO.P,LED1,3,RA*%
%TO.N,Net-(LED1-RA)*%
X120040000Y-109810000D03*
%TO.P,LED1,4,K*%
%TO.N,3V3*%
X116850000Y-109840000D03*
%TD*%
D13*
%TO.P,,1*%
%TO.N,GND3*%
X164580000Y-120210000D03*
%TD*%
D25*
%TO.P,J5,1,Pin_1*%
%TO.N,/GND_220*%
X123730000Y-94180000D03*
D26*
%TO.P,J5,2,Pin_2*%
%TO.N,LINE_OUT*%
X118650000Y-94180000D03*
%TD*%
D27*
%TO.P,HLL2,1,1*%
%TO.N,Net-(HiLink1-AC_N)*%
X166205549Y-101650750D03*
D28*
%TO.P,HLL2,2,2*%
%TO.N,Net-(HLC2-Pad1)*%
X159138049Y-101578250D03*
%TO.P,HLL2,3,3*%
%TO.N,Net-(HiLink1-AC_L)*%
X166135549Y-93522750D03*
%TO.P,HLL2,4,4*%
%TO.N,/GND_220*%
X159088049Y-93445250D03*
%TD*%
D25*
%TO.P,J2,1,Pin_1*%
%TO.N,/AC_220_IN*%
X145530000Y-94080000D03*
D26*
%TO.P,J2,2,Pin_2*%
X140450000Y-94080000D03*
%TO.P,J2,3,Pin_3*%
%TO.N,/GND_220*%
X135370000Y-94080000D03*
%TO.P,J2,4,Pin_4*%
X130290000Y-94080000D03*
%TD*%
D29*
%TO.P,HiLink1,1,AC_N*%
%TO.N,Net-(HiLink1-AC_N)*%
X165422424Y-77622000D03*
D30*
%TO.P,HiLink1,2,AC_L*%
%TO.N,Net-(HiLink1-AC_L)*%
X165422424Y-82622000D03*
%TO.P,HiLink1,3,DC-*%
%TO.N,GND3*%
X136022424Y-72422000D03*
%TO.P,HiLink1,4,DC+*%
%TO.N,Net-(HiLink1-DC+)*%
X136022424Y-87822000D03*
%TD*%
D31*
%TO.P,TEMPDS1,1,Pin_1*%
%TO.N,3V3*%
X156040000Y-120890000D03*
D32*
%TO.P,TEMPDS1,2,Pin_2*%
%TO.N,DS_TEMP_IO01*%
X156040000Y-118350000D03*
%TO.P,TEMPDS1,3,Pin_3*%
%TO.N,GND*%
X156040000Y-115810000D03*
%TD*%
D33*
%TO.P,EC9,1*%
%TO.N,ESP_LNA_RF*%
X147990000Y-125145000D03*
%TO.P,EC9,2*%
%TO.N,GND*%
X147990000Y-123595000D03*
%TD*%
D28*
%TO.P,HLC2,1*%
%TO.N,Net-(HLC2-Pad1)*%
X156390000Y-107740000D03*
%TO.P,HLC2,2*%
%TO.N,/GND_220*%
X166390000Y-107740000D03*
%TD*%
D34*
%TO.N,3V3*%
X117830000Y-107680000D03*
D35*
X140330000Y-98640000D03*
X116840000Y-117665500D03*
X140114000Y-114349424D03*
D34*
X152310228Y-118505449D03*
D35*
X140560000Y-101370000D03*
D34*
X118930000Y-116300000D03*
D35*
X134350000Y-116150000D03*
D36*
X159230000Y-112260000D03*
D35*
X147845553Y-109087813D03*
D36*
X149245000Y-104265000D03*
D34*
X118210000Y-109890000D03*
D35*
X139994000Y-100320000D03*
X144090076Y-116905500D03*
D36*
%TO.N,GND*%
X146230228Y-111825449D03*
X145180228Y-110845449D03*
X144960228Y-113185449D03*
X143964000Y-112059424D03*
X132530000Y-99920000D03*
D35*
X150350000Y-118380000D03*
D36*
X119400000Y-99400000D03*
X142760228Y-110905449D03*
X148270000Y-122360000D03*
D35*
X114720000Y-95450000D03*
D36*
X148009924Y-77522000D03*
D35*
X159580000Y-114300000D03*
D36*
X142600076Y-113375500D03*
D34*
X120240000Y-118550000D03*
D36*
X117169924Y-102142000D03*
X143610228Y-114425449D03*
D35*
X153250000Y-122150000D03*
X139630000Y-117380000D03*
D36*
X144544924Y-77452000D03*
X124630000Y-100510000D03*
X144120228Y-109945449D03*
%TO.N,5V0*%
X153179924Y-83642000D03*
X120690000Y-99820000D03*
X154730000Y-110850000D03*
X142924924Y-79202000D03*
D35*
%TO.N,RXD0*%
X139865000Y-116185000D03*
%TO.N,TXD0*%
X137600000Y-116720500D03*
%TO.N,CHIP_EN*%
X149190000Y-118250000D03*
X160970000Y-118920000D03*
X159270000Y-116160000D03*
%TO.N,ESP_GPIO0_BOOT-DTR*%
X141638277Y-116465625D03*
X148600000Y-116950000D03*
X135735076Y-116170500D03*
%TO.N,GPIO8_I2C_SDA*%
X143870000Y-104350000D03*
X144220670Y-98763567D03*
D34*
X138990000Y-100730000D03*
D35*
X150150000Y-114010000D03*
%TO.N,GPIO9_I2C_SCL*%
X150240000Y-113040000D03*
D34*
X138540000Y-101900000D03*
D35*
X144030000Y-99540000D03*
X143900000Y-103360000D03*
D34*
%TO.N,ACS_HALL_IO10*%
X126680000Y-96660000D03*
X128330000Y-100745500D03*
D35*
X149325076Y-111980500D03*
D36*
X140549924Y-76412000D03*
D35*
%TO.N,RELAY_EN_IO11*%
X149395076Y-111123185D03*
D34*
X125750000Y-100650000D03*
D35*
%TO.N,LED_B_IO12*%
X149472274Y-110325769D03*
%TO.N,LED_R_IO13*%
X149470000Y-108550000D03*
%TO.N,LED_G_IO14*%
X148740000Y-109380000D03*
D36*
%TO.N,DS_TEMP_IO01*%
X155597424Y-113292576D03*
D35*
X148540000Y-116000000D03*
%TO.N,IMU_CS_IO06*%
X144000000Y-101300000D03*
X151370000Y-112980000D03*
D34*
%TO.N,BUZZER_IO07*%
X129480000Y-100395500D03*
D35*
X149175076Y-114150500D03*
D36*
X156120000Y-81020000D03*
D34*
X128100000Y-96650000D03*
D36*
%TO.N,ESP_LNA_RF*%
X146550000Y-123700000D03*
%TO.N,/GND_220*%
X135770000Y-78450000D03*
X134640000Y-76740000D03*
X136890000Y-78680000D03*
X136520000Y-77590000D03*
X135600000Y-76870000D03*
X135020000Y-77640000D03*
%TD*%
D37*
%TO.N,3V3*%
X118218248Y-107680000D02*
X117830000Y-107680000D01*
D38*
X139910000Y-100320000D02*
X139994000Y-100320000D01*
D39*
X141126449Y-114306449D02*
X140116449Y-114306449D01*
D40*
X159230000Y-112260000D02*
X159170000Y-112200000D01*
D38*
X116840000Y-117665500D02*
X116355500Y-117665500D01*
D41*
X159230000Y-112260000D02*
X159890000Y-112920000D01*
D37*
X119665000Y-106233248D02*
X118218248Y-107680000D01*
D38*
X118930000Y-116300000D02*
X118940000Y-116290000D01*
D37*
X123450000Y-98550000D02*
X119665000Y-102335000D01*
D38*
X153480000Y-118495449D02*
X153470000Y-118505449D01*
X139230000Y-98130000D02*
X139230000Y-99640000D01*
D40*
X153470000Y-118050000D02*
X153470000Y-119230000D01*
X159170000Y-112200000D02*
X155030000Y-112200000D01*
D37*
X139460000Y-97900000D02*
X145020000Y-97900000D01*
D41*
X116900000Y-109890000D02*
X116850000Y-109840000D01*
D39*
X144092525Y-115762525D02*
X144092525Y-116862525D01*
D38*
X139230000Y-99640000D02*
X139910000Y-100320000D01*
D39*
X152310228Y-118040228D02*
X149310000Y-115040000D01*
D40*
X153470000Y-113760000D02*
X153470000Y-118050000D01*
D39*
X147582525Y-112272525D02*
X144092525Y-115762525D01*
D41*
X118210000Y-109890000D02*
X116900000Y-109890000D01*
D39*
X147582525Y-109350841D02*
X147582525Y-112272525D01*
D37*
X139230000Y-98130000D02*
X139160000Y-98200000D01*
X139160000Y-98200000D02*
X126773274Y-98200000D01*
D38*
X115520000Y-110580000D02*
X116260000Y-109840000D01*
X116260000Y-109840000D02*
X116850000Y-109840000D01*
D37*
X145020000Y-97900000D02*
X145240000Y-98120000D01*
D41*
X156040000Y-120890000D02*
X155270000Y-120890000D01*
D39*
X149245000Y-104265000D02*
X145960000Y-100980000D01*
D37*
X126423274Y-98550000D02*
X123450000Y-98550000D01*
D42*
X156130000Y-120890000D02*
X155878000Y-121142000D01*
D39*
X147845553Y-109087813D02*
X147582525Y-109350841D01*
X142582525Y-115762525D02*
X141126449Y-114306449D01*
D40*
X153470000Y-119230000D02*
X155130000Y-120890000D01*
X155130000Y-120890000D02*
X156040000Y-120890000D01*
D38*
X140560000Y-98870000D02*
X140560000Y-101370000D01*
D39*
X152310228Y-118505449D02*
X152310228Y-118040228D01*
D37*
X119665000Y-102335000D02*
X119665000Y-106233248D01*
D39*
X144092525Y-115762525D02*
X142582525Y-115762525D01*
D40*
X155030000Y-112200000D02*
X153470000Y-113760000D01*
D39*
X145960000Y-100980000D02*
X145960000Y-98840000D01*
D38*
X118940000Y-116290000D02*
X118940000Y-115320000D01*
D40*
X153470000Y-118505449D02*
X152310228Y-118505449D01*
D38*
X115520000Y-116830000D02*
X115520000Y-110580000D01*
X140330000Y-98640000D02*
X140560000Y-98870000D01*
D41*
X159890000Y-112920000D02*
X162685000Y-112920000D01*
D38*
X136020576Y-114349424D02*
X140114000Y-114349424D01*
D39*
X145960000Y-98840000D02*
X145240000Y-98120000D01*
D38*
X116355500Y-117665500D02*
X115520000Y-116830000D01*
X134350000Y-116020000D02*
X136020576Y-114349424D01*
D37*
X126773274Y-98200000D02*
X126423274Y-98550000D01*
D41*
X156040000Y-120890000D02*
X156490000Y-120890000D01*
D39*
X149310000Y-115040000D02*
X146890001Y-115040000D01*
D37*
X139230000Y-98130000D02*
X139460000Y-97900000D01*
D40*
X153470000Y-118050000D02*
X153470000Y-118505449D01*
X147755000Y-112115000D02*
X147755000Y-112145000D01*
D38*
X134350000Y-116150000D02*
X134350000Y-116020000D01*
D39*
X146890001Y-115040000D02*
X145852576Y-114002575D01*
D38*
%TO.N,GND*%
X118940000Y-113990000D02*
X118940000Y-113350000D01*
X120240000Y-118550000D02*
X120830000Y-117960000D01*
D40*
X120240000Y-118550000D02*
X119640000Y-119150000D01*
X116120000Y-119150000D02*
X114445000Y-117475000D01*
D42*
X149724313Y-122360000D02*
X152714312Y-125350000D01*
D37*
X119400000Y-99400000D02*
X118670000Y-99400000D01*
X118670000Y-99400000D02*
X114720000Y-95450000D01*
D42*
X153250000Y-121730000D02*
X153250000Y-122150000D01*
D38*
X153380000Y-122400000D02*
X153380000Y-122210000D01*
D37*
X132490000Y-99960000D02*
X130390000Y-99960000D01*
D43*
X147990000Y-123595000D02*
X147990000Y-122640000D01*
D38*
X159180000Y-117730000D02*
X160380000Y-116530000D01*
X120830000Y-114645026D02*
X120374974Y-114190000D01*
D40*
X114445000Y-117475000D02*
X114445000Y-109425000D01*
X144614924Y-77522000D02*
X144544924Y-77452000D01*
D38*
X159580000Y-114300000D02*
X159960000Y-113920000D01*
D42*
X146110000Y-122370000D02*
X145240000Y-123240000D01*
D38*
X157705026Y-123900000D02*
X159180000Y-122425026D01*
D37*
X129930000Y-99500000D02*
X127590000Y-99500000D01*
D38*
X154160000Y-123180000D02*
X153380000Y-122400000D01*
X147724922Y-118310000D02*
X153314922Y-123900000D01*
X158460000Y-122155078D02*
X157435078Y-123180000D01*
X120830000Y-117960000D02*
X120830000Y-114645026D01*
X140560000Y-118310000D02*
X147724922Y-118310000D01*
X120374974Y-114190000D02*
X119140000Y-114190000D01*
D42*
X150350000Y-118380000D02*
X150350000Y-118830000D01*
D37*
X117169924Y-104360076D02*
X117169924Y-102142000D01*
D42*
X153310000Y-122210000D02*
X153250000Y-122150000D01*
X148260000Y-122370000D02*
X146110000Y-122370000D01*
D38*
X139630000Y-117380000D02*
X140560000Y-118310000D01*
D42*
X153380000Y-122210000D02*
X153310000Y-122210000D01*
D37*
X127590000Y-99500000D02*
X127240000Y-99850000D01*
D42*
X160035634Y-123620000D02*
X161240000Y-123620000D01*
D37*
X125290000Y-99850000D02*
X124630000Y-100510000D01*
X132530000Y-99920000D02*
X132490000Y-99960000D01*
D38*
X153314922Y-123900000D02*
X157705026Y-123900000D01*
X119140000Y-114190000D02*
X118940000Y-113990000D01*
D40*
X119640000Y-119150000D02*
X116120000Y-119150000D01*
D42*
X148270000Y-122360000D02*
X148260000Y-122370000D01*
D38*
X159960000Y-113920000D02*
X162685000Y-113920000D01*
D37*
X130390000Y-99960000D02*
X129930000Y-99500000D01*
D42*
X158305634Y-125350000D02*
X160035634Y-123620000D01*
D41*
X148009924Y-77522000D02*
X144614924Y-77522000D01*
D42*
X152714312Y-125350000D02*
X158305634Y-125350000D01*
D38*
X159665000Y-114315000D02*
X159605000Y-114315000D01*
X157435078Y-123180000D02*
X154160000Y-123180000D01*
X160380000Y-116530000D02*
X160380000Y-113920000D01*
D42*
X148270000Y-122360000D02*
X149724313Y-122360000D01*
D38*
X158460000Y-115460000D02*
X158460000Y-122155078D01*
D37*
X116030000Y-105500000D02*
X117169924Y-104360076D01*
D43*
X147990000Y-122640000D02*
X148270000Y-122360000D01*
D38*
X159180000Y-122425026D02*
X159180000Y-117730000D01*
D40*
X114445000Y-109425000D02*
X116030000Y-107840000D01*
D38*
X159605000Y-114315000D02*
X158460000Y-115460000D01*
D42*
X150350000Y-118830000D02*
X153250000Y-121730000D01*
D37*
X116030000Y-107840000D02*
X116030000Y-105500000D01*
X127240000Y-99850000D02*
X125290000Y-99850000D01*
D41*
%TO.N,5V0*%
X147319924Y-83642000D02*
X153179924Y-83642000D01*
X142924924Y-79202000D02*
X142924924Y-79247000D01*
X142924924Y-79247000D02*
X147319924Y-83642000D01*
D37*
X126174746Y-97950000D02*
X126524746Y-97600000D01*
X145346310Y-97300000D02*
X146690000Y-98643690D01*
X138911472Y-97600000D02*
X139211472Y-97300000D01*
X120690000Y-99820000D02*
X122560000Y-97950000D01*
X146690000Y-100440000D02*
X152910000Y-106660000D01*
X152910000Y-109030000D02*
X154730000Y-110850000D01*
X139211472Y-97300000D02*
X145346310Y-97300000D01*
X122560000Y-97950000D02*
X126174746Y-97950000D01*
X126524746Y-97600000D02*
X138911472Y-97600000D01*
X152910000Y-106660000D02*
X152910000Y-109030000D01*
X146690000Y-98643690D02*
X146690000Y-100440000D01*
D38*
%TO.N,RXD0*%
X136856447Y-116916447D02*
X138950000Y-119010000D01*
X161005026Y-116920000D02*
X162685000Y-116920000D01*
X136710000Y-116527107D02*
X136710000Y-116562893D01*
X159880000Y-118045026D02*
X161005026Y-116920000D01*
X138950000Y-119010000D02*
X147434974Y-119010000D01*
X136711602Y-116461491D02*
X136710000Y-116527107D01*
X137201491Y-115971597D02*
X137074729Y-116005561D01*
X136811176Y-116868922D02*
X136856447Y-116916447D01*
X139650000Y-115970000D02*
X137267107Y-115970000D01*
X136856446Y-116173554D02*
X136811179Y-116221082D01*
X136711597Y-116628509D02*
X136745561Y-116755271D01*
X157994974Y-124600000D02*
X159880000Y-122714974D01*
X136961078Y-116071176D02*
X136913553Y-116116447D01*
X136745565Y-116334732D02*
X136711602Y-116461491D01*
X147434974Y-119010000D02*
X153024973Y-124600000D01*
X139865000Y-116185000D02*
X139650000Y-115970000D01*
X136811179Y-116221082D02*
X136745565Y-116334732D01*
X136745561Y-116755271D02*
X136811176Y-116868922D01*
X137074729Y-116005561D02*
X136961078Y-116071176D01*
X153024973Y-124600000D02*
X157994974Y-124600000D01*
X159880000Y-122714974D02*
X159880000Y-118045026D01*
X136710000Y-116562893D02*
X136711597Y-116628509D01*
X136913553Y-116116447D02*
X136856446Y-116173554D01*
X137267107Y-115970000D02*
X137201491Y-115971597D01*
%TO.N,TXD0*%
X157850000Y-124250000D02*
X159530000Y-122570000D01*
X159530000Y-117900052D02*
X161510052Y-115920000D01*
X137600000Y-116730000D02*
X139530000Y-118660000D01*
X153169947Y-124250000D02*
X157850000Y-124250000D01*
X137600000Y-116720500D02*
X137600000Y-116730000D01*
X159530000Y-122570000D02*
X159530000Y-117900052D01*
X161510052Y-115920000D02*
X162685000Y-115920000D01*
X139530000Y-118660000D02*
X147579948Y-118660000D01*
X147579948Y-118660000D02*
X153169947Y-124250000D01*
%TO.N,CHIP_EN*%
X160650000Y-121250000D02*
X161460000Y-122060000D01*
X157580052Y-123530000D02*
X153439896Y-123530000D01*
X163940000Y-122060000D02*
X164580000Y-122700000D01*
X159270000Y-116650000D02*
X158810000Y-117110000D01*
X162685000Y-118920000D02*
X160970000Y-118920000D01*
X158810000Y-117110000D02*
X158810000Y-122300052D01*
X160650000Y-119240000D02*
X160650000Y-121250000D01*
X161460000Y-122060000D02*
X163940000Y-122060000D01*
X162615000Y-118990000D02*
X162685000Y-118920000D01*
X159270000Y-116160000D02*
X159270000Y-116650000D01*
X164580000Y-122700000D02*
X164580000Y-123620000D01*
X153439896Y-123530000D02*
X149190000Y-119280104D01*
X149190000Y-119280104D02*
X149190000Y-118250000D01*
X158810000Y-122300052D02*
X157580052Y-123530000D01*
X160970000Y-118920000D02*
X160650000Y-119240000D01*
%TO.N,ESP_GPIO0_BOOT-DTR*%
X160230000Y-122859948D02*
X158139948Y-124950000D01*
X161156827Y-117920000D02*
X160230000Y-118846827D01*
X147880000Y-117560000D02*
X142740000Y-117560000D01*
X162685000Y-117920000D02*
X161156827Y-117920000D01*
X141645625Y-116465625D02*
X141638277Y-116465625D01*
X148490000Y-116950000D02*
X147880000Y-117560000D01*
D42*
X162300000Y-117930000D02*
X162400000Y-118030000D01*
D38*
X142740000Y-117560000D02*
X141645625Y-116465625D01*
X152879998Y-124950000D02*
X147290000Y-119360000D01*
X158139948Y-124950000D02*
X152879998Y-124950000D01*
X147290000Y-119360000D02*
X138330000Y-119360000D01*
X135735076Y-116765076D02*
X135735076Y-116170500D01*
X160230000Y-118846827D02*
X160230000Y-122859948D01*
X138330000Y-119360000D02*
X135735076Y-116765076D01*
X148600000Y-116950000D02*
X148490000Y-116950000D01*
X141638277Y-116465625D02*
X141638277Y-116558277D01*
X136735576Y-115170000D02*
X140342652Y-115170000D01*
X135735076Y-116170500D02*
X136735576Y-115170000D01*
X140342652Y-115170000D02*
X141638277Y-116465625D01*
%TO.N,GPIO8_I2C_SDA*%
X124285000Y-99025000D02*
X120140000Y-103170000D01*
X145100000Y-102915026D02*
X147304974Y-105120000D01*
X120140000Y-103170000D02*
X120140000Y-106430000D01*
X144220670Y-98763567D02*
X144703567Y-98763567D01*
X143870000Y-104350000D02*
X143840000Y-104350000D01*
X140350000Y-102220000D02*
X136805000Y-98675000D01*
X142890000Y-102220000D02*
X140350000Y-102220000D01*
X114820000Y-117270000D02*
X116140000Y-118590000D01*
X147304974Y-105120000D02*
X150102870Y-105120000D01*
X145100000Y-99160000D02*
X145100000Y-102915026D01*
X116140000Y-118590000D02*
X118790000Y-118590000D01*
X142890000Y-103400000D02*
X142890000Y-102220000D01*
X151440000Y-114010000D02*
X150150000Y-114010000D01*
X114820000Y-109665026D02*
X114820000Y-117270000D01*
X115735026Y-108750000D02*
X114820000Y-109665026D01*
X118790000Y-118590000D02*
X120480000Y-116900000D01*
X120140000Y-106430000D02*
X117820000Y-108750000D01*
X127110025Y-98675000D02*
X126760025Y-99025000D01*
X152380000Y-107397129D02*
X152380000Y-113070000D01*
X126760025Y-99025000D02*
X124285000Y-99025000D01*
X117940000Y-113990000D02*
X117940000Y-113350000D01*
X118490000Y-114540000D02*
X117940000Y-113990000D01*
X120480000Y-114790000D02*
X120230000Y-114540000D01*
X150102870Y-105120000D02*
X152380000Y-107397129D01*
X144703567Y-98763567D02*
X145100000Y-99160000D01*
X142890000Y-99610000D02*
X142890000Y-102220000D01*
X117820000Y-108750000D02*
X115735026Y-108750000D01*
X144220670Y-98763567D02*
X143736433Y-98763567D01*
X152380000Y-113070000D02*
X151440000Y-114010000D01*
X143736433Y-98763567D02*
X142890000Y-99610000D01*
X120230000Y-114540000D02*
X118490000Y-114540000D01*
X136805000Y-98675000D02*
X127110025Y-98675000D01*
X143840000Y-104350000D02*
X142890000Y-103400000D01*
X120480000Y-116900000D02*
X120480000Y-114790000D01*
%TO.N,GPIO9_I2C_SCL*%
X120490000Y-106600000D02*
X120490000Y-103314974D01*
X118090000Y-115470000D02*
X118090000Y-117840000D01*
X144260000Y-103360000D02*
X144650000Y-103750000D01*
X117940000Y-115320000D02*
X118090000Y-115470000D01*
X143290000Y-102750000D02*
X143900000Y-103360000D01*
X144030000Y-99540000D02*
X143290000Y-100280000D01*
X126905000Y-99375000D02*
X127255000Y-99025000D01*
X115170000Y-109810000D02*
X115880000Y-109100000D01*
X118090000Y-117840000D02*
X117690000Y-118240000D01*
X151680000Y-107687078D02*
X149812922Y-105820000D01*
X143290000Y-100280000D02*
X143290000Y-102750000D01*
X144650000Y-105760000D02*
X144710000Y-105820000D01*
X117990000Y-109100000D02*
X120490000Y-106600000D01*
X120490000Y-103314974D02*
X124429974Y-99375000D01*
X151680000Y-111600000D02*
X151680000Y-107687078D01*
X115170000Y-117125026D02*
X115170000Y-109810000D01*
X142460000Y-105820000D02*
X138540000Y-101900000D01*
X117690000Y-118240000D02*
X116284974Y-118240000D01*
X143900000Y-103360000D02*
X144260000Y-103360000D01*
X116284974Y-118240000D02*
X115170000Y-117125026D01*
X135665000Y-99025000D02*
X138540000Y-101900000D01*
X144650000Y-103750000D02*
X144650000Y-105760000D01*
X150240000Y-113040000D02*
X151680000Y-111600000D01*
X124429974Y-99375000D02*
X126905000Y-99375000D01*
X149812922Y-105820000D02*
X142460000Y-105820000D01*
X127255000Y-99025000D02*
X135665000Y-99025000D01*
X115880000Y-109100000D02*
X117990000Y-109100000D01*
D44*
%TO.N,/AC_220_IN*%
X150444924Y-91927000D02*
X150317924Y-91800000D01*
%TO.N,Net-(HiLink1-AC_N)*%
X166164924Y-102042000D02*
X166164924Y-98497000D01*
X162450000Y-89020000D02*
X160590000Y-87160000D01*
X162450000Y-94782076D02*
X162450000Y-89020000D01*
X160590000Y-87160000D02*
X160590000Y-79550000D01*
X166164924Y-98497000D02*
X162450000Y-94782076D01*
X160590000Y-79550000D02*
X162518000Y-77622000D01*
X162518000Y-77622000D02*
X165422424Y-77622000D01*
%TO.N,Net-(HiLink1-AC_L)*%
X166135549Y-83335125D02*
X165422424Y-82622000D01*
X166135549Y-93522750D02*
X166135549Y-83335125D01*
D38*
%TO.N,ACS_HALL_IO10*%
X126890000Y-92269999D02*
X128030000Y-91130000D01*
X126890000Y-96450000D02*
X126890000Y-92269999D01*
X140560000Y-87850000D02*
X140560000Y-87680000D01*
X128330000Y-100745500D02*
X128604500Y-101020000D01*
X150974652Y-107971678D02*
X150974652Y-110555348D01*
X128030000Y-91130000D02*
X137280000Y-91130000D01*
X149549500Y-111980500D02*
X149325076Y-111980500D01*
X149522974Y-106520000D02*
X150974652Y-107971678D01*
X137280000Y-91130000D02*
X140560000Y-87850000D01*
X128604500Y-101020000D02*
X136015027Y-101020000D01*
X150974652Y-110555348D02*
X149549500Y-111980500D01*
X140549924Y-87669924D02*
X140549924Y-76412000D01*
X141515026Y-106520000D02*
X149522974Y-106520000D01*
X136015027Y-101020000D02*
X141515026Y-106520000D01*
X126680000Y-96660000D02*
X126890000Y-96450000D01*
X140560000Y-87680000D02*
X140549924Y-87669924D01*
%TO.N,RELAY_EN_IO11*%
X149666815Y-111123185D02*
X149395076Y-111123185D01*
X149378000Y-106870000D02*
X150624652Y-108116652D01*
X125750000Y-100650000D02*
X126470000Y-101370000D01*
X150624652Y-110165348D02*
X149666815Y-111123185D01*
X150624652Y-108116652D02*
X150624652Y-110165348D01*
X141370052Y-106870000D02*
X149378000Y-106870000D01*
X126470000Y-101370000D02*
X135870053Y-101370000D01*
X135870053Y-101370000D02*
X141370052Y-106870000D01*
%TO.N,LED_B_IO12*%
X118460000Y-110960000D02*
X118920000Y-110500000D01*
X150190000Y-108245000D02*
X150190000Y-109608043D01*
X120840000Y-107530000D02*
X120840000Y-104670052D01*
X149165000Y-107220000D02*
X150190000Y-108245000D01*
X120840000Y-104670052D02*
X123790051Y-101720000D01*
X116580000Y-110960000D02*
X118460000Y-110960000D01*
X135725079Y-101720000D02*
X141225078Y-107220000D01*
X150190000Y-109608043D02*
X149472274Y-110325769D01*
X123790051Y-101720000D02*
X135725079Y-101720000D01*
X118920000Y-110500000D02*
X118920000Y-109450000D01*
X118920000Y-109450000D02*
X120840000Y-107530000D01*
X141225078Y-107220000D02*
X149165000Y-107220000D01*
D44*
%TO.N,Net-(HLC2-Pad1)*%
X151000000Y-100982076D02*
X151019924Y-101002000D01*
X151644924Y-97027000D02*
X151000000Y-97671924D01*
X151019924Y-101002000D02*
X156398924Y-106381000D01*
X151000000Y-97671924D02*
X151000000Y-100982076D01*
X156398924Y-106381000D02*
X156398924Y-108147000D01*
D38*
%TO.N,Net-(LED1-RA)*%
X119850000Y-109810000D02*
X121920000Y-107740000D01*
X119760000Y-109810000D02*
X119850000Y-109810000D01*
X121920000Y-107740000D02*
X121920000Y-107045000D01*
%TO.N,LED_R_IO13*%
X149470000Y-108550000D02*
X149270000Y-108550000D01*
X141080104Y-107570000D02*
X135580105Y-102070000D01*
X149270000Y-108550000D02*
X148290000Y-107570000D01*
X148290000Y-107570000D02*
X141080104Y-107570000D01*
X123935025Y-102070000D02*
X121890000Y-104115025D01*
X121890000Y-104115025D02*
X121890000Y-105365000D01*
X135580105Y-102070000D02*
X123935025Y-102070000D01*
X121890000Y-105365000D02*
X121920000Y-105395000D01*
%TO.N,LED_G_IO14*%
X124080000Y-102420000D02*
X122950000Y-103550000D01*
X135435130Y-102420000D02*
X124080000Y-102420000D01*
X148740000Y-108870000D02*
X147790000Y-107920000D01*
X140935130Y-107920000D02*
X135435130Y-102420000D01*
X122950000Y-103550000D02*
X122950000Y-108870000D01*
X120870000Y-110950000D02*
X119760000Y-110950000D01*
X147790000Y-107920000D02*
X140935130Y-107920000D01*
X148740000Y-109380000D02*
X148740000Y-108870000D01*
X122950000Y-108870000D02*
X120870000Y-110950000D01*
%TO.N,DS_TEMP_IO01*%
X154200000Y-122280000D02*
X154750000Y-122830000D01*
X154750000Y-122830000D02*
X157290104Y-122830000D01*
X158020000Y-122100104D02*
X158020000Y-119110000D01*
X157260000Y-118350000D02*
X156040000Y-118350000D01*
X156319924Y-117642000D02*
X156319924Y-118160076D01*
D40*
X153880000Y-116900000D02*
X154920000Y-117940000D01*
X154920000Y-117940000D02*
X155630000Y-117940000D01*
X155597424Y-113292576D02*
X155457424Y-113292576D01*
D38*
X154200000Y-121920000D02*
X154200000Y-122280000D01*
X158020000Y-119110000D02*
X157260000Y-118350000D01*
D40*
X155630000Y-117940000D02*
X156040000Y-118350000D01*
D38*
X156319924Y-118160076D02*
X156130000Y-118350000D01*
X157290104Y-122830000D02*
X158020000Y-122100104D01*
D40*
X155457424Y-113292576D02*
X153880000Y-114870000D01*
X153880000Y-114870000D02*
X153880000Y-116900000D01*
D38*
X149040000Y-116000000D02*
X151210000Y-118170000D01*
X151210000Y-118170000D02*
X151210000Y-118930000D01*
D40*
X156130000Y-118350000D02*
X156040000Y-118350000D01*
D38*
X148540000Y-116000000D02*
X149040000Y-116000000D01*
X151210000Y-118930000D02*
X154200000Y-121920000D01*
%TO.N,IMU_CS_IO06*%
X149957896Y-105470000D02*
X152030000Y-107542103D01*
X152030000Y-107542103D02*
X152030000Y-112320000D01*
X144000000Y-102310000D02*
X147160000Y-105470000D01*
X144000000Y-101300000D02*
X144000000Y-102310000D01*
X147160000Y-105470000D02*
X149957896Y-105470000D01*
X152030000Y-112320000D02*
X151370000Y-112980000D01*
%TO.N,BUZZER_IO07*%
X151324652Y-107826704D02*
X151324652Y-110965348D01*
X128074974Y-91580000D02*
X137324974Y-91580000D01*
X156080000Y-82390000D02*
X156080000Y-81060000D01*
X129480000Y-100395500D02*
X129754500Y-100670000D01*
X140910000Y-87535025D02*
X140899924Y-87524949D01*
X149175076Y-113114924D02*
X149175076Y-114150500D01*
X140899924Y-87524949D02*
X140899924Y-85520076D01*
X128100000Y-96650000D02*
X127240000Y-95790000D01*
X153970000Y-84500000D02*
X156080000Y-82390000D01*
X127240000Y-92414974D02*
X128074974Y-91580000D01*
X140910000Y-87994974D02*
X140910000Y-87535025D01*
X156080000Y-81060000D02*
X156120000Y-81020000D01*
X137324974Y-91580000D02*
X140910000Y-87994974D01*
X149667948Y-106170000D02*
X151324652Y-107826704D01*
X127240000Y-95790000D02*
X127240000Y-92414974D01*
X129754500Y-100670000D02*
X136160001Y-100670000D01*
X141660000Y-106170000D02*
X149667948Y-106170000D01*
X151324652Y-110965348D02*
X149175076Y-113114924D01*
X136160001Y-100670000D02*
X141660000Y-106170000D01*
X140899924Y-85520076D02*
X141920000Y-84500000D01*
X141920000Y-84500000D02*
X153970000Y-84500000D01*
D41*
%TO.N,unconnected-(U4-NC-Pad1)*%
X119920000Y-115195000D02*
X119920000Y-116445000D01*
%TO.N,unconnected-(U4-NC-Pad6)*%
X119995000Y-113340000D02*
X121065000Y-113340000D01*
D43*
%TO.N,Net-(ANT1-Pad1)*%
X143690000Y-123240000D02*
X143690000Y-125110000D01*
X143690000Y-125110000D02*
X143630000Y-125170000D01*
X143630000Y-125170000D02*
X142060000Y-125170000D01*
X142060000Y-125170000D02*
X141540000Y-124650000D01*
%TO.N,ESP_LNA_RF*%
X145755000Y-125170000D02*
X147965000Y-125170000D01*
X147965000Y-125170000D02*
X147990000Y-125145000D01*
X145755000Y-125170000D02*
X146550000Y-124375000D01*
X146550000Y-124375000D02*
X146550000Y-123700000D01*
D45*
%TO.N,/GND_220*%
X123670000Y-94120000D02*
X123730000Y-94180000D01*
X123670000Y-81110000D02*
X123670000Y-94120000D01*
D44*
X162460000Y-103852076D02*
X162460000Y-98462076D01*
X156029924Y-99712000D02*
X156029924Y-102519924D01*
X156029924Y-102519924D02*
X160422000Y-106912000D01*
X162460000Y-98462076D02*
X159089924Y-95092000D01*
X165163924Y-106912000D02*
X166398924Y-108147000D01*
D45*
X135750000Y-77720000D02*
X132430000Y-77720000D01*
D44*
X159089924Y-95092000D02*
X159089924Y-93594500D01*
D45*
X132410000Y-77700000D02*
X127080000Y-77700000D01*
D44*
X166398924Y-108147000D02*
X166398924Y-107791000D01*
X160422000Y-106912000D02*
X165163924Y-106912000D01*
X166398924Y-107791000D02*
X162460000Y-103852076D01*
D45*
X132430000Y-77720000D02*
X132410000Y-77700000D01*
X127080000Y-77700000D02*
X123670000Y-81110000D01*
%TD*%
%TA.AperFunction,Conductor*%
%TO.N,GND*%
G36*
X148650344Y-121186328D02*
G01*
X148929439Y-121465423D01*
X148934502Y-122349122D01*
X148934501Y-122349123D01*
X148936655Y-122725125D01*
X148917043Y-122793360D01*
X148863655Y-122840159D01*
X148793440Y-122850665D01*
X148728691Y-122821542D01*
X148721562Y-122814942D01*
X148697734Y-122791114D01*
X148697728Y-122791109D01*
X148551884Y-122701152D01*
X148389241Y-122647257D01*
X148389229Y-122647255D01*
X148288852Y-122637000D01*
X148244000Y-122637000D01*
X148244000Y-123723000D01*
X148223998Y-123791121D01*
X148170342Y-123837614D01*
X148118000Y-123849000D01*
X147862000Y-123849000D01*
X147793879Y-123828998D01*
X147747386Y-123775342D01*
X147736000Y-123723000D01*
X147736000Y-122637000D01*
X147691147Y-122637000D01*
X147590770Y-122647255D01*
X147590758Y-122647257D01*
X147428115Y-122701152D01*
X147282271Y-122791109D01*
X147282265Y-122791114D01*
X147161114Y-122912265D01*
X147161109Y-122912271D01*
X147071152Y-123058115D01*
X147068101Y-123067322D01*
X147027683Y-123125691D01*
X146962125Y-123152943D01*
X146892241Y-123140425D01*
X146889944Y-123139249D01*
X146783797Y-123083539D01*
X146783795Y-123083538D01*
X146783793Y-123083537D01*
X146783791Y-123083536D01*
X146783790Y-123083536D01*
X146629472Y-123045500D01*
X146629471Y-123045500D01*
X146470529Y-123045500D01*
X146470525Y-123045500D01*
X146354153Y-123074183D01*
X146283225Y-123071064D01*
X146225243Y-123030094D01*
X146198615Y-122964279D01*
X146198000Y-122951844D01*
X146198000Y-122941147D01*
X146187744Y-122840770D01*
X146187742Y-122840758D01*
X146133847Y-122678115D01*
X146043890Y-122532271D01*
X146043885Y-122532265D01*
X145922734Y-122411114D01*
X145922728Y-122411109D01*
X145776884Y-122321152D01*
X145614241Y-122267257D01*
X145614229Y-122267255D01*
X145513852Y-122257000D01*
X145494000Y-122257000D01*
X145494000Y-123368000D01*
X145473998Y-123436121D01*
X145420342Y-123482614D01*
X145368000Y-123494000D01*
X145112000Y-123494000D01*
X145043879Y-123473998D01*
X144997386Y-123420342D01*
X144986000Y-123368000D01*
X144986000Y-122257000D01*
X144966147Y-122257000D01*
X144865770Y-122267255D01*
X144865758Y-122267257D01*
X144703115Y-122321152D01*
X144557271Y-122411109D01*
X144557265Y-122411114D01*
X144436114Y-122532265D01*
X144436107Y-122532273D01*
X144403477Y-122585176D01*
X144350691Y-122632653D01*
X144280616Y-122644056D01*
X144220727Y-122619895D01*
X144147167Y-122564827D01*
X144147166Y-122564826D01*
X144115929Y-122553175D01*
X144017973Y-122516640D01*
X144010834Y-122515872D01*
X143960871Y-122510500D01*
X143960864Y-122510500D01*
X143419136Y-122510500D01*
X143419128Y-122510500D01*
X143362027Y-122516640D01*
X143232835Y-122564825D01*
X143122455Y-122647456D01*
X143084967Y-122697534D01*
X143028131Y-122740079D01*
X142983811Y-122748023D01*
X129967852Y-122718216D01*
X129965241Y-123316548D01*
X129944942Y-123384581D01*
X129921758Y-123411219D01*
X129915646Y-123416516D01*
X129910066Y-123421351D01*
X129895814Y-123436121D01*
X129877944Y-123454639D01*
X129831014Y-123544356D01*
X129831013Y-123544359D01*
X129811011Y-123612480D01*
X129800500Y-123685589D01*
X129800500Y-123685591D01*
X129800500Y-126503500D01*
X129780498Y-126571621D01*
X129726842Y-126618114D01*
X129674500Y-126629500D01*
X125563977Y-126629500D01*
X125495856Y-126609498D01*
X125449363Y-126555842D01*
X125437980Y-126504426D01*
X125398788Y-121156002D01*
X125418291Y-121087739D01*
X125471604Y-121040854D01*
X125525637Y-121029084D01*
X148650344Y-121186328D01*
G37*
%TD.AperFunction*%
%TD*%
%TA.AperFunction,Conductor*%
%TO.N,GND*%
G36*
X122337848Y-97130057D02*
G01*
X122405816Y-97150571D01*
X122451904Y-97204576D01*
X122461478Y-97274924D01*
X122431499Y-97339280D01*
X122385119Y-97372460D01*
X122257159Y-97425464D01*
X122257157Y-97425465D01*
X122257158Y-97425465D01*
X122257152Y-97425468D01*
X122131719Y-97521717D01*
X122131716Y-97521720D01*
X122110063Y-97549938D01*
X122104625Y-97556139D01*
X120671960Y-98988803D01*
X120609648Y-99022829D01*
X120596974Y-99024916D01*
X120570516Y-99027897D01*
X120510745Y-99034632D01*
X120510742Y-99034632D01*
X120510741Y-99034633D01*
X120340477Y-99094211D01*
X120340474Y-99094212D01*
X120187739Y-99190182D01*
X120187737Y-99190183D01*
X120060183Y-99317737D01*
X120060182Y-99317739D01*
X119964212Y-99470474D01*
X119964211Y-99470477D01*
X119964211Y-99470478D01*
X119904632Y-99640745D01*
X119884435Y-99820000D01*
X119904632Y-99999255D01*
X119904633Y-99999257D01*
X119964211Y-100169522D01*
X119964212Y-100169525D01*
X120060182Y-100322260D01*
X120060183Y-100322262D01*
X120187737Y-100449816D01*
X120187739Y-100449817D01*
X120244748Y-100485638D01*
X120340478Y-100545789D01*
X120347140Y-100548120D01*
X120404832Y-100589499D01*
X120430994Y-100655500D01*
X120417320Y-100725167D01*
X120394619Y-100756144D01*
X119271139Y-101879625D01*
X119264938Y-101885063D01*
X119236718Y-101906717D01*
X119203055Y-101950589D01*
X119140465Y-102032157D01*
X119140463Y-102032160D01*
X119079955Y-102178239D01*
X119059317Y-102334998D01*
X119059318Y-102335000D01*
X119063960Y-102370273D01*
X119064499Y-102378490D01*
X119064499Y-105932322D01*
X119044497Y-106000443D01*
X119027594Y-106021417D01*
X118133503Y-106915508D01*
X118071191Y-106949534D01*
X118002801Y-106945345D01*
X117998069Y-106943689D01*
X117998062Y-106943688D01*
X117998061Y-106943687D01*
X117998059Y-106943687D01*
X117830000Y-106924751D01*
X117829999Y-106924751D01*
X117805554Y-106927505D01*
X117661941Y-106943687D01*
X117661938Y-106943687D01*
X117661938Y-106943688D01*
X117502310Y-106999543D01*
X117405981Y-107060071D01*
X117359110Y-107089523D01*
X117359108Y-107089524D01*
X117359106Y-107089526D01*
X117359105Y-107089526D01*
X117239526Y-107209105D01*
X117239526Y-107209106D01*
X117149543Y-107352310D01*
X117093688Y-107511938D01*
X117093687Y-107511941D01*
X117074751Y-107680000D01*
X117093687Y-107848059D01*
X117149544Y-108007690D01*
X117149545Y-108007692D01*
X117195899Y-108081464D01*
X117215205Y-108149785D01*
X117194510Y-108217698D01*
X117140383Y-108263641D01*
X117089212Y-108274500D01*
X115799700Y-108274500D01*
X115772916Y-108271620D01*
X115769299Y-108270833D01*
X115769295Y-108270833D01*
X115720277Y-108274339D01*
X115715781Y-108274500D01*
X115701015Y-108274500D01*
X115692285Y-108275754D01*
X115686396Y-108276601D01*
X115681929Y-108277081D01*
X115632911Y-108280588D01*
X115632905Y-108280590D01*
X115629430Y-108281886D01*
X115603362Y-108288539D01*
X115599688Y-108289067D01*
X115599685Y-108289068D01*
X115554987Y-108309481D01*
X115550838Y-108311199D01*
X115541472Y-108314692D01*
X115504800Y-108328370D01*
X115504797Y-108328372D01*
X115501819Y-108330601D01*
X115478685Y-108344327D01*
X115475310Y-108345868D01*
X115475306Y-108345871D01*
X115438174Y-108378045D01*
X115434676Y-108380864D01*
X115422847Y-108389719D01*
X115412393Y-108400172D01*
X115409107Y-108403230D01*
X115371973Y-108435408D01*
X115371967Y-108435415D01*
X115369962Y-108438535D01*
X115353066Y-108459499D01*
X114882833Y-108929732D01*
X114820521Y-108963758D01*
X114757135Y-108961203D01*
X114673819Y-108935909D01*
X114651012Y-108926457D01*
X114500108Y-108845772D01*
X114479581Y-108832055D01*
X114347299Y-108723487D01*
X114329843Y-108706031D01*
X114221269Y-108573753D01*
X114207550Y-108553227D01*
X114146220Y-108438535D01*
X114126853Y-108402317D01*
X114117406Y-108379523D01*
X114067682Y-108215768D01*
X114062860Y-108191563D01*
X114060135Y-108164001D01*
X114045608Y-108017065D01*
X114045304Y-108010929D01*
X114041107Y-98073565D01*
X114041408Y-98067416D01*
X114058711Y-97891869D01*
X114063566Y-97867534D01*
X114113697Y-97702907D01*
X114123227Y-97680002D01*
X114204663Y-97528399D01*
X114218498Y-97507808D01*
X114328083Y-97375107D01*
X114345686Y-97357628D01*
X114479164Y-97248989D01*
X114499842Y-97235307D01*
X114652030Y-97154946D01*
X114675005Y-97145579D01*
X114839984Y-97096620D01*
X114864345Y-97091939D01*
X115045047Y-97075423D01*
X115051225Y-97075165D01*
X122337848Y-97130057D01*
G37*
%TD.AperFunction*%
%TA.AperFunction,Conductor*%
G36*
X124205026Y-100376571D02*
G01*
X124261862Y-100419118D01*
X124286673Y-100485638D01*
X124286992Y-100495323D01*
X124283545Y-101119196D01*
X124263167Y-101187205D01*
X124209255Y-101233401D01*
X124157547Y-101244500D01*
X123854725Y-101244500D01*
X123827941Y-101241620D01*
X123824324Y-101240833D01*
X123824320Y-101240832D01*
X123775298Y-101244339D01*
X123770801Y-101244500D01*
X123756039Y-101244500D01*
X123741425Y-101246600D01*
X123736958Y-101247080D01*
X123687934Y-101250588D01*
X123684456Y-101251885D01*
X123658372Y-101258542D01*
X123654712Y-101259068D01*
X123654710Y-101259068D01*
X123654709Y-101259069D01*
X123610014Y-101279479D01*
X123605866Y-101281197D01*
X123559828Y-101298369D01*
X123559820Y-101298373D01*
X123556844Y-101300601D01*
X123533710Y-101314327D01*
X123530335Y-101315868D01*
X123530331Y-101315871D01*
X123493199Y-101348045D01*
X123489701Y-101350864D01*
X123477872Y-101359719D01*
X123467418Y-101370172D01*
X123464131Y-101373231D01*
X123434130Y-101399228D01*
X123429655Y-101401271D01*
X123424988Y-101408533D01*
X123408091Y-101429499D01*
X121180595Y-103656996D01*
X121118283Y-103691021D01*
X121047468Y-103685957D01*
X120990632Y-103643410D01*
X120965821Y-103576890D01*
X120965500Y-103567901D01*
X120965500Y-103564122D01*
X120985502Y-103496001D01*
X121002400Y-103475032D01*
X123236701Y-101240731D01*
X123245648Y-101235845D01*
X123262513Y-101214919D01*
X124071903Y-100405529D01*
X124134211Y-100371506D01*
X124205026Y-100376571D01*
G37*
%TD.AperFunction*%
%TD*%
%TA.AperFunction,Conductor*%
%TO.N,GND3*%
G36*
X133401956Y-123550527D02*
G01*
X133448932Y-123603760D01*
X133460794Y-123656344D01*
X133470025Y-125123975D01*
X133478696Y-126502709D01*
X133459123Y-126570953D01*
X133405761Y-126617782D01*
X133352699Y-126629500D01*
X130186000Y-126629500D01*
X130117879Y-126609498D01*
X130071386Y-126555842D01*
X130060000Y-126503500D01*
X130060000Y-123685589D01*
X130080002Y-123617468D01*
X130133658Y-123570975D01*
X130184859Y-123559594D01*
X130958362Y-123552605D01*
X131026660Y-123571991D01*
X131073636Y-123625224D01*
X131085500Y-123678600D01*
X131085500Y-125725063D01*
X131085501Y-125725073D01*
X131100265Y-125799300D01*
X131156516Y-125883484D01*
X131240697Y-125939733D01*
X131240699Y-125939734D01*
X131314933Y-125954500D01*
X132765066Y-125954499D01*
X132765069Y-125954498D01*
X132765073Y-125954498D01*
X132814326Y-125944701D01*
X132839301Y-125939734D01*
X132923484Y-125883484D01*
X132979734Y-125799301D01*
X132994500Y-125725067D01*
X132994499Y-123659071D01*
X133014501Y-123590951D01*
X133068157Y-123544458D01*
X133119356Y-123533078D01*
X133333660Y-123531141D01*
X133401956Y-123550527D01*
G37*
%TD.AperFunction*%
%TD*%
%TA.AperFunction,Conductor*%
%TO.N,GND*%
G36*
X140562216Y-115874401D02*
G01*
X140611530Y-115904861D01*
X141045908Y-116339239D01*
X141079934Y-116401551D01*
X141081736Y-116444775D01*
X141078992Y-116465624D01*
X141078992Y-116465626D01*
X141098048Y-116610377D01*
X141153921Y-116745266D01*
X141153926Y-116745274D01*
X141242802Y-116861099D01*
X141358627Y-116949975D01*
X141358634Y-116949980D01*
X141493523Y-117005853D01*
X141638277Y-117024910D01*
X141638279Y-117024910D01*
X141647110Y-117023746D01*
X141665609Y-117021311D01*
X141735757Y-117032247D01*
X141771154Y-117057137D01*
X142494894Y-117780877D01*
X142498597Y-117784918D01*
X142524934Y-117816305D01*
X142560411Y-117836787D01*
X142565042Y-117839738D01*
X142598599Y-117863235D01*
X142598601Y-117863235D01*
X142603663Y-117865596D01*
X142620308Y-117872491D01*
X142625562Y-117874403D01*
X142625566Y-117874405D01*
X142665925Y-117881520D01*
X142671252Y-117882701D01*
X142710840Y-117893310D01*
X142751646Y-117889739D01*
X142757132Y-117889500D01*
X147862868Y-117889500D01*
X147868353Y-117889739D01*
X147909160Y-117893310D01*
X147948735Y-117882705D01*
X147954073Y-117881520D01*
X147994434Y-117874405D01*
X147994435Y-117874404D01*
X147994437Y-117874404D01*
X147999699Y-117872488D01*
X148016322Y-117865603D01*
X148021398Y-117863235D01*
X148021401Y-117863235D01*
X148054973Y-117839726D01*
X148059573Y-117836796D01*
X148095066Y-117816305D01*
X148121403Y-117784916D01*
X148125095Y-117780886D01*
X148376413Y-117529568D01*
X148438723Y-117495544D01*
X148481947Y-117493743D01*
X148600000Y-117509285D01*
X148744754Y-117490228D01*
X148879643Y-117434355D01*
X148995474Y-117345474D01*
X149084355Y-117229643D01*
X149140228Y-117094754D01*
X149159285Y-116950000D01*
X149153697Y-116907558D01*
X149152436Y-116897976D01*
X149163375Y-116827827D01*
X149210504Y-116774729D01*
X149278857Y-116755539D01*
X149346735Y-116776350D01*
X149366448Y-116792431D01*
X149919492Y-117345474D01*
X150843595Y-118269577D01*
X150877621Y-118331889D01*
X150880500Y-118358672D01*
X150880500Y-118912867D01*
X150880260Y-118918360D01*
X150876690Y-118959158D01*
X150876690Y-118959165D01*
X150887290Y-118998725D01*
X150888480Y-119004091D01*
X150895593Y-119044430D01*
X150897498Y-119049664D01*
X150904416Y-119066367D01*
X150906762Y-119071397D01*
X150906765Y-119071401D01*
X150922861Y-119094389D01*
X150930258Y-119104952D01*
X150933212Y-119109589D01*
X150952860Y-119143620D01*
X150953696Y-119145067D01*
X150985073Y-119171395D01*
X150989116Y-119175099D01*
X152495178Y-120681161D01*
X153702883Y-121888866D01*
X153736909Y-121951178D01*
X153739788Y-121977859D01*
X153739993Y-122231945D01*
X153720046Y-122300082D01*
X153666428Y-122346618D01*
X153613753Y-122358047D01*
X152784295Y-122356465D01*
X152716212Y-122336333D01*
X152695440Y-122319560D01*
X149556405Y-119180524D01*
X149522379Y-119118212D01*
X149519500Y-119091429D01*
X149519500Y-118758233D01*
X149539502Y-118690112D01*
X149568795Y-118658272D01*
X149585474Y-118645474D01*
X149674355Y-118529643D01*
X149730228Y-118394754D01*
X149749285Y-118250000D01*
X149730228Y-118105246D01*
X149674355Y-117970358D01*
X149585474Y-117854526D01*
X149585472Y-117854524D01*
X149585471Y-117854523D01*
X149469649Y-117765649D01*
X149469641Y-117765644D01*
X149334752Y-117709771D01*
X149190000Y-117690715D01*
X149045247Y-117709771D01*
X148993611Y-117731160D01*
X148910358Y-117765645D01*
X148910357Y-117765646D01*
X148910356Y-117765646D01*
X148794526Y-117854526D01*
X148705646Y-117970356D01*
X148705645Y-117970358D01*
X148681521Y-118028599D01*
X148649771Y-118105247D01*
X148630715Y-118249999D01*
X148630715Y-118250000D01*
X148649771Y-118394752D01*
X148705644Y-118529641D01*
X148705649Y-118529649D01*
X148794523Y-118645471D01*
X148794524Y-118645472D01*
X148794526Y-118645474D01*
X148811203Y-118658270D01*
X148853070Y-118715605D01*
X148860500Y-118758233D01*
X148860500Y-119170378D01*
X148840498Y-119238499D01*
X148786842Y-119284992D01*
X148716568Y-119295096D01*
X148651988Y-119265602D01*
X148645405Y-119259474D01*
X148245880Y-118859949D01*
X147825052Y-118439121D01*
X147821348Y-118435079D01*
X147795014Y-118403695D01*
X147759537Y-118383212D01*
X147754905Y-118380261D01*
X147733161Y-118365036D01*
X147721345Y-118356762D01*
X147716315Y-118354416D01*
X147699612Y-118347498D01*
X147694378Y-118345593D01*
X147654039Y-118338480D01*
X147648673Y-118337290D01*
X147609112Y-118326690D01*
X147609106Y-118326690D01*
X147597357Y-118327718D01*
X147568300Y-118330260D01*
X147562816Y-118330500D01*
X139718673Y-118330500D01*
X139650552Y-118310498D01*
X139629578Y-118293595D01*
X138191262Y-116855279D01*
X138157236Y-116792967D01*
X138155435Y-116749740D01*
X138159285Y-116720500D01*
X138140228Y-116575746D01*
X138097965Y-116473717D01*
X138090377Y-116403129D01*
X138122156Y-116339642D01*
X138183214Y-116303414D01*
X138214375Y-116299500D01*
X139228050Y-116299500D01*
X139296171Y-116319502D01*
X139342664Y-116373158D01*
X139344446Y-116377251D01*
X139380645Y-116464643D01*
X139380647Y-116464646D01*
X139380649Y-116464649D01*
X139469525Y-116580474D01*
X139585350Y-116669350D01*
X139585357Y-116669355D01*
X139720246Y-116725228D01*
X139865000Y-116744285D01*
X140009754Y-116725228D01*
X140144643Y-116669355D01*
X140260474Y-116580474D01*
X140349355Y-116464643D01*
X140405228Y-116329754D01*
X140424285Y-116185000D01*
X140405228Y-116040246D01*
X140405228Y-116040245D01*
X140403090Y-116032267D01*
X140404910Y-116031779D01*
X140398435Y-115971595D01*
X140430209Y-115908105D01*
X140491264Y-115871873D01*
X140562216Y-115874401D01*
G37*
%TD.AperFunction*%
%TA.AperFunction,Conductor*%
G36*
X135314578Y-102769502D02*
G01*
X135335551Y-102786404D01*
X140690029Y-108140883D01*
X140693734Y-108144926D01*
X140720064Y-108176305D01*
X140755528Y-108196780D01*
X140760163Y-108199734D01*
X140783801Y-108216283D01*
X140793729Y-108223235D01*
X140793731Y-108223235D01*
X140798779Y-108225590D01*
X140815448Y-108232494D01*
X140820692Y-108234403D01*
X140820696Y-108234405D01*
X140861055Y-108241520D01*
X140866382Y-108242701D01*
X140905970Y-108253310D01*
X140933063Y-108250939D01*
X140946784Y-108249740D01*
X140952276Y-108249500D01*
X147601327Y-108249500D01*
X147669448Y-108269502D01*
X147690422Y-108286405D01*
X147744802Y-108340785D01*
X147778828Y-108403097D01*
X147773763Y-108473912D01*
X147731216Y-108530748D01*
X147703927Y-108546288D01*
X147565914Y-108603456D01*
X147565909Y-108603459D01*
X147450079Y-108692339D01*
X147361197Y-108808172D01*
X147361196Y-108808173D01*
X147340060Y-108859200D01*
X147312747Y-108900075D01*
X147270564Y-108942258D01*
X147249600Y-108959154D01*
X147245447Y-108961823D01*
X147245441Y-108961828D01*
X147210865Y-109001730D01*
X147207802Y-109005021D01*
X147196490Y-109016333D01*
X147196485Y-109016339D01*
X147186905Y-109029138D01*
X147184083Y-109032639D01*
X147149499Y-109072551D01*
X147149494Y-109072559D01*
X147147445Y-109077046D01*
X147133711Y-109100196D01*
X147130750Y-109104151D01*
X147130747Y-109104156D01*
X147112293Y-109153632D01*
X147110573Y-109157783D01*
X147088636Y-109205823D01*
X147088635Y-109205827D01*
X147087932Y-109210715D01*
X147081277Y-109236787D01*
X147079551Y-109241414D01*
X147079549Y-109241425D01*
X147075782Y-109294100D01*
X147075301Y-109298570D01*
X147073025Y-109314400D01*
X147073025Y-109330399D01*
X147072864Y-109334895D01*
X147069097Y-109387559D01*
X147069098Y-109387560D01*
X147070145Y-109392373D01*
X147073025Y-109419159D01*
X147073025Y-112009292D01*
X147053023Y-112077413D01*
X147036120Y-112098387D01*
X143918388Y-115216120D01*
X143856076Y-115250146D01*
X143829293Y-115253025D01*
X142845756Y-115253025D01*
X142777635Y-115233023D01*
X142756661Y-115216120D01*
X142147515Y-114606974D01*
X141535033Y-113994491D01*
X141518128Y-113973514D01*
X141515462Y-113969366D01*
X141475552Y-113934783D01*
X141472260Y-113931718D01*
X141460961Y-113920418D01*
X141460957Y-113920414D01*
X141453691Y-113914975D01*
X141448148Y-113910826D01*
X141444649Y-113908007D01*
X141404737Y-113873422D01*
X141400252Y-113871374D01*
X141377081Y-113857626D01*
X141373138Y-113854674D01*
X141323652Y-113836216D01*
X141319498Y-113834495D01*
X141271470Y-113812561D01*
X141269713Y-113812308D01*
X141266578Y-113811857D01*
X141240492Y-113805198D01*
X141238155Y-113804327D01*
X141235866Y-113803473D01*
X141235862Y-113803472D01*
X141191887Y-113800327D01*
X141183186Y-113799705D01*
X141178721Y-113799225D01*
X141162889Y-113796949D01*
X141162886Y-113796949D01*
X141146890Y-113796949D01*
X141142394Y-113796788D01*
X141089730Y-113793021D01*
X141089729Y-113793022D01*
X141089728Y-113793022D01*
X141084913Y-113794069D01*
X141058131Y-113796949D01*
X140169861Y-113796949D01*
X140161629Y-113796409D01*
X140114001Y-113790139D01*
X140114000Y-113790139D01*
X139969247Y-113809195D01*
X139926599Y-113826861D01*
X139834358Y-113865069D01*
X139834357Y-113865070D01*
X139834356Y-113865070D01*
X139774718Y-113910832D01*
X139718526Y-113953950D01*
X139705727Y-113970628D01*
X139648391Y-114012495D01*
X139605766Y-114019924D01*
X136037710Y-114019924D01*
X136032218Y-114019684D01*
X135991415Y-114016115D01*
X135991414Y-114016115D01*
X135951848Y-114026716D01*
X135946483Y-114027905D01*
X135906144Y-114035018D01*
X135900907Y-114036924D01*
X135884217Y-114043837D01*
X135879175Y-114046188D01*
X135845620Y-114069683D01*
X135840986Y-114072635D01*
X135805513Y-114093116D01*
X135805506Y-114093121D01*
X135779174Y-114124503D01*
X135775460Y-114128556D01*
X134337982Y-115566033D01*
X134275670Y-115600059D01*
X134265336Y-115601860D01*
X134205247Y-115609771D01*
X134155755Y-115630272D01*
X134070358Y-115665645D01*
X134070357Y-115665646D01*
X134070356Y-115665646D01*
X133954526Y-115754526D01*
X133865646Y-115870356D01*
X133865645Y-115870358D01*
X133850741Y-115906340D01*
X133809771Y-116005247D01*
X133790715Y-116149999D01*
X133790715Y-116150000D01*
X133809771Y-116294752D01*
X133865644Y-116429641D01*
X133865649Y-116429649D01*
X133954525Y-116545474D01*
X134070350Y-116634350D01*
X134070357Y-116634355D01*
X134205246Y-116690228D01*
X134350000Y-116709285D01*
X134494754Y-116690228D01*
X134629643Y-116634355D01*
X134745474Y-116545474D01*
X134834355Y-116429643D01*
X134890228Y-116294754D01*
X134909285Y-116150000D01*
X134909095Y-116148560D01*
X134891417Y-116014278D01*
X134902356Y-115944129D01*
X134927241Y-115908740D01*
X135018900Y-115817081D01*
X135081210Y-115783057D01*
X135152025Y-115788122D01*
X135208861Y-115830669D01*
X135233672Y-115897189D01*
X135224402Y-115954396D01*
X135194848Y-116025745D01*
X135194847Y-116025746D01*
X135175791Y-116170499D01*
X135175791Y-116170500D01*
X135194847Y-116315252D01*
X135250720Y-116450141D01*
X135250725Y-116450149D01*
X135339599Y-116565971D01*
X135339600Y-116565972D01*
X135339602Y-116565974D01*
X135356279Y-116578770D01*
X135398146Y-116636105D01*
X135405576Y-116678733D01*
X135405576Y-116747943D01*
X135405336Y-116753428D01*
X135404696Y-116760745D01*
X135401766Y-116794234D01*
X135401766Y-116794241D01*
X135412366Y-116833801D01*
X135413556Y-116839167D01*
X135420669Y-116879506D01*
X135422574Y-116884740D01*
X135429492Y-116901443D01*
X135431838Y-116906473D01*
X135455334Y-116940028D01*
X135458288Y-116944665D01*
X135478771Y-116980142D01*
X135505914Y-117002918D01*
X135510149Y-117006471D01*
X135514192Y-117010175D01*
X138084899Y-119580883D01*
X138088604Y-119584926D01*
X138114934Y-119616305D01*
X138150398Y-119636780D01*
X138155033Y-119639734D01*
X138178671Y-119656283D01*
X138188599Y-119663235D01*
X138188601Y-119663235D01*
X138193649Y-119665590D01*
X138210318Y-119672494D01*
X138215562Y-119674403D01*
X138215566Y-119674405D01*
X138255925Y-119681520D01*
X138261252Y-119682701D01*
X138300840Y-119693310D01*
X138327933Y-119690939D01*
X138341654Y-119689740D01*
X138347146Y-119689500D01*
X147101327Y-119689500D01*
X147169448Y-119709502D01*
X147190422Y-119726405D01*
X149599141Y-122135125D01*
X149633167Y-122197437D01*
X149628102Y-122268253D01*
X149585555Y-122325088D01*
X149519035Y-122349899D01*
X149509806Y-122350220D01*
X148937992Y-122349129D01*
X148934502Y-122349123D01*
X145812579Y-122343169D01*
X145776884Y-122321152D01*
X145614241Y-122267257D01*
X145614229Y-122267255D01*
X145513852Y-122257000D01*
X145494000Y-122257000D01*
X145494000Y-122342561D01*
X144986000Y-122341592D01*
X144986000Y-122257000D01*
X144966147Y-122257000D01*
X144865770Y-122267255D01*
X144865758Y-122267257D01*
X144703115Y-122321152D01*
X144670949Y-122340991D01*
X133513169Y-122319713D01*
X133505823Y-121083347D01*
X133497541Y-119689500D01*
X133457201Y-112899860D01*
X133397646Y-102876249D01*
X133417243Y-102808010D01*
X133470622Y-102761199D01*
X133523644Y-102749500D01*
X135246457Y-102749500D01*
X135314578Y-102769502D01*
G37*
%TD.AperFunction*%
%TD*%
D46*
X116034099Y-112111772D02*
X116052969Y-116354114D01*
X119467398Y-96819625D02*
X123278973Y-96819625D01*
X116053012Y-116354114D02*
G75*
G03*
X116483456Y-116764113I410688J214D01*
G01*
X122643533Y-112108968D02*
G75*
G03*
X122213106Y-111698969I-410133J368D01*
G01*
X132940932Y-89712067D02*
X132942993Y-85047165D01*
X149889022Y-101804022D02*
X149889022Y-99544022D01*
X130898425Y-96270000D02*
X134710000Y-96270000D01*
X141378425Y-96500871D02*
X145190000Y-96500871D01*
X119427398Y-96128754D02*
X123318973Y-96128754D01*
X138248899Y-75119216D02*
G75*
G03*
X137607176Y-75489714I-320899J-185184D01*
G01*
X148051575Y-93570000D02*
G75*
G03*
X147448425Y-93570000I-301575J0D01*
G01*
X121850193Y-112910000D02*
G75*
G03*
X121419756Y-112500002I-410293J200D01*
G01*
X133353969Y-90125104D02*
X136833969Y-90125975D01*
X117208950Y-93888754D02*
G75*
G03*
X119427398Y-96128754I2218450J-21446D01*
G01*
X114049965Y-120229930D02*
X114031486Y-76477000D01*
X132547381Y-104575763D02*
G75*
G03*
X124716477Y-104407324I-4057381J-6514237D01*
G01*
X141338425Y-95810000D02*
X145230000Y-95810000D01*
X130858425Y-95579129D02*
X134750000Y-95579129D01*
X159100000Y-109651080D02*
X154100000Y-109640000D01*
X124716477Y-104407324D02*
X124716477Y-117977196D01*
X117263698Y-112493958D02*
X121419756Y-112500001D01*
X116843168Y-115784446D02*
G75*
G03*
X117273699Y-116194445I410532J46D01*
G01*
X128063037Y-70017000D02*
G75*
G03*
X127650000Y-70430000I-37J-413000D01*
G01*
X153185000Y-104375978D02*
X151475000Y-102660000D01*
X122240273Y-116774315D02*
X121440275Y-116774758D01*
X154930000Y-106070000D02*
X154930000Y-108900000D01*
X150770978Y-103004022D02*
X152660978Y-104900000D01*
X136833969Y-90125905D02*
G75*
G03*
X136833969Y-89384895I-69J370505D01*
G01*
X138781907Y-84636044D02*
G75*
G03*
X139194944Y-84223042I-7J413044D01*
G01*
X117273699Y-116768755D02*
G75*
G03*
X117273699Y-116194445I1J287155D01*
G01*
X126140548Y-93888754D02*
G75*
G03*
X125537398Y-93888754I-301575J0D01*
G01*
X139120003Y-93570000D02*
G75*
G03*
X141338425Y-95810000I2218497J-21400D01*
G01*
X150935000Y-102120000D02*
X150205000Y-102120000D01*
X134106031Y-85375104D02*
X139591907Y-85376079D01*
X126898920Y-75336963D02*
G75*
G03*
X127640000Y-75336963I370540J0D01*
G01*
X154110000Y-106280000D02*
X154100000Y-109640000D01*
X134106031Y-89395104D02*
X136833969Y-89384895D01*
X140003969Y-78255104D02*
X138248970Y-75119175D01*
X137571575Y-93339129D02*
G75*
G03*
X136968425Y-93339129I-301575J0D01*
G01*
X133356030Y-84634093D02*
G75*
G03*
X132942993Y-85047165I70J-413107D01*
G01*
X128640075Y-93339130D02*
G75*
G03*
X130858425Y-95579129I2218425J-21470D01*
G01*
X133692994Y-88982067D02*
X133692994Y-85788141D01*
X132547381Y-118145635D02*
X132547381Y-104575763D01*
X126903000Y-70403037D02*
G75*
G03*
X126490000Y-69990000I-413000J37D01*
G01*
X149889022Y-99544022D02*
G75*
G03*
X149147942Y-99544022I-370540J0D01*
G01*
X123278973Y-96819607D02*
G75*
G03*
X126140548Y-93888754I-23673J2885507D01*
G01*
X138516788Y-93569999D02*
G75*
G03*
X141378425Y-96500871I2885312J-45301D01*
G01*
X139194944Y-84223042D02*
X139213969Y-78315104D01*
X168031605Y-76476965D02*
G75*
G03*
X161631486Y-70076895I-6400005J65D01*
G01*
X139213969Y-78315104D02*
X137607175Y-75489714D01*
X120431556Y-70076930D02*
X120597938Y-70076930D01*
X122240273Y-116774368D02*
G75*
G03*
X122650272Y-116343828I127J410368D01*
G01*
X126490000Y-69990000D02*
X122160000Y-69990000D01*
X139120000Y-93570000D02*
G75*
G03*
X138516850Y-93570000I-301575J0D01*
G01*
X127650000Y-70430000D02*
X127640000Y-75336963D01*
X134750000Y-95579128D02*
G75*
G03*
X136968424Y-93339129I0J2218528D01*
G01*
X168140070Y-120229930D02*
X168031556Y-76476965D01*
X132940896Y-89712067D02*
G75*
G03*
X133353969Y-90125104I413104J67D01*
G01*
X145230000Y-95810029D02*
G75*
G03*
X147448425Y-93570000I0J2218529D01*
G01*
X122649754Y-116343828D02*
X122643593Y-112108968D01*
X123318973Y-96128701D02*
G75*
G03*
X125537397Y-93888754I27J2218501D01*
G01*
X117208973Y-93888754D02*
G75*
G03*
X116605823Y-93888754I-301575J0D01*
G01*
X122160000Y-69989963D02*
G75*
G03*
X121746963Y-70403037I0J-413037D01*
G01*
X140004944Y-84963042D02*
X140003969Y-78255104D01*
X150770978Y-103004022D02*
X149895000Y-103001080D01*
X120431556Y-70076886D02*
G75*
G03*
X114031486Y-76477000I44J-6400114D01*
G01*
X116483456Y-116764113D02*
X117273699Y-116768716D01*
X149147942Y-102254022D02*
X149895000Y-103001080D01*
X128063037Y-70016963D02*
X161631486Y-70076895D01*
X116843212Y-115784446D02*
X116853699Y-112924445D01*
X117263698Y-112494005D02*
G75*
G03*
X116853700Y-112924445I-198J-410295D01*
G01*
X121005883Y-76300000D02*
G75*
G03*
X121746963Y-76300000I370540J0D01*
G01*
X151475000Y-102660000D02*
X150935000Y-102120000D01*
X134710000Y-96270034D02*
G75*
G03*
X137571574Y-93339129I-23700J2885534D01*
G01*
X145190001Y-96500935D02*
G75*
G03*
X148051575Y-93570000I-23701J2885535D01*
G01*
X133692996Y-88982067D02*
G75*
G03*
X134106031Y-89395104I413104J67D01*
G01*
X134106031Y-85375094D02*
G75*
G03*
X133692994Y-85788141I-31J-413006D01*
G01*
X121440275Y-116200442D02*
G75*
G03*
X121440275Y-116774758I25J-287158D01*
G01*
X138781907Y-84636079D02*
X133356030Y-84634128D01*
X161740000Y-126630000D02*
X120450035Y-126630000D01*
X128640000Y-93339129D02*
G75*
G03*
X128036850Y-93339129I-301575J0D01*
G01*
X150205000Y-102120000D02*
X149889022Y-101804022D01*
X159100000Y-109651000D02*
G75*
G03*
X159100000Y-108910000I0J370500D01*
G01*
X122213106Y-111698969D02*
X116444098Y-111681285D01*
X116444098Y-111681308D02*
G75*
G03*
X116034099Y-112111772I-98J-410392D01*
G01*
X116605834Y-93888754D02*
G75*
G03*
X119467398Y-96819625I2885266J-45346D01*
G01*
X152660978Y-104900000D02*
X154110000Y-106280000D01*
X121849756Y-115770000D02*
X121850243Y-112910000D01*
X149147942Y-99544022D02*
X149147942Y-102254022D01*
X121010975Y-70489967D02*
X121005883Y-76300000D01*
X121010970Y-70489967D02*
G75*
G03*
X120597938Y-70076930I-413070J-33D01*
G01*
X126903037Y-70403037D02*
X126898920Y-75336963D01*
X124716500Y-117977159D02*
G75*
G03*
X132547381Y-118145635I4057400J6514159D01*
G01*
X114050000Y-120229930D02*
G75*
G03*
X120450035Y-126630000I6400200J130D01*
G01*
X139591907Y-85376044D02*
G75*
G03*
X140004944Y-84963042I-7J413044D01*
G01*
X161740000Y-126630000D02*
G75*
G03*
X168140070Y-120229930I30J6400040D01*
G01*
X128036860Y-93339129D02*
G75*
G03*
X130898425Y-96270000I2885240J-45371D01*
G01*
X121440275Y-116200461D02*
G75*
G03*
X121850273Y-115770000I25J410461D01*
G01*
X121746963Y-70403037D02*
X121746963Y-76300000D01*
X153185000Y-104375978D02*
X154930000Y-106070000D01*
X154930000Y-108900000D02*
X159100000Y-108910000D01*
M02*
