M48
; DRILL file {KiCad 7.0.6} date Thu Jul 20 17:02:36 2023
; FORMAT={-:-/ absolute / inch / decimal}
; #@! TF.CreationDate,2023-07-20T17:02:36+02:00
; #@! TF.GenerationSoftware,Kicad,Pcbnew,7.0.6
; #@! TF.FileFunction,Plated,1,2,PTH
FMAT,2
INCH
; #@! TA.AperFunction,Plated,PTH,ViaDrill
T1C0.0157
; #@! TA.AperFunction,Plated,PTH,ComponentDrill
T2C0.0236
; #@! TA.AperFunction,Plated,PTH,ComponentDrill
T3C0.0394
; #@! TA.AperFunction,Plated,PTH,ComponentDrill
T4C0.0398
; #@! TA.AperFunction,Plated,PTH,ComponentDrill
T5C0.0433
; #@! TA.AperFunction,Plated,PTH,ComponentDrill
T6C0.0512
; #@! TA.AperFunction,Plated,PTH,ComponentDrill
T7C0.0614
%
G90
G05
T1
X4.5165Y-3.7579
X4.6Y-4.6325
X4.613Y-4.0213
X4.639Y-4.2394
X4.6539Y-4.3264
X4.6823Y-4.5787
X4.7008Y-3.9134
X4.7339Y-4.6673
X4.7516Y-3.9299
X4.9067Y-3.9571
X4.9508Y-3.9626
X4.9874Y-3.8055
X5.0433Y-3.8051
X5.0524Y-3.9664
X5.0976Y-3.9526
X5.2177Y-3.9339
X5.2894Y-4.5728
X5.3008Y-3.0213
X5.3157Y-3.0567
X5.3386Y-3.0264
X5.3439Y-4.5736
X5.3453Y-3.0886
X5.3748Y-3.0547
X5.3894Y-3.0976
X5.4173Y-4.5953
X5.4543Y-4.0118
X5.472Y-3.9657
X5.4972Y-4.6213
X5.5065Y-4.5742
X5.5116Y-3.9496
X5.5163Y-4.5019
X5.5248Y-3.8835
X5.5335Y-3.0083
X5.5339Y-3.9909
X5.5763Y-4.5853
X5.6142Y-4.4636
X5.6205Y-4.3664
X5.627Y-3.1182
X5.6539Y-4.5049
X5.6642Y-4.1083
X5.6654Y-4.0693
X5.6679Y-4.4118
X5.6693Y-3.9882
X5.6705Y-3.9189
X5.6728Y-4.6026
X5.674Y-4.3286
X5.678Y-3.8883
X5.6907Y-3.0493
X5.7071Y-4.4561
X5.7158Y-4.364
X5.7571Y-4.4026
X5.7697Y-4.8701
X5.8207Y-4.2948
X5.8272Y-3.052
X5.8374Y-4.8173
X5.848Y-4.5669
X5.8504Y-4.6043
X5.8559Y-4.3063
X5.873Y-4.4941
X5.8736Y-4.6555
X5.8758Y-4.1049
X5.8789Y-4.4087
X5.8817Y-4.3749
X5.8846Y-4.2736
X5.8847Y-4.3435
X5.9114Y-4.4886
X5.915Y-4.4504
X5.9193Y-4.6606
X5.9594Y-4.448
X5.9965Y-4.6656
X6.0307Y-3.293
X6.0335Y-4.8091
X6.0917Y-4.3642
X6.1259Y-4.4603
X6.1465Y-3.1898
X6.2689Y-4.4197
X6.2705Y-4.5732
X6.2827Y-4.5
X6.3374Y-4.6819
T2
X5.9457Y-3.9765
X6.1425Y-3.9253
T3
X4.6553Y-2.8959
X5.1278Y-2.8959
X5.3552Y-2.8513
X5.3552Y-3.4576
X6.1571Y-4.2417
X6.2633Y-3.6789
X6.2653Y-3.9991
X6.5127Y-3.056
X6.5127Y-3.2528
X6.5408Y-3.682
X6.5435Y-4.002
X6.5508Y-4.2417
T4
X5.9205Y-3.6162
X5.9677Y-3.817
T5
X6.1433Y-4.5594
X6.1433Y-4.6594
X6.1433Y-4.7594
T6
X4.6533Y-3.3782
X4.8896Y-2.8192
X5.1278Y-3.3763
T7
X4.6713Y-3.7079
X4.8713Y-3.7079
X5.1295Y-3.7039
X5.3295Y-3.7039
X5.5295Y-3.7039
X5.7295Y-3.7039
T0
M30
